<svg version="1.1" viewBox="0.0 0.0 960.0 540.0" fill="none" stroke="none" stroke-linecap="square" stroke-miterlimit="10" xmlns:xlink="http://www.w3.org/1999/xlink" xmlns="http://www.w3.org/2000/svg"><clipPath id="gaa1f3a2d68_0_239.0"><path d="m0 0l960.0 0l0 540.0l-960.0 0l0 -540.0z" clip-rule="nonzero"/></clipPath><g clip-path="url(#gaa1f3a2d68_0_239.0)"><path fill="#ffffff" d="m0 0l960.0 0l0 540.0l-960.0 0z" fill-rule="evenodd"/><path fill="#4f4cee" d="m628.0761 -0.30971128l352.72443 0l0 541.3858l-352.72443 0z" fill-rule="evenodd"/><path fill="#000000" fill-opacity="0.0" d="m58.63559 128.7795l0 0c0 -53.115013 46.992477 -96.17323 104.96063 -96.17323l0 0c57.968155 0 104.96063 43.05822 104.96063 96.17323l0 0c0 53.115005 -46.992477 96.17322 -104.96063 96.17322l0 0c-57.968155 0 -104.96063 -43.058212 -104.96063 -96.17322z" fill-rule="evenodd"/><path stroke="#000000" stroke-width="4.0" stroke-linejoin="round" stroke-linecap="butt" stroke-dasharray="32.0,12.0" d="m58.63559 128.7795l0 0c0 -53.115013 46.992477 -96.17323 104.96063 -96.17323l0 0c57.968155 0 104.96063 43.05822 104.96063 96.17323l0 0c0 53.115005 -46.992477 96.17322 -104.96063 96.17322l0 0c-57.968155 0 -104.96063 -43.058212 -104.96063 -96.17322z" fill-rule="evenodd"/><path fill="#000000" d="m107.20564 116.99512q0 -2.03125 0.921875 -3.65625q0.921875 -1.640625 2.5 -2.5625q1.59375 -0.921875 3.53125 -0.921875q2.28125 0 3.984375 1.109375q1.703125 1.09375 2.484375 3.109375l-2.1875 0q-0.578125 -1.25 -1.671875 -1.921875q-1.078125 -0.6875 -2.609375 -0.6875q-1.453125 0 -2.609375 0.6875q-1.15625 0.671875 -1.828125 1.921875q-0.65625 1.25 -0.65625 2.921875q0 1.671875 0.65625 2.921875q0.671875 1.25 1.828125 1.9375q1.15625 0.671875 2.609375 0.671875q1.53125 0 2.609375 -0.671875q1.09375 -0.671875 1.671875 -1.9375l2.1875 0q-0.78125 2.0 -2.484375 3.09375q-1.703125 1.09375 -3.984375 1.09375q-1.9375 0 -3.53125 -0.90625q-1.578125 -0.921875 -2.5 -2.53125q-0.921875 -1.625 -0.921875 -3.671875zm20.893112 7.171875q-1.53125 0 -2.78125 -0.703125q-1.25 -0.703125 -1.96875 -1.984375q-0.703125 -1.296875 -0.703125 -3.0q0 -1.6875 0.71875 -2.96875q0.734375 -1.296875 2.0 -1.984375q1.265625 -0.6875 2.828125 -0.6875q1.546875 0 2.8125 0.6875q1.265625 0.6875 1.984375 1.96875q0.734375 1.28125 0.734375 2.984375q0 1.703125 -0.75 3.0q-0.75 1.28125 -2.03125 1.984375q-1.28125 0.703125 -2.84375 0.703125zm0 -1.609375q0.984375 0 1.84375 -0.453125q0.859375 -0.46875 1.390625 -1.390625q0.53125 -0.921875 0.53125 -2.234375q0 -1.3125 -0.515625 -2.234375q-0.515625 -0.921875 -1.359375 -1.375q-0.84375 -0.453125 -1.828125 -0.453125q-1.0 0 -1.828125 0.453125q-0.828125 0.453125 -1.328125 1.375q-0.5 0.921875 -0.5 2.234375q0 1.34375 0.484375 2.265625q0.5 0.921875 1.3125 1.375q0.828125 0.4375 1.796875 0.4375zm21.206238 -9.734375q1.28125 0 2.28125 0.53125q1.0 0.53125 1.578125 1.59375q0.578125 1.046875 0.578125 2.578125l0 6.453125l-1.796875 0l0 -6.203125q0 -1.640625 -0.8125 -2.5q-0.8125 -0.875 -2.1875 -0.875q-1.421875 0 -2.265625 0.90625q-0.828125 0.90625 -0.828125 2.625l0 6.046875l-1.8125 0l0 -6.203125q0 -1.640625 -0.8125 -2.5q-0.796875 -0.875 -2.1875 -0.875q-1.40625 0 -2.25 0.90625q-0.84375 0.90625 -0.84375 2.625l0 6.046875l-1.8125 0l0 -10.953125l1.8125 0l0 1.578125q0.546875 -0.859375 1.453125 -1.3125q0.90625 -0.46875 2.0 -0.46875q1.390625 0 2.4375 0.625q1.0625 0.609375 1.59375 1.8125q0.453125 -1.15625 1.515625 -1.796875q1.0625 -0.640625 2.359375 -0.640625zm9.240601 2.21875q0.546875 -0.9375 1.609375 -1.5625q1.078125 -0.640625 2.484375 -0.640625q1.46875 0 2.65625 0.703125q1.1875 0.703125 1.859375 1.96875q0.6875 1.265625 0.6875 2.953125q0 1.65625 -0.6875 2.953125q-0.671875 1.296875 -1.859375 2.03125q-1.1875 0.71875 -2.65625 0.71875q-1.390625 0 -2.46875 -0.625q-1.0625 -0.640625 -1.625 -1.578125l0 7.21875l-1.8125 0l0 -16.15625l1.8125 0l0 2.015625zm7.4375 3.421875q0 -1.25 -0.5 -2.15625q-0.5 -0.921875 -1.359375 -1.40625q-0.84375 -0.484375 -1.859375 -0.484375q-1.0 0 -1.859375 0.5q-0.84375 0.484375 -1.359375 1.421875q-0.5 0.921875 -0.5 2.140625q0 1.234375 0.5 2.171875q0.515625 0.921875 1.359375 1.421875q0.859375 0.484375 1.859375 0.484375q1.015625 0 1.859375 -0.484375q0.859375 -0.5 1.359375 -1.421875q0.5 -0.9375 0.5 -2.1875zm14.269989 -0.390625q0 0.53125 -0.0625 1.109375l-8.765625 0q0.09375 1.609375 1.109375 2.53125q1.015625 0.90625 2.453125 0.90625q1.171875 0 1.96875 -0.546875q0.796875 -0.546875 1.109375 -1.46875l1.953125 0q-0.4375 1.578125 -1.765625 2.578125q-1.3125 0.984375 -3.265625 0.984375q-1.5625 0 -2.796875 -0.703125q-1.21875 -0.703125 -1.921875 -1.984375q-0.703125 -1.296875 -0.703125 -3.0q0 -1.703125 0.671875 -2.984375q0.6875 -1.28125 1.921875 -1.96875q1.234375 -0.6875 2.828125 -0.6875q1.5625 0 2.75 0.6875q1.203125 0.671875 1.859375 1.859375q0.65625 1.1875 0.65625 2.6875zm-1.890625 -0.375q0 -1.03125 -0.46875 -1.78125q-0.453125 -0.75 -1.25 -1.140625q-0.78125 -0.390625 -1.734375 -0.390625q-1.390625 0 -2.359375 0.875q-0.96875 0.875 -1.109375 2.4375l6.921875 0zm6.509369 -3.171875l0 6.453125q0 0.796875 0.328125 1.125q0.34375 0.328125 1.1875 0.328125l1.34375 0l0 1.546875l-1.640625 0q-1.53125 0 -2.296875 -0.703125q-0.75 -0.703125 -0.75 -2.296875l0 -6.453125l-1.421875 0l0 -1.5l1.421875 0l0 -2.765625l1.828125 0l0 2.765625l2.859375 0l0 1.5l-2.859375 0zm5.998749 -3.28125q-0.53125 0 -0.890625 -0.359375q-0.359375 -0.359375 -0.359375 -0.890625q0 -0.515625 0.359375 -0.875q0.359375 -0.359375 0.890625 -0.359375q0.5 0 0.84375 0.359375q0.359375 0.359375 0.359375 0.875q0 0.53125 -0.359375 0.890625q-0.34375 0.359375 -0.84375 0.359375zm0.875 1.78125l0 10.953125l-1.8125 0l0 -10.953125l1.8125 0zm5.326248 1.5l0 6.453125q0 0.796875 0.328125 1.125q0.34375 0.328125 1.1875 0.328125l1.34375 0l0 1.546875l-1.640625 0q-1.53125 0 -2.296875 -0.703125q-0.75 -0.703125 -0.75 -2.296875l0 -6.453125l-1.421875 0l0 -1.5l1.421875 0l0 -2.765625l1.828125 0l0 2.765625l2.859375 0l0 1.5l-2.859375 0zm9.826874 9.640625q-1.53125 0 -2.78125 -0.703125q-1.25 -0.703125 -1.96875 -1.984375q-0.703125 -1.296875 -0.703125 -3.0q0 -1.6875 0.71875 -2.96875q0.734375 -1.296875 2.0 -1.984375q1.265625 -0.6875 2.828125 -0.6875q1.546875 0 2.8125 0.6875q1.265625 0.6875 1.984375 1.96875q0.734375 1.28125 0.734375 2.984375q0 1.703125 -0.75 3.0q-0.75 1.28125 -2.03125 1.984375q-1.28125 0.703125 -2.84375 0.703125zm0 -1.609375q0.984375 0 1.84375 -0.453125q0.859375 -0.46875 1.390625 -1.390625q0.53125 -0.921875 0.53125 -2.234375q0 -1.3125 -0.515625 -2.234375q-0.515625 -0.921875 -1.359375 -1.375q-0.84375 -0.453125 -1.828125 -0.453125q-1.0 0 -1.828125 0.453125q-0.828125 0.453125 -1.328125 1.375q-0.5 0.921875 -0.5 2.234375q0 1.34375 0.484375 2.265625q0.5 0.921875 1.3125 1.375q0.828125 0.4375 1.796875 0.4375zm9.846863 -7.765625q0.484375 -0.9375 1.375 -1.453125q0.890625 -0.515625 2.171875 -0.515625l0 1.875l-0.484375 0q-3.0625 0 -3.0625 3.328125l0 5.953125l-1.8125 0l0 -10.953125l1.8125 0l0 1.765625z" fill-rule="nonzero"/><path fill="#000000" d="m132.48752 144.88574l-6.0781326 0l-1.125 3.09375l-1.921875 0l5.0468826 -13.859375l2.09375 0l5.015625 13.859375l-1.90625 0l-1.125 -3.09375zm-0.515625 -1.484375l-2.53125 -7.046875l-2.5156326 7.046875l5.0468826 0zm11.089355 -6.578125q2.0 0 3.234375 1.21875q1.25 1.203125 1.25 3.484375l0 6.453125l-1.796875 0l0 -6.203125q0 -1.640625 -0.828125 -2.5q-0.8125 -0.875 -2.234375 -0.875q-1.4375 0 -2.296875 0.90625q-0.84375 0.890625 -0.84375 2.609375l0 6.0625l-1.8125 0l0 -10.953125l1.8125 0l0 1.546875q0.546875 -0.828125 1.46875 -1.28125q0.9375 -0.46875 2.046875 -0.46875zm6.784363 5.640625q0 -1.6875 0.671875 -2.953125q0.6875 -1.265625 1.875 -1.96875q1.1875 -0.703125 2.65625 -0.703125q1.4375 0 2.5 0.625q1.0625 0.609375 1.578125 1.5625l0 -2.0l1.84375 0l0 10.953125l-1.84375 0l0 -2.046875q-0.546875 0.96875 -1.625 1.609375q-1.0625 0.625 -2.46875 0.625q-1.46875 0 -2.65625 -0.71875q-1.171875 -0.734375 -1.859375 -2.03125q-0.671875 -1.296875 -0.671875 -2.953125zm9.28125 0.015625q0 -1.234375 -0.5 -2.15625q-0.5 -0.921875 -1.359375 -1.40625q-0.84375 -0.5 -1.859375 -0.5q-1.015625 0 -1.859375 0.484375q-0.84375 0.484375 -1.34375 1.40625q-0.5 0.90625 -0.5 2.15625q0 1.25 0.5 2.1875q0.5 0.921875 1.34375 1.421875q0.84375 0.484375 1.859375 0.484375q1.015625 0 1.859375 -0.484375q0.859375 -0.5 1.359375 -1.421875q0.5 -0.9375 0.5 -2.171875zm6.738739 -9.296875l0 14.796875l-1.8125 0l0 -14.796875l1.8125 0zm12.544998 3.84375l-6.609375 16.109375l-1.875 0l2.15625 -5.28125l-4.421875 -10.828125l2.03125 0l3.4375 8.875l3.390625 -8.875l1.890625 0zm5.6974945 11.140625q-1.265625 0 -2.265625 -0.4375q-1.0 -0.4375 -1.578125 -1.203125q-0.578125 -0.765625 -0.640625 -1.765625l1.875 0q0.09375 0.8125 0.78125 1.34375q0.6875 0.515625 1.8125 0.515625q1.03125 0 1.625 -0.453125q0.609375 -0.46875 0.609375 -1.171875q0 -0.71875 -0.640625 -1.0625q-0.640625 -0.359375 -1.984375 -0.6875q-1.21875 -0.328125 -1.984375 -0.65625q-0.765625 -0.328125 -1.328125 -0.96875q-0.546875 -0.65625 -0.546875 -1.71875q0 -0.84375 0.5 -1.53125q0.5 -0.703125 1.421875 -1.109375q0.921875 -0.421875 2.109375 -0.421875q1.8125 0 2.921875 0.921875q1.125 0.921875 1.203125 2.515625l-1.8125 0q-0.0625 -0.859375 -0.6875 -1.375q-0.625 -0.515625 -1.6875 -0.515625q-0.984375 0 -1.5625 0.421875q-0.578125 0.40625 -0.578125 1.09375q0 0.53125 0.34375 0.890625q0.359375 0.34375 0.875 0.5625q0.53125 0.203125 1.484375 0.46875q1.171875 0.3125 1.90625 0.625q0.75 0.3125 1.28125 0.9375q0.53125 0.609375 0.546875 1.609375q0 0.90625 -0.5 1.625q-0.5 0.71875 -1.421875 1.140625q-0.90625 0.40625 -2.078125 0.40625zm7.502487 -12.921875q-0.53125 0 -0.890625 -0.359375q-0.359375 -0.359375 -0.359375 -0.890625q0 -0.515625 0.359375 -0.875q0.359375 -0.359375 0.890625 -0.359375q0.5 0 0.84375 0.359375q0.359375 0.359375 0.359375 0.875q0 0.53125 -0.359375 0.890625q-0.34375 0.359375 -0.84375 0.359375zm0.875 1.78125l0 10.953125l-1.8125 0l0 -10.953125l1.8125 0zm6.982498 11.140625q-1.265625 0 -2.265625 -0.4375q-1.0 -0.4375 -1.578125 -1.203125q-0.578125 -0.765625 -0.640625 -1.765625l1.875 0q0.09375 0.8125 0.78125 1.34375q0.6875 0.515625 1.8125 0.515625q1.03125 0 1.625 -0.453125q0.609375 -0.46875 0.609375 -1.171875q0 -0.71875 -0.640625 -1.0625q-0.640625 -0.359375 -1.984375 -0.6875q-1.21875 -0.328125 -1.984375 -0.65625q-0.765625 -0.328125 -1.328125 -0.96875q-0.546875 -0.65625 -0.546875 -1.71875q0 -0.84375 0.5 -1.53125q0.5 -0.703125 1.421875 -1.109375q0.921875 -0.421875 2.109375 -0.421875q1.8125 0 2.921875 0.921875q1.125 0.921875 1.203125 2.515625l-1.8125 0q-0.0625 -0.859375 -0.6875 -1.375q-0.625 -0.515625 -1.6875 -0.515625q-0.984375 0 -1.5625 0.421875q-0.578125 0.40625 -0.578125 1.09375q0 0.53125 0.34375 0.890625q0.359375 0.34375 0.875 0.5625q0.53125 0.203125 1.484375 0.46875q1.171875 0.3125 1.90625 0.625q0.75 0.3125 1.28125 0.9375q0.53125 0.609375 0.546875 1.609375q0 0.90625 -0.5 1.625q-0.5 0.71875 -1.421875 1.140625q-0.90625 0.40625 -2.078125 0.40625z" fill-rule="nonzero"/><path fill="#000000" fill-opacity="0.0" d="m218.03741 293.764l0 0c0 -53.11502 46.992493 -96.17323 104.96063 -96.17323l0 0c57.96817 0 104.96063 43.058212 104.96063 96.17323l0 0c0 53.11499 -46.992462 96.17322 -104.96063 96.17322l0 0c-57.96814 0 -104.96063 -43.058228 -104.96063 -96.17322z" fill-rule="evenodd"/><path stroke="#000000" stroke-width="4.0" stroke-linejoin="round" stroke-linecap="butt" stroke-dasharray="32.0,12.0" d="m218.03741 293.764l0 0c0 -53.11502 46.992493 -96.17323 104.96063 -96.17323l0 0c57.96817 0 104.96063 43.058212 104.96063 96.17323l0 0c0 53.11499 -46.992462 96.17322 -104.96063 96.17322l0 0c-57.96814 0 -104.96063 -43.058228 -104.96063 -96.17322z" fill-rule="evenodd"/><path fill="#000000" d="m304.41058 275.0265l0 8.8125q0 1.859375 0.90625 2.765625q0.921875 0.90625 2.546875 0.90625q1.59375 0 2.5 -0.90625q0.921875 -0.90625 0.921875 -2.765625l0 -8.8125l1.8125 0l0 8.796875q0 1.734375 -0.703125 2.9375q-0.703125 1.1875 -1.890625 1.765625q-1.1875 0.578125 -2.671875 0.578125q-1.46875 0 -2.671875 -0.578125q-1.1875 -0.578125 -1.875 -1.765625q-0.6875 -1.203125 -0.6875 -2.9375l0 -8.796875l1.8125 0zm15.6093445 14.125q-1.265625 0 -2.265625 -0.4375q-1.0 -0.4375 -1.578125 -1.203125q-0.578125 -0.765625 -0.640625 -1.765625l1.875 0q0.09375 0.8125 0.78125 1.34375q0.6875 0.515625 1.8125 0.515625q1.03125 0 1.625 -0.453125q0.609375 -0.46875 0.609375 -1.171875q0 -0.71875 -0.640625 -1.0625q-0.640625 -0.359375 -1.984375 -0.6875q-1.21875 -0.328125 -1.984375 -0.65625q-0.765625 -0.328125 -1.328125 -0.96875q-0.546875 -0.65625 -0.546875 -1.71875q0 -0.84375 0.5 -1.53125q0.5 -0.703125 1.421875 -1.109375q0.921875 -0.421875 2.109375 -0.421875q1.8125 0 2.921875 0.921875q1.125 0.921875 1.203125 2.515625l-1.8125 0q-0.0625 -0.859375 -0.6875 -1.375q-0.625 -0.515625 -1.6875 -0.515625q-0.984375 0 -1.5625 0.421875q-0.578125 0.40625 -0.578125 1.09375q0 0.53125 0.34375 0.890625q0.359375 0.34375 0.875 0.5625q0.53125 0.203125 1.484375 0.46875q1.171875 0.3125 1.90625 0.625q0.75 0.3125 1.28125 0.9375q0.53125 0.609375 0.546875 1.609375q0 0.90625 -0.5 1.625q-0.5 0.71875 -1.421875 1.140625q-0.90625 0.40625 -2.078125 0.40625zm16.565002 -6.09375q0 0.53125 -0.0625 1.109375l-8.765625 0q0.09375 1.609375 1.109375 2.53125q1.015625 0.90625 2.453125 0.90625q1.171875 0 1.96875 -0.546875q0.796875 -0.546875 1.109375 -1.46875l1.953125 0q-0.4375 1.578125 -1.765625 2.578125q-1.3125 0.984375 -3.265625 0.984375q-1.5625 0 -2.796875 -0.703125q-1.21875 -0.703125 -1.921875 -1.984375q-0.703125 -1.296875 -0.703125 -3.0q0 -1.703125 0.671875 -2.984375q0.6875 -1.28125 1.921875 -1.96875q1.234375 -0.6875 2.828125 -0.6875q1.5625 0 2.75 0.6875q1.203125 0.671875 1.859375 1.859375q0.65625 1.1875 0.65625 2.6875zm-1.890625 -0.375q0 -1.03125 -0.46875 -1.78125q-0.453125 -0.75 -1.25 -1.140625q-0.78125 -0.390625 -1.734375 -0.390625q-1.390625 0 -2.359375 0.875q-0.96875 0.875 -1.109375 2.4375l6.921875 0zm6.103119 -2.90625q0.484375 -0.9375 1.375 -1.453125q0.890625 -0.515625 2.171875 -0.515625l0 1.875l-0.484375 0q-3.0625 0 -3.0625 3.328125l0 5.953125l-1.8125 0l0 -10.953125l1.8125 0l0 1.765625z" fill-rule="nonzero"/><path fill="#000000" d="m281.45746 299.0265l0 13.9375l-1.8125 0l0 -13.9375l1.8125 0zm8.435638 2.78125q2.0 0 3.234375 1.21875q1.25 1.203125 1.25 3.484375l0 6.453125l-1.796875 0l0 -6.203125q0 -1.640625 -0.828125 -2.5q-0.8125 -0.875 -2.234375 -0.875q-1.4375 0 -2.296875 0.90625q-0.84375 0.890625 -0.84375 2.609375l0 6.0625l-1.8125 0l0 -10.953125l1.8125 0l0 1.546875q0.546875 -0.828125 1.46875 -1.28125q0.9375 -0.46875 2.046875 -0.46875zm9.690613 1.703125l0 6.453125q0 0.796875 0.328125 1.125q0.34375 0.328125 1.1875 0.328125l1.34375 0l0 1.546875l-1.640625 0q-1.53125 0 -2.296875 -0.703125q-0.75 -0.703125 -0.75 -2.296875l0 -6.453125l-1.421875 0l0 -1.5l1.421875 0l0 -2.765625l1.828125 0l0 2.765625l2.859375 0l0 1.5l-2.859375 0zm15.061249 3.546875q0 0.53125 -0.0625 1.109375l-8.765625 0q0.09375 1.609375 1.109375 2.53125q1.015625 0.90625 2.453125 0.90625q1.171875 0 1.96875 -0.546875q0.796875 -0.546875 1.109375 -1.46875l1.953125 0q-0.4375 1.578125 -1.765625 2.578125q-1.3125 0.984375 -3.265625 0.984375q-1.5625 0 -2.796875 -0.703125q-1.21875 -0.703125 -1.921875 -1.984375q-0.703125 -1.296875 -0.703125 -3.0q0 -1.703125 0.671875 -2.984375q0.6875 -1.28125 1.921875 -1.96875q1.234375 -0.6875 2.828125 -0.6875q1.5625 0 2.75 0.6875q1.203125 0.671875 1.859375 1.859375q0.65625 1.1875 0.65625 2.6875zm-1.890625 -0.375q0 -1.03125 -0.46875 -1.78125q-0.453125 -0.75 -1.25 -1.140625q-0.78125 -0.390625 -1.734375 -0.390625q-1.390625 0 -2.359375 0.875q-0.96875 0.875 -1.109375 2.4375l6.921875 0zm6.103119 -2.90625q0.484375 -0.9375 1.375 -1.453125q0.890625 -0.515625 2.171875 -0.515625l0 1.875l-0.484375 0q-3.0625 0 -3.0625 3.328125l0 5.953125l-1.8125 0l0 -10.953125l1.8125 0l0 1.765625zm9.725616 7.5l3.390625 -9.265625l1.9375 0l-4.296875 10.953125l-2.109375 0l-4.3125 -10.953125l1.96875 0l3.421875 9.265625zm8.079346 -11.046875q-0.53125 0 -0.890625 -0.359375q-0.359375 -0.359375 -0.359375 -0.890625q0 -0.515625 0.359375 -0.875q0.359375 -0.359375 0.890625 -0.359375q0.5 0 0.84375 0.359375q0.359375 0.359375 0.359375 0.875q0 0.53125 -0.359375 0.890625q-0.34375 0.359375 -0.84375 0.359375zm0.875 1.78125l0 10.953125l-1.8125 0l0 -10.953125l1.8125 0zm13.107513 5.046875q0 0.53125 -0.0625 1.109375l-8.765625 0q0.09375 1.609375 1.109375 2.53125q1.015625 0.90625 2.453125 0.90625q1.171875 0 1.96875 -0.546875q0.796875 -0.546875 1.109375 -1.46875l1.953125 0q-0.4375 1.578125 -1.765625 2.578125q-1.3125 0.984375 -3.265625 0.984375q-1.5625 0 -2.796875 -0.703125q-1.21875 -0.703125 -1.921875 -1.984375q-0.703125 -1.296875 -0.703125 -3.0q0 -1.703125 0.671875 -2.984375q0.6875 -1.28125 1.921875 -1.96875q1.234375 -0.6875 2.828125 -0.6875q1.5625 0 2.75 0.6875q1.203125 0.671875 1.859375 1.859375q0.65625 1.1875 0.65625 2.6875zm-1.890625 -0.375q0 -1.03125 -0.46875 -1.78125q-0.453125 -0.75 -1.25 -1.140625q-0.78125 -0.390625 -1.734375 -0.390625q-1.390625 0 -2.359375 0.875q-0.96875 0.875 -1.109375 2.4375l6.921875 0zm18.884369 -4.671875l-3.421875 10.953125l-1.875 0l-2.640625 -8.703125l-2.640625 8.703125l-1.875 0l-3.453125 -10.953125l1.859375 0l2.53125 9.1875l2.71875 -9.1875l1.859375 0l2.65625 9.21875l2.484375 -9.21875l1.796875 0z" fill-rule="nonzero"/><path fill="#000000" fill-opacity="0.0" d="m414.69855 424.47482l0 0c0 -53.11499 46.992493 -96.17322 104.96063 -96.17322l0 0c57.96814 0 104.96063 43.058228 104.96063 96.17322l0 0c0 53.11502 -46.992493 96.17325 -104.96063 96.17325l0 0c-57.96814 0 -104.96063 -43.058228 -104.96063 -96.17325z" fill-rule="evenodd"/><path stroke="#000000" stroke-width="4.0" stroke-linejoin="round" stroke-linecap="butt" stroke-dasharray="32.0,12.0" d="m414.69855 424.47482l0 0c0 -53.11499 46.992493 -96.17322 104.96063 -96.17322l0 0c57.96814 0 104.96063 43.058228 104.96063 96.17322l0 0c0 53.11502 -46.992493 96.17325 -104.96063 96.17325l0 0c-57.96814 0 -104.96063 -43.058228 -104.96063 -96.17325z" fill-rule="evenodd"/><path fill="#000000" d="m492.7686 407.2217l0 4.65625l5.078125 0l0 1.5l-5.078125 0l0 4.796875l5.6875 0l0 1.5l-7.5 0l0 -13.953125l7.5 0l0 1.5l-5.6875 0zm14.166229 12.453125l-2.609375 -4.078125l-2.5 4.078125l-1.890625 0l3.53125 -5.4375l-3.53125 -5.515625l2.046875 0l2.609375 4.046875l2.484375 -4.046875l1.890625 0l-3.515625 5.40625l3.53125 5.546875l-2.046875 0zm5.673767 -8.9375q0.546875 -0.9375 1.609375 -1.5625q1.078125 -0.640625 2.484375 -0.640625q1.46875 0 2.65625 0.703125q1.1875 0.703125 1.859375 1.96875q0.6875 1.265625 0.6875 2.953125q0 1.65625 -0.6875 2.953125q-0.671875 1.296875 -1.859375 2.03125q-1.1875 0.71875 -2.65625 0.71875q-1.390625 0 -2.46875 -0.625q-1.0625 -0.640625 -1.625 -1.578125l0 7.21875l-1.8125305 0l0 -16.15625l1.8125305 0l0 2.015625zm7.4375 3.421875q0 -1.25 -0.5 -2.15625q-0.5 -0.921875 -1.359375 -1.40625q-0.84375 -0.484375 -1.859375 -0.484375q-1.0 0 -1.859375 0.5q-0.84375 0.484375 -1.359375 1.421875q-0.5 0.921875 -0.5 2.140625q0 1.234375 0.5 2.171875q0.515625 0.921875 1.359375 1.421875q0.859375 0.484375 1.859375 0.484375q1.015625 0 1.859375 -0.484375q0.859375 -0.5 1.359375 -1.421875q0.5 -0.9375 0.5 -2.1875zm14.2699585 -0.390625q0 0.53125 -0.0625 1.109375l-8.765625 0q0.09375 1.609375 1.109375 2.53125q1.015625 0.90625 2.453125 0.90625q1.171875 0 1.96875 -0.546875q0.796875 -0.546875 1.109375 -1.46875l1.953125 0q-0.4375 1.578125 -1.765625 2.578125q-1.3125 0.984375 -3.265625 0.984375q-1.5625 0 -2.796875 -0.703125q-1.21875 -0.703125 -1.921875 -1.984375q-0.703125 -1.296875 -0.703125 -3.0q0 -1.703125 0.671875 -2.984375q0.6875 -1.28125 1.921875 -1.96875q1.234375 -0.6875 2.828125 -0.6875q1.5625 0 2.75 0.6875q1.203125 0.671875 1.859375 1.859375q0.65625 1.1875 0.65625 2.6875zm-1.890625 -0.375q0 -1.03125 -0.46875 -1.78125q-0.453125 -0.75 -1.25 -1.140625q-0.78125 -0.390625 -1.734375 -0.390625q-1.390625 0 -2.359375 0.875q-0.96875 0.875 -1.109375 2.4375l6.921875 0zm6.1031494 -2.90625q0.484375 -0.9375 1.375 -1.453125q0.890625 -0.515625 2.171875 -0.515625l0 1.875l-0.484375 0q-3.0625 0 -3.0625 3.328125l0 5.953125l-1.8125 0l0 -10.953125l1.8125 0l0 1.765625zm7.866211 -0.265625l0 6.453125q0 0.796875 0.328125 1.125q0.34375 0.328125 1.1875 0.328125l1.34375 0l0 1.546875l-1.640625 0q-1.53125 0 -2.296875 -0.703125q-0.75 -0.703125 -0.75 -2.296875l0 -6.453125l-1.421875 0l0 -1.5l1.421875 0l0 -2.765625l1.828125 0l0 2.765625l2.859375 0l0 1.5l-2.859375 0z" fill-rule="nonzero"/><path fill="#000000" d="m478.1186 429.73734l0 13.9375l-1.8125 0l0 -13.9375l1.8125 0zm8.435638 2.78125q2.0 0 3.234375 1.21875q1.25 1.203125 1.25 3.484375l0 6.453125l-1.796875 0l0 -6.203125q0 -1.640625 -0.828125 -2.5q-0.8125 -0.875 -2.234375 -0.875q-1.4375 0 -2.296875 0.90625q-0.84375 0.890625 -0.84375 2.609375l0 6.0625l-1.8125 0l0 -10.953125l1.8125 0l0 1.546875q0.546875 -0.828125 1.46875 -1.28125q0.9375 -0.46875 2.046875 -0.46875zm9.690613 1.703125l0 6.453125q0 0.796875 0.328125 1.125q0.34375 0.328125 1.1875 0.328125l1.34375 0l0 1.546875l-1.640625 0q-1.53125 0 -2.296875 -0.703125q-0.75 -0.703125 -0.75 -2.296875l0 -6.453125l-1.421875 0l0 -1.5l1.421875 0l0 -2.765625l1.828125 0l0 2.765625l2.859375 0l0 1.5l-2.859375 0zm15.061249 3.546875q0 0.53125 -0.0625 1.109375l-8.765625 0q0.09375 1.609375 1.109375 2.53125q1.015625 0.90625 2.453125 0.90625q1.171875 0 1.96875 -0.546875q0.796875 -0.546875 1.109375 -1.46875l1.953125 0q-0.4375 1.578125 -1.765625 2.578125q-1.3125 0.984375 -3.265625 0.984375q-1.5625 0 -2.796875 -0.703125q-1.21875 -0.703125 -1.921875 -1.984375q-0.703125 -1.296875 -0.703125 -3.0q0 -1.703125 0.671875 -2.984375q0.6875 -1.28125 1.921875 -1.96875q1.234375 -0.6875 2.828125 -0.6875q1.5625 0 2.75 0.6875q1.203125 0.671875 1.859375 1.859375q0.65625 1.1875 0.65625 2.6875zm-1.890625 -0.375q0 -1.03125 -0.46875 -1.78125q-0.453125 -0.75 -1.25 -1.140625q-0.78125 -0.390625 -1.734375 -0.390625q-1.390625 0 -2.359375 0.875q-0.96875 0.875 -1.109375 2.4375l6.921875 0zm6.1030884 -2.90625q0.484375 -0.9375 1.375 -1.453125q0.890625 -0.515625 2.171875 -0.515625l0 1.875l-0.484375 0q-3.0625 0 -3.0625 3.328125l0 5.953125l-1.8125 0l0 -10.953125l1.8125 0l0 1.765625zm9.725647 7.5l3.390625 -9.265625l1.9375 0l-4.296875 10.953125l-2.109375 0l-4.3125 -10.953125l1.96875 0l3.421875 9.265625zm8.079346 -11.046875q-0.53125 0 -0.890625 -0.359375q-0.359375 -0.359375 -0.359375 -0.890625q0 -0.515625 0.359375 -0.875q0.359375 -0.359375 0.890625 -0.359375q0.5 0 0.84375 0.359375q0.359375 0.359375 0.359375 0.875q0 0.53125 -0.359375 0.890625q-0.34375 0.359375 -0.84375 0.359375zm0.875 1.78125l0 10.953125l-1.8125 0l0 -10.953125l1.8125 0zm13.107483 5.046875q0 0.53125 -0.0625 1.109375l-8.765625 0q0.09375 1.609375 1.109375 2.53125q1.015625 0.90625 2.453125 0.90625q1.171875 0 1.96875 -0.546875q0.796875 -0.546875 1.109375 -1.46875l1.953125 0q-0.4375 1.578125 -1.765625 2.578125q-1.3125 0.984375 -3.265625 0.984375q-1.5625 0 -2.796875 -0.703125q-1.21875 -0.703125 -1.921875 -1.984375q-0.703125 -1.296875 -0.703125 -3.0q0 -1.703125 0.671875 -2.984375q0.6875 -1.28125 1.921875 -1.96875q1.234375 -0.6875 2.828125 -0.6875q1.5625 0 2.75 0.6875q1.203125 0.671875 1.859375 1.859375q0.65625 1.1875 0.65625 2.6875zm-1.890625 -0.375q0 -1.03125 -0.46875 -1.78125q-0.453125 -0.75 -1.25 -1.140625q-0.78125 -0.390625 -1.734375 -0.390625q-1.390625 0 -2.359375 0.875q-0.96875 0.875 -1.109375 2.4375l6.921875 0zm18.8844 -4.671875l-3.421875 10.953125l-1.875 0l-2.640625 -8.703125l-2.640625 8.703125l-1.875 0l-3.453125 -10.953125l1.859375 0l2.53125 9.1875l2.71875 -9.1875l1.859375 0l2.65625 9.21875l2.484375 -9.21875l1.796875 0z" fill-rule="nonzero"/><path fill="#000000" fill-opacity="0.0" d="m628.0761 216.66144l352.72443 0l0 82.74017l-352.72443 0z" fill-rule="evenodd"/><path fill="#ffffff" d="m719.3881 266.62143l-6.234375 -11.29686l-1.75 0l0 11.29686l-7.296875 0l0 -29.937485l12.25 0q3.53125 0 6.03125 1.234375q2.5 1.234375 3.734375 3.390625q1.234375 2.15625 1.234375 4.796875q0 2.984375 -1.6875 5.328125q-1.6875 2.34375 -4.96875 3.328125l6.90625 11.85936l-8.21875 0zm-7.984375 -16.468735l4.515625 0q2.015625 0 3.015625 -0.96875q1.0 -0.984375 1.0 -2.78125q0 -1.703125 -1.0 -2.6875q-1.0 -0.984375 -3.015625 -0.984375l-4.515625 0l0 7.421875zm42.952454 4.1875q0 1.015625 -0.125 2.1249847l-16.5 0q0.15625 2.21875 1.421875 3.390625q1.265625 1.171875 3.09375 1.171875q2.734375 0 3.796875 -2.296875l7.765625 0q-0.59375 2.34375 -2.15625 4.21875q-1.5625 1.875 -3.90625 2.953125q-2.34375 1.0625 -5.25 1.0625q-3.5 0 -6.234375 -1.484375q-2.71875 -1.5 -4.265625 -4.265625q-1.53125 -2.78125 -1.53125 -6.4999847q0 -3.703125 1.515625 -6.46875q1.515625 -2.78125 4.25 -4.265625q2.734375 -1.5 6.265625 -1.5q3.453125 0 6.140625 1.453125q2.6875 1.4375 4.203125 4.125q1.515625 2.6875 1.515625 6.28125zm-7.46875 -1.921875q0 -1.875 -1.28125 -2.984375q-1.265625 -1.109375 -3.1875 -1.109375q-1.84375 0 -3.109375 1.0625q-1.25 1.0625 -1.546875 3.03125l9.125 0zm20.994995 14.54686q-3.109375 0 -5.546875 -1.0625q-2.4375 -1.078125 -3.84375 -2.921875q-1.40625 -1.859375 -1.578125 -4.171875l7.21875 0q0.125 1.25 1.140625 2.015625q1.03125 0.765625 2.53125 0.765625q1.359375 0 2.09375 -0.53125q0.75 -0.53125 0.75 -1.390625q0 -1.03125 -1.0625 -1.515625q-1.0625 -0.484375 -3.453125 -1.09375q-2.5625 -0.59375 -4.265625 -1.2499847q-1.703125 -0.65625 -2.953125 -2.078125q-1.234375 -1.4375 -1.234375 -3.875q0 -2.046875 1.125 -3.734375q1.140625 -1.6875 3.328125 -2.65625q2.203125 -0.984375 5.234375 -0.984375q4.484375 0 7.0625 2.21875q2.578125 2.21875 2.96875 5.890625l-6.75 0q-0.171875 -1.25 -1.09375 -1.96875q-0.90625 -0.71875 -2.390625 -0.71875q-1.28125 0 -1.96875 0.484375q-0.6875 0.484375 -0.6875 1.34375q0 1.015625 1.09375 1.53125q1.09375 0.515625 3.390625 1.03125q2.640625 0.671875 4.296875 1.34375q1.671875 0.65625 2.921875 2.125q1.265625 1.4687347 1.3125 3.9531097q0 2.09375 -1.171875 3.734375q-1.171875 1.640625 -3.375 2.578125q-2.1875 0.9375 -5.09375 0.9375zm36.552185 -12.624985q0 1.015625 -0.125 2.1249847l-16.5 0q0.15625 2.21875 1.421875 3.390625q1.265625 1.171875 3.09375 1.171875q2.734375 0 3.796875 -2.296875l7.765625 0q-0.59375 2.34375 -2.15625 4.21875q-1.5625 1.875 -3.90625 2.953125q-2.34375 1.0625 -5.25 1.0625q-3.5 0 -6.234375 -1.484375q-2.71875 -1.5 -4.265625 -4.265625q-1.53125 -2.78125 -1.53125 -6.4999847q0 -3.703125 1.515625 -6.46875q1.515625 -2.78125 4.25 -4.265625q2.734375 -1.5 6.265625 -1.5q3.453125 0 6.140625 1.453125q2.6875 1.4375 4.203125 4.125q1.515625 2.6875 1.515625 6.28125zm-7.46875 -1.921875q0 -1.875 -1.28125 -2.984375q-1.265625 -1.109375 -3.1875 -1.109375q-1.84375 0 -3.109375 1.0625q-1.25 1.0625 -1.546875 3.03125l9.125 0zm9.854309 2.265625q0 -3.671875 1.390625 -6.4375q1.390625 -2.78125 3.78125 -4.265625q2.390625 -1.5 5.328125 -1.5q2.515625 0 4.40625 1.03125q1.90625 1.015625 2.9375 2.671875l0 -3.359375l7.28125 0l0 23.79686l-7.28125 0l0 -3.375q-1.078125 1.671875 -2.984375 2.703125q-1.890625 1.015625 -4.40625 1.015625q-2.890625 0 -5.28125 -1.515625q-2.390625 -1.515625 -3.78125 -4.3125q-1.390625 -2.796875 -1.390625 -6.4531097zm17.84375 0.03125q0 -2.71875 -1.515625 -4.296875q-1.515625 -1.578125 -3.6875 -1.578125q-2.1875 0 -3.703125 1.5625q-1.515625 1.546875 -1.515625 4.28125q0 2.7187347 1.515625 4.3281097q1.515625 1.59375 3.703125 1.59375q2.171875 0 3.6875 -1.578125q1.515625 -1.578125 1.515625 -4.3124847zm19.869812 -7.921875q1.28125 -1.96875 3.203125 -3.09375q1.921875 -1.140625 4.265625 -1.140625l0 7.71875l-2.0 0q-2.734375 0 -4.109375 1.1875q-1.359375 1.171875 -1.359375 4.109375l0 11.04686l-7.296875 0l0 -23.79686l7.296875 0l0 3.96875zm9.506836 7.921875q0 -3.703125 1.515625 -6.46875q1.515625 -2.78125 4.21875 -4.265625q2.71875 -1.5 6.21875 -1.5q4.46875 0 7.46875 2.34375q3.015625 2.34375 3.953125 6.609375l-7.75 0q-0.984375 -2.734375 -3.796875 -2.734375q-2.015625 0 -3.21875 1.5625q-1.1875 1.5625 -1.1875 4.453125q0 2.9062347 1.1875 4.4687347q1.203125 1.546875 3.21875 1.546875q2.8125 0 3.796875 -2.71875l7.75 0q-0.9375 4.171875 -3.96875 6.5625q-3.015625 2.390625 -7.453125 2.390625q-3.5 0 -6.21875 -1.484375q-2.703125 -1.5 -4.21875 -4.265625q-1.515625 -2.78125 -1.515625 -6.4999847zm41.900757 -12.15625q4.09375 0 6.5625 2.71875q2.46875 2.703125 2.46875 7.4375l0 13.906235l-7.25 0l0 -12.92186q0 -2.390625 -1.234375 -3.703125q-1.234375 -1.328125 -3.328125 -1.328125q-2.09375 0 -3.328125 1.328125q-1.234375 1.3125 -1.234375 3.703125l0 12.92186l-7.296875 0l0 -31.562485l7.296875 0l0 10.953125q1.109375 -1.578125 3.03125 -2.515625q1.921875 -0.9375 4.3125 -0.9375z" fill-rule="nonzero"/></g></svg>