<svg width="2234" height="719" viewBox="0 0 2234 719" fill="none" xmlns="http://www.w3.org/2000/svg">
<rect width="2234" height="719" fill="white"/>
<g filter="url(#filter0_d)">
<rect x="1663" y="98" width="509" height="522" fill="#7A68EF" fill-opacity="0.73"/>
</g>
<path d="M1707.38 501.624C1707.38 506.64 1711.06 510.144 1715.74 510.144C1719.36 510.144 1722.24 508.344 1723.49 505.128H1720.87C1719.96 507.12 1718.18 508.248 1715.74 508.248C1712.23 508.248 1709.62 505.704 1709.62 501.624C1709.62 497.52 1712.23 494.976 1715.74 494.976C1718.18 494.976 1719.96 496.104 1720.87 498.12H1723.49C1722.24 494.88 1719.36 493.056 1715.74 493.056C1711.06 493.056 1707.38 496.608 1707.38 501.624ZM1739.22 503.4C1739.22 499.248 1736.31 496.632 1732.57 496.632C1728.85 496.632 1725.92 499.248 1725.92 503.4C1725.92 507.576 1728.75 510.216 1732.47 510.216C1736.22 510.216 1739.22 507.576 1739.22 503.4ZM1728.15 503.4C1728.15 500.088 1730.24 498.528 1732.55 498.528C1734.8 498.528 1736.99 500.088 1736.99 503.4C1736.99 506.736 1734.75 508.296 1732.47 508.296C1730.19 508.296 1728.15 506.736 1728.15 503.4ZM1741.27 503.376C1741.27 507.456 1743.99 510.216 1747.51 510.216C1749.91 510.216 1751.62 508.992 1752.41 507.528V510H1754.62V492.24H1752.41V499.2C1751.5 497.688 1749.6 496.632 1747.54 496.632C1743.99 496.632 1741.27 499.272 1741.27 503.376ZM1752.41 503.4C1752.41 506.496 1750.35 508.296 1747.95 508.296C1745.55 508.296 1743.51 506.472 1743.51 503.376C1743.51 500.28 1745.55 498.528 1747.95 498.528C1750.35 498.528 1752.41 500.352 1752.41 503.4ZM1758.31 510H1760.49V496.848H1758.31V510ZM1759.44 494.712C1760.23 494.712 1760.88 494.064 1760.88 493.224C1760.88 492.384 1760.23 491.736 1759.44 491.736C1758.6 491.736 1757.95 492.384 1757.95 493.224C1757.95 494.064 1758.6 494.712 1759.44 494.712ZM1773.84 510H1776V502.248C1776 498.48 1773.67 496.608 1770.62 496.608C1768.85 496.608 1767.26 497.352 1766.4 498.72V496.848H1764.22V510H1766.4V502.728C1766.4 499.896 1767.94 498.504 1770.17 498.504C1772.38 498.504 1773.84 499.872 1773.84 502.56V510ZM1778.75 503.376C1778.75 507.456 1781.46 510.216 1784.99 510.216C1787.39 510.216 1789.09 508.944 1789.89 507.528V510.288C1789.89 513.096 1788.13 514.584 1785.81 514.584C1783.65 514.584 1782.09 513.504 1781.61 511.92H1779.45C1779.88 514.728 1782.35 516.48 1785.81 516.48C1789.67 516.48 1792.09 513.912 1792.09 510.288V496.848H1789.89V499.248C1789.12 497.832 1787.39 496.632 1784.99 496.632C1781.46 496.632 1778.75 499.272 1778.75 503.376ZM1789.89 503.4C1789.89 506.496 1787.82 508.296 1785.42 508.296C1783.02 508.296 1780.98 506.472 1780.98 503.376C1780.98 500.28 1783.02 498.528 1785.42 498.528C1787.82 498.528 1789.89 500.352 1789.89 503.4ZM1802.66 506.4C1802.66 509.04 1803.98 510 1806.31 510H1808.28V508.152H1806.67C1805.33 508.152 1804.85 507.696 1804.85 506.4V498.648H1808.28V496.848H1804.85V493.536H1802.66V496.848H1800.96V498.648H1802.66V506.4ZM1810.93 510H1813.11V502.728C1813.11 499.896 1814.65 498.504 1816.88 498.504C1819.09 498.504 1820.55 499.872 1820.55 502.56V510H1822.71V502.248C1822.71 498.48 1820.38 496.608 1817.45 496.608C1815.61 496.608 1813.97 497.352 1813.11 498.744V492.24H1810.93V510ZM1831.87 498.48C1834.13 498.48 1836.05 499.896 1836.02 502.464H1827.72C1827.96 499.896 1829.73 498.48 1831.87 498.48ZM1838.01 505.944H1835.66C1835.18 507.36 1833.93 508.368 1831.97 508.368C1829.73 508.368 1827.86 506.904 1827.69 504.24H1838.21C1838.25 503.784 1838.28 503.4 1838.28 502.92C1838.28 499.32 1835.78 496.632 1831.97 496.632C1828.13 496.632 1825.46 499.248 1825.46 503.4C1825.46 507.576 1828.22 510.216 1831.97 510.216C1835.23 510.216 1837.34 508.344 1838.01 505.944ZM1846.74 503.376C1846.74 507.456 1849.45 510.216 1852.96 510.216C1855.38 510.216 1857.09 508.968 1857.88 507.552V510H1860.09V496.848H1857.88V499.248C1857.11 497.88 1855.43 496.632 1852.98 496.632C1849.45 496.632 1846.74 499.272 1846.74 503.376ZM1857.88 503.4C1857.88 506.496 1855.81 508.296 1853.41 508.296C1851.01 508.296 1848.97 506.472 1848.97 503.376C1848.97 500.28 1851.01 498.528 1853.41 498.528C1855.81 498.528 1857.88 500.352 1857.88 503.4ZM1865.96 499.272V496.848H1863.78V516.24H1865.96V507.576C1866.78 508.92 1868.48 510.216 1870.88 510.216C1874.41 510.216 1877.12 507.456 1877.12 503.376C1877.12 499.272 1874.41 496.632 1870.88 496.632C1868.48 496.632 1866.75 497.88 1865.96 499.272ZM1874.89 503.376C1874.89 506.472 1872.85 508.296 1870.43 508.296C1868.05 508.296 1865.96 506.496 1865.96 503.4C1865.96 500.352 1868.05 498.528 1870.43 498.528C1872.85 498.528 1874.89 500.28 1874.89 503.376ZM1882.18 499.272V496.848H1880V516.24H1882.18V507.576C1883 508.92 1884.7 510.216 1887.1 510.216C1890.63 510.216 1893.34 507.456 1893.34 503.376C1893.34 499.272 1890.63 496.632 1887.1 496.632C1884.7 496.632 1882.97 497.88 1882.18 499.272ZM1891.11 503.376C1891.11 506.472 1889.07 508.296 1886.64 508.296C1884.27 508.296 1882.18 506.496 1882.18 503.4C1882.18 500.352 1884.27 498.528 1886.64 498.528C1889.07 498.528 1891.11 500.28 1891.11 503.376ZM1902.61 510H1904.8V496.848H1902.61V510ZM1903.74 494.712C1904.53 494.712 1905.18 494.064 1905.18 493.224C1905.18 492.384 1904.53 491.736 1903.74 491.736C1902.9 491.736 1902.25 492.384 1902.25 493.224C1902.25 494.064 1902.9 494.712 1903.74 494.712ZM1918.14 510H1920.3V502.248C1920.3 498.48 1917.98 496.608 1914.93 496.608C1913.15 496.608 1911.57 497.352 1910.7 498.72V496.848H1908.52V510H1910.7V502.728C1910.7 499.896 1912.24 498.504 1914.47 498.504C1916.68 498.504 1918.14 499.872 1918.14 502.56V510ZM1941.14 505.44C1941.14 499.248 1932.12 501.936 1932.12 497.616C1932.12 495.816 1933.53 494.88 1935.33 494.928C1937.37 494.952 1938.43 496.224 1938.57 497.352H1940.97C1940.71 494.808 1938.62 493.056 1935.43 493.056C1932.12 493.056 1929.89 494.928 1929.89 497.688C1929.89 503.904 1938.93 501.024 1938.93 505.536C1938.93 507.12 1937.69 508.32 1935.57 508.32C1933.25 508.32 1932.26 506.928 1932.12 505.536H1929.79C1929.84 508.296 1932.21 510.168 1935.57 510.168C1939.2 510.168 1941.14 507.816 1941.14 505.44ZM1942.8 496.848L1947.96 510H1950.5L1955.66 496.848H1953.33L1949.25 507.984L1945.15 496.848H1942.8ZM1963.4 498.48C1965.66 498.48 1967.58 499.896 1967.55 502.464H1959.25C1959.49 499.896 1961.26 498.48 1963.4 498.48ZM1969.54 505.944H1967.19C1966.71 507.36 1965.46 508.368 1963.5 508.368C1961.26 508.368 1959.39 506.904 1959.22 504.24H1969.74C1969.78 503.784 1969.81 503.4 1969.81 502.92C1969.81 499.32 1967.31 496.632 1963.5 496.632C1959.66 496.632 1956.99 499.248 1956.99 503.4C1956.99 507.576 1959.75 510.216 1963.5 510.216C1966.76 510.216 1968.87 508.344 1969.54 505.944ZM1972.69 510H1974.88V492.24H1972.69V510ZM1979.08 506.4C1979.08 509.04 1980.4 510 1982.73 510H1984.69V508.152H1983.09C1981.74 508.152 1981.26 507.696 1981.26 506.4V498.648H1984.69V496.848H1981.26V493.536H1979.08V496.848H1977.37V498.648H1979.08V506.4ZM1992.93 498.48C1995.19 498.48 1997.11 499.896 1997.08 502.464H1988.78C1989.02 499.896 1990.8 498.48 1992.93 498.48ZM1999.08 505.944H1996.72C1996.24 507.36 1995 508.368 1993.03 508.368C1990.8 508.368 1988.92 506.904 1988.76 504.24H1999.27C1999.32 503.784 1999.34 503.4 1999.34 502.92C1999.34 499.32 1996.84 496.632 1993.03 496.632C1989.19 496.632 1986.52 499.248 1986.52 503.4C1986.52 507.576 1989.28 510.216 1993.03 510.216C1996.29 510.216 1998.4 508.344 1999.08 505.944ZM2000.33 513.432H2001.79L2004.48 506.976H2002.08L2000.33 513.432ZM2013.38 510H2015.56V496.848H2013.38V510ZM2014.51 494.712C2015.3 494.712 2015.95 494.064 2015.95 493.224C2015.95 492.384 2015.3 491.736 2014.51 491.736C2013.67 491.736 2013.02 492.384 2013.02 493.224C2013.02 494.064 2013.67 494.712 2014.51 494.712ZM2019.77 506.4C2019.77 509.04 2021.09 510 2023.41 510H2025.38V508.152H2023.77C2022.43 508.152 2021.95 507.696 2021.95 506.4V498.648H2025.38V496.848H2021.95V493.536H2019.77V496.848H2018.06V498.648H2019.77V506.4ZM2033.62 498.48C2035.88 498.48 2037.8 499.896 2037.77 502.464H2029.47C2029.71 499.896 2031.48 498.48 2033.62 498.48ZM2039.76 505.944H2037.41C2036.93 507.36 2035.68 508.368 2033.72 508.368C2031.48 508.368 2029.61 506.904 2029.44 504.24H2039.96C2040 503.784 2040.03 503.4 2040.03 502.92C2040.03 499.32 2037.53 496.632 2033.72 496.632C2029.88 496.632 2027.21 499.248 2027.21 503.4C2027.21 507.576 2029.97 510.216 2033.72 510.216C2036.98 510.216 2039.09 508.344 2039.76 505.944ZM2045.09 502.848C2045.09 499.8 2046.68 498.864 2048.77 498.864H2049.34V496.608C2047.25 496.608 2045.84 497.52 2045.09 498.984V496.848H2042.91V510H2045.09V502.848ZM2051.05 503.376C2051.05 507.456 2053.76 510.216 2057.26 510.216C2059.69 510.216 2061.39 508.968 2062.18 507.552V510H2064.39V496.848H2062.18V499.248C2061.42 497.88 2059.74 496.632 2057.29 496.632C2053.76 496.632 2051.05 499.272 2051.05 503.376ZM2062.18 503.4C2062.18 506.496 2060.12 508.296 2057.72 508.296C2055.32 508.296 2053.28 506.472 2053.28 503.376C2053.28 500.28 2055.32 498.528 2057.72 498.528C2060.12 498.528 2062.18 500.352 2062.18 503.4ZM2068.56 506.4C2068.56 509.04 2069.88 510 2072.21 510H2074.18V508.152H2072.57C2071.23 508.152 2070.75 507.696 2070.75 506.4V498.648H2074.18V496.848H2070.75V493.536H2068.56V496.848H2066.86V498.648H2068.56V506.4ZM2076.82 510H2079.01V496.848H2076.82V510ZM2077.95 494.712C2078.74 494.712 2079.39 494.064 2079.39 493.224C2079.39 492.384 2078.74 491.736 2077.95 491.736C2077.11 491.736 2076.46 492.384 2076.46 493.224C2076.46 494.064 2077.11 494.712 2077.95 494.712ZM2081.17 496.848L2086.33 510H2088.87L2094.03 496.848H2091.71L2087.63 507.984L2083.52 496.848H2081.17ZM2101.78 498.48C2104.03 498.48 2105.95 499.896 2105.93 502.464H2097.62C2097.86 499.896 2099.64 498.48 2101.78 498.48ZM2107.92 505.944H2105.57C2105.09 507.36 2103.84 508.368 2101.87 508.368C2099.64 508.368 2097.77 506.904 2097.6 504.24H2108.11C2108.16 503.784 2108.18 503.4 2108.18 502.92C2108.18 499.32 2105.69 496.632 2101.87 496.632C2098.03 496.632 2095.37 499.248 2095.37 503.4C2095.37 507.576 2098.13 510.216 2101.87 510.216C2105.14 510.216 2107.25 508.344 2107.92 505.944ZM2111.07 510H2113.25V492.24H2111.07V510ZM2121.97 507.504L2117.84 496.848H2115.41L2120.72 509.856L2118.12 516.192H2120.38L2128.3 496.848H2126.05L2121.97 507.504ZM1679.6 551.376C1679.6 555.456 1682.31 558.216 1685.81 558.216C1688.24 558.216 1689.94 556.968 1690.73 555.552V558H1692.94V544.848H1690.73V547.248C1689.97 545.88 1688.29 544.632 1685.84 544.632C1682.31 544.632 1679.6 547.272 1679.6 551.376ZM1690.73 551.4C1690.73 554.496 1688.67 556.296 1686.27 556.296C1683.87 556.296 1681.83 554.472 1681.83 551.376C1681.83 548.28 1683.87 546.528 1686.27 546.528C1688.67 546.528 1690.73 548.352 1690.73 551.4ZM1696.63 558H1698.82V540.24H1696.63V558ZM1702.54 558H1704.72V544.848H1702.54V558ZM1703.67 542.712C1704.46 542.712 1705.11 542.064 1705.11 541.224C1705.11 540.384 1704.46 539.736 1703.67 539.736C1702.83 539.736 1702.18 540.384 1702.18 541.224C1702.18 542.064 1702.83 542.712 1703.67 542.712ZM1707.63 551.376C1707.63 555.456 1710.34 558.216 1713.87 558.216C1716.27 558.216 1717.97 556.944 1718.77 555.528V558.288C1718.77 561.096 1717.01 562.584 1714.69 562.584C1712.53 562.584 1710.97 561.504 1710.49 559.92H1708.33C1708.76 562.728 1711.23 564.48 1714.69 564.48C1718.55 564.48 1720.97 561.912 1720.97 558.288V544.848H1718.77V547.248C1718 545.832 1716.27 544.632 1713.87 544.632C1710.34 544.632 1707.63 547.272 1707.63 551.376ZM1718.77 551.4C1718.77 554.496 1716.7 556.296 1714.3 556.296C1711.9 556.296 1709.86 554.472 1709.86 551.376C1709.86 548.28 1711.9 546.528 1714.3 546.528C1716.7 546.528 1718.77 548.352 1718.77 551.4ZM1734.29 558H1736.45V550.248C1736.45 546.48 1734.12 544.608 1731.07 544.608C1729.3 544.608 1727.71 545.352 1726.85 546.72V544.848H1724.66V558H1726.85V550.728C1726.85 547.896 1728.38 546.504 1730.62 546.504C1732.82 546.504 1734.29 547.872 1734.29 550.56V558ZM1740.02 558H1742.2V544.848H1740.02V558ZM1741.14 542.712C1741.94 542.712 1742.58 542.064 1742.58 541.224C1742.58 540.384 1741.94 539.736 1741.14 539.736C1740.3 539.736 1739.66 540.384 1739.66 541.224C1739.66 542.064 1740.3 542.712 1741.14 542.712ZM1755.55 558H1757.71V550.248C1757.71 546.48 1755.38 544.608 1752.33 544.608C1750.55 544.608 1748.97 545.352 1748.11 546.72V544.848H1745.92V558H1748.11V550.728C1748.11 547.896 1749.64 546.504 1751.87 546.504C1754.08 546.504 1755.55 547.872 1755.55 550.56V558ZM1760.46 551.376C1760.46 555.456 1763.17 558.216 1766.7 558.216C1769.1 558.216 1770.8 556.944 1771.59 555.528V558.288C1771.59 561.096 1769.84 562.584 1767.51 562.584C1765.35 562.584 1763.79 561.504 1763.31 559.92H1761.15C1761.59 562.728 1764.06 564.48 1767.51 564.48C1771.38 564.48 1773.8 561.912 1773.8 558.288V544.848H1771.59V547.248C1770.83 545.832 1769.1 544.632 1766.7 544.632C1763.17 544.632 1760.46 547.272 1760.46 551.376ZM1771.59 551.4C1771.59 554.496 1769.53 556.296 1767.13 556.296C1764.73 556.296 1762.69 554.472 1762.69 551.376C1762.69 548.28 1764.73 546.528 1767.13 546.528C1769.53 546.528 1771.59 548.352 1771.59 551.4ZM1784.37 554.4C1784.37 557.04 1785.69 558 1788.02 558H1789.99V556.152H1788.38C1787.03 556.152 1786.55 555.696 1786.55 554.4V546.648H1789.99V544.848H1786.55V541.536H1784.37V544.848H1782.67V546.648H1784.37V554.4ZM1792.63 558H1794.82V550.728C1794.82 547.896 1796.35 546.504 1798.59 546.504C1800.79 546.504 1802.26 547.872 1802.26 550.56V558H1804.42V550.248C1804.42 546.48 1802.09 544.608 1799.16 544.608C1797.31 544.608 1795.68 545.352 1794.82 546.744V540.24H1792.63V558ZM1813.58 546.48C1815.83 546.48 1817.75 547.896 1817.73 550.464H1809.42C1809.66 547.896 1811.44 546.48 1813.58 546.48ZM1819.72 553.944H1817.37C1816.89 555.36 1815.64 556.368 1813.67 556.368C1811.44 556.368 1809.57 554.904 1809.4 552.24H1819.91C1819.96 551.784 1819.98 551.4 1819.98 550.92C1819.98 547.32 1817.49 544.632 1813.67 544.632C1809.83 544.632 1807.17 547.248 1807.17 551.4C1807.17 555.576 1809.93 558.216 1813.67 558.216C1816.94 558.216 1819.05 556.344 1819.72 553.944ZM1831.45 550.848C1831.45 547.8 1833.03 546.864 1835.12 546.864H1835.7V544.608C1833.61 544.608 1832.19 545.52 1831.45 546.984V544.848H1829.27V558H1831.45V550.848ZM1843.81 546.48C1846.07 546.48 1847.99 547.896 1847.96 550.464H1839.66C1839.9 547.896 1841.68 546.48 1843.81 546.48ZM1849.96 553.944H1847.6C1847.12 555.36 1845.88 556.368 1843.91 556.368C1841.68 556.368 1839.8 554.904 1839.64 552.24H1850.15C1850.2 551.784 1850.22 551.4 1850.22 550.92C1850.22 547.32 1847.72 544.632 1843.91 544.632C1840.07 544.632 1837.4 547.248 1837.4 551.4C1837.4 555.576 1840.16 558.216 1843.91 558.216C1847.17 558.216 1849.28 556.344 1849.96 553.944ZM1852.29 551.376C1852.29 555.456 1855 558.216 1858.48 558.216C1860.93 558.216 1862.68 556.92 1863.42 555.576V564.24H1865.63V544.848H1863.42V547.248C1862.68 545.88 1860.95 544.632 1858.55 544.632C1855 544.632 1852.29 547.272 1852.29 551.376ZM1863.42 551.4C1863.42 554.496 1861.36 556.296 1858.96 556.296C1856.56 556.296 1854.52 554.472 1854.52 551.376C1854.52 548.28 1856.56 546.528 1858.96 546.528C1861.36 546.528 1863.42 548.352 1863.42 551.4ZM1880.98 544.848H1878.8V552.072C1878.8 554.904 1877.29 556.296 1875.03 556.296C1872.82 556.296 1871.36 554.928 1871.36 552.264V544.848H1869.2V552.552C1869.2 556.32 1871.58 558.192 1874.6 558.192C1876.35 558.192 1877.96 557.424 1878.8 556.056V558H1880.98V544.848ZM1884.67 558H1886.86V544.848H1884.67V558ZM1885.8 542.712C1886.59 542.712 1887.24 542.064 1887.24 541.224C1887.24 540.384 1886.59 539.736 1885.8 539.736C1884.96 539.736 1884.31 540.384 1884.31 541.224C1884.31 542.064 1884.96 542.712 1885.8 542.712ZM1892.76 550.848C1892.76 547.8 1894.35 546.864 1896.43 546.864H1897.01V544.608C1894.92 544.608 1893.51 545.52 1892.76 546.984V544.848H1890.58V558H1892.76V550.848ZM1905.12 546.48C1907.38 546.48 1909.3 547.896 1909.28 550.464H1900.97C1901.21 547.896 1902.99 546.48 1905.12 546.48ZM1911.27 553.944H1908.92C1908.44 555.36 1907.19 556.368 1905.22 556.368C1902.99 556.368 1901.12 554.904 1900.95 552.24H1911.46C1911.51 551.784 1911.53 551.4 1911.53 550.92C1911.53 547.32 1909.04 544.632 1905.22 544.632C1901.38 544.632 1898.72 547.248 1898.72 551.4C1898.72 555.576 1901.48 558.216 1905.22 558.216C1908.48 558.216 1910.6 556.344 1911.27 553.944ZM1933.4 558H1935.56V550.248C1935.56 546.48 1933.23 544.608 1930.23 544.608C1928.21 544.608 1926.34 545.64 1925.57 547.536C1924.71 545.568 1922.91 544.608 1920.75 544.608C1919.02 544.608 1917.46 545.352 1916.6 546.744V544.848H1914.41V558H1916.6V550.752C1916.6 547.92 1918.11 546.504 1920.32 546.504C1922.48 546.504 1923.92 547.872 1923.92 550.56V558H1926.08V550.752C1926.08 547.92 1927.59 546.504 1929.8 546.504C1931.96 546.504 1933.4 547.872 1933.4 550.56V558ZM1944.73 546.48C1946.99 546.48 1948.91 547.896 1948.88 550.464H1940.58C1940.82 547.896 1942.6 546.48 1944.73 546.48ZM1950.88 553.944H1948.52C1948.04 555.36 1946.8 556.368 1944.83 556.368C1942.6 556.368 1940.72 554.904 1940.56 552.24H1951.07C1951.12 551.784 1951.14 551.4 1951.14 550.92C1951.14 547.32 1948.64 544.632 1944.83 544.632C1940.99 544.632 1938.32 547.248 1938.32 551.4C1938.32 555.576 1941.08 558.216 1944.83 558.216C1948.09 558.216 1950.2 556.344 1950.88 553.944ZM1963.65 558H1965.81V550.248C1965.81 546.48 1963.48 544.608 1960.43 544.608C1958.66 544.608 1957.07 545.352 1956.21 546.72V544.848H1954.02V558H1956.21V550.728C1956.21 547.896 1957.74 546.504 1959.98 546.504C1962.18 546.504 1963.65 547.872 1963.65 550.56V558ZM1969.86 554.4C1969.86 557.04 1971.18 558 1973.5 558H1975.47V556.152H1973.86C1972.52 556.152 1972.04 555.696 1972.04 554.4V546.648H1975.47V544.848H1972.04V541.536H1969.86V544.848H1968.15V546.648H1969.86V554.4ZM1987.57 554.424C1987.48 549.72 1979.85 551.424 1979.85 548.304C1979.85 547.248 1980.81 546.48 1982.41 546.48C1984.17 546.48 1985.17 547.44 1985.27 548.76H1987.45C1987.31 546.192 1985.39 544.632 1982.49 544.632C1979.56 544.632 1977.66 546.288 1977.66 548.304C1977.66 553.2 1985.44 551.496 1985.44 554.424C1985.44 555.504 1984.48 556.368 1982.75 556.368C1980.9 556.368 1979.77 555.408 1979.65 554.136H1977.4C1977.54 556.536 1979.7 558.216 1982.77 558.216C1985.68 558.216 1987.57 556.584 1987.57 554.424ZM1996.24 551.376C1996.24 555.456 1998.95 558.216 2002.46 558.216C2004.88 558.216 2006.58 556.968 2007.38 555.552V558H2009.58V544.848H2007.38V547.248C2006.61 545.88 2004.93 544.632 2002.48 544.632C1998.95 544.632 1996.24 547.272 1996.24 551.376ZM2007.38 551.4C2007.38 554.496 2005.31 556.296 2002.91 556.296C2000.51 556.296 1998.47 554.472 1998.47 551.376C1998.47 548.28 2000.51 546.528 2002.91 546.528C2005.31 546.528 2007.38 548.352 2007.38 551.4ZM2022.9 558H2025.06V550.248C2025.06 546.48 2022.73 544.608 2019.68 544.608C2017.91 544.608 2016.32 545.352 2015.46 546.72V544.848H2013.27V558H2015.46V550.728C2015.46 547.896 2016.99 546.504 2019.23 546.504C2021.43 546.504 2022.9 547.872 2022.9 550.56V558ZM2027.81 551.376C2027.81 555.456 2030.52 558.216 2034.05 558.216C2036.45 558.216 2038.15 556.992 2038.95 555.528V558H2041.15V540.24H2038.95V547.2C2038.03 545.688 2036.14 544.632 2034.07 544.632C2030.52 544.632 2027.81 547.272 2027.81 551.376ZM2038.95 551.4C2038.95 554.496 2036.88 556.296 2034.48 556.296C2032.08 556.296 2030.04 554.472 2030.04 551.376C2030.04 548.28 2032.08 546.528 2034.48 546.528C2036.88 546.528 2038.95 548.352 2038.95 551.4ZM2060.7 554.424C2060.6 549.72 2052.97 551.424 2052.97 548.304C2052.97 547.248 2053.93 546.48 2055.54 546.48C2057.29 546.48 2058.3 547.44 2058.39 548.76H2060.58C2060.43 546.192 2058.51 544.632 2055.61 544.632C2052.68 544.632 2050.79 546.288 2050.79 548.304C2050.79 553.2 2058.56 551.496 2058.56 554.424C2058.56 555.504 2057.6 556.368 2055.87 556.368C2054.03 556.368 2052.9 555.408 2052.78 554.136H2050.52C2050.67 556.536 2052.83 558.216 2055.9 558.216C2058.8 558.216 2060.7 556.584 2060.7 554.424ZM2076.26 551.4C2076.26 547.248 2073.36 544.632 2069.61 544.632C2065.89 544.632 2062.97 547.248 2062.97 551.4C2062.97 555.576 2065.8 558.216 2069.52 558.216C2073.26 558.216 2076.26 555.576 2076.26 551.4ZM2065.2 551.4C2065.2 548.088 2067.29 546.528 2069.59 546.528C2071.85 546.528 2074.03 548.088 2074.03 551.4C2074.03 554.736 2071.8 556.296 2069.52 556.296C2067.24 556.296 2065.2 554.736 2065.2 551.4ZM2079.13 558H2081.32V540.24H2079.13V558ZM2096.7 544.848H2094.52V552.072C2094.52 554.904 2093.01 556.296 2090.75 556.296C2088.54 556.296 2087.08 554.928 2087.08 552.264V544.848H2084.92V552.552C2084.92 556.32 2087.3 558.192 2090.32 558.192C2092.07 558.192 2093.68 557.424 2094.52 556.056V558H2096.7V544.848ZM2100.87 554.4C2100.87 557.04 2102.19 558 2104.52 558H2106.49V556.152H2104.88C2103.53 556.152 2103.05 555.696 2103.05 554.4V546.648H2106.49V544.848H2103.05V541.536H2100.87V544.848H2099.17V546.648H2100.87V554.4ZM2109.13 558H2111.32V544.848H2109.13V558ZM2110.26 542.712C2111.05 542.712 2111.7 542.064 2111.7 541.224C2111.7 540.384 2111.05 539.736 2110.26 539.736C2109.42 539.736 2108.77 540.384 2108.77 541.224C2108.77 542.064 2109.42 542.712 2110.26 542.712ZM2127.52 551.4C2127.52 547.248 2124.62 544.632 2120.87 544.632C2117.15 544.632 2114.22 547.248 2114.22 551.4C2114.22 555.576 2117.06 558.216 2120.78 558.216C2124.52 558.216 2127.52 555.576 2127.52 551.4ZM2116.46 551.4C2116.46 548.088 2118.54 546.528 2120.85 546.528C2123.1 546.528 2125.29 548.088 2125.29 551.4C2125.29 554.736 2123.06 556.296 2120.78 556.296C2118.5 556.296 2116.46 554.736 2116.46 551.4ZM2140.01 558H2142.17V550.248C2142.17 546.48 2139.85 544.608 2136.8 544.608C2135.02 544.608 2133.44 545.352 2132.57 546.72V544.848H2130.39V558H2132.57V550.728C2132.57 547.896 2134.11 546.504 2136.34 546.504C2138.55 546.504 2140.01 547.872 2140.01 550.56V558ZM2155.2 554.424C2155.1 549.72 2147.47 551.424 2147.47 548.304C2147.47 547.248 2148.43 546.48 2150.04 546.48C2151.79 546.48 2152.8 547.44 2152.89 548.76H2155.08C2154.93 546.192 2153.01 544.632 2150.11 544.632C2147.18 544.632 2145.29 546.288 2145.29 548.304C2145.29 553.2 2153.06 551.496 2153.06 554.424C2153.06 555.504 2152.1 556.368 2150.37 556.368C2148.53 556.368 2147.4 555.408 2147.28 554.136H2145.02C2145.17 556.536 2147.33 558.216 2150.4 558.216C2153.3 558.216 2155.2 556.584 2155.2 554.424Z" fill="white"/>
<path d="M1856.95 437.908H1849.13V463H1856.95C1865.19 463 1870.27 458.284 1870.27 450.508C1870.27 442.732 1865.19 437.908 1856.95 437.908ZM1852.41 460.3V440.572H1856.95C1863.5 440.572 1866.92 444.388 1866.92 450.508C1866.92 456.628 1863.5 460.3 1856.95 460.3H1852.41ZM1882.97 445.72C1886.36 445.72 1889.24 447.844 1889.2 451.696H1876.75C1877.11 447.844 1879.77 445.72 1882.97 445.72ZM1892.19 456.916H1888.66C1887.94 459.04 1886.07 460.552 1883.12 460.552C1879.77 460.552 1876.96 458.356 1876.71 454.36H1892.48C1892.55 453.676 1892.59 453.1 1892.59 452.38C1892.59 446.98 1888.84 442.948 1883.12 442.948C1877.36 442.948 1873.36 446.872 1873.36 453.1C1873.36 459.364 1877.5 463.324 1883.12 463.324C1888.01 463.324 1891.18 460.516 1892.19 456.916ZM1900.19 446.908V443.272H1896.91V472.36H1900.19V459.364C1901.41 461.38 1903.97 463.324 1907.57 463.324C1912.86 463.324 1916.93 459.184 1916.93 453.064C1916.93 446.908 1912.86 442.948 1907.57 442.948C1903.97 442.948 1901.37 444.82 1900.19 446.908ZM1913.58 453.064C1913.58 457.708 1910.52 460.444 1906.88 460.444C1903.32 460.444 1900.19 457.744 1900.19 453.1C1900.19 448.528 1903.32 445.792 1906.88 445.792C1910.52 445.792 1913.58 448.42 1913.58 453.064ZM1921.24 463H1924.51V436.36H1921.24V463ZM1948.82 453.1C1948.82 446.872 1944.46 442.948 1938.85 442.948C1933.27 442.948 1928.87 446.872 1928.87 453.1C1928.87 459.364 1933.12 463.324 1938.7 463.324C1944.32 463.324 1948.82 459.364 1948.82 453.1ZM1932.22 453.1C1932.22 448.132 1935.35 445.792 1938.81 445.792C1942.19 445.792 1945.47 448.132 1945.47 453.1C1945.47 458.104 1942.12 460.444 1938.7 460.444C1935.28 460.444 1932.22 458.104 1932.22 453.1ZM1960.61 459.256L1954.42 443.272H1950.79L1958.74 462.784L1954.85 472.288H1958.24L1970.12 443.272H1966.73L1960.61 459.256Z" fill="white"/>
<ellipse cx="1895.5" cy="266.5" rx="76.5" ry="70.5" fill="#FFB599"/>
<path d="M1888.13 286.473L1887.61 287L1888.13 287.527L1903.48 303.1L1899.7 306.932L1880.05 287L1899.7 267.068L1903.48 270.9L1888.13 286.473ZM1946.95 287L1927.3 306.932L1923.52 303.1L1938.87 287.527L1939.39 287L1938.87 286.473L1923.52 270.9L1927.3 267.068L1946.95 287Z" stroke="white" stroke-width="1.5"/>
<g filter="url(#filter1_d)">
<rect x="1138" y="93" width="468" height="522" fill="#7A68EF" fill-opacity="0.73"/>
</g>
<path d="M1202.49 501.624C1202.49 506.64 1206.16 510.144 1210.84 510.144C1214.47 510.144 1217.35 508.344 1218.6 505.128H1215.98C1215.07 507.12 1213.29 508.248 1210.84 508.248C1207.34 508.248 1204.72 505.704 1204.72 501.624C1204.72 497.52 1207.34 494.976 1210.84 494.976C1213.29 494.976 1215.07 496.104 1215.98 498.12H1218.6C1217.35 494.88 1214.47 493.056 1210.84 493.056C1206.16 493.056 1202.49 496.608 1202.49 501.624ZM1234.33 503.4C1234.33 499.248 1231.42 496.632 1227.68 496.632C1223.96 496.632 1221.03 499.248 1221.03 503.4C1221.03 507.576 1223.86 510.216 1227.58 510.216C1231.33 510.216 1234.33 507.576 1234.33 503.4ZM1223.26 503.4C1223.26 500.088 1225.35 498.528 1227.66 498.528C1229.91 498.528 1232.1 500.088 1232.1 503.4C1232.1 506.736 1229.86 508.296 1227.58 508.296C1225.3 508.296 1223.26 506.736 1223.26 503.4ZM1236.38 503.376C1236.38 507.456 1239.1 510.216 1242.62 510.216C1245.02 510.216 1246.73 508.992 1247.52 507.528V510H1249.73V492.24H1247.52V499.2C1246.61 497.688 1244.71 496.632 1242.65 496.632C1239.1 496.632 1236.38 499.272 1236.38 503.376ZM1247.52 503.4C1247.52 506.496 1245.46 508.296 1243.06 508.296C1240.66 508.296 1238.62 506.472 1238.62 503.376C1238.62 500.28 1240.66 498.528 1243.06 498.528C1245.46 498.528 1247.52 500.352 1247.52 503.4ZM1253.42 510H1255.6V496.848H1253.42V510ZM1254.55 494.712C1255.34 494.712 1255.99 494.064 1255.99 493.224C1255.99 492.384 1255.34 491.736 1254.55 491.736C1253.71 491.736 1253.06 492.384 1253.06 493.224C1253.06 494.064 1253.71 494.712 1254.55 494.712ZM1268.95 510H1271.11V502.248C1271.11 498.48 1268.78 496.608 1265.73 496.608C1263.96 496.608 1262.37 497.352 1261.51 498.72V496.848H1259.32V510H1261.51V502.728C1261.51 499.896 1263.04 498.504 1265.28 498.504C1267.48 498.504 1268.95 499.872 1268.95 502.56V510ZM1273.86 503.376C1273.86 507.456 1276.57 510.216 1280.1 510.216C1282.5 510.216 1284.2 508.944 1285 507.528V510.288C1285 513.096 1283.24 514.584 1280.92 514.584C1278.76 514.584 1277.2 513.504 1276.72 511.92H1274.56C1274.99 514.728 1277.46 516.48 1280.92 516.48C1284.78 516.48 1287.2 513.912 1287.2 510.288V496.848H1285V499.248C1284.23 497.832 1282.5 496.632 1280.1 496.632C1276.57 496.632 1273.86 499.272 1273.86 503.376ZM1285 503.4C1285 506.496 1282.93 508.296 1280.53 508.296C1278.13 508.296 1276.09 506.472 1276.09 503.376C1276.09 500.28 1278.13 498.528 1280.53 498.528C1282.93 498.528 1285 500.352 1285 503.4ZM1297.29 510H1299.48V496.848H1297.29V510ZM1298.42 494.712C1299.21 494.712 1299.86 494.064 1299.86 493.224C1299.86 492.384 1299.21 491.736 1298.42 491.736C1297.58 491.736 1296.93 492.384 1296.93 493.224C1296.93 494.064 1297.58 494.712 1298.42 494.712ZM1312.82 510H1314.98V502.248C1314.98 498.48 1312.66 496.608 1309.61 496.608C1307.83 496.608 1306.25 497.352 1305.38 498.72V496.848H1303.2V510H1305.38V502.728C1305.38 499.896 1306.92 498.504 1309.15 498.504C1311.36 498.504 1312.82 499.872 1312.82 502.56V510ZM1331.21 507.696L1325.96 493.272H1323.63L1329.94 510H1332.46L1338.77 493.272H1336.47L1331.21 507.696ZM1340.35 503.376C1340.35 507.456 1343.06 510.216 1346.57 510.216C1348.99 510.216 1350.7 508.968 1351.49 507.552V510H1353.7V496.848H1351.49V499.248C1350.72 497.88 1349.04 496.632 1346.59 496.632C1343.06 496.632 1340.35 499.272 1340.35 503.376ZM1351.49 503.4C1351.49 506.496 1349.42 508.296 1347.02 508.296C1344.62 508.296 1342.58 506.472 1342.58 503.376C1342.58 500.28 1344.62 498.528 1347.02 498.528C1349.42 498.528 1351.49 500.352 1351.49 503.4ZM1367.01 510H1369.17V502.248C1369.17 498.48 1366.84 496.608 1363.8 496.608C1362.02 496.608 1360.44 497.352 1359.57 498.72V496.848H1357.39V510H1359.57V502.728C1359.57 499.896 1361.11 498.504 1363.34 498.504C1365.55 498.504 1367.01 499.872 1367.01 502.56V510ZM1372.74 510H1374.92V496.848H1372.74V510ZM1373.87 494.712C1374.66 494.712 1375.31 494.064 1375.31 493.224C1375.31 492.384 1374.66 491.736 1373.87 491.736C1373.03 491.736 1372.38 492.384 1372.38 493.224C1372.38 494.064 1373.03 494.712 1373.87 494.712ZM1378.64 510H1380.83V492.24H1378.64V510ZM1384.55 510H1386.74V492.24H1384.55V510ZM1389.64 503.376C1389.64 507.456 1392.35 510.216 1395.86 510.216C1398.28 510.216 1399.99 508.968 1400.78 507.552V510H1402.99V496.848H1400.78V499.248C1400.01 497.88 1398.33 496.632 1395.88 496.632C1392.35 496.632 1389.64 499.272 1389.64 503.376ZM1400.78 503.4C1400.78 506.496 1398.71 508.296 1396.31 508.296C1393.91 508.296 1391.87 506.472 1391.87 503.376C1391.87 500.28 1393.91 498.528 1396.31 498.528C1398.71 498.528 1400.78 500.352 1400.78 503.4ZM1419.29 505.632C1419.29 507.024 1418.59 508.224 1416.87 508.224C1415.14 508.224 1414.42 507 1414.39 505.464H1412.21C1412.21 508.392 1414.08 510.168 1416.87 510.168C1419.63 510.168 1421.5 508.416 1421.5 505.632V493.272H1419.29V505.632ZM1424.99 503.376C1424.99 507.456 1427.7 510.216 1431.2 510.216C1433.63 510.216 1435.33 508.968 1436.12 507.552V510H1438.33V496.848H1436.12V499.248C1435.35 497.88 1433.67 496.632 1431.23 496.632C1427.7 496.632 1424.99 499.272 1424.99 503.376ZM1436.12 503.4C1436.12 506.496 1434.06 508.296 1431.66 508.296C1429.26 508.296 1427.22 506.472 1427.22 503.376C1427.22 500.28 1429.26 498.528 1431.66 498.528C1434.06 498.528 1436.12 500.352 1436.12 503.4ZM1440.46 496.848L1445.62 510H1448.16L1453.32 496.848H1451L1446.92 507.984L1442.81 496.848H1440.46ZM1454.66 503.376C1454.66 507.456 1457.37 510.216 1460.87 510.216C1463.3 510.216 1465 508.968 1465.79 507.552V510H1468V496.848H1465.79V499.248C1465.03 497.88 1463.35 496.632 1460.9 496.632C1457.37 496.632 1454.66 499.272 1454.66 503.376ZM1465.79 503.4C1465.79 506.496 1463.73 508.296 1461.33 508.296C1458.93 508.296 1456.89 506.472 1456.89 503.376C1456.89 500.28 1458.93 498.528 1461.33 498.528C1463.73 498.528 1465.79 500.352 1465.79 503.4ZM1481.15 506.424C1481.05 501.72 1473.42 503.424 1473.42 500.304C1473.42 499.248 1474.38 498.48 1475.99 498.48C1477.74 498.48 1478.75 499.44 1478.84 500.76H1481.03C1480.88 498.192 1478.96 496.632 1476.06 496.632C1473.13 496.632 1471.24 498.288 1471.24 500.304C1471.24 505.2 1479.01 503.496 1479.01 506.424C1479.01 507.504 1478.05 508.368 1476.32 508.368C1474.48 508.368 1473.35 507.408 1473.23 506.136H1470.97C1471.12 508.536 1473.28 510.216 1476.35 510.216C1479.25 510.216 1481.15 508.584 1481.15 506.424ZM1483.41 503.4C1483.41 507.576 1486.08 510.216 1489.82 510.216C1493.09 510.216 1495.22 508.392 1495.89 505.776H1493.54C1493.06 507.432 1491.77 508.368 1489.82 508.368C1487.42 508.368 1485.65 506.664 1485.65 503.4C1485.65 500.184 1487.42 498.48 1489.82 498.48C1491.77 498.48 1493.09 499.488 1493.54 501.072H1495.89C1495.22 498.312 1493.09 496.632 1489.82 496.632C1486.08 496.632 1483.41 499.272 1483.41 503.4ZM1500.99 502.848C1500.99 499.8 1502.58 498.864 1504.66 498.864H1505.24V496.608C1503.15 496.608 1501.74 497.52 1500.99 498.984V496.848H1498.81V510H1500.99V502.848ZM1507.76 510H1509.95V496.848H1507.76V510ZM1508.89 494.712C1509.68 494.712 1510.33 494.064 1510.33 493.224C1510.33 492.384 1509.68 491.736 1508.89 491.736C1508.05 491.736 1507.4 492.384 1507.4 493.224C1507.4 494.064 1508.05 494.712 1508.89 494.712ZM1515.85 499.272V496.848H1513.67V516.24H1515.85V507.576C1516.67 508.92 1518.37 510.216 1520.77 510.216C1524.3 510.216 1527.01 507.456 1527.01 503.376C1527.01 499.272 1524.3 496.632 1520.77 496.632C1518.37 496.632 1516.64 497.88 1515.85 499.272ZM1524.78 503.376C1524.78 506.472 1522.74 508.296 1520.32 508.296C1517.94 508.296 1515.85 506.496 1515.85 503.4C1515.85 500.352 1517.94 498.528 1520.32 498.528C1522.74 498.528 1524.78 500.28 1524.78 503.376ZM1530.37 506.4C1530.37 509.04 1531.69 510 1534.02 510H1535.98V508.152H1534.38C1533.03 508.152 1532.55 507.696 1532.55 506.4V498.648H1535.98V496.848H1532.55V493.536H1530.37V496.848H1528.66V498.648H1530.37V506.4ZM1536.73 513.432H1538.2L1540.89 506.976H1538.49L1536.73 513.432ZM1240.6 558H1242.78V544.848H1240.6V558ZM1241.73 542.712C1242.52 542.712 1243.17 542.064 1243.17 541.224C1243.17 540.384 1242.52 539.736 1241.73 539.736C1240.89 539.736 1240.24 540.384 1240.24 541.224C1240.24 542.064 1240.89 542.712 1241.73 542.712ZM1246.98 554.4C1246.98 557.04 1248.3 558 1250.63 558H1252.6V556.152H1250.99C1249.65 556.152 1249.17 555.696 1249.17 554.4V546.648H1252.6V544.848H1249.17V541.536H1246.98V544.848H1245.28V546.648H1246.98V554.4ZM1260.84 546.48C1263.09 546.48 1265.01 547.896 1264.99 550.464H1256.69C1256.93 547.896 1258.7 546.48 1260.84 546.48ZM1266.98 553.944H1264.63C1264.15 555.36 1262.9 556.368 1260.93 556.368C1258.7 556.368 1256.83 554.904 1256.66 552.24H1267.17C1267.22 551.784 1267.25 551.4 1267.25 550.92C1267.25 547.32 1264.75 544.632 1260.93 544.632C1257.09 544.632 1254.43 547.248 1254.43 551.4C1254.43 555.576 1257.19 558.216 1260.93 558.216C1264.2 558.216 1266.31 556.344 1266.98 553.944ZM1272.31 550.848C1272.31 547.8 1273.9 546.864 1275.99 546.864H1276.56V544.608C1274.47 544.608 1273.06 545.52 1272.31 546.984V544.848H1270.13V558H1272.31V550.848ZM1278.27 551.376C1278.27 555.456 1280.98 558.216 1284.48 558.216C1286.91 558.216 1288.61 556.968 1289.4 555.552V558H1291.61V544.848H1289.4V547.248C1288.63 545.88 1286.95 544.632 1284.51 544.632C1280.98 544.632 1278.27 547.272 1278.27 551.376ZM1289.4 551.4C1289.4 554.496 1287.34 556.296 1284.94 556.296C1282.54 556.296 1280.5 554.472 1280.5 551.376C1280.5 548.28 1282.54 546.528 1284.94 546.528C1287.34 546.528 1289.4 548.352 1289.4 551.4ZM1295.78 554.4C1295.78 557.04 1297.1 558 1299.43 558H1301.4V556.152H1299.79C1298.45 556.152 1297.97 555.696 1297.97 554.4V546.648H1301.4V544.848H1297.97V541.536H1295.78V544.848H1294.08V546.648H1295.78V554.4ZM1304.04 558H1306.23V544.848H1304.04V558ZM1305.17 542.712C1305.96 542.712 1306.61 542.064 1306.61 541.224C1306.61 540.384 1305.96 539.736 1305.17 539.736C1304.33 539.736 1303.68 540.384 1303.68 541.224C1303.68 542.064 1304.33 542.712 1305.17 542.712ZM1319.57 558H1321.73V550.248C1321.73 546.48 1319.41 544.608 1316.36 544.608C1314.58 544.608 1313 545.352 1312.13 546.72V544.848H1309.95V558H1312.13V550.728C1312.13 547.896 1313.67 546.504 1315.9 546.504C1318.11 546.504 1319.57 547.872 1319.57 550.56V558ZM1324.49 551.376C1324.49 555.456 1327.2 558.216 1330.73 558.216C1333.13 558.216 1334.83 556.944 1335.62 555.528V558.288C1335.62 561.096 1333.87 562.584 1331.54 562.584C1329.38 562.584 1327.82 561.504 1327.34 559.92H1325.18C1325.61 562.728 1328.09 564.48 1331.54 564.48C1335.41 564.48 1337.83 561.912 1337.83 558.288V544.848H1335.62V547.248C1334.85 545.832 1333.13 544.632 1330.73 544.632C1327.2 544.632 1324.49 547.272 1324.49 551.376ZM1335.62 551.4C1335.62 554.496 1333.56 556.296 1331.16 556.296C1328.76 556.296 1326.72 554.472 1326.72 551.376C1326.72 548.28 1328.76 546.528 1331.16 546.528C1333.56 546.528 1335.62 548.352 1335.62 551.4ZM1348.33 558H1350.51V546.648H1353.27V544.848H1350.51V543.912C1350.51 542.208 1351.16 541.488 1353.13 541.488V539.664C1349.77 539.664 1348.33 540.984 1348.33 543.912V544.848H1346.62V546.648H1348.33V558ZM1368.3 551.4C1368.3 547.248 1365.39 544.632 1361.65 544.632C1357.93 544.632 1355 547.248 1355 551.4C1355 555.576 1357.83 558.216 1361.55 558.216C1365.3 558.216 1368.3 555.576 1368.3 551.4ZM1357.23 551.4C1357.23 548.088 1359.32 546.528 1361.62 546.528C1363.88 546.528 1366.06 548.088 1366.06 551.4C1366.06 554.736 1363.83 556.296 1361.55 556.296C1359.27 556.296 1357.23 554.736 1357.23 551.4ZM1373.35 550.848C1373.35 547.8 1374.94 546.864 1377.02 546.864H1377.6V544.608C1375.51 544.608 1374.1 545.52 1373.35 546.984V544.848H1371.17V558H1373.35V550.848ZM1385.7 551.376C1385.7 555.456 1388.42 558.216 1391.94 558.216C1394.34 558.216 1396.05 556.992 1396.84 555.528V558H1399.05V540.24H1396.84V547.2C1395.93 545.688 1394.03 544.632 1391.97 544.632C1388.42 544.632 1385.7 547.272 1385.7 551.376ZM1396.84 551.4C1396.84 554.496 1394.78 556.296 1392.38 556.296C1389.98 556.296 1387.94 554.472 1387.94 551.376C1387.94 548.28 1389.98 546.528 1392.38 546.528C1394.78 546.528 1396.84 548.352 1396.84 551.4ZM1408.33 546.48C1410.59 546.48 1412.51 547.896 1412.48 550.464H1404.18C1404.42 547.896 1406.19 546.48 1408.33 546.48ZM1414.47 553.944H1412.12C1411.64 555.36 1410.39 556.368 1408.43 556.368C1406.19 556.368 1404.32 554.904 1404.15 552.24H1414.67C1414.71 551.784 1414.74 551.4 1414.74 550.92C1414.74 547.32 1412.24 544.632 1408.43 544.632C1404.59 544.632 1401.92 547.248 1401.92 551.4C1401.92 555.576 1404.68 558.216 1408.43 558.216C1411.69 558.216 1413.8 556.344 1414.47 553.944ZM1419.81 547.272V544.848H1417.62V564.24H1419.81V555.576C1420.62 556.92 1422.33 558.216 1424.73 558.216C1428.25 558.216 1430.97 555.456 1430.97 551.376C1430.97 547.272 1428.25 544.632 1424.73 544.632C1422.33 544.632 1420.6 545.88 1419.81 547.272ZM1428.73 551.376C1428.73 554.472 1426.69 556.296 1424.27 556.296C1421.89 556.296 1419.81 554.496 1419.81 551.4C1419.81 548.352 1421.89 546.528 1424.27 546.528C1426.69 546.528 1428.73 548.28 1428.73 551.376ZM1433.84 558H1436.02V540.24H1433.84V558ZM1452.23 551.4C1452.23 547.248 1449.32 544.632 1445.58 544.632C1441.86 544.632 1438.93 547.248 1438.93 551.4C1438.93 555.576 1441.76 558.216 1445.48 558.216C1449.23 558.216 1452.23 555.576 1452.23 551.4ZM1441.16 551.4C1441.16 548.088 1443.25 546.528 1445.55 546.528C1447.81 546.528 1449.99 548.088 1449.99 551.4C1449.99 554.736 1447.76 556.296 1445.48 556.296C1443.2 556.296 1441.16 554.736 1441.16 551.4ZM1460.09 555.504L1455.96 544.848H1453.54L1458.84 557.856L1456.25 564.192H1458.51L1466.43 544.848H1464.17L1460.09 555.504ZM1468.62 558H1470.81V544.848H1468.62V558ZM1469.75 542.712C1470.54 542.712 1471.19 542.064 1471.19 541.224C1471.19 540.384 1470.54 539.736 1469.75 539.736C1468.91 539.736 1468.26 540.384 1468.26 541.224C1468.26 542.064 1468.91 542.712 1469.75 542.712ZM1484.15 558H1486.31V550.248C1486.31 546.48 1483.98 544.608 1480.94 544.608C1479.16 544.608 1477.58 545.352 1476.71 546.72V544.848H1474.53V558H1476.71V550.728C1476.71 547.896 1478.25 546.504 1480.48 546.504C1482.69 546.504 1484.15 547.872 1484.15 550.56V558ZM1489.06 551.376C1489.06 555.456 1491.78 558.216 1495.3 558.216C1497.7 558.216 1499.41 556.944 1500.2 555.528V558.288C1500.2 561.096 1498.45 562.584 1496.12 562.584C1493.96 562.584 1492.4 561.504 1491.92 559.92H1489.76C1490.19 562.728 1492.66 564.48 1496.12 564.48C1499.98 564.48 1502.41 561.912 1502.41 558.288V544.848H1500.2V547.248C1499.43 545.832 1497.7 544.632 1495.3 544.632C1491.78 544.632 1489.06 547.272 1489.06 551.376ZM1500.2 551.4C1500.2 554.496 1498.14 556.296 1495.74 556.296C1493.34 556.296 1491.3 554.472 1491.3 551.376C1491.3 548.28 1493.34 546.528 1495.74 546.528C1498.14 546.528 1500.2 548.352 1500.2 551.4Z" fill="white"/>
<path d="M1309.34 432.908H1301.52V458H1309.34C1317.58 458 1322.66 453.284 1322.66 445.508C1322.66 437.732 1317.58 432.908 1309.34 432.908ZM1304.8 455.3V435.572H1309.34C1315.89 435.572 1319.31 439.388 1319.31 445.508C1319.31 451.628 1315.89 455.3 1309.34 455.3H1304.8ZM1335.37 440.72C1338.75 440.72 1341.63 442.844 1341.59 446.696H1329.14C1329.5 442.844 1332.16 440.72 1335.37 440.72ZM1344.58 451.916H1341.05C1340.33 454.04 1338.46 455.552 1335.51 455.552C1332.16 455.552 1329.35 453.356 1329.1 449.36H1344.87C1344.94 448.676 1344.98 448.1 1344.98 447.38C1344.98 441.98 1341.23 437.948 1335.51 437.948C1329.75 437.948 1325.75 441.872 1325.75 448.1C1325.75 454.364 1329.89 458.324 1335.51 458.324C1340.41 458.324 1343.57 455.516 1344.58 451.916ZM1346.96 438.272L1354.7 458H1358.52L1366.26 438.272H1362.77L1356.65 454.976L1350.49 438.272H1346.96ZM1377.87 440.72C1381.25 440.72 1384.13 442.844 1384.1 446.696H1371.64C1372 442.844 1374.66 440.72 1377.87 440.72ZM1387.08 451.916H1383.56C1382.84 454.04 1380.96 455.552 1378.01 455.552C1374.66 455.552 1371.86 453.356 1371.6 449.36H1387.37C1387.44 448.676 1387.48 448.1 1387.48 447.38C1387.48 441.98 1383.74 437.948 1378.01 437.948C1372.25 437.948 1368.26 441.872 1368.26 448.1C1368.26 454.364 1372.4 458.324 1378.01 458.324C1382.91 458.324 1386.08 455.516 1387.08 451.916ZM1391.81 458H1395.08V431.36H1391.81V458ZM1419.38 448.1C1419.38 441.872 1415.03 437.948 1409.41 437.948C1403.83 437.948 1399.44 441.872 1399.44 448.1C1399.44 454.364 1403.69 458.324 1409.27 458.324C1414.88 458.324 1419.38 454.364 1419.38 448.1ZM1402.79 448.1C1402.79 443.132 1405.92 440.792 1409.38 440.792C1412.76 440.792 1416.04 443.132 1416.04 448.1C1416.04 453.104 1412.69 455.444 1409.27 455.444C1405.85 455.444 1402.79 453.104 1402.79 448.1ZM1426.97 441.908V438.272H1423.69V467.36H1426.97V454.364C1428.19 456.38 1430.75 458.324 1434.35 458.324C1439.64 458.324 1443.71 454.184 1443.71 448.064C1443.71 441.908 1439.64 437.948 1434.35 437.948C1430.75 437.948 1428.16 439.82 1426.97 441.908ZM1440.36 448.064C1440.36 452.708 1437.3 455.444 1433.66 455.444C1430.1 455.444 1426.97 452.744 1426.97 448.1C1426.97 443.528 1430.1 440.792 1433.66 440.792C1437.3 440.792 1440.36 443.42 1440.36 448.064Z" fill="white"/>
<ellipse cx="1359.5" cy="261.5" rx="76.5" ry="70.5" fill="#FFB599"/>
<path d="M848.35 326.9V340.6H834.65V326.9H848.35ZM764 294.5C764 251.72 798.72 217 841.5 217C884.28 217 919 251.72 919 294.5C919 337.28 884.28 372 841.5 372C798.72 372 764 337.28 764 294.5ZM777.7 294.5C777.7 329.671 806.329 358.3 841.5 358.3C876.671 358.3 905.3 329.671 905.3 294.5C905.3 259.329 876.671 230.7 841.5 230.7C806.329 230.7 777.7 259.329 777.7 294.5ZM834.663 317.05C834.808 311.353 836.195 307.169 838.185 303.88C840.3 300.385 843.131 297.837 846.046 295.529C846.725 294.992 847.415 294.463 848.103 293.935C850.321 292.236 852.519 290.552 854.259 288.642C856.599 286.076 858.2 283.024 858.2 278.8C858.2 269.613 850.687 262.1 841.5 262.1C832.648 262.1 825.351 269.074 824.83 277.8H811.116C811.643 261.467 825.038 248.4 841.5 248.4C858.296 248.4 871.9 262.004 871.9 278.8C871.9 288.118 866.366 293.246 860.466 298.408C860.283 298.569 860.098 298.73 859.914 298.891C854.469 303.647 848.791 308.604 848.374 317.05H834.663Z" stroke="white" stroke-width="2"/>
<path d="M1347.36 319.831V319.289L1346.9 318.993C1331.25 308.805 1321 292.07 1321 273.05C1321 242.213 1348.07 217 1381.5 217C1414.93 217 1442 242.213 1442 273.05C1442 292.07 1431.75 308.805 1416.1 318.993L1415.64 319.289V319.831V338.25C1415.64 342.111 1412.21 345.4 1407.86 345.4H1355.14C1350.79 345.4 1347.36 342.111 1347.36 338.25V319.831ZM1399.07 331.1H1400.07V330.1V311.895L1407.08 307.305C1407.08 307.304 1407.08 307.304 1407.08 307.303C1419.21 299.471 1426.43 286.696 1426.43 273.05C1426.43 249.934 1406.23 231.3 1381.5 231.3C1356.77 231.3 1336.57 249.934 1336.57 273.05C1336.57 286.696 1343.79 299.471 1355.92 307.304C1355.92 307.304 1355.92 307.305 1355.92 307.305L1362.93 311.895V330.1V331.1H1363.93H1399.07ZM1363.93 378C1359.58 378 1356.14 374.711 1356.14 370.85V363.7H1406.86V370.85C1406.86 374.711 1403.42 378 1399.07 378H1363.93Z" stroke="white" stroke-width="2"/>
<g filter="url(#filter2_d)">
<path d="M63 98H531V620H63V98Z" fill="#7A68EF" fill-opacity="0.73"/>
</g>
<ellipse cx="289" cy="288.5" rx="93" ry="85.5" fill="#FFB599"/>
<path d="M256.166 437.908H248.354V463H256.166C264.41 463 269.486 458.284 269.486 450.508C269.486 442.732 264.41 437.908 256.166 437.908ZM251.63 460.3V440.572H256.166C262.718 440.572 266.138 444.388 266.138 450.508C266.138 456.628 262.718 460.3 256.166 460.3H251.63ZM282.195 445.72C285.579 445.72 288.459 447.844 288.423 451.696H275.967C276.327 447.844 278.991 445.72 282.195 445.72ZM291.411 456.916H287.883C287.163 459.04 285.291 460.552 282.339 460.552C278.991 460.552 276.183 458.356 275.931 454.36H291.699C291.771 453.676 291.807 453.1 291.807 452.38C291.807 446.98 288.063 442.948 282.339 442.948C276.579 442.948 272.583 446.872 272.583 453.1C272.583 459.364 276.723 463.324 282.339 463.324C287.235 463.324 290.403 460.516 291.411 456.916ZM296.743 463H300.019V445.972H304.159V443.272H300.019V441.868C300.019 439.312 300.991 438.232 303.943 438.232V435.496C298.903 435.496 296.743 437.476 296.743 441.868V443.272H294.187V445.972H296.743V463ZM307.979 463H311.255V443.272H307.979V463ZM309.671 440.068C310.859 440.068 311.831 439.096 311.831 437.836C311.831 436.576 310.859 435.604 309.671 435.604C308.411 435.604 307.439 436.576 307.439 437.836C307.439 439.096 308.411 440.068 309.671 440.068ZM331.274 463H334.514V451.372C334.514 445.72 331.022 442.912 326.45 442.912C323.786 442.912 321.41 444.028 320.114 446.08V443.272H316.838V463H320.114V452.092C320.114 447.844 322.418 445.756 325.766 445.756C329.078 445.756 331.274 447.808 331.274 451.84V463ZM348.254 445.72C351.638 445.72 354.518 447.844 354.482 451.696H342.026C342.386 447.844 345.05 445.72 348.254 445.72ZM357.47 456.916H353.942C353.222 459.04 351.35 460.552 348.398 460.552C345.05 460.552 342.242 458.356 341.99 454.36H357.758C357.83 453.676 357.866 453.1 357.866 452.38C357.866 446.98 354.122 442.948 348.398 442.948C342.638 442.948 338.642 446.872 338.642 453.1C338.642 459.364 342.782 463.324 348.398 463.324C353.294 463.324 356.462 460.516 357.47 456.916Z" fill="white"/>
<path d="M139.518 515H141.822L135.798 498.368H133.278L127.229 515H129.534L130.878 511.28H138.174L139.518 515ZM137.55 509.504H131.502L134.526 501.056L137.55 509.504ZM154.081 515H156.241V507.248C156.241 503.48 153.913 501.608 150.865 501.608C149.089 501.608 147.505 502.352 146.641 503.72V501.848H144.457V515H146.641V507.728C146.641 504.896 148.177 503.504 150.409 503.504C152.617 503.504 154.081 504.872 154.081 507.56V515ZM158.993 508.376C158.993 512.456 161.705 515.216 165.209 515.216C167.633 515.216 169.337 513.968 170.129 512.552V515H172.337V501.848H170.129V504.248C169.361 502.88 167.681 501.632 165.233 501.632C161.705 501.632 158.993 504.272 158.993 508.376ZM170.129 508.4C170.129 511.496 168.065 513.296 165.665 513.296C163.265 513.296 161.225 511.472 161.225 508.376C161.225 505.28 163.265 503.528 165.665 503.528C168.065 503.528 170.129 505.352 170.129 508.4ZM176.028 515H178.212V497.24H176.028V515ZM186.926 512.504L182.798 501.848H180.374L185.678 514.856L183.086 521.192H185.342L193.262 501.848H191.006L186.926 512.504ZM204.913 511.424C204.817 506.72 197.185 508.424 197.185 505.304C197.185 504.248 198.145 503.48 199.753 503.48C201.505 503.48 202.513 504.44 202.609 505.76H204.793C204.649 503.192 202.729 501.632 199.825 501.632C196.897 501.632 195.001 503.288 195.001 505.304C195.001 510.2 202.777 508.496 202.777 511.424C202.777 512.504 201.817 513.368 200.089 513.368C198.241 513.368 197.113 512.408 196.993 511.136H194.737C194.881 513.536 197.041 515.216 200.113 515.216C203.017 515.216 204.913 513.584 204.913 511.424ZM207.996 515H210.18V501.848H207.996V515ZM209.124 499.712C209.916 499.712 210.564 499.064 210.564 498.224C210.564 497.384 209.916 496.736 209.124 496.736C208.284 496.736 207.636 497.384 207.636 498.224C207.636 499.064 208.284 499.712 209.124 499.712ZM223.359 511.424C223.263 506.72 215.631 508.424 215.631 505.304C215.631 504.248 216.591 503.48 218.199 503.48C219.951 503.48 220.959 504.44 221.055 505.76H223.239C223.095 503.192 221.175 501.632 218.271 501.632C215.343 501.632 213.447 503.288 213.447 505.304C213.447 510.2 221.223 508.496 221.223 511.424C221.223 512.504 220.263 513.368 218.535 513.368C216.687 513.368 215.559 512.408 215.439 511.136H213.183C213.327 513.536 215.487 515.216 218.559 515.216C221.463 515.216 223.359 513.584 223.359 511.424ZM245.32 508.4C245.32 504.248 242.416 501.632 238.672 501.632C234.952 501.632 232.024 504.248 232.024 508.4C232.024 512.576 234.856 515.216 238.576 515.216C242.32 515.216 245.32 512.576 245.32 508.4ZM234.256 508.4C234.256 505.088 236.344 503.528 238.648 503.528C240.904 503.528 243.088 505.088 243.088 508.4C243.088 511.736 240.856 513.296 238.576 513.296C236.296 513.296 234.256 511.736 234.256 508.4ZM248.6 515H250.784V503.648H253.544V501.848H250.784V500.912C250.784 499.208 251.432 498.488 253.4 498.488V496.664C250.04 496.664 248.6 497.984 248.6 500.912V501.848H246.896V503.648H248.6V515ZM264.673 507.848C264.673 504.8 266.257 503.864 268.345 503.864H268.921V501.608C266.833 501.608 265.417 502.52 264.673 503.984V501.848H262.489V515H264.673V507.848ZM277.034 503.48C279.29 503.48 281.21 504.896 281.186 507.464H272.882C273.122 504.896 274.898 503.48 277.034 503.48ZM283.178 510.944H280.826C280.346 512.36 279.098 513.368 277.13 513.368C274.898 513.368 273.026 511.904 272.858 509.24H283.37C283.418 508.784 283.442 508.4 283.442 507.92C283.442 504.32 280.946 501.632 277.13 501.632C273.29 501.632 270.626 504.248 270.626 508.4C270.626 512.576 273.386 515.216 277.13 515.216C280.394 515.216 282.506 513.344 283.178 510.944ZM295.781 511.424C295.685 506.72 288.053 508.424 288.053 505.304C288.053 504.248 289.013 503.48 290.621 503.48C292.373 503.48 293.381 504.44 293.477 505.76H295.661C295.517 503.192 293.597 501.632 290.693 501.632C287.765 501.632 285.869 503.288 285.869 505.304C285.869 510.2 293.645 508.496 293.645 511.424C293.645 512.504 292.685 513.368 290.957 513.368C289.109 513.368 287.981 512.408 287.861 511.136H285.605C285.749 513.536 287.909 515.216 290.981 515.216C293.885 515.216 295.781 513.584 295.781 511.424ZM304.456 503.48C306.712 503.48 308.632 504.896 308.608 507.464H300.304C300.544 504.896 302.32 503.48 304.456 503.48ZM310.6 510.944H308.248C307.768 512.36 306.52 513.368 304.552 513.368C302.32 513.368 300.448 511.904 300.28 509.24H310.792C310.84 508.784 310.864 508.4 310.864 507.92C310.864 504.32 308.368 501.632 304.552 501.632C300.712 501.632 298.048 504.248 298.048 508.4C298.048 512.576 300.808 515.216 304.552 515.216C307.816 515.216 309.928 513.344 310.6 510.944ZM312.93 508.376C312.93 512.456 315.642 515.216 319.146 515.216C321.57 515.216 323.274 513.968 324.066 512.552V515H326.274V501.848H324.066V504.248C323.298 502.88 321.618 501.632 319.17 501.632C315.642 501.632 312.93 504.272 312.93 508.376ZM324.066 508.4C324.066 511.496 322.002 513.296 319.602 513.296C317.202 513.296 315.162 511.472 315.162 508.376C315.162 505.28 317.202 503.528 319.602 503.528C322.002 503.528 324.066 505.352 324.066 508.4ZM332.149 507.848C332.149 504.8 333.733 503.864 335.821 503.864H336.397V501.608C334.309 501.608 332.893 502.52 332.149 503.984V501.848H329.965V515H332.149V507.848ZM338.102 508.4C338.102 512.576 340.766 515.216 344.51 515.216C347.774 515.216 349.91 513.392 350.582 510.776H348.23C347.75 512.432 346.454 513.368 344.51 513.368C342.11 513.368 340.334 511.664 340.334 508.4C340.334 505.184 342.11 503.48 344.51 503.48C346.454 503.48 347.774 504.488 348.23 506.072H350.582C349.91 503.312 347.774 501.632 344.51 501.632C340.766 501.632 338.102 504.272 338.102 508.4ZM353.496 515H355.68V507.728C355.68 504.896 357.216 503.504 359.448 503.504C361.656 503.504 363.12 504.872 363.12 507.56V515H365.28V507.248C365.28 503.48 362.952 501.608 360.024 501.608C358.176 501.608 356.544 502.352 355.68 503.744V497.24H353.496V515ZM374.43 508.376C374.43 512.456 377.142 515.216 380.646 515.216C383.07 515.216 384.774 513.968 385.566 512.552V515H387.774V501.848H385.566V504.248C384.798 502.88 383.118 501.632 380.67 501.632C377.142 501.632 374.43 504.272 374.43 508.376ZM385.566 508.4C385.566 511.496 383.502 513.296 381.102 513.296C378.702 513.296 376.662 511.472 376.662 508.376C376.662 505.28 378.702 503.528 381.102 503.528C383.502 503.528 385.566 505.352 385.566 508.4ZM401.089 515H403.249V507.248C403.249 503.48 400.921 501.608 397.873 501.608C396.097 501.608 394.513 502.352 393.649 503.72V501.848H391.465V515H393.649V507.728C393.649 504.896 395.185 503.504 397.417 503.504C399.625 503.504 401.089 504.872 401.089 507.56V515ZM406.001 508.376C406.001 512.456 408.713 515.216 412.241 515.216C414.641 515.216 416.345 513.992 417.137 512.528V515H419.345V497.24H417.137V504.2C416.225 502.688 414.329 501.632 412.265 501.632C408.713 501.632 406.001 504.272 406.001 508.376ZM417.137 508.4C417.137 511.496 415.073 513.296 412.673 513.296C410.273 513.296 408.233 511.472 408.233 508.376C408.233 505.28 410.273 503.528 412.673 503.528C415.073 503.528 417.137 505.352 417.137 508.4ZM429.914 511.4C429.914 514.04 431.234 515 433.562 515H435.53V513.152H433.922C432.578 513.152 432.098 512.696 432.098 511.4V503.648H435.53V501.848H432.098V498.536H429.914V501.848H428.21V503.648H429.914V511.4ZM438.176 515H440.36V507.728C440.36 504.896 441.896 503.504 444.128 503.504C446.336 503.504 447.8 504.872 447.8 507.56V515H449.96V507.248C449.96 503.48 447.632 501.608 444.704 501.608C442.856 501.608 441.224 502.352 440.36 503.744V497.24H438.176V515ZM459.12 503.48C461.376 503.48 463.296 504.896 463.272 507.464H454.968C455.208 504.896 456.984 503.48 459.12 503.48ZM465.264 510.944H462.912C462.432 512.36 461.184 513.368 459.216 513.368C456.984 513.368 455.112 511.904 454.944 509.24H465.456C465.504 508.784 465.528 508.4 465.528 507.92C465.528 504.32 463.032 501.632 459.216 501.632C455.376 501.632 452.712 504.248 452.712 508.4C452.712 512.576 455.472 515.216 459.216 515.216C462.48 515.216 464.592 513.344 465.264 510.944ZM183.755 556.376C183.755 560.456 186.467 563.216 189.971 563.216C192.395 563.216 194.099 561.968 194.891 560.552V563H197.099V549.848H194.891V552.248C194.123 550.88 192.443 549.632 189.995 549.632C186.467 549.632 183.755 552.272 183.755 556.376ZM194.891 556.4C194.891 559.496 192.827 561.296 190.427 561.296C188.027 561.296 185.987 559.472 185.987 556.376C185.987 553.28 188.027 551.528 190.427 551.528C192.827 551.528 194.891 553.352 194.891 556.4ZM202.973 555.848C202.973 552.8 204.557 551.864 206.645 551.864H207.221V549.608C205.133 549.608 203.717 550.52 202.973 551.984V549.848H200.789V563H202.973V555.848ZM215.335 551.48C217.591 551.48 219.511 552.896 219.487 555.464H211.183C211.423 552.896 213.199 551.48 215.335 551.48ZM221.479 558.944H219.127C218.647 560.36 217.399 561.368 215.431 561.368C213.199 561.368 211.327 559.904 211.159 557.24H221.671C221.719 556.784 221.743 556.4 221.743 555.92C221.743 552.32 219.247 549.632 215.431 549.632C211.591 549.632 208.927 552.248 208.927 556.4C208.927 560.576 211.687 563.216 215.431 563.216C218.695 563.216 220.807 561.344 221.479 558.944ZM223.809 556.376C223.809 560.456 226.521 563.216 230.025 563.216C232.449 563.216 234.153 561.968 234.945 560.552V563H237.153V549.848H234.945V552.248C234.177 550.88 232.497 549.632 230.049 549.632C226.521 549.632 223.809 552.272 223.809 556.376ZM234.945 556.4C234.945 559.496 232.881 561.296 230.481 561.296C228.081 561.296 226.041 559.472 226.041 556.376C226.041 553.28 228.081 551.528 230.481 551.528C232.881 551.528 234.945 553.352 234.945 556.4ZM247.723 559.4C247.723 562.04 249.043 563 251.371 563H253.339V561.152H251.731C250.387 561.152 249.907 560.696 249.907 559.4V551.648H253.339V549.848H249.907V546.536H247.723V549.848H246.019V551.648H247.723V559.4ZM268.465 556.4C268.465 552.248 265.561 549.632 261.817 549.632C258.097 549.632 255.169 552.248 255.169 556.4C255.169 560.576 258.001 563.216 261.721 563.216C265.465 563.216 268.465 560.576 268.465 556.4ZM257.401 556.4C257.401 553.088 259.489 551.528 261.793 551.528C264.049 551.528 266.233 553.088 266.233 556.4C266.233 559.736 264.001 561.296 261.721 561.296C259.441 561.296 257.401 559.736 257.401 556.4ZM278.143 563H280.327V551.648H283.087V549.848H280.327V548.912C280.327 547.208 280.975 546.488 282.943 546.488V544.664C279.583 544.664 278.143 545.984 278.143 548.912V549.848H276.439V551.648H278.143V563ZM298.113 556.4C298.113 552.248 295.209 549.632 291.465 549.632C287.745 549.632 284.817 552.248 284.817 556.4C284.817 560.576 287.649 563.216 291.369 563.216C295.113 563.216 298.113 560.576 298.113 556.4ZM287.049 556.4C287.049 553.088 289.137 551.528 291.441 551.528C293.697 551.528 295.881 553.088 295.881 556.4C295.881 559.736 293.649 561.296 291.369 561.296C289.089 561.296 287.049 559.736 287.049 556.4ZM300.169 556.4C300.169 560.576 302.833 563.216 306.577 563.216C309.841 563.216 311.977 561.392 312.649 558.776H310.297C309.817 560.432 308.521 561.368 306.577 561.368C304.177 561.368 302.401 559.664 302.401 556.4C302.401 553.184 304.177 551.48 306.577 551.48C308.521 551.48 309.841 552.488 310.297 554.072H312.649C311.977 551.312 309.841 549.632 306.577 549.632C302.833 549.632 300.169 552.272 300.169 556.4ZM327.227 549.848H325.043V557.072C325.043 559.904 323.531 561.296 321.275 561.296C319.067 561.296 317.603 559.928 317.603 557.264V549.848H315.443V557.552C315.443 561.32 317.819 563.192 320.843 563.192C322.595 563.192 324.203 562.424 325.043 561.056V563H327.227V549.848ZM340.37 559.424C340.274 554.72 332.642 556.424 332.642 553.304C332.642 552.248 333.602 551.48 335.21 551.48C336.962 551.48 337.97 552.44 338.066 553.76H340.25C340.106 551.192 338.186 549.632 335.282 549.632C332.354 549.632 330.458 551.288 330.458 553.304C330.458 558.2 338.234 556.496 338.234 559.424C338.234 560.504 337.274 561.368 335.546 561.368C333.698 561.368 332.57 560.408 332.45 559.136H330.194C330.338 561.536 332.498 563.216 335.57 563.216C338.474 563.216 340.37 561.584 340.37 559.424ZM361.516 549.848H359.332V557.072C359.332 559.904 357.82 561.296 355.564 561.296C353.356 561.296 351.892 559.928 351.892 557.264V549.848H349.732V557.552C349.732 561.32 352.108 563.192 355.132 563.192C356.884 563.192 358.492 562.424 359.332 561.056V563H361.516V549.848ZM367.387 552.272V549.848H365.203V569.24H367.387V560.576C368.203 561.92 369.907 563.216 372.307 563.216C375.835 563.216 378.547 560.456 378.547 556.376C378.547 552.272 375.835 549.632 372.307 549.632C369.907 549.632 368.179 550.88 367.387 552.272ZM376.315 556.376C376.315 559.472 374.275 561.296 371.851 561.296C369.475 561.296 367.387 559.496 367.387 556.4C367.387 553.352 369.475 551.528 371.851 551.528C374.275 551.528 376.315 553.28 376.315 556.376ZM393.902 556.4C393.902 552.248 390.998 549.632 387.254 549.632C383.534 549.632 380.606 552.248 380.606 556.4C380.606 560.576 383.438 563.216 387.158 563.216C390.902 563.216 393.902 560.576 393.902 556.4ZM382.838 556.4C382.838 553.088 384.926 551.528 387.23 551.528C389.486 551.528 391.67 553.088 391.67 556.4C391.67 559.736 389.438 561.296 387.158 561.296C384.878 561.296 382.838 559.736 382.838 556.4ZM406.398 563H408.558V555.248C408.558 551.48 406.23 549.608 403.182 549.608C401.406 549.608 399.822 550.352 398.958 551.72V549.848H396.774V563H398.958V555.728C398.958 552.896 400.494 551.504 402.726 551.504C404.934 551.504 406.398 552.872 406.398 555.56V563Z" fill="white"/>
<path d="M310.35 331.9V345.6H296.65V331.9H310.35ZM226 299.5C226 256.72 260.72 222 303.5 222C346.28 222 381 256.72 381 299.5C381 342.28 346.28 377 303.5 377C260.72 377 226 342.28 226 299.5ZM239.7 299.5C239.7 334.671 268.329 363.3 303.5 363.3C338.671 363.3 367.3 334.671 367.3 299.5C367.3 264.329 338.671 235.7 303.5 235.7C268.329 235.7 239.7 264.329 239.7 299.5ZM296.663 322.05C296.808 316.353 298.195 312.169 300.185 308.88C302.3 305.385 305.131 302.837 308.046 300.529C308.725 299.992 309.415 299.463 310.103 298.935C312.321 297.236 314.519 295.552 316.259 293.642C318.599 291.076 320.2 288.024 320.2 283.8C320.2 274.613 312.687 267.1 303.5 267.1C294.648 267.1 287.351 274.074 286.83 282.8H273.116C273.643 266.467 287.038 253.4 303.5 253.4C320.296 253.4 333.9 267.004 333.9 283.8C333.9 293.118 328.366 298.246 322.466 303.408C322.283 303.569 322.098 303.73 321.914 303.891C316.469 308.647 310.791 313.604 310.374 322.05H296.663Z" stroke="white" stroke-width="2"/>
<g filter="url(#filter3_d)">
<rect x="601" y="93" width="468" height="522" fill="#7A68EF" fill-opacity="0.73"/>
</g>
<path d="M680.318 493.272C682.142 493.272 683.718 493.616 685.046 494.304C686.39 494.976 687.414 495.944 688.118 497.208C688.838 498.472 689.198 499.96 689.198 501.672C689.198 503.384 688.838 504.872 688.118 506.136C687.414 507.384 686.39 508.344 685.046 509.016C683.718 509.672 682.142 510 680.318 510H675.11V493.272H680.318ZM680.318 508.2C682.478 508.2 684.126 507.632 685.262 506.496C686.398 505.344 686.966 503.736 686.966 501.672C686.966 499.592 686.39 497.968 685.238 496.8C684.102 495.632 682.462 495.048 680.318 495.048H677.294V508.2H680.318ZM704.078 502.92C704.078 503.336 704.054 503.776 704.006 504.24H693.494C693.574 505.536 694.014 506.552 694.814 507.288C695.63 508.008 696.614 508.368 697.766 508.368C698.71 508.368 699.494 508.152 700.118 507.72C700.758 507.272 701.206 506.68 701.462 505.944H703.814C703.462 507.208 702.758 508.24 701.702 509.04C700.646 509.824 699.334 510.216 697.766 510.216C696.518 510.216 695.398 509.936 694.406 509.376C693.43 508.816 692.662 508.024 692.102 507C691.542 505.96 691.262 504.76 691.262 503.4C691.262 502.04 691.534 500.848 692.078 499.824C692.622 498.8 693.382 498.016 694.358 497.472C695.35 496.912 696.486 496.632 697.766 496.632C699.014 496.632 700.118 496.904 701.078 497.448C702.038 497.992 702.774 498.744 703.286 499.704C703.814 500.648 704.078 501.72 704.078 502.92ZM701.822 502.464C701.822 501.632 701.638 500.92 701.27 500.328C700.902 499.72 700.398 499.264 699.758 498.96C699.134 498.64 698.438 498.48 697.67 498.48C696.566 498.48 695.622 498.832 694.838 499.536C694.07 500.24 693.63 501.216 693.518 502.464H701.822ZM711.617 510.216C710.609 510.216 709.705 510.048 708.905 509.712C708.105 509.36 707.473 508.88 707.009 508.272C706.545 507.648 706.289 506.936 706.241 506.136H708.497C708.561 506.792 708.865 507.328 709.409 507.744C709.969 508.16 710.697 508.368 711.593 508.368C712.425 508.368 713.081 508.184 713.561 507.816C714.041 507.448 714.281 506.984 714.281 506.424C714.281 505.848 714.025 505.424 713.513 505.152C713.001 504.864 712.209 504.584 711.137 504.312C710.161 504.056 709.361 503.8 708.737 503.544C708.129 503.272 707.601 502.88 707.153 502.368C706.721 501.84 706.505 501.152 706.505 500.304C706.505 499.632 706.705 499.016 707.105 498.456C707.505 497.896 708.073 497.456 708.809 497.136C709.545 496.8 710.385 496.632 711.329 496.632C712.785 496.632 713.961 497 714.857 497.736C715.753 498.472 716.233 499.48 716.297 500.76H714.113C714.065 500.072 713.785 499.52 713.273 499.104C712.777 498.688 712.105 498.48 711.257 498.48C710.473 498.48 709.849 498.648 709.385 498.984C708.921 499.32 708.689 499.76 708.689 500.304C708.689 500.736 708.825 501.096 709.097 501.384C709.385 501.656 709.737 501.88 710.153 502.056C710.585 502.216 711.177 502.4 711.929 502.608C712.873 502.864 713.641 503.12 714.233 503.376C714.825 503.616 715.329 503.984 715.745 504.48C716.177 504.976 716.401 505.624 716.417 506.424C716.417 507.144 716.217 507.792 715.817 508.368C715.417 508.944 714.849 509.4 714.113 509.736C713.393 510.056 712.561 510.216 711.617 510.216ZM720.628 494.712C720.212 494.712 719.86 494.568 719.572 494.28C719.284 493.992 719.14 493.64 719.14 493.224C719.14 492.808 719.284 492.456 719.572 492.168C719.86 491.88 720.212 491.736 720.628 491.736C721.028 491.736 721.364 491.88 721.636 492.168C721.924 492.456 722.068 492.808 722.068 493.224C722.068 493.64 721.924 493.992 721.636 494.28C721.364 494.568 721.028 494.712 720.628 494.712ZM721.684 496.848V510H719.5V496.848H721.684ZM730.831 496.632C731.967 496.632 732.959 496.88 733.807 497.376C734.671 497.872 735.311 498.496 735.727 499.248V496.848H737.935V510.288C737.935 511.488 737.679 512.552 737.167 513.48C736.655 514.424 735.919 515.16 734.959 515.688C734.015 516.216 732.911 516.48 731.647 516.48C729.919 516.48 728.479 516.072 727.327 515.256C726.175 514.44 725.495 513.328 725.287 511.92H727.447C727.687 512.72 728.183 513.36 728.935 513.84C729.687 514.336 730.591 514.584 731.647 514.584C732.847 514.584 733.823 514.208 734.575 513.456C735.343 512.704 735.727 511.648 735.727 510.288V507.528C735.295 508.296 734.655 508.936 733.807 509.448C732.959 509.96 731.967 510.216 730.831 510.216C729.663 510.216 728.599 509.928 727.639 509.352C726.695 508.776 725.951 507.968 725.407 506.928C724.863 505.888 724.591 504.704 724.591 503.376C724.591 502.032 724.863 500.856 725.407 499.848C725.951 498.824 726.695 498.032 727.639 497.472C728.599 496.912 729.663 496.632 730.831 496.632ZM735.727 503.4C735.727 502.408 735.527 501.544 735.127 500.808C734.727 500.072 734.183 499.512 733.495 499.128C732.823 498.728 732.079 498.528 731.263 498.528C730.447 498.528 729.703 498.72 729.031 499.104C728.359 499.488 727.823 500.048 727.423 500.784C727.023 501.52 726.823 502.384 726.823 503.376C726.823 504.384 727.023 505.264 727.423 506.016C727.823 506.752 728.359 507.32 729.031 507.72C729.703 508.104 730.447 508.296 731.263 508.296C732.079 508.296 732.823 508.104 733.495 507.72C734.183 507.32 734.727 506.752 735.127 506.016C735.527 505.264 735.727 504.392 735.727 503.4ZM748.033 496.608C749.633 496.608 750.929 497.096 751.921 498.072C752.913 499.032 753.409 500.424 753.409 502.248V510H751.249V502.56C751.249 501.248 750.921 500.248 750.265 499.56C749.609 498.856 748.713 498.504 747.577 498.504C746.425 498.504 745.505 498.864 744.817 499.584C744.145 500.304 743.809 501.352 743.809 502.728V510H741.625V496.848H743.809V498.72C744.241 498.048 744.825 497.528 745.561 497.16C746.313 496.792 747.137 496.608 748.033 496.608ZM766.039 498.648V506.4C766.039 507.04 766.175 507.496 766.447 507.768C766.719 508.024 767.191 508.152 767.863 508.152H769.471V510H767.503C766.287 510 765.375 509.72 764.767 509.16C764.159 508.6 763.855 507.68 763.855 506.4V498.648H762.151V496.848H763.855V493.536H766.039V496.848H769.471V498.648H766.039ZM778.646 496.608C779.638 496.608 780.534 496.824 781.334 497.256C782.134 497.672 782.758 498.304 783.206 499.152C783.67 500 783.902 501.032 783.902 502.248V510H781.742V502.56C781.742 501.248 781.414 500.248 780.758 499.56C780.102 498.856 779.206 498.504 778.07 498.504C776.918 498.504 775.998 498.864 775.31 499.584C774.638 500.304 774.302 501.352 774.302 502.728V510H772.118V492.24H774.302V498.72C774.734 498.048 775.326 497.528 776.078 497.16C776.846 496.792 777.702 496.608 778.646 496.608ZM799.469 502.92C799.469 503.336 799.445 503.776 799.397 504.24H788.885C788.965 505.536 789.405 506.552 790.205 507.288C791.021 508.008 792.005 508.368 793.157 508.368C794.101 508.368 794.885 508.152 795.509 507.72C796.149 507.272 796.597 506.68 796.853 505.944H799.205C798.853 507.208 798.149 508.24 797.093 509.04C796.037 509.824 794.725 510.216 793.157 510.216C791.909 510.216 790.789 509.936 789.797 509.376C788.821 508.816 788.053 508.024 787.493 507C786.933 505.96 786.653 504.76 786.653 503.4C786.653 502.04 786.925 500.848 787.469 499.824C788.013 498.8 788.773 498.016 789.749 497.472C790.741 496.912 791.877 496.632 793.157 496.632C794.405 496.632 795.509 496.904 796.469 497.448C797.429 497.992 798.165 498.744 798.677 499.704C799.205 500.648 799.469 501.72 799.469 502.92ZM797.213 502.464C797.213 501.632 797.029 500.92 796.661 500.328C796.293 499.72 795.789 499.264 795.149 498.96C794.525 498.64 793.829 498.48 793.061 498.48C791.957 498.48 791.013 498.832 790.229 499.536C789.461 500.24 789.021 501.216 788.909 502.464H797.213ZM826.27 496.848L822.166 510H819.91L816.742 499.56L813.574 510H811.318L807.19 496.848H809.422L812.446 507.888L815.71 496.848H817.942L821.134 507.912L824.11 496.848H826.27ZM829.566 494.712C829.15 494.712 828.798 494.568 828.51 494.28C828.222 493.992 828.078 493.64 828.078 493.224C828.078 492.808 828.222 492.456 828.51 492.168C828.798 491.88 829.15 491.736 829.566 491.736C829.966 491.736 830.302 491.88 830.574 492.168C830.862 492.456 831.006 492.808 831.006 493.224C831.006 493.64 830.862 493.992 830.574 494.28C830.302 494.568 829.966 494.712 829.566 494.712ZM830.622 496.848V510H828.438V496.848H830.622ZM836.528 498.984C836.912 498.232 837.456 497.648 838.16 497.232C838.88 496.816 839.752 496.608 840.776 496.608V498.864H840.2C837.752 498.864 836.528 500.192 836.528 502.848V510H834.344V496.848H836.528V498.984ZM855.297 502.92C855.297 503.336 855.273 503.776 855.225 504.24H844.713C844.793 505.536 845.233 506.552 846.033 507.288C846.849 508.008 847.833 508.368 848.985 508.368C849.929 508.368 850.713 508.152 851.337 507.72C851.977 507.272 852.425 506.68 852.681 505.944H855.033C854.681 507.208 853.977 508.24 852.921 509.04C851.865 509.824 850.553 510.216 848.985 510.216C847.737 510.216 846.617 509.936 845.625 509.376C844.649 508.816 843.881 508.024 843.321 507C842.761 505.96 842.481 504.76 842.481 503.4C842.481 502.04 842.753 500.848 843.297 499.824C843.841 498.8 844.601 498.016 845.577 497.472C846.569 496.912 847.705 496.632 848.985 496.632C850.233 496.632 851.337 496.904 852.297 497.448C853.257 497.992 853.993 498.744 854.505 499.704C855.033 500.648 855.297 501.72 855.297 502.92ZM853.041 502.464C853.041 501.632 852.857 500.92 852.489 500.328C852.121 499.72 851.617 499.264 850.977 498.96C850.353 498.64 849.657 498.48 848.889 498.48C847.785 498.48 846.841 498.832 846.057 499.536C845.289 500.24 844.849 501.216 844.737 502.464H853.041ZM863.532 498.648H860.772V510H858.588V498.648H856.884V496.848H858.588V495.912C858.588 494.44 858.964 493.368 859.716 492.696C860.484 492.008 861.708 491.664 863.388 491.664V493.488C862.428 493.488 861.748 493.68 861.348 494.064C860.964 494.432 860.772 495.048 860.772 495.912V496.848H863.532V498.648ZM868.262 498.984C868.646 498.232 869.19 497.648 869.894 497.232C870.614 496.816 871.486 496.608 872.51 496.608V498.864H871.934C869.486 498.864 868.262 500.192 868.262 502.848V510H866.078V496.848H868.262V498.984ZM874.216 503.376C874.216 502.032 874.488 500.856 875.032 499.848C875.576 498.824 876.32 498.032 877.264 497.472C878.224 496.912 879.288 496.632 880.456 496.632C881.608 496.632 882.608 496.88 883.456 497.376C884.304 497.872 884.936 498.496 885.352 499.248V496.848H887.56V510H885.352V507.552C884.92 508.32 884.272 508.96 883.408 509.472C882.56 509.968 881.568 510.216 880.432 510.216C879.264 510.216 878.208 509.928 877.264 509.352C876.32 508.776 875.576 507.968 875.032 506.928C874.488 505.888 874.216 504.704 874.216 503.376ZM885.352 503.4C885.352 502.408 885.152 501.544 884.752 500.808C884.352 500.072 883.808 499.512 883.12 499.128C882.448 498.728 881.704 498.528 880.888 498.528C880.072 498.528 879.328 498.72 878.656 499.104C877.984 499.488 877.448 500.048 877.048 500.784C876.648 501.52 876.448 502.384 876.448 503.376C876.448 504.384 876.648 505.264 877.048 506.016C877.448 506.752 877.984 507.32 878.656 507.72C879.328 508.104 880.072 508.296 880.888 508.296C881.704 508.296 882.448 508.104 883.12 507.72C883.808 507.32 884.352 506.752 884.752 506.016C885.152 505.264 885.352 504.392 885.352 503.4ZM907.066 496.608C908.09 496.608 909.002 496.824 909.802 497.256C910.602 497.672 911.234 498.304 911.698 499.152C912.162 500 912.394 501.032 912.394 502.248V510H910.234V502.56C910.234 501.248 909.906 500.248 909.25 499.56C908.61 498.856 907.738 498.504 906.634 498.504C905.498 498.504 904.594 498.872 903.922 499.608C903.25 500.328 902.914 501.376 902.914 502.752V510H900.754V502.56C900.754 501.248 900.426 500.248 899.77 499.56C899.13 498.856 898.258 498.504 897.154 498.504C896.018 498.504 895.114 498.872 894.442 499.608C893.77 500.328 893.434 501.376 893.434 502.752V510H891.25V496.848H893.434V498.744C893.866 498.056 894.442 497.528 895.162 497.16C895.898 496.792 896.706 496.608 897.586 496.608C898.69 496.608 899.666 496.856 900.514 497.352C901.362 497.848 901.994 498.576 902.41 499.536C902.778 498.608 903.386 497.888 904.234 497.376C905.082 496.864 906.026 496.608 907.066 496.608ZM927.977 502.92C927.977 503.336 927.953 503.776 927.905 504.24H917.393C917.473 505.536 917.913 506.552 918.713 507.288C919.529 508.008 920.513 508.368 921.665 508.368C922.609 508.368 923.393 508.152 924.017 507.72C924.657 507.272 925.105 506.68 925.361 505.944H927.713C927.361 507.208 926.657 508.24 925.601 509.04C924.545 509.824 923.233 510.216 921.665 510.216C920.417 510.216 919.297 509.936 918.305 509.376C917.329 508.816 916.561 508.024 916.001 507C915.441 505.96 915.161 504.76 915.161 503.4C915.161 502.04 915.433 500.848 915.977 499.824C916.521 498.8 917.281 498.016 918.257 497.472C919.249 496.912 920.385 496.632 921.665 496.632C922.913 496.632 924.017 496.904 924.977 497.448C925.937 497.992 926.673 498.744 927.185 499.704C927.713 500.648 927.977 501.72 927.977 502.92ZM925.721 502.464C925.721 501.632 925.537 500.92 925.169 500.328C924.801 499.72 924.297 499.264 923.657 498.96C923.033 498.64 922.337 498.48 921.569 498.48C920.465 498.48 919.521 498.832 918.737 499.536C917.969 500.24 917.529 501.216 917.417 502.464H925.721ZM935.516 510.216C934.508 510.216 933.604 510.048 932.804 509.712C932.004 509.36 931.372 508.88 930.908 508.272C930.444 507.648 930.188 506.936 930.14 506.136H932.396C932.46 506.792 932.764 507.328 933.308 507.744C933.868 508.16 934.596 508.368 935.492 508.368C936.324 508.368 936.98 508.184 937.46 507.816C937.94 507.448 938.18 506.984 938.18 506.424C938.18 505.848 937.924 505.424 937.412 505.152C936.9 504.864 936.108 504.584 935.036 504.312C934.06 504.056 933.26 503.8 932.636 503.544C932.028 503.272 931.5 502.88 931.052 502.368C930.62 501.84 930.404 501.152 930.404 500.304C930.404 499.632 930.604 499.016 931.004 498.456C931.404 497.896 931.972 497.456 932.708 497.136C933.444 496.8 934.284 496.632 935.228 496.632C936.684 496.632 937.86 497 938.756 497.736C939.652 498.472 940.132 499.48 940.196 500.76H938.012C937.964 500.072 937.684 499.52 937.172 499.104C936.676 498.688 936.004 498.48 935.156 498.48C934.372 498.48 933.748 498.648 933.284 498.984C932.82 499.32 932.588 499.76 932.588 500.304C932.588 500.736 932.724 501.096 932.996 501.384C933.284 501.656 933.636 501.88 934.052 502.056C934.484 502.216 935.076 502.4 935.828 502.608C936.772 502.864 937.54 503.12 938.132 503.376C938.724 503.616 939.228 503.984 939.644 504.48C940.076 504.976 940.3 505.624 940.316 506.424C940.316 507.144 940.116 507.792 939.716 508.368C939.316 508.944 938.748 509.4 938.012 509.736C937.292 510.056 936.46 510.216 935.516 510.216ZM948.981 503.376C948.981 502.032 949.253 500.856 949.797 499.848C950.341 498.824 951.085 498.032 952.029 497.472C952.989 496.912 954.053 496.632 955.221 496.632C956.373 496.632 957.373 496.88 958.221 497.376C959.069 497.872 959.701 498.496 960.117 499.248V496.848H962.325V510H960.117V507.552C959.685 508.32 959.037 508.96 958.173 509.472C957.325 509.968 956.333 510.216 955.197 510.216C954.029 510.216 952.973 509.928 952.029 509.352C951.085 508.776 950.341 507.968 949.797 506.928C949.253 505.888 948.981 504.704 948.981 503.376ZM960.117 503.4C960.117 502.408 959.917 501.544 959.517 500.808C959.117 500.072 958.573 499.512 957.885 499.128C957.213 498.728 956.469 498.528 955.653 498.528C954.837 498.528 954.093 498.72 953.421 499.104C952.749 499.488 952.213 500.048 951.813 500.784C951.413 501.52 951.213 502.384 951.213 503.376C951.213 504.384 951.413 505.264 951.813 506.016C952.213 506.752 952.749 507.32 953.421 507.72C954.093 508.104 954.837 508.296 955.653 508.296C956.469 508.296 957.213 508.104 957.885 507.72C958.573 507.32 959.117 506.752 959.517 506.016C959.917 505.264 960.117 504.392 960.117 503.4ZM972.424 496.608C974.024 496.608 975.32 497.096 976.312 498.072C977.304 499.032 977.8 500.424 977.8 502.248V510H975.64V502.56C975.64 501.248 975.312 500.248 974.656 499.56C974 498.856 973.104 498.504 971.968 498.504C970.816 498.504 969.896 498.864 969.208 499.584C968.536 500.304 968.2 501.352 968.2 502.728V510H966.016V496.848H968.2V498.72C968.632 498.048 969.216 497.528 969.952 497.16C970.704 496.792 971.528 496.608 972.424 496.608ZM980.552 503.376C980.552 502.032 980.824 500.856 981.368 499.848C981.912 498.824 982.656 498.032 983.6 497.472C984.56 496.912 985.632 496.632 986.816 496.632C987.84 496.632 988.792 496.872 989.672 497.352C990.552 497.816 991.224 498.432 991.688 499.2V492.24H993.896V510H991.688V507.528C991.256 508.312 990.616 508.96 989.768 509.472C988.92 509.968 987.928 510.216 986.792 510.216C985.624 510.216 984.56 509.928 983.6 509.352C982.656 508.776 981.912 507.968 981.368 506.928C980.824 505.888 980.552 504.704 980.552 503.376ZM991.688 503.4C991.688 502.408 991.488 501.544 991.088 500.808C990.688 500.072 990.144 499.512 989.456 499.128C988.784 498.728 988.04 498.528 987.224 498.528C986.408 498.528 985.664 498.72 984.992 499.104C984.32 499.488 983.784 500.048 983.384 500.784C982.984 501.52 982.784 502.384 982.784 503.376C982.784 504.384 982.984 505.264 983.384 506.016C983.784 506.752 984.32 507.32 984.992 507.72C985.664 508.104 986.408 508.296 987.224 508.296C988.04 508.296 988.784 508.104 989.456 507.72C990.144 507.32 990.688 506.752 991.088 506.016C991.488 505.264 991.688 504.392 991.688 503.4ZM764.545 541.272V558H762.361V550.416H753.841V558H751.657V541.272H753.841V548.616H762.361V541.272H764.545ZM769.402 542.712C768.986 542.712 768.634 542.568 768.346 542.28C768.058 541.992 767.914 541.64 767.914 541.224C767.914 540.808 768.058 540.456 768.346 540.168C768.634 539.88 768.986 539.736 769.402 539.736C769.802 539.736 770.138 539.88 770.41 540.168C770.698 540.456 770.842 540.808 770.842 541.224C770.842 541.64 770.698 541.992 770.41 542.28C770.138 542.568 769.802 542.712 769.402 542.712ZM770.458 544.848V558H768.274V544.848H770.458ZM783.3 548.28V550.128H773.724V548.28H783.3ZM796.855 541.272V543.048H789.583V548.688H795.487V550.464H789.583V558H787.399V541.272H796.855ZM800.621 542.712C800.205 542.712 799.853 542.568 799.565 542.28C799.277 541.992 799.133 541.64 799.133 541.224C799.133 540.808 799.277 540.456 799.565 540.168C799.853 539.88 800.205 539.736 800.621 539.736C801.021 539.736 801.357 539.88 801.629 540.168C801.917 540.456 802.061 540.808 802.061 541.224C802.061 541.64 801.917 541.992 801.629 542.28C801.357 542.568 801.021 542.712 800.621 542.712ZM801.677 544.848V558H799.493V544.848H801.677ZM813.981 547.272C814.413 546.52 815.053 545.896 815.901 545.4C816.765 544.888 817.765 544.632 818.901 544.632C820.069 544.632 821.125 544.912 822.069 545.472C823.029 546.032 823.781 546.824 824.325 547.848C824.869 548.856 825.141 550.032 825.141 551.376C825.141 552.704 824.869 553.888 824.325 554.928C823.781 555.968 823.029 556.776 822.069 557.352C821.125 557.928 820.069 558.216 818.901 558.216C817.781 558.216 816.789 557.968 815.925 557.472C815.077 556.96 814.429 556.328 813.981 555.576V564.24H811.797V544.848H813.981V547.272ZM822.909 551.376C822.909 550.384 822.709 549.52 822.309 548.784C821.909 548.048 821.365 547.488 820.677 547.104C820.005 546.72 819.261 546.528 818.445 546.528C817.645 546.528 816.901 546.728 816.213 547.128C815.541 547.512 814.997 548.08 814.581 548.832C814.181 549.568 813.981 550.424 813.981 551.4C813.981 552.392 814.181 553.264 814.581 554.016C814.997 554.752 815.541 555.32 816.213 555.72C816.901 556.104 817.645 556.296 818.445 556.296C819.261 556.296 820.005 556.104 820.677 555.72C821.365 555.32 821.909 554.752 822.309 554.016C822.709 553.264 822.909 552.384 822.909 551.376ZM830.2 546.984C830.584 546.232 831.128 545.648 831.832 545.232C832.552 544.816 833.424 544.608 834.448 544.608V546.864H833.872C831.424 546.864 830.2 548.192 830.2 550.848V558H828.016V544.848H830.2V546.984ZM842.705 558.216C841.473 558.216 840.353 557.936 839.345 557.376C838.353 556.816 837.569 556.024 836.993 555C836.433 553.96 836.153 552.76 836.153 551.4C836.153 550.056 836.441 548.872 837.017 547.848C837.609 546.808 838.409 546.016 839.417 545.472C840.425 544.912 841.553 544.632 842.801 544.632C844.049 544.632 845.177 544.912 846.185 545.472C847.193 546.016 847.985 546.8 848.561 547.824C849.153 548.848 849.449 550.04 849.449 551.4C849.449 552.76 849.145 553.96 848.537 555C847.945 556.024 847.137 556.816 846.113 557.376C845.089 557.936 843.953 558.216 842.705 558.216ZM842.705 556.296C843.489 556.296 844.225 556.112 844.913 555.744C845.601 555.376 846.153 554.824 846.569 554.088C847.001 553.352 847.217 552.456 847.217 551.4C847.217 550.344 847.009 549.448 846.593 548.712C846.177 547.976 845.633 547.432 844.961 547.08C844.289 546.712 843.561 546.528 842.777 546.528C841.977 546.528 841.241 546.712 840.569 547.08C839.913 547.432 839.385 547.976 838.985 548.712C838.585 549.448 838.385 550.344 838.385 551.4C838.385 552.472 838.577 553.376 838.961 554.112C839.361 554.848 839.889 555.4 840.545 555.768C841.201 556.12 841.921 556.296 842.705 556.296ZM854.985 546.648V554.4C854.985 555.04 855.121 555.496 855.393 555.768C855.665 556.024 856.137 556.152 856.809 556.152H858.417V558H856.449C855.233 558 854.321 557.72 853.713 557.16C853.105 556.6 852.801 555.68 852.801 554.4V546.648H851.097V544.848H852.801V541.536H854.985V544.848H858.417V546.648H854.985ZM866.799 558.216C865.567 558.216 864.447 557.936 863.439 557.376C862.447 556.816 861.663 556.024 861.087 555C860.527 553.96 860.247 552.76 860.247 551.4C860.247 550.056 860.535 548.872 861.111 547.848C861.703 546.808 862.503 546.016 863.511 545.472C864.519 544.912 865.647 544.632 866.895 544.632C868.143 544.632 869.271 544.912 870.279 545.472C871.287 546.016 872.079 546.8 872.655 547.824C873.247 548.848 873.543 550.04 873.543 551.4C873.543 552.76 873.239 553.96 872.631 555C872.039 556.024 871.231 556.816 870.207 557.376C869.183 557.936 868.047 558.216 866.799 558.216ZM866.799 556.296C867.583 556.296 868.319 556.112 869.007 555.744C869.695 555.376 870.247 554.824 870.663 554.088C871.095 553.352 871.311 552.456 871.311 551.4C871.311 550.344 871.103 549.448 870.687 548.712C870.271 547.976 869.727 547.432 869.055 547.08C868.383 546.712 867.655 546.528 866.871 546.528C866.071 546.528 865.335 546.712 864.663 547.08C864.007 547.432 863.479 547.976 863.079 548.712C862.679 549.448 862.479 550.344 862.479 551.4C862.479 552.472 862.671 553.376 863.055 554.112C863.455 554.848 863.983 555.4 864.639 555.768C865.295 556.12 866.015 556.296 866.799 556.296ZM887.742 544.848L879.822 564.192H877.566L880.158 557.856L874.854 544.848H877.278L881.406 555.504L885.486 544.848H887.742ZM892.122 547.272C892.554 546.52 893.194 545.896 894.042 545.4C894.906 544.888 895.906 544.632 897.042 544.632C898.21 544.632 899.266 544.912 900.21 545.472C901.17 546.032 901.922 546.824 902.466 547.848C903.01 548.856 903.282 550.032 903.282 551.376C903.282 552.704 903.01 553.888 902.466 554.928C901.922 555.968 901.17 556.776 900.21 557.352C899.266 557.928 898.21 558.216 897.042 558.216C895.922 558.216 894.93 557.968 894.066 557.472C893.218 556.96 892.57 556.328 892.122 555.576V564.24H889.938V544.848H892.122V547.272ZM901.05 551.376C901.05 550.384 900.85 549.52 900.45 548.784C900.05 548.048 899.506 547.488 898.818 547.104C898.146 546.72 897.402 546.528 896.586 546.528C895.786 546.528 895.042 546.728 894.354 547.128C893.682 547.512 893.138 548.08 892.722 548.832C892.322 549.568 892.122 550.424 892.122 551.4C892.122 552.392 892.322 553.264 892.722 554.016C893.138 554.752 893.682 555.32 894.354 555.72C895.042 556.104 895.786 556.296 896.586 556.296C897.402 556.296 898.146 556.104 898.818 555.72C899.506 555.32 900.05 554.752 900.45 554.016C900.85 553.264 901.05 552.384 901.05 551.376ZM918.157 550.92C918.157 551.336 918.133 551.776 918.085 552.24H907.573C907.653 553.536 908.093 554.552 908.893 555.288C909.709 556.008 910.693 556.368 911.845 556.368C912.789 556.368 913.573 556.152 914.197 555.72C914.837 555.272 915.285 554.68 915.541 553.944H917.893C917.541 555.208 916.837 556.24 915.781 557.04C914.725 557.824 913.413 558.216 911.845 558.216C910.597 558.216 909.477 557.936 908.485 557.376C907.509 556.816 906.741 556.024 906.181 555C905.621 553.96 905.341 552.76 905.341 551.4C905.341 550.04 905.613 548.848 906.157 547.824C906.701 546.8 907.461 546.016 908.437 545.472C909.429 544.912 910.565 544.632 911.845 544.632C913.093 544.632 914.197 544.904 915.157 545.448C916.117 545.992 916.853 546.744 917.365 547.704C917.893 548.648 918.157 549.72 918.157 550.92ZM915.901 550.464C915.901 549.632 915.717 548.92 915.349 548.328C914.981 547.72 914.477 547.264 913.837 546.96C913.213 546.64 912.517 546.48 911.749 546.48C910.645 546.48 909.701 546.832 908.917 547.536C908.149 548.24 907.709 549.216 907.597 550.464H915.901Z" fill="white"/>
<path d="M784.184 432.908C786.92 432.908 789.284 433.424 791.276 434.456C793.292 435.464 794.828 436.916 795.884 438.812C796.964 440.708 797.504 442.94 797.504 445.508C797.504 448.076 796.964 450.308 795.884 452.204C794.828 454.076 793.292 455.516 791.276 456.524C789.284 457.508 786.92 458 784.184 458H776.372V432.908H784.184ZM784.184 455.3C787.424 455.3 789.896 454.448 791.6 452.744C793.304 451.016 794.156 448.604 794.156 445.508C794.156 442.388 793.292 439.952 791.564 438.2C789.86 436.448 787.4 435.572 784.184 435.572H779.648V455.3H784.184ZM819.825 447.38C819.825 448.004 819.789 448.664 819.717 449.36H803.949C804.069 451.304 804.729 452.828 805.929 453.932C807.153 455.012 808.629 455.552 810.357 455.552C811.773 455.552 812.949 455.228 813.885 454.58C814.845 453.908 815.517 453.02 815.901 451.916H819.429C818.901 453.812 817.845 455.36 816.261 456.56C814.677 457.736 812.709 458.324 810.357 458.324C808.485 458.324 806.805 457.904 805.317 457.064C803.853 456.224 802.701 455.036 801.861 453.5C801.021 451.94 800.601 450.14 800.601 448.1C800.601 446.06 801.009 444.272 801.825 442.736C802.641 441.2 803.781 440.024 805.245 439.208C806.733 438.368 808.437 437.948 810.357 437.948C812.229 437.948 813.885 438.356 815.325 439.172C816.765 439.988 817.869 441.116 818.637 442.556C819.429 443.972 819.825 445.58 819.825 447.38ZM816.441 446.696C816.441 445.448 816.165 444.38 815.613 443.492C815.061 442.58 814.305 441.896 813.345 441.44C812.409 440.96 811.365 440.72 810.213 440.72C808.557 440.72 807.141 441.248 805.965 442.304C804.813 443.36 804.153 444.824 803.985 446.696H816.441ZM831.133 458.324C829.621 458.324 828.265 458.072 827.065 457.568C825.865 457.04 824.917 456.32 824.221 455.408C823.525 454.472 823.141 453.404 823.069 452.204H826.453C826.549 453.188 827.005 453.992 827.821 454.616C828.661 455.24 829.753 455.552 831.097 455.552C832.345 455.552 833.329 455.276 834.049 454.724C834.769 454.172 835.129 453.476 835.129 452.636C835.129 451.772 834.745 451.136 833.977 450.728C833.209 450.296 832.021 449.876 830.413 449.468C828.949 449.084 827.749 448.7 826.813 448.316C825.901 447.908 825.109 447.32 824.437 446.552C823.789 445.76 823.465 444.728 823.465 443.456C823.465 442.448 823.765 441.524 824.365 440.684C824.965 439.844 825.817 439.184 826.921 438.704C828.025 438.2 829.285 437.948 830.701 437.948C832.885 437.948 834.649 438.5 835.993 439.604C837.337 440.708 838.057 442.22 838.153 444.14H834.877C834.805 443.108 834.385 442.28 833.617 441.656C832.873 441.032 831.865 440.72 830.593 440.72C829.417 440.72 828.481 440.972 827.785 441.476C827.089 441.98 826.741 442.64 826.741 443.456C826.741 444.104 826.945 444.644 827.353 445.076C827.785 445.484 828.313 445.82 828.937 446.084C829.585 446.324 830.473 446.6 831.601 446.912C833.017 447.296 834.169 447.68 835.057 448.064C835.945 448.424 836.701 448.976 837.325 449.72C837.973 450.464 838.309 451.436 838.333 452.636C838.333 453.716 838.033 454.688 837.433 455.552C836.833 456.416 835.981 457.1 834.877 457.604C833.797 458.084 832.549 458.324 831.133 458.324ZM844.65 435.068C844.026 435.068 843.498 434.852 843.066 434.42C842.634 433.988 842.418 433.46 842.418 432.836C842.418 432.212 842.634 431.684 843.066 431.252C843.498 430.82 844.026 430.604 844.65 430.604C845.25 430.604 845.754 430.82 846.162 431.252C846.594 431.684 846.81 432.212 846.81 432.836C846.81 433.46 846.594 433.988 846.162 434.42C845.754 434.852 845.25 435.068 844.65 435.068ZM846.234 438.272V458H842.958V438.272H846.234ZM859.953 437.948C861.657 437.948 863.145 438.32 864.417 439.064C865.713 439.808 866.673 440.744 867.297 441.872V438.272H870.609V458.432C870.609 460.232 870.225 461.828 869.457 463.22C868.689 464.636 867.585 465.74 866.145 466.532C864.729 467.324 863.073 467.72 861.177 467.72C858.585 467.72 856.425 467.108 854.697 465.884C852.969 464.66 851.949 462.992 851.637 460.88H854.877C855.237 462.08 855.981 463.04 857.109 463.76C858.237 464.504 859.593 464.876 861.177 464.876C862.977 464.876 864.441 464.312 865.569 463.184C866.721 462.056 867.297 460.472 867.297 458.432V454.292C866.649 455.444 865.689 456.404 864.417 457.172C863.145 457.94 861.657 458.324 859.953 458.324C858.201 458.324 856.605 457.892 855.165 457.028C853.749 456.164 852.633 454.952 851.817 453.392C851.001 451.832 850.593 450.056 850.593 448.064C850.593 446.048 851.001 444.284 851.817 442.772C852.633 441.236 853.749 440.048 855.165 439.208C856.605 438.368 858.201 437.948 859.953 437.948ZM867.297 448.1C867.297 446.612 866.997 445.316 866.397 444.212C865.797 443.108 864.981 442.268 863.949 441.692C862.941 441.092 861.825 440.792 860.601 440.792C859.377 440.792 858.261 441.08 857.253 441.656C856.245 442.232 855.441 443.072 854.841 444.176C854.241 445.28 853.941 446.576 853.941 448.064C853.941 449.576 854.241 450.896 854.841 452.024C855.441 453.128 856.245 453.98 857.253 454.58C858.261 455.156 859.377 455.444 860.601 455.444C861.825 455.444 862.941 455.156 863.949 454.58C864.981 453.98 865.797 453.128 866.397 452.024C866.997 450.896 867.297 449.588 867.297 448.1ZM885.757 437.912C888.157 437.912 890.101 438.644 891.589 440.108C893.077 441.548 893.821 443.636 893.821 446.372V458H890.581V446.84C890.581 444.872 890.089 443.372 889.105 442.34C888.121 441.284 886.777 440.756 885.073 440.756C883.345 440.756 881.965 441.296 880.933 442.376C879.925 443.456 879.421 445.028 879.421 447.092V458H876.145V438.272H879.421V441.08C880.069 440.072 880.945 439.292 882.049 438.74C883.177 438.188 884.413 437.912 885.757 437.912Z" fill="white"/>
<ellipse cx="822.5" cy="261.5" rx="76.5" ry="70.5" fill="#FFB599"/>
<path d="M835.107 244.184L835.814 244.891L836.521 244.184L866.073 214.632C868.249 212.456 871.762 212.456 873.939 214.632L892.565 233.258C894.741 235.435 894.741 238.948 892.565 241.124L863.079 270.61L862.372 271.317L863.079 272.024L888.681 297.626C893.425 302.37 893.425 310.095 888.681 314.838L876.176 327.343C872.5 331.02 864.718 333.097 858.965 327.343L833.362 301.741L832.655 301.034L831.948 301.741L802.492 331.197H776V304.705L805.39 275.315L806.097 274.608L805.39 273.901L779.788 248.298C775.045 243.555 775.045 235.829 779.788 231.086L792.293 218.581C797.036 213.838 804.761 213.838 809.505 218.581L835.107 244.184ZM787.718 238.954L787.014 239.661L787.719 240.366L813.256 265.903L813.963 266.61L814.67 265.903L827.175 253.398L827.882 252.691L827.175 251.984L819.277 244.086L818.57 243.379L817.863 244.086L810.738 251.211L802.869 243.342L809.934 236.217L810.636 235.51L809.932 234.806L801.573 226.447L800.864 225.738L800.157 226.449L787.718 238.954ZM863.045 289.334L863.752 288.626L863.045 287.919L855.081 279.956L854.374 279.249L853.667 279.956L841.162 292.461L840.455 293.168L841.162 293.875L866.765 319.477L867.472 320.185L868.179 319.477L880.684 306.972L881.391 306.265L880.684 305.558L872.325 297.199L871.618 296.492L870.911 297.199L863.786 304.324L855.92 296.459L863.045 289.334ZM797.443 320.034H797.858L798.15 319.741L861.4 256.491L862.107 255.784L861.4 255.077L860.676 254.353L852.12 245.797L851.413 245.09L850.705 245.797L787.456 309.046L787.163 309.339V309.753V319.034V320.034H788.163H797.443ZM859.986 236.451L859.278 237.158L859.986 237.865L869.266 247.145L869.973 247.853L870.68 247.145L879.96 237.865L880.667 237.158L879.96 236.451L870.68 227.171L869.973 226.464L869.266 227.171L859.986 236.451Z" stroke="white" stroke-width="2"/>
<path d="M1867.33 244.125H1866.33V245.125V317.312V318.312H1867.33H1939.67V336H1839V318.312H1852.67H1853.67V317.312V245.125C1853.67 238.56 1859.71 233 1867.33 233H1998.33V244.125H1867.33ZM1999.33 318.312H2000.33V317.312V271.375V270.375H1999.33H1970H1969V271.375V317.312V318.312H1970H1999.33ZM1962.67 259.25H2006.67C2010.26 259.25 2013 261.857 2013 264.812V330.438C2013 333.393 2010.26 336 2006.67 336H1962.67C1959.08 336 1956.33 333.393 1956.33 330.438V264.812C1956.33 261.857 1959.08 259.25 1962.67 259.25Z" stroke="white" stroke-width="2"/>
<defs>
<filter id="filter0_d" x="1643" y="82" width="549" height="562" filterUnits="userSpaceOnUse" color-interpolation-filters="sRGB">
<feFlood flood-opacity="0" result="BackgroundImageFix"/>
<feColorMatrix in="SourceAlpha" type="matrix" values="0 0 0 0 0 0 0 0 0 0 0 0 0 0 0 0 0 0 127 0"/>
<feOffset dy="4"/>
<feGaussianBlur stdDeviation="10"/>
<feColorMatrix type="matrix" values="0 0 0 0 0 0 0 0 0 0 0 0 0 0 0 0 0 0 0.09 0"/>
<feBlend mode="normal" in2="BackgroundImageFix" result="effect1_dropShadow"/>
<feBlend mode="normal" in="SourceGraphic" in2="effect1_dropShadow" result="shape"/>
</filter>
<filter id="filter1_d" x="1118" y="77" width="508" height="562" filterUnits="userSpaceOnUse" color-interpolation-filters="sRGB">
<feFlood flood-opacity="0" result="BackgroundImageFix"/>
<feColorMatrix in="SourceAlpha" type="matrix" values="0 0 0 0 0 0 0 0 0 0 0 0 0 0 0 0 0 0 127 0"/>
<feOffset dy="4"/>
<feGaussianBlur stdDeviation="10"/>
<feColorMatrix type="matrix" values="0 0 0 0 0 0 0 0 0 0 0 0 0 0 0 0 0 0 0.09 0"/>
<feBlend mode="normal" in2="BackgroundImageFix" result="effect1_dropShadow"/>
<feBlend mode="normal" in="SourceGraphic" in2="effect1_dropShadow" result="shape"/>
</filter>
<filter id="filter2_d" x="43" y="82" width="508" height="562" filterUnits="userSpaceOnUse" color-interpolation-filters="sRGB">
<feFlood flood-opacity="0" result="BackgroundImageFix"/>
<feColorMatrix in="SourceAlpha" type="matrix" values="0 0 0 0 0 0 0 0 0 0 0 0 0 0 0 0 0 0 127 0"/>
<feOffset dy="4"/>
<feGaussianBlur stdDeviation="10"/>
<feColorMatrix type="matrix" values="0 0 0 0 0 0 0 0 0 0 0 0 0 0 0 0 0 0 0.09 0"/>
<feBlend mode="normal" in2="BackgroundImageFix" result="effect1_dropShadow"/>
<feBlend mode="normal" in="SourceGraphic" in2="effect1_dropShadow" result="shape"/>
</filter>
<filter id="filter3_d" x="581" y="77" width="508" height="562" filterUnits="userSpaceOnUse" color-interpolation-filters="sRGB">
<feFlood flood-opacity="0" result="BackgroundImageFix"/>
<feColorMatrix in="SourceAlpha" type="matrix" values="0 0 0 0 0 0 0 0 0 0 0 0 0 0 0 0 0 0 127 0"/>
<feOffset dy="4"/>
<feGaussianBlur stdDeviation="10"/>
<feColorMatrix type="matrix" values="0 0 0 0 0 0 0 0 0 0 0 0 0 0 0 0 0 0 0.09 0"/>
<feBlend mode="normal" in2="BackgroundImageFix" result="effect1_dropShadow"/>
<feBlend mode="normal" in="SourceGraphic" in2="effect1_dropShadow" result="shape"/>
</filter>
</defs>
</svg>
