<svg width="2234" height="719" viewBox="0 0 2234 719" fill="none" xmlns="http://www.w3.org/2000/svg">
<rect width="2234" height="719" fill="#FFFDFD"/>
<g filter="url(#filter0_d)">
<rect x="1663" y="98" width="509" height="522" fill="#2DEB8D" fill-opacity="0.55"/>
</g>
<path d="M1758.62 503.832C1758.62 508.176 1761.46 510.168 1764.91 510.168C1768.37 510.168 1771.22 508.176 1771.22 503.832V493.272H1769.04V503.856C1769.04 506.928 1767.41 508.248 1764.94 508.248C1762.46 508.248 1760.81 506.928 1760.81 503.856V493.272H1758.62V503.832ZM1784.32 506.424C1784.23 501.72 1776.6 503.424 1776.6 500.304C1776.6 499.248 1777.56 498.48 1779.16 498.48C1780.92 498.48 1781.92 499.44 1782.02 500.76H1784.2C1784.06 498.192 1782.14 496.632 1779.24 496.632C1776.31 496.632 1774.41 498.288 1774.41 500.304C1774.41 505.2 1782.19 503.496 1782.19 506.424C1782.19 507.504 1781.23 508.368 1779.5 508.368C1777.65 508.368 1776.52 507.408 1776.4 506.136H1774.15C1774.29 508.536 1776.45 510.216 1779.52 510.216C1782.43 510.216 1784.32 508.584 1784.32 506.424ZM1793 498.48C1795.25 498.48 1797.17 499.896 1797.15 502.464H1788.85C1789.09 499.896 1790.86 498.48 1793 498.48ZM1799.14 505.944H1796.79C1796.31 507.36 1795.06 508.368 1793.09 508.368C1790.86 508.368 1788.99 506.904 1788.82 504.24H1799.33C1799.38 503.784 1799.41 503.4 1799.41 502.92C1799.41 499.32 1796.91 496.632 1793.09 496.632C1789.25 496.632 1786.59 499.248 1786.59 503.4C1786.59 507.576 1789.35 510.216 1793.09 510.216C1796.36 510.216 1798.47 508.344 1799.14 505.944ZM1804.47 502.848C1804.47 499.8 1806.06 498.864 1808.15 498.864H1808.72V496.608C1806.63 496.608 1805.22 497.52 1804.47 498.984V496.848H1802.29V510H1804.47V502.848ZM1810.79 502.128H1820.36V500.28H1810.79V502.128ZM1824.94 506.4C1824.94 509.04 1826.26 510 1828.59 510H1830.56V508.152H1828.95C1827.61 508.152 1827.13 507.696 1827.13 506.4V498.648H1830.56V496.848H1827.13V493.536H1824.94V496.848H1823.24V498.648H1824.94V506.4ZM1838.8 498.48C1841.05 498.48 1842.97 499.896 1842.95 502.464H1834.64C1834.88 499.896 1836.66 498.48 1838.8 498.48ZM1844.94 505.944H1842.59C1842.11 507.36 1840.86 508.368 1838.89 508.368C1836.66 508.368 1834.79 506.904 1834.62 504.24H1845.13C1845.18 503.784 1845.2 503.4 1845.2 502.92C1845.2 499.32 1842.71 496.632 1838.89 496.632C1835.05 496.632 1832.39 499.248 1832.39 503.4C1832.39 507.576 1835.15 510.216 1838.89 510.216C1842.16 510.216 1844.27 508.344 1844.94 505.944ZM1857.54 506.424C1857.45 501.72 1849.81 503.424 1849.81 500.304C1849.81 499.248 1850.77 498.48 1852.38 498.48C1854.13 498.48 1855.14 499.44 1855.24 500.76H1857.42C1857.28 498.192 1855.36 496.632 1852.45 496.632C1849.53 496.632 1847.63 498.288 1847.63 500.304C1847.63 505.2 1855.41 503.496 1855.41 506.424C1855.41 507.504 1854.45 508.368 1852.72 508.368C1850.87 508.368 1849.74 507.408 1849.62 506.136H1847.37C1847.51 508.536 1849.67 510.216 1852.74 510.216C1855.65 510.216 1857.54 508.584 1857.54 506.424ZM1861.11 506.4C1861.11 509.04 1862.43 510 1864.75 510H1866.72V508.152H1865.11C1863.77 508.152 1863.29 507.696 1863.29 506.4V498.648H1866.72V496.848H1863.29V493.536H1861.11V496.848H1859.4V498.648H1861.11V506.4ZM1869.37 510H1871.55V496.848H1869.37V510ZM1870.5 494.712C1871.29 494.712 1871.94 494.064 1871.94 493.224C1871.94 492.384 1871.29 491.736 1870.5 491.736C1869.66 491.736 1869.01 492.384 1869.01 493.224C1869.01 494.064 1869.66 494.712 1870.5 494.712ZM1884.9 510H1887.06V502.248C1887.06 498.48 1884.73 496.608 1881.68 496.608C1879.91 496.608 1878.32 497.352 1877.46 498.72V496.848H1875.27V510H1877.46V502.728C1877.46 499.896 1878.99 498.504 1881.23 498.504C1883.43 498.504 1884.9 499.872 1884.9 502.56V510ZM1889.81 503.376C1889.81 507.456 1892.52 510.216 1896.05 510.216C1898.45 510.216 1900.15 508.944 1900.95 507.528V510.288C1900.95 513.096 1899.19 514.584 1896.87 514.584C1894.71 514.584 1893.15 513.504 1892.67 511.92H1890.51C1890.94 514.728 1893.41 516.48 1896.87 516.48C1900.73 516.48 1903.15 513.912 1903.15 510.288V496.848H1900.95V499.248C1900.18 497.832 1898.45 496.632 1896.05 496.632C1892.52 496.632 1889.81 499.272 1889.81 503.376ZM1900.95 503.4C1900.95 506.496 1898.88 508.296 1896.48 508.296C1894.08 508.296 1892.04 506.472 1892.04 503.376C1892.04 500.28 1894.08 498.528 1896.48 498.528C1898.88 498.528 1900.95 500.352 1900.95 503.4ZM1912.43 503.376C1912.43 507.456 1915.14 510.216 1918.64 510.216C1921.07 510.216 1922.77 508.968 1923.56 507.552V510H1925.77V496.848H1923.56V499.248C1922.79 497.88 1921.11 496.632 1918.67 496.632C1915.14 496.632 1912.43 499.272 1912.43 503.376ZM1923.56 503.4C1923.56 506.496 1921.5 508.296 1919.1 508.296C1916.7 508.296 1914.66 506.472 1914.66 503.376C1914.66 500.28 1916.7 498.528 1919.1 498.528C1921.5 498.528 1923.56 500.352 1923.56 503.4ZM1939.09 510H1941.25V502.248C1941.25 498.48 1938.92 496.608 1935.87 496.608C1934.09 496.608 1932.51 497.352 1931.65 498.72V496.848H1929.46V510H1931.65V502.728C1931.65 499.896 1933.18 498.504 1935.41 498.504C1937.62 498.504 1939.09 499.872 1939.09 502.56V510ZM1944 503.376C1944 507.456 1946.71 510.216 1950.24 510.216C1952.64 510.216 1954.34 508.992 1955.13 507.528V510H1957.34V492.24H1955.13V499.2C1954.22 497.688 1952.32 496.632 1950.26 496.632C1946.71 496.632 1944 499.272 1944 503.376ZM1955.13 503.4C1955.13 506.496 1953.07 508.296 1950.67 508.296C1948.27 508.296 1946.23 506.472 1946.23 503.376C1946.23 500.28 1948.27 498.528 1950.67 498.528C1953.07 498.528 1955.13 500.352 1955.13 503.4ZM1967.43 510H1969.61V496.848H1967.43V510ZM1968.56 494.712C1969.35 494.712 1970 494.064 1970 493.224C1970 492.384 1969.35 491.736 1968.56 491.736C1967.72 491.736 1967.07 492.384 1967.07 493.224C1967.07 494.064 1967.72 494.712 1968.56 494.712ZM1973.82 506.4C1973.82 509.04 1975.14 510 1977.46 510H1979.43V508.152H1977.82C1976.48 508.152 1976 507.696 1976 506.4V498.648H1979.43V496.848H1976V493.536H1973.82V496.848H1972.11V498.648H1973.82V506.4ZM1987.67 498.48C1989.93 498.48 1991.85 499.896 1991.82 502.464H1983.52C1983.76 499.896 1985.53 498.48 1987.67 498.48ZM1993.81 505.944H1991.46C1990.98 507.36 1989.73 508.368 1987.77 508.368C1985.53 508.368 1983.66 506.904 1983.49 504.24H1994.01C1994.05 503.784 1994.08 503.4 1994.08 502.92C1994.08 499.32 1991.58 496.632 1987.77 496.632C1983.93 496.632 1981.26 499.248 1981.26 503.4C1981.26 507.576 1984.02 510.216 1987.77 510.216C1991.03 510.216 1993.14 508.344 1993.81 505.944ZM1999.15 502.848C1999.15 499.8 2000.73 498.864 2002.82 498.864H2003.39V496.608C2001.31 496.608 1999.89 497.52 1999.15 498.984V496.848H1996.96V510H1999.15V502.848ZM2005.1 503.376C2005.1 507.456 2007.81 510.216 2011.31 510.216C2013.74 510.216 2015.44 508.968 2016.23 507.552V510H2018.44V496.848H2016.23V499.248C2015.47 497.88 2013.79 496.632 2011.34 496.632C2007.81 496.632 2005.1 499.272 2005.1 503.376ZM2016.23 503.4C2016.23 506.496 2014.17 508.296 2011.77 508.296C2009.37 508.296 2007.33 506.472 2007.33 503.376C2007.33 500.28 2009.37 498.528 2011.77 498.528C2014.17 498.528 2016.23 500.352 2016.23 503.4ZM2022.61 506.4C2022.61 509.04 2023.93 510 2026.26 510H2028.23V508.152H2026.62C2025.28 508.152 2024.8 507.696 2024.8 506.4V498.648H2028.23V496.848H2024.8V493.536H2022.61V496.848H2020.91V498.648H2022.61V506.4ZM2030.88 510H2033.06V496.848H2030.88V510ZM2032 494.712C2032.8 494.712 2033.44 494.064 2033.44 493.224C2033.44 492.384 2032.8 491.736 2032 491.736C2031.16 491.736 2030.52 492.384 2030.52 493.224C2030.52 494.064 2031.16 494.712 2032 494.712ZM2049.26 503.4C2049.26 499.248 2046.36 496.632 2042.61 496.632C2038.89 496.632 2035.97 499.248 2035.97 503.4C2035.97 507.576 2038.8 510.216 2042.52 510.216C2046.26 510.216 2049.26 507.576 2049.26 503.4ZM2038.2 503.4C2038.2 500.088 2040.29 498.528 2042.59 498.528C2044.85 498.528 2047.03 500.088 2047.03 503.4C2047.03 506.736 2044.8 508.296 2042.52 508.296C2040.24 508.296 2038.2 506.736 2038.2 503.4ZM2061.76 510H2063.92V502.248C2063.92 498.48 2061.59 496.608 2058.54 496.608C2056.77 496.608 2055.18 497.352 2054.32 498.72V496.848H2052.13V510H2054.32V502.728C2054.32 499.896 2055.85 498.504 2058.09 498.504C2060.29 498.504 2061.76 499.872 2061.76 502.56V510ZM2076.94 506.424C2076.84 501.72 2069.21 503.424 2069.21 500.304C2069.21 499.248 2070.17 498.48 2071.78 498.48C2073.53 498.48 2074.54 499.44 2074.64 500.76H2076.82C2076.68 498.192 2074.76 496.632 2071.85 496.632C2068.92 496.632 2067.03 498.288 2067.03 500.304C2067.03 505.2 2074.8 503.496 2074.8 506.424C2074.8 507.504 2073.84 508.368 2072.12 508.368C2070.27 508.368 2069.14 507.408 2069.02 506.136H2066.76C2066.91 508.536 2069.07 510.216 2072.14 510.216C2075.04 510.216 2076.94 508.584 2076.94 506.424Z" fill="black"/>
<path d="M1873.86 440.572H1880.74V463H1884.01V440.572H1890.85V437.908H1873.86V440.572ZM1903.28 445.72C1906.66 445.72 1909.54 447.844 1909.5 451.696H1897.05C1897.41 447.844 1900.07 445.72 1903.28 445.72ZM1912.49 456.916H1908.96C1908.24 459.04 1906.37 460.552 1903.42 460.552C1900.07 460.552 1897.26 458.356 1897.01 454.36H1912.78C1912.85 453.676 1912.89 453.1 1912.89 452.38C1912.89 446.98 1909.14 442.948 1903.42 442.948C1897.66 442.948 1893.66 446.872 1893.66 453.1C1893.66 459.364 1897.8 463.324 1903.42 463.324C1908.32 463.324 1911.48 460.516 1912.49 456.916ZM1931.4 457.636C1931.25 450.58 1919.8 453.136 1919.8 448.456C1919.8 446.872 1921.24 445.72 1923.66 445.72C1926.28 445.72 1927.8 447.16 1927.94 449.14H1931.22C1931 445.288 1928.12 442.948 1923.76 442.948C1919.37 442.948 1916.53 445.432 1916.53 448.456C1916.53 455.8 1928.19 453.244 1928.19 457.636C1928.19 459.256 1926.75 460.552 1924.16 460.552C1921.39 460.552 1919.7 459.112 1919.52 457.204H1916.13C1916.35 460.804 1919.59 463.324 1924.2 463.324C1928.55 463.324 1931.4 460.876 1931.4 457.636ZM1936.74 457.6C1936.74 461.56 1938.72 463 1942.21 463H1945.16V460.228H1942.75C1940.74 460.228 1940.02 459.544 1940.02 457.6V445.972H1945.16V443.272H1940.02V438.304H1936.74V443.272H1934.18V445.972H1936.74V457.6Z" fill="black"/>
<ellipse cx="1895.5" cy="266.5" rx="76.5" ry="70.5" fill="#FFFDFD" fill-opacity="0.95"/>
<g filter="url(#filter1_d)">
<rect x="1138" y="93" width="468" height="522" fill="#2DEB8D" fill-opacity="0.55"/>
</g>
<path d="M1243.98 505.44C1243.98 499.248 1234.96 501.936 1234.96 497.616C1234.96 495.816 1236.37 494.88 1238.17 494.928C1240.21 494.952 1241.27 496.224 1241.41 497.352H1243.81C1243.55 494.808 1241.46 493.056 1238.27 493.056C1234.96 493.056 1232.73 494.928 1232.73 497.688C1232.73 503.904 1241.77 501.024 1241.77 505.536C1241.77 507.12 1240.53 508.32 1238.41 508.32C1236.09 508.32 1235.1 506.928 1234.96 505.536H1232.63C1232.68 508.296 1235.05 510.168 1238.41 510.168C1242.04 510.168 1243.98 507.816 1243.98 505.44ZM1247.2 510H1249.38V504.192L1254.54 510H1257.52L1251.3 503.4L1257.49 496.848H1254.44L1249.38 502.68V492.24H1247.2V510ZM1265.14 498.48C1267.4 498.48 1269.32 499.896 1269.29 502.464H1260.99C1261.23 499.896 1263 498.48 1265.14 498.48ZM1271.28 505.944H1268.93C1268.45 507.36 1267.2 508.368 1265.24 508.368C1263 508.368 1261.13 506.904 1260.96 504.24H1271.48C1271.52 503.784 1271.55 503.4 1271.55 502.92C1271.55 499.32 1269.05 496.632 1265.24 496.632C1261.4 496.632 1258.73 499.248 1258.73 503.4C1258.73 507.576 1261.49 510.216 1265.24 510.216C1268.5 510.216 1270.61 508.344 1271.28 505.944ZM1274.91 506.4C1274.91 509.04 1276.23 510 1278.56 510H1280.53V508.152H1278.92C1277.57 508.152 1277.09 507.696 1277.09 506.4V498.648H1280.53V496.848H1277.09V493.536H1274.91V496.848H1273.21V498.648H1274.91V506.4ZM1282.36 503.4C1282.36 507.576 1285.02 510.216 1288.76 510.216C1292.03 510.216 1294.16 508.392 1294.84 505.776H1292.48C1292 507.432 1290.71 508.368 1288.76 508.368C1286.36 508.368 1284.59 506.664 1284.59 503.4C1284.59 500.184 1286.36 498.48 1288.76 498.48C1290.71 498.48 1292.03 499.488 1292.48 501.072H1294.84C1294.16 498.312 1292.03 496.632 1288.76 496.632C1285.02 496.632 1282.36 499.272 1282.36 503.4ZM1297.75 510H1299.93V502.728C1299.93 499.896 1301.47 498.504 1303.7 498.504C1305.91 498.504 1307.37 499.872 1307.37 502.56V510H1309.53V502.248C1309.53 498.48 1307.21 496.608 1304.28 496.608C1302.43 496.608 1300.8 497.352 1299.93 498.744V492.24H1297.75V510ZM1318.69 498.48C1320.95 498.48 1322.87 499.896 1322.85 502.464H1314.54C1314.78 499.896 1316.56 498.48 1318.69 498.48ZM1324.84 505.944H1322.49C1322.01 507.36 1320.76 508.368 1318.79 508.368C1316.56 508.368 1314.69 506.904 1314.52 504.24H1325.03C1325.08 503.784 1325.1 503.4 1325.1 502.92C1325.1 499.32 1322.61 496.632 1318.79 496.632C1314.95 496.632 1312.29 499.248 1312.29 503.4C1312.29 507.576 1315.05 510.216 1318.79 510.216C1322.05 510.216 1324.17 508.344 1324.84 505.944ZM1337.44 506.424C1337.34 501.72 1329.71 503.424 1329.71 500.304C1329.71 499.248 1330.67 498.48 1332.28 498.48C1334.03 498.48 1335.04 499.44 1335.14 500.76H1337.32C1337.18 498.192 1335.26 496.632 1332.35 496.632C1329.42 496.632 1327.53 498.288 1327.53 500.304C1327.53 505.2 1335.3 503.496 1335.3 506.424C1335.3 507.504 1334.34 508.368 1332.62 508.368C1330.77 508.368 1329.64 507.408 1329.52 506.136H1327.26C1327.41 508.536 1329.57 510.216 1332.64 510.216C1335.54 510.216 1337.44 508.584 1337.44 506.424ZM1338.63 513.432H1340.09L1342.78 506.976H1340.38L1338.63 513.432ZM1351.68 510H1353.86V492.24H1351.68V510ZM1370.07 503.4C1370.07 499.248 1367.16 496.632 1363.42 496.632C1359.7 496.632 1356.77 499.248 1356.77 503.4C1356.77 507.576 1359.6 510.216 1363.32 510.216C1367.07 510.216 1370.07 507.576 1370.07 503.4ZM1359 503.4C1359 500.088 1361.09 498.528 1363.39 498.528C1365.65 498.528 1367.83 500.088 1367.83 503.4C1367.83 506.736 1365.6 508.296 1363.32 508.296C1361.04 508.296 1359 506.736 1359 503.4ZM1372.48 502.128H1382.06V500.28H1372.48V502.128ZM1386.56 510H1388.75V498.648H1391.51V496.848H1388.75V495.912C1388.75 494.208 1389.4 493.488 1391.36 493.488V491.664C1388 491.664 1386.56 492.984 1386.56 495.912V496.848H1384.86V498.648H1386.56V510ZM1394.06 510H1396.24V496.848H1394.06V510ZM1395.18 494.712C1395.98 494.712 1396.62 494.064 1396.62 493.224C1396.62 492.384 1395.98 491.736 1395.18 491.736C1394.34 491.736 1393.7 492.384 1393.7 493.224C1393.7 494.064 1394.34 494.712 1395.18 494.712ZM1398.07 513.432H1399.53L1402.22 506.976H1399.82L1398.07 513.432ZM1410.3 503.376C1410.3 507.456 1413.01 510.216 1416.52 510.216C1418.94 510.216 1420.65 508.968 1421.44 507.552V510H1423.65V496.848H1421.44V499.248C1420.67 497.88 1418.99 496.632 1416.54 496.632C1413.01 496.632 1410.3 499.272 1410.3 503.376ZM1421.44 503.4C1421.44 506.496 1419.37 508.296 1416.97 508.296C1414.57 508.296 1412.53 506.472 1412.53 503.376C1412.53 500.28 1414.57 498.528 1416.97 498.528C1419.37 498.528 1421.44 500.352 1421.44 503.4ZM1436.96 510H1439.12V502.248C1439.12 498.48 1436.79 496.608 1433.74 496.608C1431.97 496.608 1430.38 497.352 1429.52 498.72V496.848H1427.34V510H1429.52V502.728C1429.52 499.896 1431.06 498.504 1433.29 498.504C1435.5 498.504 1436.96 499.872 1436.96 502.56V510ZM1441.87 503.376C1441.87 507.456 1444.58 510.216 1448.11 510.216C1450.51 510.216 1452.22 508.992 1453.01 507.528V510H1455.22V492.24H1453.01V499.2C1452.1 497.688 1450.2 496.632 1448.14 496.632C1444.58 496.632 1441.87 499.272 1441.87 503.376ZM1453.01 503.4C1453.01 506.496 1450.94 508.296 1448.54 508.296C1446.14 508.296 1444.1 506.472 1444.1 503.376C1444.1 500.28 1446.14 498.528 1448.54 498.528C1450.94 498.528 1453.01 500.352 1453.01 503.4ZM1465.31 510H1467.49V502.728C1467.49 499.896 1469.03 498.504 1471.26 498.504C1473.47 498.504 1474.93 499.872 1474.93 502.56V510H1477.09V502.248C1477.09 498.48 1474.76 496.608 1471.83 496.608C1469.99 496.608 1468.35 497.352 1467.49 498.744V492.24H1465.31V510ZM1480.66 510H1482.84V496.848H1480.66V510ZM1481.78 494.712C1482.58 494.712 1483.22 494.064 1483.22 493.224C1483.22 492.384 1482.58 491.736 1481.78 491.736C1480.94 491.736 1480.3 492.384 1480.3 493.224C1480.3 494.064 1480.94 494.712 1481.78 494.712ZM1486.11 502.128H1495.68V500.28H1486.11V502.128ZM1500.19 510H1502.37V498.648H1505.13V496.848H1502.37V495.912C1502.37 494.208 1503.02 493.488 1504.99 493.488V491.664C1501.63 491.664 1500.19 492.984 1500.19 495.912V496.848H1498.49V498.648H1500.19V510ZM1507.68 510H1509.86V496.848H1507.68V510ZM1508.81 494.712C1509.6 494.712 1510.25 494.064 1510.25 493.224C1510.25 492.384 1509.6 491.736 1508.81 491.736C1507.97 491.736 1507.32 492.384 1507.32 493.224C1507.32 494.064 1507.97 494.712 1508.81 494.712ZM1311.43 549.216V543.072H1314.65C1317.14 543.072 1318.2 544.224 1318.2 546.168C1318.2 548.04 1317.14 549.216 1314.65 549.216H1311.43ZM1320.43 546.168C1320.43 543.432 1318.58 541.272 1314.65 541.272H1309.25V558H1311.43V551.016H1314.65C1318.8 551.016 1320.43 548.712 1320.43 546.168ZM1325.33 550.848C1325.33 547.8 1326.91 546.864 1329 546.864H1329.58V544.608C1327.49 544.608 1326.07 545.52 1325.33 546.984V544.848H1323.14V558H1325.33V550.848ZM1344.58 551.4C1344.58 547.248 1341.67 544.632 1337.93 544.632C1334.21 544.632 1331.28 547.248 1331.28 551.4C1331.28 555.576 1334.11 558.216 1337.83 558.216C1341.58 558.216 1344.58 555.576 1344.58 551.4ZM1333.51 551.4C1333.51 548.088 1335.6 546.528 1337.91 546.528C1340.16 546.528 1342.35 548.088 1342.35 551.4C1342.35 554.736 1340.11 556.296 1337.83 556.296C1335.55 556.296 1333.51 554.736 1333.51 551.4ZM1347.93 554.4C1347.93 557.04 1349.25 558 1351.58 558H1353.55V556.152H1351.94C1350.59 556.152 1350.11 555.696 1350.11 554.4V546.648H1353.55V544.848H1350.11V541.536H1347.93V544.848H1346.23V546.648H1347.93V554.4ZM1368.67 551.4C1368.67 547.248 1365.77 544.632 1362.02 544.632C1358.3 544.632 1355.38 547.248 1355.38 551.4C1355.38 555.576 1358.21 558.216 1361.93 558.216C1365.67 558.216 1368.67 555.576 1368.67 551.4ZM1357.61 551.4C1357.61 548.088 1359.7 546.528 1362 546.528C1364.26 546.528 1366.44 548.088 1366.44 551.4C1366.44 554.736 1364.21 556.296 1361.93 556.296C1359.65 556.296 1357.61 554.736 1357.61 551.4ZM1372.02 554.4C1372.02 557.04 1373.34 558 1375.67 558H1377.64V556.152H1376.03C1374.69 556.152 1374.21 555.696 1374.21 554.4V546.648H1377.64V544.848H1374.21V541.536H1372.02V544.848H1370.32V546.648H1372.02V554.4ZM1385.28 555.504L1381.15 544.848H1378.73L1384.03 557.856L1381.44 564.192H1383.69L1391.61 544.848H1389.36L1385.28 555.504ZM1395.99 547.272V544.848H1393.81V564.24H1395.99V555.576C1396.81 556.92 1398.51 558.216 1400.91 558.216C1404.44 558.216 1407.15 555.456 1407.15 551.376C1407.15 547.272 1404.44 544.632 1400.91 544.632C1398.51 544.632 1396.78 545.88 1395.99 547.272ZM1404.92 551.376C1404.92 554.472 1402.88 556.296 1400.46 556.296C1398.08 556.296 1395.99 554.496 1395.99 551.4C1395.99 548.352 1398.08 546.528 1400.46 546.528C1402.88 546.528 1404.92 548.28 1404.92 551.376ZM1415.62 546.48C1417.88 546.48 1419.8 547.896 1419.77 550.464H1411.47C1411.71 547.896 1413.48 546.48 1415.62 546.48ZM1421.76 553.944H1419.41C1418.93 555.36 1417.68 556.368 1415.72 556.368C1413.48 556.368 1411.61 554.904 1411.44 552.24H1421.96C1422 551.784 1422.03 551.4 1422.03 550.92C1422.03 547.32 1419.53 544.632 1415.72 544.632C1411.88 544.632 1409.21 547.248 1409.21 551.4C1409.21 555.576 1411.97 558.216 1415.72 558.216C1418.98 558.216 1421.09 556.344 1421.76 553.944ZM1434.37 554.424C1434.27 549.72 1426.64 551.424 1426.64 548.304C1426.64 547.248 1427.6 546.48 1429.21 546.48C1430.96 546.48 1431.97 547.44 1432.06 548.76H1434.25C1434.1 546.192 1432.18 544.632 1429.28 544.632C1426.35 544.632 1424.45 546.288 1424.45 548.304C1424.45 553.2 1432.23 551.496 1432.23 554.424C1432.23 555.504 1431.27 556.368 1429.54 556.368C1427.69 556.368 1426.57 555.408 1426.45 554.136H1424.19C1424.33 556.536 1426.49 558.216 1429.57 558.216C1432.47 558.216 1434.37 556.584 1434.37 554.424Z" fill="black"/>
<path d="M1321.18 437.908H1313.37V463H1321.18C1329.43 463 1334.5 458.284 1334.5 450.508C1334.5 442.732 1329.43 437.908 1321.18 437.908ZM1316.65 460.3V440.572H1321.18C1327.74 440.572 1331.16 444.388 1331.16 450.508C1331.16 456.628 1327.74 460.3 1321.18 460.3H1316.65ZM1347.21 445.72C1350.6 445.72 1353.48 447.844 1353.44 451.696H1340.98C1341.34 447.844 1344.01 445.72 1347.21 445.72ZM1356.43 456.916H1352.9C1352.18 459.04 1350.31 460.552 1347.36 460.552C1344.01 460.552 1341.2 458.356 1340.95 454.36H1356.72C1356.79 453.676 1356.82 453.1 1356.82 452.38C1356.82 446.98 1353.08 442.948 1347.36 442.948C1341.6 442.948 1337.6 446.872 1337.6 453.1C1337.6 459.364 1341.74 463.324 1347.36 463.324C1352.25 463.324 1355.42 460.516 1356.43 456.916ZM1375.33 457.636C1375.19 450.58 1363.74 453.136 1363.74 448.456C1363.74 446.872 1365.18 445.72 1367.59 445.72C1370.22 445.72 1371.73 447.16 1371.88 449.14H1375.15C1374.94 445.288 1372.06 442.948 1367.7 442.948C1363.31 442.948 1360.46 445.432 1360.46 448.456C1360.46 455.8 1372.13 453.244 1372.13 457.636C1372.13 459.256 1370.69 460.552 1368.1 460.552C1365.32 460.552 1363.63 459.112 1363.45 457.204H1360.07C1360.28 460.804 1363.52 463.324 1368.13 463.324C1372.49 463.324 1375.33 460.876 1375.33 457.636ZM1379.96 463H1383.23V443.272H1379.96V463ZM1381.65 440.068C1382.84 440.068 1383.81 439.096 1383.81 437.836C1383.81 436.576 1382.84 435.604 1381.65 435.604C1380.39 435.604 1379.42 436.576 1379.42 437.836C1379.42 439.096 1380.39 440.068 1381.65 440.068ZM1387.59 453.064C1387.59 459.184 1391.66 463.324 1396.95 463.324C1400.55 463.324 1403.11 461.416 1404.3 459.292V463.432C1404.3 467.644 1401.67 469.876 1398.18 469.876C1394.94 469.876 1392.6 468.256 1391.88 465.88H1388.64C1389.28 470.092 1392.99 472.72 1398.18 472.72C1403.97 472.72 1407.61 468.868 1407.61 463.432V443.272H1404.3V446.872C1403.14 444.748 1400.55 442.948 1396.95 442.948C1391.66 442.948 1387.59 446.908 1387.59 453.064ZM1404.3 453.1C1404.3 457.744 1401.2 460.444 1397.6 460.444C1394 460.444 1390.94 457.708 1390.94 453.064C1390.94 448.42 1394 445.792 1397.6 445.792C1401.2 445.792 1404.3 448.528 1404.3 453.1ZM1427.58 463H1430.82V451.372C1430.82 445.72 1427.33 442.912 1422.76 442.912C1420.09 442.912 1417.72 444.028 1416.42 446.08V443.272H1413.15V463H1416.42V452.092C1416.42 447.844 1418.73 445.756 1422.07 445.756C1425.39 445.756 1427.58 447.808 1427.58 451.84V463Z" fill="black"/>
<ellipse cx="1359.5" cy="261.5" rx="76.5" ry="70.5" fill="#FFFDFD" fill-opacity="0.95"/>
<g filter="url(#filter2_d)">
<path d="M63 98H531V620H63V98Z" fill="#2DEB8D" fill-opacity="0.55"/>
</g>
<ellipse cx="289" cy="288.5" rx="93" ry="85.5" fill="#FFFDFD" fill-opacity="0.95"/>
<path d="M223.604 437.872H210.104V463H223.604V460.3H213.38V451.66H222.524V448.96H213.38V440.572H223.604V437.872ZM257.037 463H260.277V451.372C260.277 445.72 256.785 442.912 252.285 442.912C249.261 442.912 246.453 444.46 245.301 447.304C244.005 444.352 241.305 442.912 238.065 442.912C235.473 442.912 233.133 444.028 231.837 446.116V443.272H228.561V463H231.837V452.128C231.837 447.88 234.105 445.756 237.417 445.756C240.657 445.756 242.817 447.808 242.817 451.84V463H246.057V452.128C246.057 447.88 248.325 445.756 251.637 445.756C254.877 445.756 257.037 447.808 257.037 451.84V463ZM268.927 446.908V443.272H265.651V472.36H268.927V459.364C270.151 461.38 272.707 463.324 276.307 463.324C281.599 463.324 285.667 459.184 285.667 453.064C285.667 446.908 281.599 442.948 276.307 442.948C272.707 442.948 270.115 444.82 268.927 446.908ZM282.319 453.064C282.319 457.708 279.259 460.444 275.623 460.444C272.059 460.444 268.927 457.744 268.927 453.1C268.927 448.528 272.059 445.792 275.623 445.792C279.259 445.792 282.319 448.42 282.319 453.064ZM288.755 453.064C288.755 459.184 292.823 463.324 298.079 463.324C301.715 463.324 304.271 461.452 305.459 459.328V463H308.771V443.272H305.459V446.872C304.307 444.82 301.787 442.948 298.115 442.948C292.823 442.948 288.755 446.908 288.755 453.064ZM305.459 453.1C305.459 457.744 302.363 460.444 298.763 460.444C295.163 460.444 292.103 457.708 292.103 453.064C292.103 448.42 295.163 445.792 298.763 445.792C302.363 445.792 305.459 448.528 305.459 453.1ZM315.027 457.6C315.027 461.56 317.007 463 320.499 463H323.451V460.228H321.039C319.023 460.228 318.303 459.544 318.303 457.6V445.972H323.451V443.272H318.303V438.304H315.027V443.272H312.471V445.972H315.027V457.6ZM327.42 463H330.696V452.092C330.696 447.844 333 445.756 336.348 445.756C339.66 445.756 341.856 447.808 341.856 451.84V463H345.096V451.372C345.096 445.72 341.604 442.912 337.212 442.912C334.44 442.912 331.992 444.028 330.696 446.116V436.36H327.42V463ZM350.448 463H353.724V443.272H350.448V463ZM352.14 440.068C353.328 440.068 354.3 439.096 354.3 437.836C354.3 436.576 353.328 435.604 352.14 435.604C350.88 435.604 349.908 436.576 349.908 437.836C349.908 439.096 350.88 440.068 352.14 440.068ZM373.491 457.636C373.347 450.58 361.899 453.136 361.899 448.456C361.899 446.872 363.339 445.72 365.751 445.72C368.379 445.72 369.891 447.16 370.035 449.14H373.311C373.095 445.288 370.215 442.948 365.859 442.948C361.467 442.948 358.623 445.432 358.623 448.456C358.623 455.8 370.287 453.244 370.287 457.636C370.287 459.256 368.847 460.552 366.255 460.552C363.483 460.552 361.791 459.112 361.611 457.204H358.227C358.443 460.804 361.683 463.324 366.291 463.324C370.647 463.324 373.491 460.876 373.491 457.636ZM386.504 445.72C389.888 445.72 392.768 447.844 392.732 451.696H380.276C380.636 447.844 383.3 445.72 386.504 445.72ZM395.72 456.916H392.192C391.472 459.04 389.6 460.552 386.648 460.552C383.3 460.552 380.492 458.356 380.24 454.36H396.008C396.08 453.676 396.116 453.1 396.116 452.38C396.116 446.98 392.372 442.948 386.648 442.948C380.888 442.948 376.892 446.872 376.892 453.1C376.892 459.364 381.032 463.324 386.648 463.324C391.544 463.324 394.712 460.516 395.72 456.916Z" fill="black"/>
<path d="M162.205 515H164.509L158.485 498.368H155.965L149.917 515H152.221L153.565 511.28H160.861L162.205 515ZM160.237 509.504H154.189L157.213 501.056L160.237 509.504ZM176.769 515H178.929V507.248C178.929 503.48 176.601 501.608 173.553 501.608C171.777 501.608 170.193 502.352 169.329 503.72V501.848H167.145V515H169.329V507.728C169.329 504.896 170.865 503.504 173.097 503.504C175.305 503.504 176.769 504.872 176.769 507.56V515ZM181.68 508.376C181.68 512.456 184.392 515.216 187.896 515.216C190.32 515.216 192.024 513.968 192.816 512.552V515H195.024V501.848H192.816V504.248C192.048 502.88 190.368 501.632 187.92 501.632C184.392 501.632 181.68 504.272 181.68 508.376ZM192.816 508.4C192.816 511.496 190.752 513.296 188.352 513.296C185.952 513.296 183.912 511.472 183.912 508.376C183.912 505.28 185.952 503.528 188.352 503.528C190.752 503.528 192.816 505.352 192.816 508.4ZM198.715 515H200.899V497.24H198.715V515ZM209.613 512.504L205.485 501.848H203.061L208.365 514.856L205.773 521.192H208.029L215.949 501.848H213.693L209.613 512.504ZM227.601 511.424C227.505 506.72 219.873 508.424 219.873 505.304C219.873 504.248 220.833 503.48 222.441 503.48C224.193 503.48 225.201 504.44 225.297 505.76H227.481C227.337 503.192 225.417 501.632 222.513 501.632C219.585 501.632 217.689 503.288 217.689 505.304C217.689 510.2 225.465 508.496 225.465 511.424C225.465 512.504 224.505 513.368 222.777 513.368C220.929 513.368 219.801 512.408 219.681 511.136H217.425C217.569 513.536 219.729 515.216 222.801 515.216C225.705 515.216 227.601 513.584 227.601 511.424ZM230.684 515H232.868V501.848H230.684V515ZM231.812 499.712C232.604 499.712 233.252 499.064 233.252 498.224C233.252 497.384 232.604 496.736 231.812 496.736C230.972 496.736 230.324 497.384 230.324 498.224C230.324 499.064 230.972 499.712 231.812 499.712ZM246.046 511.424C245.95 506.72 238.318 508.424 238.318 505.304C238.318 504.248 239.278 503.48 240.886 503.48C242.638 503.48 243.646 504.44 243.742 505.76H245.926C245.782 503.192 243.862 501.632 240.958 501.632C238.03 501.632 236.134 503.288 236.134 505.304C236.134 510.2 243.91 508.496 243.91 511.424C243.91 512.504 242.95 513.368 241.222 513.368C239.374 513.368 238.246 512.408 238.126 511.136H235.87C236.014 513.536 238.174 515.216 241.246 515.216C244.15 515.216 246.046 513.584 246.046 511.424ZM268.008 508.4C268.008 504.248 265.104 501.632 261.36 501.632C257.64 501.632 254.712 504.248 254.712 508.4C254.712 512.576 257.544 515.216 261.264 515.216C265.008 515.216 268.008 512.576 268.008 508.4ZM256.944 508.4C256.944 505.088 259.032 503.528 261.336 503.528C263.592 503.528 265.776 505.088 265.776 508.4C265.776 511.736 263.544 513.296 261.264 513.296C258.984 513.296 256.944 511.736 256.944 508.4ZM271.287 515H273.471V503.648H276.231V501.848H273.471V500.912C273.471 499.208 274.119 498.488 276.087 498.488V496.664C272.727 496.664 271.287 497.984 271.287 500.912V501.848H269.583V503.648H271.287V515ZM287.36 507.848C287.36 504.8 288.944 503.864 291.032 503.864H291.608V501.608C289.52 501.608 288.104 502.52 287.36 503.984V501.848H285.176V515H287.36V507.848ZM299.721 503.48C301.977 503.48 303.897 504.896 303.873 507.464H295.569C295.809 504.896 297.585 503.48 299.721 503.48ZM305.865 510.944H303.513C303.033 512.36 301.785 513.368 299.817 513.368C297.585 513.368 295.713 511.904 295.545 509.24H306.057C306.105 508.784 306.129 508.4 306.129 507.92C306.129 504.32 303.633 501.632 299.817 501.632C295.977 501.632 293.313 504.248 293.313 508.4C293.313 512.576 296.073 515.216 299.817 515.216C303.081 515.216 305.193 513.344 305.865 510.944ZM318.468 511.424C318.372 506.72 310.74 508.424 310.74 505.304C310.74 504.248 311.7 503.48 313.308 503.48C315.06 503.48 316.068 504.44 316.164 505.76H318.348C318.204 503.192 316.284 501.632 313.38 501.632C310.452 501.632 308.556 503.288 308.556 505.304C308.556 510.2 316.332 508.496 316.332 511.424C316.332 512.504 315.372 513.368 313.644 513.368C311.796 513.368 310.668 512.408 310.548 511.136H308.292C308.436 513.536 310.596 515.216 313.668 515.216C316.572 515.216 318.468 513.584 318.468 511.424ZM327.143 503.48C329.399 503.48 331.319 504.896 331.295 507.464H322.991C323.231 504.896 325.007 503.48 327.143 503.48ZM333.287 510.944H330.935C330.455 512.36 329.207 513.368 327.239 513.368C325.007 513.368 323.135 511.904 322.967 509.24H333.479C333.527 508.784 333.551 508.4 333.551 507.92C333.551 504.32 331.055 501.632 327.239 501.632C323.399 501.632 320.735 504.248 320.735 508.4C320.735 512.576 323.495 515.216 327.239 515.216C330.503 515.216 332.615 513.344 333.287 510.944ZM335.618 508.376C335.618 512.456 338.33 515.216 341.834 515.216C344.258 515.216 345.962 513.968 346.754 512.552V515H348.962V501.848H346.754V504.248C345.986 502.88 344.306 501.632 341.858 501.632C338.33 501.632 335.618 504.272 335.618 508.376ZM346.754 508.4C346.754 511.496 344.69 513.296 342.29 513.296C339.89 513.296 337.85 511.472 337.85 508.376C337.85 505.28 339.89 503.528 342.29 503.528C344.69 503.528 346.754 505.352 346.754 508.4ZM354.837 507.848C354.837 504.8 356.421 503.864 358.509 503.864H359.085V501.608C356.997 501.608 355.581 502.52 354.837 503.984V501.848H352.653V515H354.837V507.848ZM360.79 508.4C360.79 512.576 363.454 515.216 367.198 515.216C370.462 515.216 372.598 513.392 373.27 510.776H370.918C370.438 512.432 369.142 513.368 367.198 513.368C364.798 513.368 363.022 511.664 363.022 508.4C363.022 505.184 364.798 503.48 367.198 503.48C369.142 503.48 370.462 504.488 370.918 506.072H373.27C372.598 503.312 370.462 501.632 367.198 501.632C363.454 501.632 360.79 504.272 360.79 508.4ZM376.184 515H378.368V507.728C378.368 504.896 379.904 503.504 382.136 503.504C384.344 503.504 385.808 504.872 385.808 507.56V515H387.968V507.248C387.968 503.48 385.64 501.608 382.712 501.608C380.864 501.608 379.232 502.352 378.368 503.744V497.24H376.184V515ZM397.118 508.376C397.118 512.456 399.83 515.216 403.334 515.216C405.758 515.216 407.462 513.968 408.254 512.552V515H410.462V501.848H408.254V504.248C407.486 502.88 405.806 501.632 403.358 501.632C399.83 501.632 397.118 504.272 397.118 508.376ZM408.254 508.4C408.254 511.496 406.19 513.296 403.79 513.296C401.39 513.296 399.35 511.472 399.35 508.376C399.35 505.28 401.39 503.528 403.79 503.528C406.19 503.528 408.254 505.352 408.254 508.4ZM423.777 515H425.937V507.248C425.937 503.48 423.609 501.608 420.561 501.608C418.785 501.608 417.201 502.352 416.337 503.72V501.848H414.153V515H416.337V507.728C416.337 504.896 417.873 503.504 420.105 503.504C422.313 503.504 423.777 504.872 423.777 507.56V515ZM428.688 508.376C428.688 512.456 431.4 515.216 434.928 515.216C437.328 515.216 439.032 513.992 439.824 512.528V515H442.032V497.24H439.824V504.2C438.912 502.688 437.016 501.632 434.952 501.632C431.4 501.632 428.688 504.272 428.688 508.376ZM439.824 508.4C439.824 511.496 437.76 513.296 435.36 513.296C432.96 513.296 430.92 511.472 430.92 508.376C430.92 505.28 432.96 503.528 435.36 503.528C437.76 503.528 439.824 505.352 439.824 508.4ZM163.34 549.848H161.156V557.072C161.156 559.904 159.644 561.296 157.388 561.296C155.18 561.296 153.716 559.928 153.716 557.264V549.848H151.556V557.552C151.556 561.32 153.932 563.192 156.956 563.192C158.708 563.192 160.316 562.424 161.156 561.056V563H163.34V549.848ZM176.652 563H178.812V555.248C178.812 551.48 176.484 549.608 173.436 549.608C171.66 549.608 170.076 550.352 169.212 551.72V549.848H167.028V563H169.212V555.728C169.212 552.896 170.748 551.504 172.98 551.504C175.188 551.504 176.652 552.872 176.652 555.56V563ZM181.563 556.376C181.563 560.456 184.275 563.216 187.803 563.216C190.203 563.216 191.907 561.992 192.699 560.528V563H194.907V545.24H192.699V552.2C191.787 550.688 189.891 549.632 187.827 549.632C184.275 549.632 181.563 552.272 181.563 556.376ZM192.699 556.4C192.699 559.496 190.635 561.296 188.235 561.296C185.835 561.296 183.795 559.472 183.795 556.376C183.795 553.28 185.835 551.528 188.235 551.528C190.635 551.528 192.699 553.352 192.699 556.4ZM204.19 551.48C206.446 551.48 208.366 552.896 208.342 555.464H200.038C200.278 552.896 202.054 551.48 204.19 551.48ZM210.334 558.944H207.982C207.502 560.36 206.254 561.368 204.286 561.368C202.054 561.368 200.182 559.904 200.014 557.24H210.526C210.574 556.784 210.598 556.4 210.598 555.92C210.598 552.32 208.102 549.632 204.286 549.632C200.446 549.632 197.782 552.248 197.782 556.4C197.782 560.576 200.542 563.216 204.286 563.216C207.55 563.216 209.662 561.344 210.334 558.944ZM215.665 555.848C215.665 552.8 217.249 551.864 219.337 551.864H219.913V549.608C217.825 549.608 216.409 550.52 215.665 551.984V549.848H213.481V563H215.665V555.848ZM231.89 559.424C231.794 554.72 224.162 556.424 224.162 553.304C224.162 552.248 225.122 551.48 226.73 551.48C228.482 551.48 229.49 552.44 229.586 553.76H231.77C231.626 551.192 229.706 549.632 226.802 549.632C223.874 549.632 221.978 551.288 221.978 553.304C221.978 558.2 229.754 556.496 229.754 559.424C229.754 560.504 228.794 561.368 227.066 561.368C225.218 561.368 224.09 560.408 223.97 559.136H221.714C221.858 561.536 224.018 563.216 227.09 563.216C229.994 563.216 231.89 561.584 231.89 559.424ZM235.453 559.4C235.453 562.04 236.773 563 239.101 563H241.069V561.152H239.461C238.117 561.152 237.637 560.696 237.637 559.4V551.648H241.069V549.848H237.637V546.536H235.453V549.848H233.749V551.648H235.453V559.4ZM242.899 556.376C242.899 560.456 245.611 563.216 249.115 563.216C251.539 563.216 253.243 561.968 254.035 560.552V563H256.243V549.848H254.035V552.248C253.267 550.88 251.587 549.632 249.139 549.632C245.611 549.632 242.899 552.272 242.899 556.376ZM254.035 556.4C254.035 559.496 251.971 561.296 249.571 561.296C247.171 561.296 245.131 559.472 245.131 556.376C245.131 553.28 247.171 551.528 249.571 551.528C251.971 551.528 254.035 553.352 254.035 556.4ZM269.558 563H271.718V555.248C271.718 551.48 269.39 549.608 266.342 549.608C264.566 549.608 262.982 550.352 262.118 551.72V549.848H259.934V563H262.118V555.728C262.118 552.896 263.654 551.504 265.886 551.504C268.094 551.504 269.558 552.872 269.558 555.56V563ZM274.47 556.376C274.47 560.456 277.182 563.216 280.71 563.216C283.11 563.216 284.814 561.992 285.606 560.528V563H287.814V545.24H285.606V552.2C284.694 550.688 282.798 549.632 280.734 549.632C277.182 549.632 274.47 552.272 274.47 556.376ZM285.606 556.4C285.606 559.496 283.542 561.296 281.142 561.296C278.742 561.296 276.702 559.472 276.702 556.376C276.702 553.28 278.742 551.528 281.142 551.528C283.542 551.528 285.606 553.352 285.606 556.4ZM291.504 563H293.688V549.848H291.504V563ZM292.632 547.712C293.424 547.712 294.072 547.064 294.072 546.224C294.072 545.384 293.424 544.736 292.632 544.736C291.792 544.736 291.144 545.384 291.144 546.224C291.144 547.064 291.792 547.712 292.632 547.712ZM307.035 563H309.195V555.248C309.195 551.48 306.867 549.608 303.819 549.608C302.043 549.608 300.459 550.352 299.595 551.72V549.848H297.411V563H299.595V555.728C299.595 552.896 301.131 551.504 303.363 551.504C305.571 551.504 307.035 552.872 307.035 555.56V563ZM311.946 556.376C311.946 560.456 314.658 563.216 318.186 563.216C320.586 563.216 322.29 561.944 323.082 560.528V563.288C323.082 566.096 321.33 567.584 319.002 567.584C316.842 567.584 315.282 566.504 314.802 564.92H312.642C313.074 567.728 315.546 569.48 319.002 569.48C322.866 569.48 325.29 566.912 325.29 563.288V549.848H323.082V552.248C322.314 550.832 320.586 549.632 318.186 549.632C314.658 549.632 311.946 552.272 311.946 556.376ZM323.082 556.4C323.082 559.496 321.018 561.296 318.618 561.296C316.218 561.296 314.178 559.472 314.178 556.376C314.178 553.28 316.218 551.528 318.618 551.528C321.018 551.528 323.082 553.352 323.082 556.4ZM335.859 559.4C335.859 562.04 337.179 563 339.507 563H341.475V561.152H339.867C338.523 561.152 338.043 560.696 338.043 559.4V551.648H341.475V549.848H338.043V546.536H335.859V549.848H334.155V551.648H335.859V559.4ZM344.121 563H346.305V555.728C346.305 552.896 347.841 551.504 350.073 551.504C352.281 551.504 353.745 552.872 353.745 555.56V563H355.905V555.248C355.905 551.48 353.577 549.608 350.649 549.608C348.801 549.608 347.169 550.352 346.305 551.744V545.24H344.121V563ZM365.065 551.48C367.321 551.48 369.241 552.896 369.217 555.464H360.913C361.153 552.896 362.929 551.48 365.065 551.48ZM371.209 558.944H368.857C368.377 560.36 367.129 561.368 365.161 561.368C362.929 561.368 361.057 559.904 360.889 557.24H371.401C371.449 556.784 371.473 556.4 371.473 555.92C371.473 552.32 368.977 549.632 365.161 549.632C361.321 549.632 358.657 552.248 358.657 556.4C358.657 560.576 361.417 563.216 365.161 563.216C368.425 563.216 370.537 561.344 371.209 558.944ZM392.418 549.848H390.234V557.072C390.234 559.904 388.722 561.296 386.466 561.296C384.258 561.296 382.794 559.928 382.794 557.264V549.848H380.634V557.552C380.634 561.32 383.01 563.192 386.034 563.192C387.786 563.192 389.394 562.424 390.234 561.056V563H392.418V549.848ZM405.562 559.424C405.466 554.72 397.834 556.424 397.834 553.304C397.834 552.248 398.794 551.48 400.402 551.48C402.154 551.48 403.162 552.44 403.258 553.76H405.442C405.298 551.192 403.378 549.632 400.474 549.632C397.546 549.632 395.65 551.288 395.65 553.304C395.65 558.2 403.426 556.496 403.426 559.424C403.426 560.504 402.466 561.368 400.738 561.368C398.89 561.368 397.762 560.408 397.642 559.136H395.386C395.53 561.536 397.69 563.216 400.762 563.216C403.666 563.216 405.562 561.584 405.562 559.424ZM414.237 551.48C416.493 551.48 418.413 552.896 418.389 555.464H410.085C410.325 552.896 412.101 551.48 414.237 551.48ZM420.381 558.944H418.029C417.549 560.36 416.301 561.368 414.333 561.368C412.101 561.368 410.229 559.904 410.061 557.24H420.573C420.621 556.784 420.645 556.4 420.645 555.92C420.645 552.32 418.149 549.632 414.333 549.632C410.493 549.632 407.829 552.248 407.829 556.4C407.829 560.576 410.589 563.216 414.333 563.216C417.597 563.216 419.709 561.344 420.381 558.944ZM425.712 555.848C425.712 552.8 427.296 551.864 429.384 551.864H429.96V549.608C427.872 549.608 426.456 550.52 425.712 551.984V549.848H423.528V563H425.712V555.848ZM441.937 559.424C441.841 554.72 434.209 556.424 434.209 553.304C434.209 552.248 435.169 551.48 436.777 551.48C438.529 551.48 439.537 552.44 439.633 553.76H441.817C441.673 551.192 439.753 549.632 436.849 549.632C433.921 549.632 432.025 551.288 432.025 553.304C432.025 558.2 439.801 556.496 439.801 559.424C439.801 560.504 438.841 561.368 437.113 561.368C435.265 561.368 434.137 560.408 434.017 559.136H431.761C431.905 561.536 434.065 563.216 437.137 563.216C440.041 563.216 441.937 561.584 441.937 559.424Z" fill="black"/>
<g filter="url(#filter3_d)">
<rect x="601" y="93" width="468" height="522" fill="#2DEB8D" fill-opacity="0.55"/>
</g>
<path d="M662.302 493.272C664.126 493.272 665.702 493.616 667.03 494.304C668.374 494.976 669.398 495.944 670.102 497.208C670.822 498.472 671.182 499.96 671.182 501.672C671.182 503.384 670.822 504.872 670.102 506.136C669.398 507.384 668.374 508.344 667.03 509.016C665.702 509.672 664.126 510 662.302 510H657.094V493.272H662.302ZM662.302 508.2C664.462 508.2 666.11 507.632 667.246 506.496C668.382 505.344 668.95 503.736 668.95 501.672C668.95 499.592 668.374 497.968 667.222 496.8C666.086 495.632 664.446 495.048 662.302 495.048H659.278V508.2H662.302ZM675.191 494.712C674.775 494.712 674.423 494.568 674.135 494.28C673.847 493.992 673.703 493.64 673.703 493.224C673.703 492.808 673.847 492.456 674.135 492.168C674.423 491.88 674.775 491.736 675.191 491.736C675.591 491.736 675.927 491.88 676.199 492.168C676.487 492.456 676.631 492.808 676.631 493.224C676.631 493.64 676.487 493.992 676.199 494.28C675.927 494.568 675.591 494.712 675.191 494.712ZM676.247 496.848V510H674.063V496.848H676.247ZM684.625 510.216C683.617 510.216 682.713 510.048 681.913 509.712C681.113 509.36 680.481 508.88 680.017 508.272C679.553 507.648 679.297 506.936 679.249 506.136H681.505C681.569 506.792 681.873 507.328 682.417 507.744C682.977 508.16 683.705 508.368 684.601 508.368C685.433 508.368 686.089 508.184 686.569 507.816C687.049 507.448 687.289 506.984 687.289 506.424C687.289 505.848 687.033 505.424 686.521 505.152C686.009 504.864 685.217 504.584 684.145 504.312C683.169 504.056 682.369 503.8 681.745 503.544C681.137 503.272 680.609 502.88 680.161 502.368C679.729 501.84 679.513 501.152 679.513 500.304C679.513 499.632 679.713 499.016 680.113 498.456C680.513 497.896 681.081 497.456 681.817 497.136C682.553 496.8 683.393 496.632 684.337 496.632C685.793 496.632 686.969 497 687.865 497.736C688.761 498.472 689.241 499.48 689.305 500.76H687.121C687.073 500.072 686.793 499.52 686.281 499.104C685.785 498.688 685.113 498.48 684.265 498.48C683.481 498.48 682.857 498.648 682.393 498.984C681.929 499.32 681.697 499.76 681.697 500.304C681.697 500.736 681.833 501.096 682.105 501.384C682.393 501.656 682.745 501.88 683.161 502.056C683.593 502.216 684.185 502.4 684.937 502.608C685.881 502.864 686.649 503.12 687.241 503.376C687.833 503.616 688.337 503.984 688.753 504.48C689.185 504.976 689.409 505.624 689.425 506.424C689.425 507.144 689.225 507.792 688.825 508.368C688.425 508.944 687.857 509.4 687.121 509.736C686.401 510.056 685.569 510.216 684.625 510.216ZM691.692 503.4C691.692 502.04 691.964 500.856 692.508 499.848C693.052 498.824 693.804 498.032 694.764 497.472C695.74 496.912 696.852 496.632 698.1 496.632C699.716 496.632 701.044 497.024 702.084 497.808C703.14 498.592 703.836 499.68 704.172 501.072H701.82C701.596 500.272 701.156 499.64 700.5 499.176C699.86 498.712 699.06 498.48 698.1 498.48C696.852 498.48 695.844 498.912 695.076 499.776C694.308 500.624 693.924 501.832 693.924 503.4C693.924 504.984 694.308 506.208 695.076 507.072C695.844 507.936 696.852 508.368 698.1 508.368C699.06 508.368 699.86 508.144 700.5 507.696C701.14 507.248 701.58 506.608 701.82 505.776H704.172C703.82 507.12 703.116 508.2 702.06 509.016C701.004 509.816 699.684 510.216 698.1 510.216C696.852 510.216 695.74 509.936 694.764 509.376C693.804 508.816 693.052 508.024 692.508 507C691.964 505.976 691.692 504.776 691.692 503.4ZM712.822 510.216C711.59 510.216 710.47 509.936 709.462 509.376C708.47 508.816 707.686 508.024 707.11 507C706.55 505.96 706.27 504.76 706.27 503.4C706.27 502.056 706.558 500.872 707.134 499.848C707.726 498.808 708.526 498.016 709.534 497.472C710.542 496.912 711.67 496.632 712.918 496.632C714.166 496.632 715.294 496.912 716.302 497.472C717.31 498.016 718.102 498.8 718.678 499.824C719.27 500.848 719.566 502.04 719.566 503.4C719.566 504.76 719.262 505.96 718.654 507C718.062 508.024 717.254 508.816 716.23 509.376C715.206 509.936 714.07 510.216 712.822 510.216ZM712.822 508.296C713.606 508.296 714.342 508.112 715.03 507.744C715.718 507.376 716.27 506.824 716.686 506.088C717.118 505.352 717.334 504.456 717.334 503.4C717.334 502.344 717.126 501.448 716.71 500.712C716.294 499.976 715.75 499.432 715.078 499.08C714.406 498.712 713.678 498.528 712.894 498.528C712.094 498.528 711.358 498.712 710.686 499.08C710.03 499.432 709.502 499.976 709.102 500.712C708.702 501.448 708.502 502.344 708.502 503.4C708.502 504.472 708.694 505.376 709.078 506.112C709.478 506.848 710.006 507.4 710.662 507.768C711.318 508.12 712.038 508.296 712.822 508.296ZM727.334 507.984L731.414 496.848H733.742L728.582 510H726.038L720.878 496.848H723.23L727.334 507.984ZM747.891 502.92C747.891 503.336 747.867 503.776 747.819 504.24H737.307C737.387 505.536 737.827 506.552 738.627 507.288C739.443 508.008 740.427 508.368 741.579 508.368C742.523 508.368 743.307 508.152 743.931 507.72C744.571 507.272 745.019 506.68 745.275 505.944H747.627C747.275 507.208 746.571 508.24 745.515 509.04C744.459 509.824 743.147 510.216 741.579 510.216C740.331 510.216 739.211 509.936 738.219 509.376C737.243 508.816 736.475 508.024 735.915 507C735.355 505.96 735.075 504.76 735.075 503.4C735.075 502.04 735.347 500.848 735.891 499.824C736.435 498.8 737.195 498.016 738.171 497.472C739.163 496.912 740.299 496.632 741.579 496.632C742.827 496.632 743.931 496.904 744.891 497.448C745.851 497.992 746.587 498.744 747.099 499.704C747.627 500.648 747.891 501.72 747.891 502.92ZM745.635 502.464C745.635 501.632 745.451 500.92 745.083 500.328C744.715 499.72 744.211 499.264 743.571 498.96C742.947 498.64 742.251 498.48 741.483 498.48C740.379 498.48 739.435 498.832 738.651 499.536C737.883 500.24 737.443 501.216 737.331 502.464H745.635ZM752.958 498.984C753.342 498.232 753.886 497.648 754.59 497.232C755.31 496.816 756.182 496.608 757.206 496.608V498.864H756.63C754.182 498.864 752.958 500.192 752.958 502.848V510H750.774V496.848H752.958V498.984ZM760.855 494.712C760.439 494.712 760.087 494.568 759.799 494.28C759.511 493.992 759.367 493.64 759.367 493.224C759.367 492.808 759.511 492.456 759.799 492.168C760.087 491.88 760.439 491.736 760.855 491.736C761.255 491.736 761.591 491.88 761.863 492.168C762.151 492.456 762.295 492.808 762.295 493.224C762.295 493.64 762.151 493.992 761.863 494.28C761.591 494.568 761.255 494.712 760.855 494.712ZM761.911 496.848V510H759.727V496.848H761.911ZM772.041 496.608C773.641 496.608 774.937 497.096 775.929 498.072C776.921 499.032 777.417 500.424 777.417 502.248V510H775.257V502.56C775.257 501.248 774.929 500.248 774.273 499.56C773.617 498.856 772.721 498.504 771.585 498.504C770.433 498.504 769.513 498.864 768.825 499.584C768.153 500.304 767.817 501.352 767.817 502.728V510H765.633V496.848H767.817V498.72C768.249 498.048 768.833 497.528 769.569 497.16C770.321 496.792 771.145 496.608 772.041 496.608ZM786.409 496.632C787.545 496.632 788.537 496.88 789.385 497.376C790.249 497.872 790.889 498.496 791.305 499.248V496.848H793.513V510.288C793.513 511.488 793.257 512.552 792.745 513.48C792.233 514.424 791.497 515.16 790.537 515.688C789.593 516.216 788.489 516.48 787.225 516.48C785.497 516.48 784.057 516.072 782.905 515.256C781.753 514.44 781.073 513.328 780.865 511.92H783.025C783.265 512.72 783.761 513.36 784.513 513.84C785.265 514.336 786.169 514.584 787.225 514.584C788.425 514.584 789.401 514.208 790.153 513.456C790.921 512.704 791.305 511.648 791.305 510.288V507.528C790.873 508.296 790.233 508.936 789.385 509.448C788.537 509.96 787.545 510.216 786.409 510.216C785.241 510.216 784.177 509.928 783.217 509.352C782.273 508.776 781.529 507.968 780.985 506.928C780.441 505.888 780.169 504.704 780.169 503.376C780.169 502.032 780.441 500.856 780.985 499.848C781.529 498.824 782.273 498.032 783.217 497.472C784.177 496.912 785.241 496.632 786.409 496.632ZM791.305 503.4C791.305 502.408 791.105 501.544 790.705 500.808C790.305 500.072 789.761 499.512 789.073 499.128C788.401 498.728 787.657 498.528 786.841 498.528C786.025 498.528 785.281 498.72 784.609 499.104C783.937 499.488 783.401 500.048 783.001 500.784C782.601 501.52 782.401 502.384 782.401 503.376C782.401 504.384 782.601 505.264 783.001 506.016C783.401 506.752 783.937 507.32 784.609 507.72C785.281 508.104 786.025 508.296 786.841 508.296C787.657 508.296 788.401 508.104 789.073 507.72C789.761 507.32 790.305 506.752 790.705 506.016C791.105 505.264 791.305 504.392 791.305 503.4ZM805.786 499.272C806.218 498.52 806.858 497.896 807.706 497.4C808.57 496.888 809.57 496.632 810.706 496.632C811.874 496.632 812.93 496.912 813.874 497.472C814.834 498.032 815.586 498.824 816.13 499.848C816.674 500.856 816.946 502.032 816.946 503.376C816.946 504.704 816.674 505.888 816.13 506.928C815.586 507.968 814.834 508.776 813.874 509.352C812.93 509.928 811.874 510.216 810.706 510.216C809.586 510.216 808.594 509.968 807.73 509.472C806.882 508.96 806.234 508.328 805.786 507.576V516.24H803.602V496.848H805.786V499.272ZM814.714 503.376C814.714 502.384 814.514 501.52 814.114 500.784C813.714 500.048 813.17 499.488 812.482 499.104C811.81 498.72 811.066 498.528 810.25 498.528C809.45 498.528 808.706 498.728 808.018 499.128C807.346 499.512 806.802 500.08 806.386 500.832C805.986 501.568 805.786 502.424 805.786 503.4C805.786 504.392 805.986 505.264 806.386 506.016C806.802 506.752 807.346 507.32 808.018 507.72C808.706 508.104 809.45 508.296 810.25 508.296C811.066 508.296 811.81 508.104 812.482 507.72C813.17 507.32 813.714 506.752 814.114 506.016C814.514 505.264 814.714 504.384 814.714 503.376ZM825.557 510.216C824.325 510.216 823.205 509.936 822.197 509.376C821.205 508.816 820.421 508.024 819.845 507C819.285 505.96 819.005 504.76 819.005 503.4C819.005 502.056 819.293 500.872 819.869 499.848C820.461 498.808 821.261 498.016 822.269 497.472C823.277 496.912 824.405 496.632 825.653 496.632C826.901 496.632 828.029 496.912 829.037 497.472C830.045 498.016 830.837 498.8 831.413 499.824C832.005 500.848 832.301 502.04 832.301 503.4C832.301 504.76 831.997 505.96 831.389 507C830.797 508.024 829.989 508.816 828.965 509.376C827.941 509.936 826.805 510.216 825.557 510.216ZM825.557 508.296C826.341 508.296 827.077 508.112 827.765 507.744C828.453 507.376 829.005 506.824 829.421 506.088C829.853 505.352 830.069 504.456 830.069 503.4C830.069 502.344 829.861 501.448 829.445 500.712C829.029 499.976 828.485 499.432 827.813 499.08C827.141 498.712 826.413 498.528 825.629 498.528C824.829 498.528 824.093 498.712 823.421 499.08C822.765 499.432 822.237 499.976 821.837 500.712C821.437 501.448 821.237 502.344 821.237 503.4C821.237 504.472 821.429 505.376 821.813 506.112C822.213 506.848 822.741 507.4 823.397 507.768C824.053 508.12 824.773 508.296 825.557 508.296ZM839.828 510.216C838.82 510.216 837.916 510.048 837.116 509.712C836.316 509.36 835.684 508.88 835.22 508.272C834.756 507.648 834.5 506.936 834.452 506.136H836.708C836.772 506.792 837.076 507.328 837.62 507.744C838.18 508.16 838.908 508.368 839.804 508.368C840.636 508.368 841.292 508.184 841.772 507.816C842.252 507.448 842.492 506.984 842.492 506.424C842.492 505.848 842.236 505.424 841.724 505.152C841.212 504.864 840.42 504.584 839.348 504.312C838.372 504.056 837.572 503.8 836.948 503.544C836.34 503.272 835.812 502.88 835.364 502.368C834.932 501.84 834.716 501.152 834.716 500.304C834.716 499.632 834.916 499.016 835.316 498.456C835.716 497.896 836.284 497.456 837.02 497.136C837.756 496.8 838.596 496.632 839.54 496.632C840.996 496.632 842.172 497 843.068 497.736C843.964 498.472 844.444 499.48 844.508 500.76H842.324C842.276 500.072 841.996 499.52 841.484 499.104C840.988 498.688 840.316 498.48 839.468 498.48C838.684 498.48 838.06 498.648 837.596 498.984C837.132 499.32 836.9 499.76 836.9 500.304C836.9 500.736 837.036 501.096 837.308 501.384C837.596 501.656 837.948 501.88 838.364 502.056C838.796 502.216 839.388 502.4 840.14 502.608C841.084 502.864 841.852 503.12 842.444 503.376C843.036 503.616 843.54 503.984 843.956 504.48C844.388 504.976 844.612 505.624 844.628 506.424C844.628 507.144 844.428 507.792 844.028 508.368C843.628 508.944 843.06 509.4 842.324 509.736C841.604 510.056 840.772 510.216 839.828 510.216ZM852.367 510.216C851.359 510.216 850.455 510.048 849.655 509.712C848.855 509.36 848.223 508.88 847.759 508.272C847.295 507.648 847.039 506.936 846.991 506.136H849.247C849.311 506.792 849.615 507.328 850.159 507.744C850.719 508.16 851.447 508.368 852.343 508.368C853.175 508.368 853.831 508.184 854.311 507.816C854.791 507.448 855.031 506.984 855.031 506.424C855.031 505.848 854.775 505.424 854.263 505.152C853.751 504.864 852.959 504.584 851.887 504.312C850.911 504.056 850.111 503.8 849.487 503.544C848.879 503.272 848.351 502.88 847.903 502.368C847.471 501.84 847.255 501.152 847.255 500.304C847.255 499.632 847.455 499.016 847.855 498.456C848.255 497.896 848.823 497.456 849.559 497.136C850.295 496.8 851.135 496.632 852.079 496.632C853.535 496.632 854.711 497 855.607 497.736C856.503 498.472 856.983 499.48 857.047 500.76H854.863C854.815 500.072 854.535 499.52 854.023 499.104C853.527 498.688 852.855 498.48 852.007 498.48C851.223 498.48 850.599 498.648 850.135 498.984C849.671 499.32 849.439 499.76 849.439 500.304C849.439 500.736 849.575 501.096 849.847 501.384C850.135 501.656 850.487 501.88 850.903 502.056C851.335 502.216 851.927 502.4 852.679 502.608C853.623 502.864 854.391 503.12 854.983 503.376C855.575 503.616 856.079 503.984 856.495 504.48C856.927 504.976 857.151 505.624 857.167 506.424C857.167 507.144 856.967 507.792 856.567 508.368C856.167 508.944 855.599 509.4 854.863 509.736C854.143 510.056 853.311 510.216 852.367 510.216ZM861.378 494.712C860.962 494.712 860.61 494.568 860.322 494.28C860.034 493.992 859.89 493.64 859.89 493.224C859.89 492.808 860.034 492.456 860.322 492.168C860.61 491.88 860.962 491.736 861.378 491.736C861.778 491.736 862.114 491.88 862.386 492.168C862.674 492.456 862.818 492.808 862.818 493.224C862.818 493.64 862.674 493.992 862.386 494.28C862.114 494.568 861.778 494.712 861.378 494.712ZM862.434 496.848V510H860.25V496.848H862.434ZM868.341 492.24V510H866.157V492.24H868.341ZM874.247 499.296C874.695 498.512 875.351 497.872 876.215 497.376C877.079 496.88 878.063 496.632 879.167 496.632C880.351 496.632 881.415 496.912 882.359 497.472C883.303 498.032 884.047 498.824 884.591 499.848C885.135 500.856 885.407 502.032 885.407 503.376C885.407 504.704 885.135 505.888 884.591 506.928C884.047 507.968 883.295 508.776 882.335 509.352C881.391 509.928 880.335 510.216 879.167 510.216C878.031 510.216 877.031 509.968 876.167 509.472C875.319 508.976 874.679 508.344 874.247 507.576V510H872.063V492.24H874.247V499.296ZM883.175 503.376C883.175 502.384 882.975 501.52 882.575 500.784C882.175 500.048 881.631 499.488 880.943 499.104C880.271 498.72 879.527 498.528 878.711 498.528C877.911 498.528 877.167 498.728 876.479 499.128C875.807 499.512 875.263 500.08 874.847 500.832C874.447 501.568 874.247 502.424 874.247 503.4C874.247 504.392 874.447 505.264 874.847 506.016C875.263 506.752 875.807 507.32 876.479 507.72C877.167 508.104 877.911 508.296 878.711 508.296C879.527 508.296 880.271 508.104 880.943 507.72C881.631 507.32 882.175 506.752 882.575 506.016C882.975 505.264 883.175 504.384 883.175 503.376ZM900.282 502.92C900.282 503.336 900.258 503.776 900.21 504.24H889.698C889.778 505.536 890.218 506.552 891.018 507.288C891.834 508.008 892.818 508.368 893.97 508.368C894.914 508.368 895.698 508.152 896.322 507.72C896.962 507.272 897.41 506.68 897.666 505.944H900.018C899.666 507.208 898.962 508.24 897.906 509.04C896.85 509.824 895.538 510.216 893.97 510.216C892.722 510.216 891.602 509.936 890.61 509.376C889.634 508.816 888.866 508.024 888.306 507C887.746 505.96 887.466 504.76 887.466 503.4C887.466 502.04 887.738 500.848 888.282 499.824C888.826 498.8 889.586 498.016 890.562 497.472C891.554 496.912 892.69 496.632 893.97 496.632C895.218 496.632 896.322 496.904 897.282 497.448C898.242 497.992 898.978 498.744 899.49 499.704C900.018 500.648 900.282 501.72 900.282 502.92ZM898.026 502.464C898.026 501.632 897.842 500.92 897.474 500.328C897.106 499.72 896.602 499.264 895.962 498.96C895.338 498.64 894.642 498.48 893.874 498.48C892.77 498.48 891.826 498.832 891.042 499.536C890.274 500.24 889.834 501.216 889.722 502.464H898.026ZM914.219 510.216C913.211 510.216 912.307 510.048 911.507 509.712C910.707 509.36 910.075 508.88 909.611 508.272C909.147 507.648 908.891 506.936 908.843 506.136H911.099C911.163 506.792 911.467 507.328 912.011 507.744C912.571 508.16 913.299 508.368 914.195 508.368C915.027 508.368 915.683 508.184 916.163 507.816C916.643 507.448 916.883 506.984 916.883 506.424C916.883 505.848 916.627 505.424 916.115 505.152C915.603 504.864 914.811 504.584 913.739 504.312C912.763 504.056 911.963 503.8 911.339 503.544C910.731 503.272 910.203 502.88 909.755 502.368C909.323 501.84 909.107 501.152 909.107 500.304C909.107 499.632 909.307 499.016 909.707 498.456C910.107 497.896 910.675 497.456 911.411 497.136C912.147 496.8 912.987 496.632 913.931 496.632C915.387 496.632 916.563 497 917.459 497.736C918.355 498.472 918.835 499.48 918.899 500.76H916.715C916.667 500.072 916.387 499.52 915.875 499.104C915.379 498.688 914.707 498.48 913.859 498.48C913.075 498.48 912.451 498.648 911.987 498.984C911.523 499.32 911.291 499.76 911.291 500.304C911.291 500.736 911.427 501.096 911.699 501.384C911.987 501.656 912.339 501.88 912.755 502.056C913.187 502.216 913.779 502.4 914.531 502.608C915.475 502.864 916.243 503.12 916.835 503.376C917.427 503.616 917.931 503.984 918.347 504.48C918.779 504.976 919.003 505.624 919.019 506.424C919.019 507.144 918.819 507.792 918.419 508.368C918.019 508.944 917.451 509.4 916.715 509.736C915.995 510.056 915.163 510.216 914.219 510.216ZM927.838 510.216C926.606 510.216 925.486 509.936 924.478 509.376C923.486 508.816 922.702 508.024 922.126 507C921.566 505.96 921.286 504.76 921.286 503.4C921.286 502.056 921.574 500.872 922.15 499.848C922.742 498.808 923.542 498.016 924.55 497.472C925.558 496.912 926.686 496.632 927.934 496.632C929.182 496.632 930.31 496.912 931.318 497.472C932.326 498.016 933.118 498.8 933.694 499.824C934.286 500.848 934.582 502.04 934.582 503.4C934.582 504.76 934.278 505.96 933.67 507C933.078 508.024 932.27 508.816 931.246 509.376C930.222 509.936 929.086 510.216 927.838 510.216ZM927.838 508.296C928.622 508.296 929.358 508.112 930.046 507.744C930.734 507.376 931.286 506.824 931.702 506.088C932.134 505.352 932.35 504.456 932.35 503.4C932.35 502.344 932.142 501.448 931.726 500.712C931.31 499.976 930.766 499.432 930.094 499.08C929.422 498.712 928.694 498.528 927.91 498.528C927.11 498.528 926.374 498.712 925.702 499.08C925.046 499.432 924.518 499.976 924.118 500.712C923.718 501.448 923.518 502.344 923.518 503.4C923.518 504.472 923.71 505.376 924.094 506.112C924.494 506.848 925.022 507.4 925.678 507.768C926.334 508.12 927.054 508.296 927.838 508.296ZM939.637 492.24V510H937.453V492.24H939.637ZM955.024 496.848V510H952.84V508.056C952.424 508.728 951.84 509.256 951.088 509.64C950.352 510.008 949.536 510.192 948.64 510.192C947.616 510.192 946.696 509.984 945.88 509.568C945.064 509.136 944.416 508.496 943.936 507.648C943.472 506.8 943.24 505.768 943.24 504.552V496.848H945.4V504.264C945.4 505.56 945.728 506.56 946.384 507.264C947.04 507.952 947.936 508.296 949.072 508.296C950.24 508.296 951.16 507.936 951.832 507.216C952.504 506.496 952.84 505.448 952.84 504.072V496.848H955.024ZM961.375 498.648V506.4C961.375 507.04 961.511 507.496 961.783 507.768C962.055 508.024 962.527 508.152 963.199 508.152H964.807V510H962.839C961.623 510 960.711 509.72 960.103 509.16C959.495 508.6 959.191 507.68 959.191 506.4V498.648H957.487V496.848H959.191V493.536H961.375V496.848H964.807V498.648H961.375ZM968.581 494.712C968.165 494.712 967.813 494.568 967.525 494.28C967.237 493.992 967.093 493.64 967.093 493.224C967.093 492.808 967.237 492.456 967.525 492.168C967.813 491.88 968.165 491.736 968.581 491.736C968.981 491.736 969.317 491.88 969.589 492.168C969.877 492.456 970.021 492.808 970.021 493.224C970.021 493.64 969.877 493.992 969.589 494.28C969.317 494.568 968.981 494.712 968.581 494.712ZM969.637 496.848V510H967.453V496.848H969.637ZM979.096 510.216C977.864 510.216 976.744 509.936 975.736 509.376C974.744 508.816 973.96 508.024 973.384 507C972.824 505.96 972.544 504.76 972.544 503.4C972.544 502.056 972.832 500.872 973.408 499.848C974 498.808 974.8 498.016 975.808 497.472C976.816 496.912 977.944 496.632 979.192 496.632C980.44 496.632 981.568 496.912 982.576 497.472C983.584 498.016 984.376 498.8 984.952 499.824C985.544 500.848 985.84 502.04 985.84 503.4C985.84 504.76 985.536 505.96 984.928 507C984.336 508.024 983.528 508.816 982.504 509.376C981.48 509.936 980.344 510.216 979.096 510.216ZM979.096 508.296C979.88 508.296 980.616 508.112 981.304 507.744C981.992 507.376 982.544 506.824 982.96 506.088C983.392 505.352 983.608 504.456 983.608 503.4C983.608 502.344 983.4 501.448 982.984 500.712C982.568 499.976 982.024 499.432 981.352 499.08C980.68 498.712 979.952 498.528 979.168 498.528C978.368 498.528 977.632 498.712 976.96 499.08C976.304 499.432 975.776 499.976 975.376 500.712C974.976 501.448 974.776 502.344 974.776 503.4C974.776 504.472 974.968 505.376 975.352 506.112C975.752 506.848 976.28 507.4 976.936 507.768C977.592 508.12 978.312 508.296 979.096 508.296ZM995.119 496.608C996.719 496.608 998.015 497.096 999.007 498.072C999.999 499.032 1000.5 500.424 1000.5 502.248V510H998.335V502.56C998.335 501.248 998.007 500.248 997.351 499.56C996.695 498.856 995.799 498.504 994.663 498.504C993.511 498.504 992.591 498.864 991.903 499.584C991.231 500.304 990.895 501.352 990.895 502.728V510H988.711V496.848H990.895V498.72C991.327 498.048 991.911 497.528 992.647 497.16C993.399 496.792 994.223 496.608 995.119 496.608ZM1008.72 510.216C1007.71 510.216 1006.81 510.048 1006.01 509.712C1005.21 509.36 1004.57 508.88 1004.11 508.272C1003.65 507.648 1003.39 506.936 1003.34 506.136H1005.6C1005.66 506.792 1005.97 507.328 1006.51 507.744C1007.07 508.16 1007.8 508.368 1008.69 508.368C1009.53 508.368 1010.18 508.184 1010.66 507.816C1011.14 507.448 1011.38 506.984 1011.38 506.424C1011.38 505.848 1011.13 505.424 1010.61 505.152C1010.1 504.864 1009.31 504.584 1008.24 504.312C1007.26 504.056 1006.46 503.8 1005.84 503.544C1005.23 503.272 1004.7 502.88 1004.25 502.368C1003.82 501.84 1003.61 501.152 1003.61 500.304C1003.61 499.632 1003.81 499.016 1004.21 498.456C1004.61 497.896 1005.17 497.456 1005.91 497.136C1006.65 496.8 1007.49 496.632 1008.43 496.632C1009.89 496.632 1011.06 497 1011.96 497.736C1012.85 498.472 1013.33 499.48 1013.4 500.76H1011.21C1011.17 500.072 1010.89 499.52 1010.37 499.104C1009.88 498.688 1009.21 498.48 1008.36 498.48C1007.57 498.48 1006.95 498.648 1006.49 498.984C1006.02 499.32 1005.79 499.76 1005.79 500.304C1005.79 500.736 1005.93 501.096 1006.2 501.384C1006.49 501.656 1006.84 501.88 1007.25 502.056C1007.69 502.216 1008.28 502.4 1009.03 502.608C1009.97 502.864 1010.74 503.12 1011.33 503.376C1011.93 503.616 1012.43 503.984 1012.85 504.48C1013.28 504.976 1013.5 505.624 1013.52 506.424C1013.52 507.144 1013.32 507.792 1012.92 508.368C1012.52 508.944 1011.95 509.4 1011.21 509.736C1010.49 510.056 1009.66 510.216 1008.72 510.216ZM689.5 546.648V554.4C689.5 555.04 689.636 555.496 689.908 555.768C690.18 556.024 690.652 556.152 691.324 556.152H692.932V558H690.964C689.748 558 688.836 557.72 688.228 557.16C687.62 556.6 687.316 555.68 687.316 554.4V546.648H685.612V544.848H687.316V541.536H689.5V544.848H692.932V546.648H689.5ZM701.314 558.216C700.082 558.216 698.962 557.936 697.954 557.376C696.962 556.816 696.178 556.024 695.602 555C695.042 553.96 694.762 552.76 694.762 551.4C694.762 550.056 695.05 548.872 695.626 547.848C696.218 546.808 697.018 546.016 698.026 545.472C699.034 544.912 700.162 544.632 701.41 544.632C702.658 544.632 703.786 544.912 704.794 545.472C705.802 546.016 706.594 546.8 707.17 547.824C707.762 548.848 708.058 550.04 708.058 551.4C708.058 552.76 707.754 553.96 707.146 555C706.554 556.024 705.746 556.816 704.722 557.376C703.698 557.936 702.562 558.216 701.314 558.216ZM701.314 556.296C702.098 556.296 702.834 556.112 703.522 555.744C704.21 555.376 704.762 554.824 705.178 554.088C705.61 553.352 705.826 552.456 705.826 551.4C705.826 550.344 705.618 549.448 705.202 548.712C704.786 547.976 704.242 547.432 703.57 547.08C702.898 546.712 702.17 546.528 701.386 546.528C700.586 546.528 699.85 546.712 699.178 547.08C698.522 547.432 697.994 547.976 697.594 548.712C697.194 549.448 696.994 550.344 696.994 551.4C696.994 552.472 697.186 553.376 697.57 554.112C697.97 554.848 698.498 555.4 699.154 555.768C699.81 556.12 700.53 556.296 701.314 556.296ZM722.68 546.648H719.92V558H717.736V546.648H716.032V544.848H717.736V543.912C717.736 542.44 718.112 541.368 718.864 540.696C719.632 540.008 720.856 539.664 722.536 539.664V541.488C721.576 541.488 720.896 541.68 720.496 542.064C720.112 542.432 719.92 543.048 719.92 543.912V544.848H722.68V546.648ZM730.963 558.216C729.731 558.216 728.611 557.936 727.603 557.376C726.611 556.816 725.827 556.024 725.251 555C724.691 553.96 724.411 552.76 724.411 551.4C724.411 550.056 724.699 548.872 725.275 547.848C725.867 546.808 726.667 546.016 727.675 545.472C728.683 544.912 729.811 544.632 731.059 544.632C732.307 544.632 733.435 544.912 734.443 545.472C735.451 546.016 736.243 546.8 736.819 547.824C737.411 548.848 737.707 550.04 737.707 551.4C737.707 552.76 737.403 553.96 736.795 555C736.203 556.024 735.395 556.816 734.371 557.376C733.347 557.936 732.211 558.216 730.963 558.216ZM730.963 556.296C731.747 556.296 732.483 556.112 733.171 555.744C733.859 555.376 734.411 554.824 734.827 554.088C735.259 553.352 735.475 552.456 735.475 551.4C735.475 550.344 735.267 549.448 734.851 548.712C734.435 547.976 733.891 547.432 733.219 547.08C732.547 546.712 731.819 546.528 731.035 546.528C730.235 546.528 729.499 546.712 728.827 547.08C728.171 547.432 727.643 547.976 727.243 548.712C726.843 549.448 726.643 550.344 726.643 551.4C726.643 552.472 726.835 553.376 727.219 554.112C727.619 554.848 728.147 555.4 728.803 555.768C729.459 556.12 730.179 556.296 730.963 556.296ZM742.762 546.984C743.146 546.232 743.69 545.648 744.394 545.232C745.114 544.816 745.986 544.608 747.01 544.608V546.864H746.434C743.986 546.864 742.762 548.192 742.762 550.848V558H740.578V544.848H742.762V546.984ZM765.348 544.608C766.372 544.608 767.284 544.824 768.084 545.256C768.884 545.672 769.516 546.304 769.98 547.152C770.444 548 770.676 549.032 770.676 550.248V558H768.516V550.56C768.516 549.248 768.188 548.248 767.532 547.56C766.892 546.856 766.02 546.504 764.916 546.504C763.78 546.504 762.876 546.872 762.204 547.608C761.532 548.328 761.196 549.376 761.196 550.752V558H759.036V550.56C759.036 549.248 758.708 548.248 758.052 547.56C757.412 546.856 756.54 546.504 755.436 546.504C754.3 546.504 753.396 546.872 752.724 547.608C752.052 548.328 751.716 549.376 751.716 550.752V558H749.532V544.848H751.716V546.744C752.148 546.056 752.724 545.528 753.444 545.16C754.18 544.792 754.988 544.608 755.868 544.608C756.972 544.608 757.948 544.856 758.796 545.352C759.644 545.848 760.276 546.576 760.692 547.536C761.06 546.608 761.668 545.888 762.516 545.376C763.364 544.864 764.308 544.608 765.348 544.608ZM786.081 544.632C787.217 544.632 788.209 544.88 789.057 545.376C789.921 545.872 790.561 546.496 790.977 547.248V544.848H793.185V558.288C793.185 559.488 792.929 560.552 792.417 561.48C791.905 562.424 791.169 563.16 790.209 563.688C789.265 564.216 788.161 564.48 786.897 564.48C785.169 564.48 783.729 564.072 782.577 563.256C781.425 562.44 780.745 561.328 780.537 559.92H782.697C782.937 560.72 783.433 561.36 784.185 561.84C784.937 562.336 785.841 562.584 786.897 562.584C788.097 562.584 789.073 562.208 789.825 561.456C790.593 560.704 790.977 559.648 790.977 558.288V555.528C790.545 556.296 789.905 556.936 789.057 557.448C788.209 557.96 787.217 558.216 786.081 558.216C784.913 558.216 783.849 557.928 782.889 557.352C781.945 556.776 781.201 555.968 780.657 554.928C780.113 553.888 779.841 552.704 779.841 551.376C779.841 550.032 780.113 548.856 780.657 547.848C781.201 546.824 781.945 546.032 782.889 545.472C783.849 544.912 784.913 544.632 786.081 544.632ZM790.977 551.4C790.977 550.408 790.777 549.544 790.377 548.808C789.977 548.072 789.433 547.512 788.745 547.128C788.073 546.728 787.329 546.528 786.513 546.528C785.697 546.528 784.953 546.72 784.281 547.104C783.609 547.488 783.073 548.048 782.673 548.784C782.273 549.52 782.073 550.384 782.073 551.376C782.073 552.384 782.273 553.264 782.673 554.016C783.073 554.752 783.609 555.32 784.281 555.72C784.953 556.104 785.697 556.296 786.513 556.296C787.329 556.296 788.073 556.104 788.745 555.72C789.433 555.32 789.977 554.752 790.377 554.016C790.777 553.264 790.977 552.392 790.977 551.4ZM796.059 551.376C796.059 550.032 796.331 548.856 796.875 547.848C797.419 546.824 798.163 546.032 799.107 545.472C800.067 544.912 801.131 544.632 802.299 544.632C803.451 544.632 804.451 544.88 805.299 545.376C806.147 545.872 806.779 546.496 807.195 547.248V544.848H809.403V558H807.195V555.552C806.763 556.32 806.115 556.96 805.251 557.472C804.403 557.968 803.411 558.216 802.275 558.216C801.107 558.216 800.051 557.928 799.107 557.352C798.163 556.776 797.419 555.968 796.875 554.928C796.331 553.888 796.059 552.704 796.059 551.376ZM807.195 551.4C807.195 550.408 806.995 549.544 806.595 548.808C806.195 548.072 805.651 547.512 804.963 547.128C804.291 546.728 803.547 546.528 802.731 546.528C801.915 546.528 801.171 546.72 800.499 547.104C799.827 547.488 799.291 548.048 798.891 548.784C798.491 549.52 798.291 550.384 798.291 551.376C798.291 552.384 798.491 553.264 798.891 554.016C799.291 554.752 799.827 555.32 800.499 555.72C801.171 556.104 801.915 556.296 802.731 556.296C803.547 556.296 804.291 556.104 804.963 555.72C805.651 555.32 806.195 554.752 806.595 554.016C806.995 553.264 807.195 552.392 807.195 551.4ZM828.91 544.608C829.934 544.608 830.846 544.824 831.646 545.256C832.446 545.672 833.078 546.304 833.542 547.152C834.006 548 834.238 549.032 834.238 550.248V558H832.078V550.56C832.078 549.248 831.75 548.248 831.094 547.56C830.454 546.856 829.582 546.504 828.478 546.504C827.342 546.504 826.438 546.872 825.766 547.608C825.094 548.328 824.758 549.376 824.758 550.752V558H822.598V550.56C822.598 549.248 822.27 548.248 821.614 547.56C820.974 546.856 820.102 546.504 818.998 546.504C817.862 546.504 816.958 546.872 816.286 547.608C815.614 548.328 815.278 549.376 815.278 550.752V558H813.094V544.848H815.278V546.744C815.71 546.056 816.286 545.528 817.006 545.16C817.742 544.792 818.55 544.608 819.43 544.608C820.534 544.608 821.51 544.856 822.358 545.352C823.206 545.848 823.838 546.576 824.254 547.536C824.622 546.608 825.23 545.888 826.078 545.376C826.926 544.864 827.87 544.608 828.91 544.608ZM849.821 550.92C849.821 551.336 849.797 551.776 849.749 552.24H839.237C839.317 553.536 839.757 554.552 840.557 555.288C841.373 556.008 842.357 556.368 843.509 556.368C844.453 556.368 845.237 556.152 845.861 555.72C846.501 555.272 846.949 554.68 847.205 553.944H849.557C849.205 555.208 848.501 556.24 847.445 557.04C846.389 557.824 845.077 558.216 843.509 558.216C842.261 558.216 841.141 557.936 840.149 557.376C839.173 556.816 838.405 556.024 837.845 555C837.285 553.96 837.005 552.76 837.005 551.4C837.005 550.04 837.277 548.848 837.821 547.824C838.365 546.8 839.125 546.016 840.101 545.472C841.093 544.912 842.229 544.632 843.509 544.632C844.757 544.632 845.861 544.904 846.821 545.448C847.781 545.992 848.517 546.744 849.029 547.704C849.557 548.648 849.821 549.72 849.821 550.92ZM847.565 550.464C847.565 549.632 847.381 548.92 847.013 548.328C846.645 547.72 846.141 547.264 845.501 546.96C844.877 546.64 844.181 546.48 843.413 546.48C842.309 546.48 841.365 546.832 840.581 547.536C839.813 548.24 839.373 549.216 839.261 550.464H847.565ZM853.039 541.272H855.463L853.159 546.72H851.623L853.039 541.272ZM862.609 558.216C861.601 558.216 860.697 558.048 859.897 557.712C859.097 557.36 858.465 556.88 858.001 556.272C857.537 555.648 857.281 554.936 857.233 554.136H859.489C859.553 554.792 859.857 555.328 860.401 555.744C860.961 556.16 861.689 556.368 862.585 556.368C863.417 556.368 864.073 556.184 864.553 555.816C865.033 555.448 865.273 554.984 865.273 554.424C865.273 553.848 865.017 553.424 864.505 553.152C863.993 552.864 863.201 552.584 862.129 552.312C861.153 552.056 860.353 551.8 859.729 551.544C859.121 551.272 858.593 550.88 858.145 550.368C857.713 549.84 857.497 549.152 857.497 548.304C857.497 547.632 857.697 547.016 858.097 546.456C858.497 545.896 859.065 545.456 859.801 545.136C860.537 544.8 861.377 544.632 862.321 544.632C863.777 544.632 864.953 545 865.849 545.736C866.745 546.472 867.225 547.48 867.289 548.76H865.105C865.057 548.072 864.777 547.52 864.265 547.104C863.769 546.688 863.097 546.48 862.249 546.48C861.465 546.48 860.841 546.648 860.377 546.984C859.913 547.32 859.681 547.76 859.681 548.304C859.681 548.736 859.817 549.096 860.089 549.384C860.377 549.656 860.729 549.88 861.145 550.056C861.577 550.216 862.169 550.4 862.921 550.608C863.865 550.864 864.633 551.12 865.225 551.376C865.817 551.616 866.321 551.984 866.737 552.48C867.169 552.976 867.393 553.624 867.409 554.424C867.409 555.144 867.209 555.792 866.809 556.368C866.409 556.944 865.841 557.4 865.105 557.736C864.385 558.056 863.553 558.216 862.609 558.216ZM882.627 558.216C881.395 558.216 880.275 557.936 879.267 557.376C878.275 556.816 877.491 556.024 876.915 555C876.355 553.96 876.075 552.76 876.075 551.4C876.075 550.056 876.363 548.872 876.939 547.848C877.531 546.808 878.331 546.016 879.339 545.472C880.347 544.912 881.475 544.632 882.723 544.632C883.971 544.632 885.099 544.912 886.107 545.472C887.115 546.016 887.907 546.8 888.483 547.824C889.075 548.848 889.371 550.04 889.371 551.4C889.371 552.76 889.067 553.96 888.459 555C887.867 556.024 887.059 556.816 886.035 557.376C885.011 557.936 883.875 558.216 882.627 558.216ZM882.627 556.296C883.411 556.296 884.147 556.112 884.835 555.744C885.523 555.376 886.075 554.824 886.491 554.088C886.923 553.352 887.139 552.456 887.139 551.4C887.139 550.344 886.931 549.448 886.515 548.712C886.099 547.976 885.555 547.432 884.883 547.08C884.211 546.712 883.483 546.528 882.699 546.528C881.899 546.528 881.163 546.712 880.491 547.08C879.835 547.432 879.307 547.976 878.907 548.712C878.507 549.448 878.307 550.344 878.307 551.4C878.307 552.472 878.499 553.376 878.883 554.112C879.283 554.848 879.811 555.4 880.467 555.768C881.123 556.12 881.843 556.296 882.627 556.296ZM894.427 547.296C894.875 546.512 895.531 545.872 896.395 545.376C897.259 544.88 898.243 544.632 899.347 544.632C900.531 544.632 901.595 544.912 902.539 545.472C903.483 546.032 904.227 546.824 904.771 547.848C905.315 548.856 905.587 550.032 905.587 551.376C905.587 552.704 905.315 553.888 904.771 554.928C904.227 555.968 903.475 556.776 902.515 557.352C901.571 557.928 900.515 558.216 899.347 558.216C898.211 558.216 897.211 557.968 896.347 557.472C895.499 556.976 894.859 556.344 894.427 555.576V558H892.243V540.24H894.427V547.296ZM903.355 551.376C903.355 550.384 903.155 549.52 902.755 548.784C902.355 548.048 901.811 547.488 901.123 547.104C900.451 546.72 899.707 546.528 898.891 546.528C898.091 546.528 897.347 546.728 896.659 547.128C895.987 547.512 895.443 548.08 895.027 548.832C894.627 549.568 894.427 550.424 894.427 551.4C894.427 552.392 894.627 553.264 895.027 554.016C895.443 554.752 895.987 555.32 896.659 555.72C897.347 556.104 898.091 556.296 898.891 556.296C899.707 556.296 900.451 556.104 901.123 555.72C901.811 555.32 902.355 554.752 902.755 554.016C903.155 553.264 903.355 552.384 903.355 551.376ZM909.637 542.712C909.221 542.712 908.869 542.568 908.581 542.28C908.309 541.992 908.173 541.64 908.173 541.224C908.173 540.808 908.309 540.456 908.581 540.168C908.869 539.88 909.221 539.736 909.637 539.736C910.053 539.736 910.397 539.88 910.669 540.168C910.957 540.456 911.101 540.808 911.101 541.224C911.101 541.64 910.957 541.992 910.669 542.28C910.397 542.568 910.053 542.712 909.637 542.712ZM910.717 560.856C910.717 562.024 910.421 562.88 909.829 563.424C909.237 563.968 908.373 564.24 907.237 564.24H905.965V562.392H906.877C907.485 562.392 907.909 562.272 908.149 562.032C908.405 561.792 908.533 561.384 908.533 560.808V544.848H910.717V560.856ZM926.414 550.92C926.414 551.336 926.39 551.776 926.342 552.24H915.83C915.91 553.536 916.35 554.552 917.15 555.288C917.966 556.008 918.95 556.368 920.102 556.368C921.046 556.368 921.83 556.152 922.454 555.72C923.094 555.272 923.542 554.68 923.798 553.944H926.15C925.798 555.208 925.094 556.24 924.038 557.04C922.982 557.824 921.67 558.216 920.102 558.216C918.854 558.216 917.734 557.936 916.742 557.376C915.766 556.816 914.998 556.024 914.438 555C913.878 553.96 913.598 552.76 913.598 551.4C913.598 550.04 913.87 548.848 914.414 547.824C914.958 546.8 915.718 546.016 916.694 545.472C917.686 544.912 918.822 544.632 920.102 544.632C921.35 544.632 922.454 544.904 923.414 545.448C924.374 545.992 925.11 546.744 925.622 547.704C926.15 548.648 926.414 549.72 926.414 550.92ZM924.158 550.464C924.158 549.632 923.974 548.92 923.606 548.328C923.238 547.72 922.734 547.264 922.094 546.96C921.47 546.64 920.774 546.48 920.006 546.48C918.902 546.48 917.958 546.832 917.174 547.536C916.406 548.24 915.966 549.216 915.854 550.464H924.158ZM928.481 551.4C928.481 550.04 928.753 548.856 929.297 547.848C929.841 546.824 930.593 546.032 931.553 545.472C932.529 544.912 933.641 544.632 934.889 544.632C936.505 544.632 937.833 545.024 938.873 545.808C939.929 546.592 940.625 547.68 940.961 549.072H938.609C938.385 548.272 937.945 547.64 937.289 547.176C936.649 546.712 935.849 546.48 934.889 546.48C933.641 546.48 932.633 546.912 931.865 547.776C931.097 548.624 930.713 549.832 930.713 551.4C930.713 552.984 931.097 554.208 931.865 555.072C932.633 555.936 933.641 556.368 934.889 556.368C935.849 556.368 936.649 556.144 937.289 555.696C937.929 555.248 938.369 554.608 938.609 553.776H940.961C940.609 555.12 939.905 556.2 938.849 557.016C937.793 557.816 936.473 558.216 934.889 558.216C933.641 558.216 932.529 557.936 931.553 557.376C930.593 556.816 929.841 556.024 929.297 555C928.753 553.976 928.481 552.776 928.481 551.4ZM946.539 546.648V554.4C946.539 555.04 946.675 555.496 946.947 555.768C947.219 556.024 947.691 556.152 948.363 556.152H949.971V558H948.003C946.787 558 945.875 557.72 945.267 557.16C944.659 556.6 944.355 555.68 944.355 554.4V546.648H942.651V544.848H944.355V541.536H946.539V544.848H949.971V546.648H946.539ZM953.746 542.712C953.33 542.712 952.978 542.568 952.69 542.28C952.402 541.992 952.258 541.64 952.258 541.224C952.258 540.808 952.402 540.456 952.69 540.168C952.978 539.88 953.33 539.736 953.746 539.736C954.146 539.736 954.482 539.88 954.754 540.168C955.042 540.456 955.186 540.808 955.186 541.224C955.186 541.64 955.042 541.992 954.754 542.28C954.482 542.568 954.146 542.712 953.746 542.712ZM954.802 544.848V558H952.618V544.848H954.802ZM963.42 555.984L967.5 544.848H969.828L964.668 558H962.124L956.964 544.848H959.316L963.42 555.984ZM983.977 550.92C983.977 551.336 983.953 551.776 983.905 552.24H973.393C973.473 553.536 973.913 554.552 974.713 555.288C975.529 556.008 976.513 556.368 977.665 556.368C978.609 556.368 979.393 556.152 980.017 555.72C980.657 555.272 981.105 554.68 981.361 553.944H983.713C983.361 555.208 982.657 556.24 981.601 557.04C980.545 557.824 979.233 558.216 977.665 558.216C976.417 558.216 975.297 557.936 974.305 557.376C973.329 556.816 972.561 556.024 972.001 555C971.441 553.96 971.161 552.76 971.161 551.4C971.161 550.04 971.433 548.848 971.977 547.824C972.521 546.8 973.281 546.016 974.257 545.472C975.249 544.912 976.385 544.632 977.665 544.632C978.913 544.632 980.017 544.904 980.977 545.448C981.937 545.992 982.673 546.744 983.185 547.704C983.713 548.648 983.977 549.72 983.977 550.92ZM981.721 550.464C981.721 549.632 981.537 548.92 981.169 548.328C980.801 547.72 980.297 547.264 979.657 546.96C979.033 546.64 978.337 546.48 977.569 546.48C976.465 546.48 975.521 546.832 974.737 547.536C973.969 548.24 973.529 549.216 973.417 550.464H981.721Z" fill="black"/>
<path d="M685.088 437.908H677.276V463H685.088C693.332 463 698.408 458.284 698.408 450.508C698.408 442.732 693.332 437.908 685.088 437.908ZM680.552 460.3V440.572H685.088C691.64 440.572 695.06 444.388 695.06 450.508C695.06 456.628 691.64 460.3 685.088 460.3H680.552ZM711.117 445.72C714.501 445.72 717.381 447.844 717.345 451.696H704.889C705.249 447.844 707.913 445.72 711.117 445.72ZM720.333 456.916H716.805C716.085 459.04 714.213 460.552 711.261 460.552C707.913 460.552 705.105 458.356 704.853 454.36H720.621C720.693 453.676 720.729 453.1 720.729 452.38C720.729 446.98 716.985 442.948 711.261 442.948C705.501 442.948 701.505 446.872 701.505 453.1C701.505 459.364 705.645 463.324 711.261 463.324C716.157 463.324 719.325 460.516 720.333 456.916ZM725.665 463H728.941V445.972H733.081V443.272H728.941V441.868C728.941 439.312 729.913 438.232 732.865 438.232V435.496C727.825 435.496 725.665 437.476 725.665 441.868V443.272H723.109V445.972H725.665V463ZM736.901 463H740.177V443.272H736.901V463ZM738.593 440.068C739.781 440.068 740.753 439.096 740.753 437.836C740.753 436.576 739.781 435.604 738.593 435.604C737.333 435.604 736.361 436.576 736.361 437.836C736.361 439.096 737.333 440.068 738.593 440.068ZM760.196 463H763.436V451.372C763.436 445.72 759.944 442.912 755.372 442.912C752.708 442.912 750.332 444.028 749.036 446.08V443.272H745.76V463H749.036V452.092C749.036 447.844 751.34 445.756 754.688 445.756C758 445.756 760.196 447.808 760.196 451.84V463ZM777.176 445.72C780.56 445.72 783.44 447.844 783.404 451.696H770.948C771.308 447.844 773.972 445.72 777.176 445.72ZM786.392 456.916H782.864C782.144 459.04 780.272 460.552 777.32 460.552C773.972 460.552 771.164 458.356 770.912 454.36H786.68C786.752 453.676 786.788 453.1 786.788 452.38C786.788 446.98 783.044 442.948 777.32 442.948C771.56 442.948 767.564 446.872 767.564 453.1C767.564 459.364 771.704 463.324 777.32 463.324C782.216 463.324 785.384 460.516 786.392 456.916ZM799.486 453.064C799.486 459.184 803.554 463.324 808.81 463.324C812.446 463.324 815.002 461.452 816.19 459.328V463H819.502V443.272H816.19V446.872C815.038 444.82 812.518 442.948 808.846 442.948C803.554 442.948 799.486 446.908 799.486 453.064ZM816.19 453.1C816.19 457.744 813.094 460.444 809.494 460.444C805.894 460.444 802.834 457.708 802.834 453.064C802.834 448.42 805.894 445.792 809.494 445.792C813.094 445.792 816.19 448.528 816.19 453.1ZM839.474 463H842.714V451.372C842.714 445.72 839.222 442.912 834.65 442.912C831.986 442.912 829.61 444.028 828.314 446.08V443.272H825.038V463H828.314V452.092C828.314 447.844 830.618 445.756 833.966 445.756C837.278 445.756 839.474 447.808 839.474 451.84V463ZM846.841 453.064C846.841 459.184 850.909 463.324 856.201 463.324C859.801 463.324 862.357 461.488 863.545 459.292V463H866.857V436.36H863.545V446.8C862.177 444.532 859.333 442.948 856.237 442.948C850.909 442.948 846.841 446.908 846.841 453.064ZM863.545 453.1C863.545 457.744 860.449 460.444 856.849 460.444C853.249 460.444 850.189 457.708 850.189 453.064C850.189 448.42 853.249 445.792 856.849 445.792C860.449 445.792 863.545 448.528 863.545 453.1ZM881.991 463H885.267V437.908H881.991V463ZM889.626 453.064C889.626 459.184 893.694 463.324 898.986 463.324C902.586 463.324 905.142 461.488 906.33 459.292V463H909.642V436.36H906.33V446.8C904.962 444.532 902.118 442.948 899.022 442.948C893.694 442.948 889.626 446.908 889.626 453.064ZM906.33 453.1C906.33 457.744 903.234 460.444 899.634 460.444C896.034 460.444 892.974 457.708 892.974 453.064C892.974 448.42 896.034 445.792 899.634 445.792C903.234 445.792 906.33 448.528 906.33 453.1ZM923.566 445.72C926.95 445.72 929.83 447.844 929.794 451.696H917.338C917.698 447.844 920.362 445.72 923.566 445.72ZM932.782 456.916H929.254C928.534 459.04 926.662 460.552 923.71 460.552C920.362 460.552 917.554 458.356 917.302 454.36H933.07C933.142 453.676 933.178 453.1 933.178 452.38C933.178 446.98 929.434 442.948 923.71 442.948C917.95 442.948 913.954 446.872 913.954 453.1C913.954 459.364 918.094 463.324 923.71 463.324C928.606 463.324 931.774 460.516 932.782 456.916ZM936.278 453.064C936.278 459.184 940.346 463.324 945.602 463.324C949.238 463.324 951.794 461.452 952.982 459.328V463H956.294V443.272H952.982V446.872C951.83 444.82 949.31 442.948 945.638 442.948C940.346 442.948 936.278 446.908 936.278 453.064ZM952.982 453.1C952.982 457.744 949.886 460.444 946.286 460.444C942.686 460.444 939.626 457.708 939.626 453.064C939.626 448.42 942.686 445.792 946.286 445.792C949.886 445.792 952.982 448.528 952.982 453.1ZM962.551 457.6C962.551 461.56 964.531 463 968.023 463H970.975V460.228H968.563C966.547 460.228 965.827 459.544 965.827 457.6V445.972H970.975V443.272H965.827V438.304H962.551V443.272H959.995V445.972H962.551V457.6ZM983.332 445.72C986.716 445.72 989.596 447.844 989.56 451.696H977.104C977.464 447.844 980.128 445.72 983.332 445.72ZM992.548 456.916H989.02C988.3 459.04 986.428 460.552 983.476 460.552C980.128 460.552 977.32 458.356 977.068 454.36H992.836C992.908 453.676 992.944 453.1 992.944 452.38C992.944 446.98 989.2 442.948 983.476 442.948C977.716 442.948 973.72 446.872 973.72 453.1C973.72 459.364 977.86 463.324 983.476 463.324C988.372 463.324 991.54 460.516 992.548 456.916Z" fill="black"/>
<ellipse cx="822.5" cy="261.5" rx="76.5" ry="70.5" fill="#FFFDFD" fill-opacity="0.95"/>
<path d="M325.747 364.092L325.773 364.105L325.799 364.117C327.318 364.8 329.32 365.237 331.444 365.237C339.237 365.237 345.67 359.135 346.188 351.474H357.981C357.456 365.665 345.782 377 331.444 377C327.667 377 323.959 376.208 320.584 374.691C311.522 369.958 306.362 363.188 302.29 350.85C299.98 343.783 295.742 340.522 290.168 336.26C284.198 331.668 276.966 326.059 270.802 314.894L270.802 314.894C266.12 306.421 263.556 297.02 263.556 288.539C263.556 262.048 284.256 241.368 310.778 241.368C336.965 241.368 357.477 261.529 357.99 287.539H346.209C345.694 268.195 330.283 253.131 310.778 253.131C290.938 253.131 275.333 268.717 275.333 288.539C275.333 295.133 277.387 302.524 281.107 309.255C286.078 318.276 291.836 322.717 297.267 326.907L297.354 326.973L297.354 326.973L297.492 327.079C303.779 331.926 310.093 336.794 313.478 347.137L313.48 347.143C315.221 352.358 316.986 355.931 318.982 358.539C320.995 361.168 323.205 362.768 325.747 364.092ZM257.187 236.418L265.553 244.775C254.558 256.047 247.778 271.49 247.778 288.539C247.778 305.59 254.559 321.033 265.488 332.367L257.187 340.66C244.072 327.205 236 308.824 236 288.539C236 268.254 244.072 249.873 257.187 236.418ZM310.778 304.743C301.822 304.743 294.556 297.482 294.556 288.539C294.556 279.596 301.822 272.335 310.778 272.335C319.733 272.335 327 279.596 327 288.539C327 297.482 319.733 304.743 310.778 304.743Z" stroke="black" stroke-width="2"/>
<path d="M891.861 340.3H892.861V339.3V297.26L903.594 307.965V339.3C903.594 345.73 898.314 351 891.861 351H802.733C796.28 351 791 345.73 791 339.3V250.4C791 243.97 796.28 238.7 802.733 238.7H836.27C834.993 242.063 834.123 245.642 833.77 249.4H802.733H801.733V250.4V339.3V340.3H802.733H891.861ZM859.762 298.336L880.306 325.6H814.332L829.814 305.777L841.499 319.81L842.293 320.765L843.056 319.785L859.762 298.336ZM899.291 268.218L898.864 268.896L899.432 269.461L918.583 288.501L910.96 296.105L891.803 276.997L891.236 276.431L890.56 276.861C886.32 279.558 881.285 281.15 875.881 281.15C860.644 281.15 848.297 268.833 848.297 253.575C848.297 238.318 860.643 226 875.945 226C891.247 226 903.594 238.318 903.594 253.575C903.594 258.959 902 263.92 899.291 268.218ZM859.029 253.575C859.029 262.893 866.61 270.45 875.945 270.45C885.281 270.45 892.861 262.893 892.861 253.575C892.861 244.257 885.281 236.7 875.945 236.7C866.61 236.7 859.029 244.257 859.029 253.575Z" stroke="black" stroke-width="2"/>
<path d="M1386.11 264.184L1386.81 264.891L1387.52 264.184L1417.07 234.632C1419.25 232.456 1422.76 232.456 1424.94 234.632L1443.56 253.258C1445.74 255.435 1445.74 258.948 1443.56 261.124L1414.08 290.61L1413.37 291.317L1414.08 292.024L1439.68 317.626C1444.42 322.37 1444.42 330.095 1439.68 334.838L1427.18 347.343C1423.5 351.02 1415.72 353.097 1409.96 347.343L1384.36 321.741L1383.65 321.034L1382.95 321.741L1353.49 351.197H1327V324.705L1356.39 295.315L1357.1 294.608L1356.39 293.901L1330.79 268.298C1326.04 263.555 1326.04 255.829 1330.79 251.086L1343.29 238.581C1348.04 233.838 1355.76 233.838 1360.5 238.581L1386.11 264.184ZM1338.72 258.954L1338.01 259.661L1338.72 260.366L1364.26 285.903L1364.96 286.61L1365.67 285.903L1378.18 273.398L1378.88 272.691L1378.18 271.984L1370.28 264.086L1369.57 263.379L1368.86 264.086L1361.74 271.211L1353.87 263.342L1360.93 256.217L1361.64 255.51L1360.93 254.806L1352.57 246.447L1351.86 245.738L1351.16 246.449L1338.72 258.954ZM1414.05 309.334L1414.75 308.626L1414.05 307.919L1406.08 299.956L1405.37 299.249L1404.67 299.956L1392.16 312.461L1391.46 313.168L1392.16 313.875L1417.76 339.477L1418.47 340.185L1419.18 339.477L1431.68 326.972L1432.39 326.265L1431.68 325.558L1423.33 317.199L1422.62 316.492L1421.91 317.199L1414.79 324.324L1406.92 316.459L1414.05 309.334ZM1348.44 340.034H1348.86L1349.15 339.741L1412.4 276.491L1413.11 275.784L1412.4 275.077L1411.68 274.353L1403.12 265.797L1402.41 265.09L1401.71 265.797L1338.46 329.046L1338.16 329.339V329.753V339.034V340.034H1339.16H1348.44ZM1410.99 256.451L1410.28 257.158L1410.99 257.865L1420.27 267.145L1420.97 267.853L1421.68 267.145L1430.96 257.865L1431.67 257.158L1430.96 256.451L1421.68 247.171L1420.97 246.464L1420.27 247.171L1410.99 256.451Z" stroke="black" stroke-width="2"/>
<path d="M1879.75 306.385L1888.1 300.525C1891.01 302.352 1894.28 303.694 1897.9 304.338C1912.61 306.957 1926.73 297.036 1929.36 282.251C1932 267.407 1922.17 253.283 1907.46 250.664C1892.75 248.046 1878.65 257.848 1876 272.751L1875.82 273.736L1876.81 273.911L1894.3 277.026L1869.34 293.833L1853.35 269.736L1865.39 271.878L1866.37 272.053L1866.55 271.069C1870.03 251.491 1889.21 237.594 1909.15 241.144C1929.1 244.695 1942.39 263.847 1938.81 283.933C1937.2 292.996 1932.45 300.633 1925.87 306.041L1925.16 306.626L1925.68 307.383L1926.95 309.209L1927.18 309.551L1927.59 309.624L1931.75 310.364L1954.33 342.999L1945.94 348.845L1923.25 316.246L1923.98 312.114L1924.06 311.708L1923.82 311.369L1922.56 309.544L1922.02 308.777L1921.22 309.254C1913.91 313.608 1905.15 315.451 1896.21 313.859C1889.94 312.742 1884.39 310.1 1879.75 306.385Z" stroke="black" stroke-width="2"/>
<defs>
<filter id="filter0_d" x="1643" y="82" width="549" height="562" filterUnits="userSpaceOnUse" color-interpolation-filters="sRGB">
<feFlood flood-opacity="0" result="BackgroundImageFix"/>
<feColorMatrix in="SourceAlpha" type="matrix" values="0 0 0 0 0 0 0 0 0 0 0 0 0 0 0 0 0 0 127 0"/>
<feOffset dy="4"/>
<feGaussianBlur stdDeviation="10"/>
<feColorMatrix type="matrix" values="0 0 0 0 0 0 0 0 0 0 0 0 0 0 0 0 0 0 0.09 0"/>
<feBlend mode="normal" in2="BackgroundImageFix" result="effect1_dropShadow"/>
<feBlend mode="normal" in="SourceGraphic" in2="effect1_dropShadow" result="shape"/>
</filter>
<filter id="filter1_d" x="1118" y="77" width="508" height="562" filterUnits="userSpaceOnUse" color-interpolation-filters="sRGB">
<feFlood flood-opacity="0" result="BackgroundImageFix"/>
<feColorMatrix in="SourceAlpha" type="matrix" values="0 0 0 0 0 0 0 0 0 0 0 0 0 0 0 0 0 0 127 0"/>
<feOffset dy="4"/>
<feGaussianBlur stdDeviation="10"/>
<feColorMatrix type="matrix" values="0 0 0 0 0 0 0 0 0 0 0 0 0 0 0 0 0 0 0.09 0"/>
<feBlend mode="normal" in2="BackgroundImageFix" result="effect1_dropShadow"/>
<feBlend mode="normal" in="SourceGraphic" in2="effect1_dropShadow" result="shape"/>
</filter>
<filter id="filter2_d" x="43" y="82" width="508" height="562" filterUnits="userSpaceOnUse" color-interpolation-filters="sRGB">
<feFlood flood-opacity="0" result="BackgroundImageFix"/>
<feColorMatrix in="SourceAlpha" type="matrix" values="0 0 0 0 0 0 0 0 0 0 0 0 0 0 0 0 0 0 127 0"/>
<feOffset dy="4"/>
<feGaussianBlur stdDeviation="10"/>
<feColorMatrix type="matrix" values="0 0 0 0 0 0 0 0 0 0 0 0 0 0 0 0 0 0 0.09 0"/>
<feBlend mode="normal" in2="BackgroundImageFix" result="effect1_dropShadow"/>
<feBlend mode="normal" in="SourceGraphic" in2="effect1_dropShadow" result="shape"/>
</filter>
<filter id="filter3_d" x="581" y="77" width="508" height="562" filterUnits="userSpaceOnUse" color-interpolation-filters="sRGB">
<feFlood flood-opacity="0" result="BackgroundImageFix"/>
<feColorMatrix in="SourceAlpha" type="matrix" values="0 0 0 0 0 0 0 0 0 0 0 0 0 0 0 0 0 0 127 0"/>
<feOffset dy="4"/>
<feGaussianBlur stdDeviation="10"/>
<feColorMatrix type="matrix" values="0 0 0 0 0 0 0 0 0 0 0 0 0 0 0 0 0 0 0.09 0"/>
<feBlend mode="normal" in2="BackgroundImageFix" result="effect1_dropShadow"/>
<feBlend mode="normal" in="SourceGraphic" in2="effect1_dropShadow" result="shape"/>
</filter>
</defs>
</svg>
