<svg version="1.1" viewBox="0.0 0.0 960.0 540.0" fill="none" stroke="none" stroke-linecap="square" stroke-miterlimit="10" xmlns:xlink="http://www.w3.org/1999/xlink" xmlns="http://www.w3.org/2000/svg"><clipPath id="gb336776328_0_33.0"><path d="m0 0l960.0 0l0 540.0l-960.0 0l0 -540.0z" clip-rule="nonzero"/></clipPath><g clip-path="url(#gb336776328_0_33.0)"><path fill="#ffffff" d="m0 0l960.0 0l0 540.0l-960.0 0z" fill-rule="evenodd"/><path fill="#a161e7" d="m-9.619423 -1.3753281l970.9921 0l0 114.80315l-970.9921 0z" fill-rule="evenodd"/><path fill="#a161e7" d="m-1.3753281 503.12073l961.3858 0l0 36.850403l-961.3858 0z" fill-rule="evenodd"/><path fill="#000000" fill-opacity="0.0" d="m22.708662 28.081366l914.58264 0l0 89.732285l-914.58264 0z" fill-rule="evenodd"/><path fill="#ffffff" d="m52.98991 72.74449l-11.171875 0l-1.796875 5.296875l-7.625 0l10.828125 -29.937504l8.453125 0l10.828125 29.937504l-7.71875 0l-1.796875 -5.296875zm-1.875 -5.625l-3.703125 -10.953129l-3.671875 10.953129l7.375 0zm21.96886 -9.515629q1.0625 -1.65625 2.9375 -2.671875q1.890625 -1.03125 4.40625 -1.03125q2.9375 0 5.328125 1.5q2.390625 1.484375 3.765625 4.265625q1.390625 2.765625 1.390625 6.437504q0 3.65625 -1.390625 6.453125q-1.375 2.796875 -3.765625 4.3125q-2.390625 1.515625 -5.328125 1.515625q-2.484375 0 -4.390625 -1.015625q-1.890625 -1.03125 -2.953125 -2.65625l0 14.671875l-7.296875 0l0 -35.14063l7.296875 0l0 3.359375zm10.40625 8.500004q0 -2.7343788 -1.515625 -4.281254q-1.515625 -1.5625 -3.734375 -1.5625q-2.171875 0 -3.6875 1.578125q-1.515625 1.578125 -1.515625 4.296879q0 2.734375 1.515625 4.3125q1.515625 1.578125 3.6875 1.578125q2.1875 0 3.71875 -1.59375q1.53125 -1.609375 1.53125 -4.328125zm18.557297 -8.500004q1.0625 -1.65625 2.9375 -2.671875q1.890625 -1.03125 4.40625 -1.03125q2.9375 0 5.328125 1.5q2.390625 1.484375 3.765625 4.265625q1.390625 2.765625 1.390625 6.437504q0 3.65625 -1.390625 6.453125q-1.375 2.796875 -3.765625 4.3125q-2.390625 1.515625 -5.328125 1.515625q-2.484375 0 -4.390625 -1.015625q-1.890625 -1.03125 -2.953125 -2.65625l0 14.671875l-7.296875 0l0 -35.14063l7.296875 0l0 3.359375zm10.40625 8.500004q0 -2.7343788 -1.515625 -4.281254q-1.515625 -1.5625 -3.734375 -1.5625q-2.171875 0 -3.6875 1.578125q-1.515625 1.578125 -1.515625 4.296879q0 2.734375 1.515625 4.3125q1.515625 1.578125 3.6875 1.578125q2.1875 0 3.71875 -1.59375q1.53125 -1.609375 1.53125 -4.328125zm18.557297 -7.890629q1.28125 -1.96875 3.203125 -3.09375q1.921875 -1.140625 4.265625 -1.140625l0 7.71875l-2.0 0q-2.734375 0 -4.109375 1.1875q-1.359375 1.1718788 -1.359375 4.109379l0 11.046875l-7.296875 0l0 -23.796879l7.296875 0l0 3.96875zm21.803726 20.171879q-3.5 0 -6.296875 -1.484375q-2.796875 -1.5 -4.40625 -4.265625q-1.59375 -2.78125 -1.59375 -6.5q0 -3.6562538 1.625 -6.453129q1.625 -2.796875 4.4375 -4.28125q2.8125 -1.5 6.3125 -1.5q3.5 0 6.3125 1.5q2.8125 1.484375 4.4375 4.28125q1.625 2.796875 1.625 6.453129q0 3.671875 -1.640625 6.46875q-1.640625 2.796875 -4.484375 4.296875q-2.828125 1.484375 -6.328125 1.484375zm0 -6.3125q2.078125 0 3.546875 -1.53125q1.484375 -1.546875 1.484375 -4.40625q0 -2.8593788 -1.4375 -4.390629q-1.421875 -1.53125 -3.515625 -1.53125q-2.125 0 -3.546875 1.515625q-1.40625 1.515625 -1.40625 4.406254q0 2.859375 1.390625 4.40625q1.390625 1.53125 3.484375 1.53125zm14.875107 -5.96875q0 -3.6718788 1.390625 -6.437504q1.390625 -2.78125 3.78125 -4.265625q2.390625 -1.5 5.328125 -1.5q2.515625 0 4.40625 1.03125q1.90625 1.015625 2.9375 2.671875l0 -3.359375l7.28125 0l0 23.796879l-7.28125 0l0 -3.375q-1.078125 1.671875 -2.984375 2.703125q-1.890625 1.015625 -4.40625 1.015625q-2.890625 0 -5.28125 -1.515625q-2.390625 -1.515625 -3.78125 -4.3125q-1.390625 -2.796875 -1.390625 -6.453125zm17.84375 0.03125q0 -2.7187538 -1.515625 -4.296879q-1.515625 -1.578125 -3.6875 -1.578125q-2.1875 0 -3.703125 1.5625q-1.515625 1.546875 -1.515625 4.281254q0 2.71875 1.515625 4.328125q1.515625 1.59375 3.703125 1.59375q2.171875 0 3.6875 -1.578125q1.515625 -1.578125 1.515625 -4.3125zm11.119797 0q0 -3.7031288 1.515625 -6.468754q1.515625 -2.78125 4.21875 -4.265625q2.71875 -1.5 6.21875 -1.5q4.46875 0 7.46875 2.34375q3.015625 2.34375 3.953125 6.609375l-7.75 0q-0.984375 -2.734375 -3.796875 -2.734375q-2.015625 0 -3.21875 1.5625q-1.1875 1.5625 -1.1875 4.453129q0 2.90625 1.1875 4.46875q1.203125 1.546875 3.21875 1.546875q2.8125 0 3.796875 -2.71875l7.75 0q-0.9375 4.171875 -3.96875 6.5625q-3.015625 2.390625 -7.453125 2.390625q-3.5 0 -6.21875 -1.484375q-2.703125 -1.5 -4.21875 -4.265625q-1.515625 -2.78125 -1.515625 -6.5zm41.90074 -12.156254q4.09375 0 6.5625 2.71875q2.46875 2.703125 2.46875 7.437504l0 13.90625l-7.25 0l0 -12.921875q0 -2.3906288 -1.234375 -3.7031288q-1.234375 -1.328125 -3.328125 -1.328125q-2.09375 0 -3.328125 1.328125q-1.234375 1.3125 -1.234375 3.7031288l0 12.921875l-7.296875 0l0 -31.562504l7.296875 0l0 10.953125q1.109375 -1.578125 3.03125 -2.515625q1.921875 -0.9375 4.3125 -0.9375z" fill-rule="nonzero"/><path fill="#00b7ab" d="m446.0105 307.2848l0 0c0 -83.5733 90.00842 -151.32285 201.03937 -151.32285l0 0c111.031006 0 201.03937 67.74954 201.03937 151.32285l0 0c0 83.57327 -90.00836 151.32281 -201.03937 151.32281l0 0c-111.030945 0 -201.03937 -67.74954 -201.03937 -151.32281z" fill-rule="evenodd"/><path fill="#eae0eb" d="m544.3585 294.71802l0 0c0 24.697144 28.673645 46.26648 69.71326 52.440765l0 -11.618866l23.237732 24.95755l-23.237732 21.517944l0 -11.618866l0 0c-41.03961 -6.174286 -69.71326 -27.743652 -69.71326 -52.440765z" fill-rule="evenodd"/><path fill="#bbb3bb" d="m637.3095 263.79517l0 0c-43.651733 0 -81.422485 17.698944 -90.78693 42.541718l0 0c-6.039734 -16.022675 0.70928955 -32.776978 18.352905 -45.560608c17.643616 -12.783646 44.280212 -20.218842 72.43402 -20.218842z" fill-rule="evenodd"/><path fill="#000000" fill-opacity="0.0" d="m544.3585 294.71802l0 0c0 24.697144 28.673645 46.26648 69.71326 52.440765l0 -11.618866l23.237732 24.95755l-23.237732 21.517944l0 -11.618866l0 0c-41.03961 -6.174286 -69.71326 -27.743652 -69.71326 -52.440765l0 -23.237762l0 0c0 -29.912079 41.61554 -54.160583 92.95099 -54.160583l0 23.237732l0 0c-43.651733 0 -81.422485 17.698944 -90.78693 42.541718" fill-rule="evenodd"/><path fill="#eae0eb" d="m741.9361 319.194l0 0c0 -24.697144 -28.673645 -46.25122 -69.713196 -52.403656l0 11.618866l-23.237793 -24.945206l23.237793 -21.530289l0 11.618866l0 0c41.03955 6.1524506 69.713196 27.706512 69.713196 52.403656z" fill-rule="evenodd"/><path fill="#bbb3bb" d="m648.9851 350.1663l0 0c43.651733 -0.023223877 81.422485 -17.742249 90.78693 -42.590027c6.039734 16.01947 -0.70928955 32.777374 -18.352905 45.570404c-17.643616 12.79303 -44.280212 20.242401 -72.43402 20.257385z" fill-rule="evenodd"/><path fill="#000000" fill-opacity="0.0" d="m741.9361 319.194l0 0c0 -24.697144 -28.673645 -46.25122 -69.713196 -52.403656l0 11.618866l-23.237793 -24.945206l23.237793 -21.530289l0 11.618866l0 0c41.03955 6.1524506 69.713196 27.706512 69.713196 52.403656l0 23.237762l0 0c0 29.912048 -41.61554 54.18274 -92.95099 54.210052l0 -23.237762l0 0c43.651733 -0.023223877 81.422485 -17.742249 90.78693 -42.590027" fill-rule="evenodd"/><path fill="#000000" fill-opacity="0.0" d="m596.0735 391.72177l103.18109 0l0 29.795288l-103.18109 0z" fill-rule="evenodd"/><path fill="#ffffff" d="m618.0641 405.57928l5.3125 0q2.078125 0 3.65625 0.828125q1.59375 0.828125 2.46875 2.3125q0.875 1.484375 0.875 3.390625q0 1.90625 -0.875 3.390625q-0.875 1.484375 -2.46875 2.3125q-1.578125 0.828125 -3.65625 0.828125l-5.3125 0l0 -13.0625zm5.25 11.875q1.703125 0 2.984375 -0.6875q1.296875 -0.6875 2.0 -1.890625q0.71875 -1.203125 0.71875 -2.765625q0 -1.5625 -0.71875 -2.765625q-0.703125 -1.203125 -2.0 -1.875q-1.28125 -0.6875 -2.984375 -0.6875l-3.875 0l0 10.671875l3.875 0zm18.42566 -3.3125l-8.203125 0q0.109375 1.53125 1.171875 2.484375q1.0625 0.9375 2.6875 0.9375q0.90625 0 1.671875 -0.328125q0.765625 -0.328125 1.328125 -0.96875l0.75 0.859375q-0.65625 0.78125 -1.640625 1.203125q-0.96875 0.40625 -2.15625 0.40625q-1.5 0 -2.671875 -0.640625q-1.15625 -0.640625 -1.8125 -1.78125q-0.65625 -1.140625 -0.65625 -2.578125q0 -1.4375 0.625 -2.578125q0.625 -1.140625 1.71875 -1.765625q1.09375 -0.640625 2.453125 -0.640625q1.359375 0 2.4375 0.640625q1.078125 0.625 1.6875 1.765625q0.625 1.125 0.625 2.578125l-0.015625 0.40625zm-4.734375 -4.25q-1.421875 0 -2.390625 0.90625q-0.953125 0.90625 -1.078125 2.359375l6.953125 0q-0.125 -1.453125 -1.09375 -2.359375q-0.953125 -0.90625 -2.390625 -0.90625zm10.705872 -4.0625q-0.859375 0 -1.296875 0.46875q-0.4375 0.453125 -0.4375 1.375l0 1.15625l3.015625 0l0 1.125l-2.984375 0l0 8.6875l-1.3125 0l0 -8.6875l-1.765625 0l0 -1.125l1.765625 0l0 -1.21875q0 -1.34375 0.765625 -2.125q0.78125 -0.78125 2.1875 -0.78125q0.5625 0 1.078125 0.15625q0.53125 0.15625 0.890625 0.453125l-0.453125 1.0q-0.578125 -0.484375 -1.453125 -0.484375zm4.5625 3.0l1.328125 0l0 9.8125l-1.328125 0l0 -9.8125zm0.6875 -2.140625q-0.40625 0 -0.6875 -0.28125q-0.28125 -0.28125 -0.28125 -0.671875q0 -0.375 0.28125 -0.65625q0.28125 -0.28125 0.6875 -0.28125q0.40625 0 0.6875 0.28125q0.28125 0.265625 0.28125 0.640625q0 0.40625 -0.28125 0.6875q-0.28125 0.28125 -0.6875 0.28125zm9.33551 2.0625q1.84375 0 2.9375 1.078125q1.09375 1.0625 1.09375 3.125l0 5.6875l-1.328125 0l0 -5.5625q0 -1.53125 -0.765625 -2.328125q-0.765625 -0.796875 -2.171875 -0.796875q-1.59375 0 -2.515625 0.9375q-0.921875 0.9375 -0.921875 2.59375l0 5.15625l-1.328125 0l0 -9.8125l1.265625 0l0 1.8125q0.546875 -0.90625 1.5 -1.390625q0.96875 -0.5 2.234375 -0.5zm16.214539 5.390625l-8.203125 0q0.109375 1.53125 1.171875 2.484375q1.0625 0.9375 2.6875 0.9375q0.90625 0 1.671875 -0.328125q0.765625 -0.328125 1.328125 -0.96875l0.75 0.859375q-0.65625 0.78125 -1.640625 1.203125q-0.96875 0.40625 -2.15625 0.40625q-1.5 0 -2.671875 -0.640625q-1.15625 -0.640625 -1.8125 -1.78125q-0.65625 -1.140625 -0.65625 -2.578125q0 -1.4375 0.625 -2.578125q0.625 -1.140625 1.71875 -1.765625q1.09375 -0.640625 2.453125 -0.640625q1.359375 0 2.4375 0.640625q1.078125 0.625 1.6875 1.765625q0.625 1.125 0.625 2.578125l-0.015625 0.40625zm-4.734375 -4.25q-1.421875 0 -2.390625 0.90625q-0.953125 0.90625 -1.078125 2.359375l6.953125 0q-0.125 -1.453125 -1.09375 -2.359375q-0.953125 -0.90625 -2.390625 -0.90625z" fill-rule="nonzero"/><path fill="#000000" fill-opacity="0.0" d="m740.0735 279.72177l103.18109 0l0 29.795288l-103.18109 0z" fill-rule="evenodd"/><path fill="#ffffff" d="m760.66486 293.57928l5.3125 0q2.078125 0 3.65625 0.828125q1.59375 0.828125 2.46875 2.3125q0.875 1.484375 0.875 3.390625q0 1.90625 -0.875 3.390625q-0.875 1.484375 -2.46875 2.3125q-1.578125 0.828125 -3.65625 0.828125l-5.3125 0l0 -13.0625zm5.25 11.875q1.703125 0 2.984375 -0.6875q1.296875 -0.6875 2.0 -1.890625q0.71875 -1.203125 0.71875 -2.765625q0 -1.5625 -0.71875 -2.765625q-0.703125 -1.203125 -2.0 -1.875q-1.28125 -0.6875 -2.984375 -0.6875l-3.875 0l0 10.671875l3.875 0zm18.42572 -3.3125l-8.203125 0q0.109375 1.53125 1.171875 2.484375q1.0625 0.9375 2.6875 0.9375q0.90625 0 1.671875 -0.328125q0.765625 -0.328125 1.328125 -0.96875l0.75 0.859375q-0.65625 0.78125 -1.640625 1.203125q-0.96875 0.40625 -2.15625 0.40625q-1.5 0 -2.671875 -0.640625q-1.15625 -0.640625 -1.8125 -1.78125q-0.65625 -1.140625 -0.65625 -2.578125q0 -1.4375 0.625 -2.578125q0.625 -1.140625 1.71875 -1.765625q1.09375 -0.640625 2.453125 -0.640625q1.359375 0 2.4375 0.640625q1.078125 0.625 1.6875 1.765625q0.625 1.125 0.625 2.578125l-0.015625 0.40625zm-4.734375 -4.25q-1.421875 0 -2.390625 0.90625q-0.953125 0.90625 -1.078125 2.359375l6.953125 0q-0.125 -1.453125 -1.09375 -2.359375q-0.953125 -0.90625 -2.390625 -0.90625zm10.096497 8.84375q-1.203125 0 -2.296875 -0.34375q-1.09375 -0.34375 -1.703125 -0.875l0.59375 -1.046875q0.625 0.5 1.546875 0.8125q0.9375 0.296875 1.953125 0.296875q1.328125 0 1.96875 -0.421875q0.65625 -0.421875 0.65625 -1.1875q0 -0.53125 -0.359375 -0.84375q-0.34375 -0.3125 -0.890625 -0.46875q-0.546875 -0.15625 -1.4375 -0.3125q-1.1875 -0.21875 -1.921875 -0.453125q-0.734375 -0.234375 -1.25 -0.78125q-0.5 -0.5625 -0.5 -1.5625q0 -1.234375 1.015625 -2.015625q1.03125 -0.78125 2.859375 -0.78125q0.953125 0 1.90625 0.25q0.953125 0.25 1.5625 0.671875l-0.578125 1.0625q-1.203125 -0.84375 -2.890625 -0.84375q-1.265625 0 -1.90625 0.453125q-0.640625 0.4375 -0.640625 1.171875q0 0.5625 0.359375 0.90625q0.359375 0.328125 0.890625 0.484375q0.546875 0.15625 1.5 0.328125q1.171875 0.21875 1.875 0.453125q0.71875 0.21875 1.21875 0.765625q0.515625 0.53125 0.515625 1.484375q0 1.28125 -1.078125 2.046875q-1.078125 0.75 -2.96875 0.75zm6.482239 -9.90625l1.328125 0l0 9.8125l-1.328125 0l0 -9.8125zm0.671875 -2.140625q-0.40625 0 -0.6875 -0.28125q-0.28125 -0.28125 -0.28125 -0.671875q0 -0.375 0.28125 -0.65625q0.28125 -0.28125 0.6875 -0.28125q0.40625 0 0.6875 0.28125q0.28125 0.265625 0.28125 0.640625q0 0.40625 -0.28125 0.6875q-0.28125 0.28125 -0.6875 0.28125zm13.44043 2.140625l0 8.625q0 2.5 -1.234375 3.703125q-1.21875 1.203125 -3.671875 1.203125q-1.359375 0 -2.59375 -0.40625q-1.21875 -0.40625 -1.984375 -1.109375l0.671875 -1.015625q0.703125 0.640625 1.71875 0.984375q1.03125 0.359375 2.140625 0.359375q1.875 0 2.75 -0.875q0.875 -0.859375 0.875 -2.6875l0 -1.25q-0.609375 0.9375 -1.609375 1.421875q-1.0 0.484375 -2.21875 0.484375q-1.375 0 -2.515625 -0.59375q-1.125 -0.609375 -1.765625 -1.703125q-0.640625 -1.09375 -0.640625 -2.484375q0 -1.375 0.640625 -2.453125q0.640625 -1.078125 1.765625 -1.671875q1.125 -0.609375 2.515625 -0.609375q1.25 0 2.25 0.515625q1.015625 0.5 1.625 1.453125l0 -1.890625l1.28125 0zm-5.03125 8.265625q1.078125 0 1.921875 -0.453125q0.859375 -0.46875 1.328125 -1.28125q0.484375 -0.828125 0.484375 -1.875q0 -1.03125 -0.484375 -1.84375q-0.46875 -0.8125 -1.3125 -1.265625q-0.84375 -0.46875 -1.9375 -0.46875q-1.0625 0 -1.90625 0.453125q-0.84375 0.453125 -1.328125 1.28125q-0.46875 0.8125 -0.46875 1.84375q0 1.046875 0.46875 1.875q0.484375 0.8125 1.328125 1.28125q0.84375 0.453125 1.90625 0.453125zm13.735718 -8.34375q1.84375 0 2.9375 1.078125q1.09375 1.0625 1.09375 3.125l0 5.6875l-1.328125 0l0 -5.5625q0 -1.53125 -0.765625 -2.328125q-0.765625 -0.796875 -2.171875 -0.796875q-1.59375 0 -2.515625 0.9375q-0.921875 0.9375 -0.921875 2.59375l0 5.15625l-1.328125 0l0 -9.8125l1.265625 0l0 1.8125q0.546875 -0.90625 1.5 -1.390625q0.96875 -0.5 2.234375 -0.5z" fill-rule="nonzero"/><path fill="#000000" fill-opacity="0.0" d="m588.0735 183.72179l103.18109 0l0 29.795273l-103.18109 0z" fill-rule="evenodd"/><path fill="#ffffff" d="m603.31067 197.57928l5.3125 0q2.078125 0 3.65625 0.828125q1.59375 0.828125 2.46875 2.3125q0.875 1.484375 0.875 3.390625q0 1.90625 -0.875 3.390625q-0.875 1.484375 -2.46875 2.3125q-1.578125 0.828125 -3.65625 0.828125l-5.3125 0l0 -13.0625zm5.25 11.875q1.703125 0 2.984375 -0.6875q1.296875 -0.6875 2.0 -1.890625q0.71875 -1.203125 0.71875 -2.765625q0 -1.5625 -0.71875 -2.765625q-0.703125 -1.203125 -2.0 -1.875q-1.28125 -0.6875 -2.984375 -0.6875l-3.875 0l0 10.671875l3.875 0zm18.42566 -3.3125l-8.203125 0q0.109375 1.53125 1.171875 2.484375q1.0625 0.9375 2.6875 0.9375q0.90625 0 1.671875 -0.328125q0.765625 -0.328125 1.328125 -0.96875l0.75 0.859375q-0.65625 0.78125 -1.640625 1.203125q-0.96875 0.40625 -2.15625 0.40625q-1.5 0 -2.671875 -0.640625q-1.15625 -0.640625 -1.8125 -1.78125q-0.65625 -1.140625 -0.65625 -2.578125q0 -1.4375 0.625 -2.578125q0.625 -1.140625 1.71875 -1.765625q1.09375 -0.640625 2.453125 -0.640625q1.359375 0 2.4375 0.640625q1.078125 0.625 1.6875 1.765625q0.625 1.125 0.625 2.578125l-0.015625 0.40625zm-4.734375 -4.25q-1.421875 0 -2.390625 0.90625q-0.953125 0.90625 -1.078125 2.359375l6.953125 0q-0.125 -1.453125 -1.09375 -2.359375q-0.953125 -0.90625 -2.390625 -0.90625zm15.519226 -1.0625l-4.359375 9.8125l-1.375 0l-4.34375 -9.8125l1.390625 0l3.671875 8.359375l3.703125 -8.359375l1.3125 0zm10.12854 5.3125l-8.203125 0q0.109375 1.53125 1.171875 2.484375q1.0625 0.9375 2.6875 0.9375q0.90625 0 1.671875 -0.328125q0.765625 -0.328125 1.328125 -0.96875l0.75 0.859375q-0.65625 0.78125 -1.640625 1.203125q-0.96875 0.40625 -2.15625 0.40625q-1.5 0 -2.671875 -0.640625q-1.15625 -0.640625 -1.8125 -1.78125q-0.65625 -1.140625 -0.65625 -2.578125q0 -1.4375 0.625 -2.578125q0.625 -1.140625 1.71875 -1.765625q1.09375 -0.640625 2.453125 -0.640625q1.359375 0 2.4375 0.640625q1.078125 0.625 1.6875 1.765625q0.625 1.125 0.625 2.578125l-0.015625 0.40625zm-4.734375 -4.25q-1.421875 0 -2.390625 0.90625q-0.953125 0.90625 -1.078125 2.359375l6.953125 0q-0.125 -1.453125 -1.09375 -2.359375q-0.953125 -0.90625 -2.390625 -0.90625zm7.4558716 -5.09375l1.328125 0l0 13.84375l-1.328125 0l0 -13.84375zm9.03418 13.9375q-1.421875 0 -2.5625 -0.640625q-1.125 -0.640625 -1.78125 -1.78125q-0.65625 -1.140625 -0.65625 -2.578125q0 -1.4375 0.65625 -2.578125q0.65625 -1.140625 1.78125 -1.765625q1.140625 -0.640625 2.5625 -0.640625q1.421875 0 2.546875 0.640625q1.140625 0.625 1.78125 1.765625q0.65625 1.140625 0.65625 2.578125q0 1.4375 -0.65625 2.578125q-0.640625 1.140625 -1.78125 1.78125q-1.125 0.640625 -2.546875 0.640625zm0 -1.171875q1.046875 0 1.875 -0.46875q0.828125 -0.484375 1.296875 -1.359375q0.46875 -0.875 0.46875 -2.0q0 -1.125 -0.46875 -2.0q-0.46875 -0.875 -1.296875 -1.34375q-0.828125 -0.484375 -1.875 -0.484375q-1.046875 0 -1.875 0.484375q-0.828125 0.46875 -1.3125 1.34375q-0.46875 0.875 -0.46875 2.0q0 1.125 0.46875 2.0q0.484375 0.875 1.3125 1.359375q0.828125 0.46875 1.875 0.46875zm12.744324 -8.8125q1.375 0 2.484375 0.625q1.125 0.625 1.765625 1.765625q0.640625 1.140625 0.640625 2.59375q0 1.46875 -0.640625 2.609375q-0.640625 1.140625 -1.75 1.765625q-1.109375 0.625 -2.5 0.625q-1.203125 0 -2.171875 -0.484375q-0.953125 -0.5 -1.5625 -1.453125l0 5.46875l-1.328125 0l0 -13.4375l1.265625 0l0 1.9375q0.609375 -0.96875 1.578125 -1.484375q0.984375 -0.53125 2.21875 -0.53125zm-0.09375 8.8125q1.015625 0 1.859375 -0.46875q0.84375 -0.484375 1.3125 -1.359375q0.484375 -0.875 0.484375 -2.0q0 -1.125 -0.484375 -1.984375q-0.46875 -0.875 -1.3125 -1.359375q-0.84375 -0.484375 -1.859375 -0.484375q-1.046875 0 -1.875 0.484375q-0.828125 0.484375 -1.3125 1.359375q-0.46875 0.859375 -0.46875 1.984375q0 1.125 0.46875 2.0q0.484375 0.875 1.3125 1.359375q0.828125 0.46875 1.875 0.46875z" fill-rule="nonzero"/><path fill="#000000" fill-opacity="0.0" d="m444.0735 279.72177l103.18109 0l0 29.795288l-103.18109 0z" fill-rule="evenodd"/><path fill="#ffffff" d="m464.8515 293.57928l5.3125 0q2.078125 0 3.65625 0.828125q1.59375 0.828125 2.46875 2.3125q0.875 1.484375 0.875 3.390625q0 1.90625 -0.875 3.390625q-0.875 1.484375 -2.46875 2.3125q-1.578125 0.828125 -3.65625 0.828125l-5.3125 0l0 -13.0625zm5.25 11.875q1.703125 0 2.984375 -0.6875q1.296875 -0.6875 2.0 -1.890625q0.71875 -1.203125 0.71875 -2.765625q0 -1.5625 -0.71875 -2.765625q-0.703125 -1.203125 -2.0 -1.875q-1.28125 -0.6875 -2.984375 -0.6875l-3.875 0l0 10.671875l3.875 0zm18.42569 -3.3125l-8.203125 0q0.109375 1.53125 1.171875 2.484375q1.0625 0.9375 2.6875 0.9375q0.90625 0 1.671875 -0.328125q0.765625 -0.328125 1.328125 -0.96875l0.75 0.859375q-0.65625 0.78125 -1.640625 1.203125q-0.96875 0.40625 -2.15625 0.40625q-1.5 0 -2.671875 -0.640625q-1.15625 -0.640625 -1.8125 -1.78125q-0.65625 -1.140625 -0.65625 -2.578125q0 -1.4375 0.625 -2.578125q0.625 -1.140625 1.71875 -1.765625q1.09375 -0.640625 2.453125 -0.640625q1.359375 0 2.4375 0.640625q1.078125 0.625 1.6875 1.765625q0.625 1.125 0.625 2.578125l-0.015625 0.40625zm-4.734375 -4.25q-1.421875 0 -2.390625 0.90625q-0.953125 0.90625 -1.078125 2.359375l6.953125 0q-0.125 -1.453125 -1.09375 -2.359375q-0.953125 -0.90625 -2.390625 -0.90625zm12.518372 -1.140625q1.375 0 2.484375 0.625q1.125 0.625 1.765625 1.765625q0.640625 1.140625 0.640625 2.59375q0 1.46875 -0.640625 2.609375q-0.640625 1.140625 -1.75 1.765625q-1.109375 0.625 -2.5 0.625q-1.203125 0 -2.171875 -0.484375q-0.953125 -0.5 -1.5625 -1.453125l0 5.46875l-1.328125 0l0 -13.4375l1.265625 0l0 1.9375q0.609375 -0.96875 1.578125 -1.484375q0.984375 -0.53125 2.21875 -0.53125zm-0.09375 8.8125q1.015625 0 1.859375 -0.46875q0.84375 -0.484375 1.3125 -1.359375q0.484375 -0.875 0.484375 -2.0q0 -1.125 -0.484375 -1.984375q-0.46875 -0.875 -1.3125 -1.359375q-0.84375 -0.484375 -1.859375 -0.484375q-1.046875 0 -1.875 0.484375q-0.828125 0.484375 -1.3125 1.359375q-0.46875 0.859375 -0.46875 1.984375q0 1.125 0.46875 2.0q0.484375 0.875 1.3125 1.359375q0.828125 0.46875 1.875 0.46875zm7.6802063 -12.765625l1.328125 0l0 13.84375l-1.328125 0l0 -13.84375zm9.03418 13.9375q-1.4219055 0 -2.5625305 -0.640625q-1.125 -0.640625 -1.78125 -1.78125q-0.65625 -1.140625 -0.65625 -2.578125q0 -1.4375 0.65625 -2.578125q0.65625 -1.140625 1.78125 -1.765625q1.140625 -0.640625 2.5625305 -0.640625q1.421875 0 2.546875 0.640625q1.140625 0.625 1.78125 1.765625q0.65625 1.140625 0.65625 2.578125q0 1.4375 -0.65625 2.578125q-0.640625 1.140625 -1.78125 1.78125q-1.125 0.640625 -2.546875 0.640625zm0 -1.171875q1.046875 0 1.875 -0.46875q0.828125 -0.484375 1.296875 -1.359375q0.46875 -0.875 0.46875 -2.0q0 -1.125 -0.46875 -2.0q-0.46875 -0.875 -1.296875 -1.34375q-0.828125 -0.484375 -1.875 -0.484375q-1.0469055 0 -1.8750305 0.484375q-0.828125 0.46875 -1.3125 1.34375q-0.46875 0.875 -0.46875 2.0q0 1.125 0.46875 2.0q0.484375 0.875 1.3125 1.359375q0.828125 0.46875 1.8750305 0.46875zm15.651794 -8.734375l-4.90625 10.984375q-0.59375 1.390625 -1.390625 1.96875q-0.78125 0.578125 -1.875 0.578125q-0.703125 0 -1.328125 -0.234375q-0.609375 -0.21875 -1.0625 -0.671875l0.625 -0.984375q0.734375 0.75 1.78125 0.75q0.671875 0 1.140625 -0.375q0.484375 -0.375 0.890625 -1.265625l0.4375 -0.953125l-4.390625 -9.796875l1.390625 0l3.6875 8.34375l3.6875 -8.34375l1.3125 0z" fill-rule="nonzero"/><path fill="#000000" fill-opacity="0.0" d="m53.343834 254.16011l286.04724 0l0 68.40944l-286.04724 0z" fill-rule="evenodd"/><path fill="#000000" d="m80.593834 293.21884l-11.34375 0l-2.09375 5.78125l-3.578125 0l9.40625 -25.875l3.921875 0l9.359375 25.875l-3.578125 0l-2.09375 -5.78125zm-0.96875 -2.765625l-4.703125 -13.140625l-4.703125 13.140625l9.40625 0zm19.19049 -12.25q2.640625 0 4.640625 1.15625q2.0 1.15625 2.96875 2.921875l0 -3.734375l3.4375 0l0 20.90625q0 2.796875 -1.203125 4.96875q-1.1875 2.1875 -3.40625 3.421875q-2.21875 1.234375 -5.171875 1.234375q-4.03125 0 -6.71875 -1.90625q-2.6875 -1.90625 -3.171875 -5.1875l3.359375 0q0.5625 1.875 2.3125 3.0q1.75 1.140625 4.21875 1.140625q2.796875 0 4.5625 -1.75q1.78125 -1.75 1.78125 -4.921875l0 -4.296875q-1.0 1.796875 -2.984375 3.0q-1.984375 1.1875 -4.625 1.1875q-2.734375 0 -4.953125 -1.34375q-2.21875 -1.359375 -3.484375 -3.78125q-1.265625 -2.421875 -1.265625 -5.515625q0 -3.140625 1.265625 -5.5q1.265625 -2.375 3.484375 -3.6875q2.21875 -1.3125 4.953125 -1.3125zm7.609375 10.53125q0 -2.3125 -0.9375 -4.03125q-0.921875 -1.71875 -2.515625 -2.625q-1.578125 -0.921875 -3.484375 -0.921875q-1.90625 0 -3.484375 0.90625q-1.5625 0.890625 -2.5 2.609375q-0.921875 1.71875 -0.921875 4.03125q0 2.34375 0.921875 4.078125q0.9375 1.734375 2.5 2.65625q1.578125 0.90625 3.484375 0.90625q1.90625 0 3.484375 -0.90625q1.59375 -0.921875 2.515625 -2.65625q0.9375 -1.734375 0.9375 -4.046875zm10.937012 -13.515625q-0.96875 0 -1.640625 -0.671875q-0.671875 -0.671875 -0.671875 -1.640625q0 -0.96875 0.671875 -1.640625q0.671875 -0.671875 1.640625 -0.671875q0.9375 0 1.59375 0.671875q0.65625 0.671875 0.65625 1.640625q0 0.96875 -0.65625 1.640625q-0.65625 0.671875 -1.59375 0.671875zm1.640625 3.328125l0 20.453125l-3.390625 0l0 -20.453125l3.390625 0zm9.182747 -7.171875l0 27.625l-3.3906174 0l0 -27.625l3.3906174 0zm24.44838 16.609375q0 0.96875 -0.109375 2.0625l-16.34375 0q0.1875 3.015625 2.0625 4.71875q1.890625 1.703125 4.578125 1.703125q2.203125 0 3.671875 -1.03125q1.484375 -1.03125 2.078125 -2.75l3.65625 0q-0.8125 2.953125 -3.28125 4.8125q-2.46875 1.84375 -6.125 1.84375q-2.90625 0 -5.203125 -1.3125q-2.296875 -1.3125 -3.609375 -3.71875q-1.296875 -2.40625 -1.296875 -5.578125q0 -3.171875 1.265625 -5.5625q1.265625 -2.390625 3.5625 -3.671875q2.296875 -1.296875 5.28125 -1.296875q2.90625 0 5.140625 1.28125q2.25 1.265625 3.453125 3.484375q1.21875 2.21875 1.21875 5.015625zm-3.5 -0.703125q0 -1.9375 -0.859375 -3.34375q-0.859375 -1.40625 -2.34375 -2.125q-1.46875 -0.734375 -3.25 -0.734375q-2.578125 0 -4.390625 1.65625q-1.8125 1.640625 -2.078125 4.546875l12.921875 0zm35.34453 -6.6875q0 3.25 -2.21875 5.40625q-2.21875 2.140625 -6.78125 2.140625l-5.0 0l0 10.859375l-3.390625 0l0 -26.015625l8.390625 0q4.40625 0 6.703125 2.125q2.296875 2.125 2.296875 5.484375zm-9.0 4.75q2.84375 0 4.1875 -1.234375q1.34375 -1.234375 1.34375 -3.515625q0 -4.8125 -5.53125 -4.8125l-5.0 0l0 9.5625l5.0 0zm16.613052 -3.484375q0.90625 -1.75 2.5625 -2.71875q1.65625 -0.96875 4.046875 -0.96875l0 3.515625l-0.890625 0q-5.71875 0 -5.71875 6.1875l0 11.125l-3.390625 0l0 -20.453125l3.390625 0l0 3.3125zm19.454681 17.484375q-2.875 0 -5.21875 -1.3125q-2.328125 -1.3125 -3.65625 -3.71875q-1.3125 -2.40625 -1.3125 -5.578125q0 -3.140625 1.359375 -5.546875q1.359375 -2.40625 3.703125 -3.6875q2.359375 -1.296875 5.265625 -1.296875q2.921875 0 5.265625 1.296875q2.359375 1.28125 3.71875 3.671875q1.359375 2.390625 1.359375 5.5625q0 3.171875 -1.40625 5.578125q-1.390625 2.40625 -3.78125 3.71875q-2.390625 1.3125 -5.296875 1.3125zm0 -3.0q1.828125 0 3.421875 -0.859375q1.609375 -0.859375 2.59375 -2.5625q1.0 -1.71875 1.0 -4.1875q0 -2.46875 -0.96875 -4.171875q-0.96875 -1.71875 -2.546875 -2.5625q-1.5625 -0.84375 -3.390625 -0.84375q-1.859375 0 -3.421875 0.84375q-1.546875 0.84375 -2.484375 2.5625q-0.921875 1.703125 -0.921875 4.171875q0 2.5 0.90625 4.21875q0.921875 1.71875 2.453125 2.5625q1.53125 0.828125 3.359375 0.828125zm13.702576 -7.609375q0 -3.171875 1.265625 -5.53125q1.265625 -2.375 3.515625 -3.6875q2.265625 -1.3125 5.1875 -1.3125q3.765625 0 6.203125 1.828125q2.453125 1.828125 3.234375 5.078125l-3.65625 0q-0.53125 -1.859375 -2.046875 -2.9375q-1.5 -1.09375 -3.734375 -1.09375q-2.921875 0 -4.71875 2.0q-1.78125 2.0 -1.78125 5.65625q0 3.703125 1.78125 5.71875q1.796875 2.015625 4.71875 2.015625q2.234375 0 3.71875 -1.046875q1.5 -1.046875 2.0625 -2.984375l3.65625 0q-0.828125 3.125 -3.296875 5.015625q-2.453125 1.890625 -6.140625 1.890625q-2.921875 0 -5.1875 -1.3125q-2.25 -1.3125 -3.515625 -3.703125q-1.265625 -2.390625 -1.265625 -5.59375zm42.580124 -0.75q0 0.96875 -0.109375 2.0625l-16.34375 0q0.1875 3.015625 2.0625 4.71875q1.890625 1.703125 4.578125 1.703125q2.203125 0 3.671875 -1.03125q1.484375 -1.03125 2.078125 -2.75l3.65625 0q-0.8125 2.953125 -3.28125 4.8125q-2.46875 1.84375 -6.125 1.84375q-2.90625 0 -5.203125 -1.3125q-2.296875 -1.3125 -3.609375 -3.71875q-1.296875 -2.40625 -1.296875 -5.578125q0 -3.171875 1.265625 -5.5625q1.265625 -2.390625 3.5625 -3.671875q2.296875 -1.296875 5.28125 -1.296875q2.90625 0 5.140625 1.28125q2.25 1.265625 3.453125 3.484375q1.21875 2.21875 1.21875 5.015625zm-3.5 -0.703125q0 -1.9375 -0.859375 -3.34375q-0.859375 -1.40625 -2.34375 -2.125q-1.46875 -0.734375 -3.25 -0.734375q-2.578125 0 -4.390625 1.65625q-1.8125 1.640625 -2.078125 4.546875l12.921875 0zm15.221649 12.0625q-2.34375 0 -4.21875 -0.796875q-1.859375 -0.8125 -2.953125 -2.25q-1.078125 -1.4375 -1.1875 -3.3125l3.515625 0q0.140625 1.53125 1.421875 2.515625q1.296875 0.96875 3.390625 0.96875q1.9375 0 3.0625 -0.859375q1.125 -0.859375 1.125 -2.171875q0 -1.34375 -1.203125 -2.0q-1.1875 -0.65625 -3.6875 -1.28125q-2.28125 -0.59375 -3.71875 -1.203125q-1.4375 -0.625 -2.46875 -1.84375q-1.015625 -1.21875 -1.015625 -3.1875q0 -1.5625 0.921875 -2.875q0.9375 -1.3125 2.65625 -2.078125q1.71875 -0.765625 3.921875 -0.765625q3.390625 0 5.484375 1.71875q2.09375 1.71875 2.234375 4.703125l-3.390625 0q-0.109375 -1.59375 -1.296875 -2.5625q-1.171875 -0.984375 -3.140625 -0.984375q-1.828125 0 -2.921875 0.796875q-1.078125 0.78125 -1.078125 2.046875q0 1.0 0.65625 1.65625q0.65625 0.65625 1.640625 1.046875q0.984375 0.390625 2.734375 0.875q2.203125 0.59375 3.578125 1.171875q1.390625 0.578125 2.375 1.75q1.0 1.15625 1.03125 3.015625q0 1.6875 -0.9375 3.03125q-0.921875 1.34375 -2.625 2.109375q-1.703125 0.765625 -3.90625 0.765625zm19.485321 0q-2.34375 0 -4.21875 -0.796875q-1.859375 -0.8125 -2.953125 -2.25q-1.078125 -1.4375 -1.1875 -3.3125l3.515625 0q0.140625 1.53125 1.421875 2.515625q1.296875 0.96875 3.390625 0.96875q1.9375 0 3.0625 -0.859375q1.125 -0.859375 1.125 -2.171875q0 -1.34375 -1.203125 -2.0q-1.1875 -0.65625 -3.6875 -1.28125q-2.28125 -0.59375 -3.71875 -1.203125q-1.4375 -0.625 -2.46875 -1.84375q-1.015625 -1.21875 -1.015625 -3.1875q0 -1.5625 0.921875 -2.875q0.9375 -1.3125 2.65625 -2.078125q1.71875 -0.765625 3.921875 -0.765625q3.390625 0 5.484375 1.71875q2.09375 1.71875 2.234375 4.703125l-3.390625 0q-0.109375 -1.59375 -1.296875 -2.5625q-1.171875 -0.984375 -3.140625 -0.984375q-1.828125 0 -2.921875 0.796875q-1.078125 0.78125 -1.078125 2.046875q0 1.0 0.65625 1.65625q0.65625 0.65625 1.640625 1.046875q0.984375 0.390625 2.734375 0.875q2.203125 0.59375 3.578125 1.171875q1.390625 0.578125 2.375 1.75q1.0 1.15625 1.03125 3.015625q0 1.6875 -0.9375 3.03125q-0.921875 1.34375 -2.625 2.109375q-1.703125 0.765625 -3.90625 0.765625z" fill-rule="nonzero"/></g></svg>