<svg version="1.1" viewBox="0.0 0.0 960.0 540.0" fill="none" stroke="none" stroke-linecap="square" stroke-miterlimit="10" xmlns:xlink="http://www.w3.org/1999/xlink" xmlns="http://www.w3.org/2000/svg"><clipPath id="gb76391140c_0_0.0"><path d="m0 0l960.0 0l0 540.0l-960.0 0l0 -540.0z" clip-rule="nonzero"/></clipPath><g clip-path="url(#gb76391140c_0_0.0)"><path fill="#000000" fill-opacity="0.0" d="m0 0l960.0 0l0 540.0l-960.0 0z" fill-rule="evenodd"/><path fill="#00917c" d="m22.10761 180.23557l0 0c0 -49.705627 40.816124 -89.99999 91.16535 -89.99999l0 0c24.178558 0 47.36682 9.482117 64.46364 26.36039c17.096817 16.87828 26.701721 39.770126 26.701721 63.639603l0 0c0 49.705627 -40.816116 90.0 -91.16536 90.0l0 0c-50.34923 0 -91.16535 -40.294373 -91.16535 -90.0z" fill-rule="evenodd"/><path fill="#160633" d="m282.80054 180.23557l0 0c0 -49.705627 40.8161 -89.99999 91.165344 -89.99999l0 0c24.178558 0 47.36682 9.482117 64.46362 26.36039c17.096832 16.87828 26.701721 39.770126 26.701721 63.639603l0 0c0 49.705627 -40.8161 90.0 -91.165344 90.0l0 0c-50.349243 0 -91.165344 -40.294373 -91.165344 -90.0z" fill-rule="evenodd"/><path stroke="#595959" stroke-width="1.0" stroke-linejoin="round" stroke-linecap="butt" d="m282.80054 180.23557l0 0c0 -49.705627 40.8161 -89.99999 91.165344 -89.99999l0 0c24.178558 0 47.36682 9.482117 64.46362 26.36039c17.096832 16.87828 26.701721 39.770126 26.701721 63.639603l0 0c0 49.705627 -40.8161 90.0 -91.165344 90.0l0 0c-50.349243 0 -91.165344 -40.294373 -91.165344 -90.0z" fill-rule="evenodd"/><path fill="#d4ccf3" d="m527.1063 180.23557l0 0c0 -49.705627 40.8161 -89.99999 91.165344 -89.99999l0 0c24.178528 0 47.36682 9.482117 64.46362 26.36039c17.096802 16.87828 26.701721 39.770126 26.701721 63.639603l0 0c0 49.705627 -40.8161 90.0 -91.165344 90.0l0 0c-50.349243 0 -91.165344 -40.294373 -91.165344 -90.0z" fill-rule="evenodd"/><path stroke="#ffffff" stroke-width="1.0" stroke-linejoin="round" stroke-linecap="butt" d="m527.1063 180.23557l0 0c0 -49.705627 40.8161 -89.99999 91.165344 -89.99999l0 0c24.178528 0 47.36682 9.482117 64.46362 26.36039c17.096802 16.87828 26.701721 39.770126 26.701721 63.639603l0 0c0 49.705627 -40.8161 90.0 -91.165344 90.0l0 0c-50.349243 0 -91.165344 -40.294373 -91.165344 -90.0z" fill-rule="evenodd"/><path fill="#ffffff" d="m757.3884 180.23557l0 0c0 -49.705627 40.816162 -89.99999 91.165405 -89.99999l0 0c24.178528 0 47.36682 9.482117 64.46362 26.36039c17.096802 16.87828 26.701721 39.770126 26.701721 63.639603l0 0c0 49.705627 -40.816162 90.0 -91.165344 90.0l0 0c-50.349243 0 -91.165405 -40.294373 -91.165405 -90.0z" fill-rule="evenodd"/><path fill="#000000" fill-opacity="0.0" d="m37.828594 9.950795l719.559 0l0 60.031498l-719.559 0z" fill-rule="evenodd"/><path fill="#434343" d="m63.40672 54.79079l-6.203125 -10.640625l-4.109375 0l0 10.640625l-3.390625 0l0 -26.015623l8.390625 0q2.953125 0 4.984375 1.015625q2.0468712 1.0 3.0468712 2.718748q1.015625 1.71875 1.015625 3.921875q0 2.6875 -1.5625 4.734375q-1.546875 2.046875 -4.640621 2.71875l6.531246 10.90625l-4.062496 0zm-10.3125 -13.359375l5.0 0q2.765625 0 4.140625 -1.359375q1.390625 -1.375 1.390625 -3.640625q0 -2.328125 -1.359375 -3.59375q-1.359375 -1.2656231 -4.171875 -1.2656231l-5.0 0l0 9.859373zm37.961193 2.34375q0 0.96875 -0.109375 2.0625l-16.34375 0q0.1875 3.015625 2.0625 4.71875q1.890625 1.703125 4.578125 1.703125q2.203125 0 3.671875 -1.03125q1.484375 -1.03125 2.078125 -2.75l3.65625 0q-0.8125 2.953125 -3.28125 4.8125q-2.46875 1.84375 -6.125 1.84375q-2.90625 0 -5.203125 -1.3125q-2.296875 -1.3125 -3.609375 -3.71875q-1.296875 -2.40625 -1.296875 -5.578125q0 -3.171875 1.265625 -5.5625q1.265625 -2.390625 3.5625 -3.671875q2.296875 -1.296875 5.28125 -1.296875q2.90625 0 5.140625 1.28125q2.25 1.265625 3.453125 3.484375q1.21875 2.21875 1.21875 5.015625zm-3.5 -0.703125q0 -1.9375 -0.859375 -3.34375q-0.859375 -1.40625 -2.34375 -2.125q-1.46875 -0.734375 -3.25 -0.734375q-2.578125 0 -4.390625 1.65625q-1.8125 1.640625 -2.078125 4.546875l12.921875 0zm15.596634 8.578125l6.34375 -17.3125l3.625 0l-8.015625 20.453125l-3.96875 0l-8.015625 -20.453125l3.65625 0l6.375 17.3125zm15.081772 -20.640623q-0.96875 0 -1.640625 -0.671875q-0.671875 -0.671875 -0.671875 -1.640625q0 -0.96875 0.671875 -1.640625q0.671875 -0.671875 1.640625 -0.671875q0.9375 0 1.59375 0.671875q0.65625 0.671875 0.65625 1.640625q0 0.96875 -0.65625 1.640625q-0.65625 0.671875 -1.59375 0.671875zm1.640625 3.328123l0 20.453125l-3.390625 0l0 -20.453125l3.390625 0zm13.026512 20.796875q-2.34375 0 -4.21875 -0.796875q-1.8593826 -0.8125 -2.9531326 -2.25q-1.078125 -1.4375 -1.1875 -3.3125l3.5156326 0q0.140625 1.53125 1.421875 2.515625q1.296875 0.96875 3.390625 0.96875q1.9375 0 3.0625 -0.859375q1.125 -0.859375 1.125 -2.171875q0 -1.34375 -1.203125 -2.0q-1.1875 -0.65625 -3.6875 -1.28125q-2.28125 -0.59375 -3.71875 -1.203125q-1.4375076 -0.625 -2.4687576 -1.84375q-1.015625 -1.21875 -1.015625 -3.1875q0 -1.5625 0.921875 -2.875q0.9375 -1.3125 2.6562576 -2.078125q1.71875 -0.765625 3.921875 -0.765625q3.390625 0 5.484375 1.71875q2.09375 1.71875 2.234375 4.703125l-3.390625 0q-0.109375 -1.59375 -1.296875 -2.5625q-1.171875 -0.984375 -3.140625 -0.984375q-1.828125 0 -2.921875 0.796875q-1.078125 0.78125 -1.078125 2.046875q0 1.0 0.65625 1.65625q0.65625 0.65625 1.640625 1.046875q0.984375 0.390625 2.734375 0.875q2.203125 0.59375 3.578125 1.171875q1.390625 0.578125 2.375 1.75q1.0 1.15625 1.03125 3.015625q0 1.6875 -0.9375 3.03125q-0.921875 1.34375 -2.625 2.109375q-1.703125 0.765625 -3.90625 0.765625zm30.907211 -11.359375q0 0.96875 -0.109375 2.0625l-16.34375 0q0.1875 3.015625 2.0625 4.71875q1.890625 1.703125 4.578125 1.703125q2.203125 0 3.671875 -1.03125q1.484375 -1.03125 2.078125 -2.75l3.65625 0q-0.8125 2.953125 -3.28125 4.8125q-2.46875 1.84375 -6.125 1.84375q-2.90625 0 -5.203125 -1.3125q-2.296875 -1.3125 -3.609375 -3.71875q-1.296875 -2.40625 -1.296875 -5.578125q0 -3.171875 1.265625 -5.5625q1.265625 -2.390625 3.5625 -3.671875q2.296875 -1.296875 5.28125 -1.296875q2.90625 0 5.140625 1.28125q2.25 1.265625 3.453125 3.484375q1.21875 2.21875 1.21875 5.015625zm-3.5 -0.703125q0 -1.9375 -0.859375 -3.34375q-0.859375 -1.40625 -2.34375 -2.125q-1.46875 -0.734375 -3.25 -0.734375q-2.578125 0 -4.390625 1.65625q-1.8125 1.640625 -2.078125 4.546875l12.921875 0zm6.721634 1.421875q0 -3.140625 1.265625 -5.5q1.265625 -2.375 3.484375 -3.6875q2.21875 -1.3125 4.984375 -1.3125q2.390625 0 4.4375 1.109375q2.0625 1.09375 3.140625 2.890625l0 -10.828123l3.4375 0l0 27.624998l-3.4375 0l0 -3.84375q-1.0 1.828125 -2.984375 3.015625q-1.984375 1.171875 -4.625 1.171875q-2.734375 0 -4.953125 -1.34375q-2.21875 -1.359375 -3.484375 -3.78125q-1.265625 -2.421875 -1.265625 -5.515625zm17.3125 0.03125q0 -2.3125 -0.9375 -4.03125q-0.921875 -1.71875 -2.515625 -2.625q-1.578125 -0.921875 -3.484375 -0.921875q-1.90625 0 -3.484375 0.90625q-1.5625 0.890625 -2.5 2.609375q-0.921875 1.71875 -0.921875 4.03125q0 2.34375 0.921875 4.078125q0.9375 1.734375 2.5 2.65625q1.578125 0.90625 3.484375 0.90625q1.90625 0 3.484375 -0.90625q1.59375 -0.921875 2.515625 -2.65625q0.9375 -1.734375 0.9375 -4.046875zm36.54428 -8.140625q0 3.25 -2.21875 5.40625q-2.21875 2.140625 -6.78125 2.140625l-5.0 0l0 10.859375l-3.390625 0l0 -26.015623l8.390625 0q4.40625 0 6.703125 2.125q2.296875 2.124998 2.296875 5.484373zm-9.0 4.75q2.84375 0 4.1875 -1.234375q1.34375 -1.234375 1.34375 -3.515625q0 -4.812498 -5.53125 -4.812498l-5.0 0l0 9.562498l5.0 0zm16.613052 -3.484375q0.90625 -1.75 2.5625 -2.71875q1.65625 -0.96875 4.046875 -0.96875l0 3.515625l-0.890625 0q-5.71875 0 -5.71875 6.1875l0 11.125l-3.390625 0l0 -20.453125l3.390625 0l0 3.3125zm12.282806 -6.640623q-0.96875 0 -1.640625 -0.671875q-0.671875 -0.671875 -0.671875 -1.640625q0 -0.96875 0.671875 -1.640625q0.671875 -0.671875 1.640625 -0.671875q0.9375 0 1.59375 0.671875q0.65625 0.671875 0.65625 1.640625q0 0.96875 -0.65625 1.640625q-0.65625 0.671875 -1.59375 0.671875zm1.640625 3.328123l0 20.453125l-3.390625 0l0 -20.453125l3.390625 0zm30.385864 -0.375q2.390625 0 4.25 1.0q1.875 0.984375 2.953125 2.96875q1.09375 1.96875 1.09375 4.796875l0 12.0625l-3.359375 0l0 -11.578125q0 -3.046875 -1.515625 -4.671875q-1.515625 -1.625 -4.09375 -1.625q-2.640625 0 -4.21875 1.703125q-1.5625 1.6875 -1.5625 4.90625l0 11.265625l-3.359375 0l0 -11.578125q0 -3.046875 -1.515625 -4.671875q-1.515625 -1.625 -4.078125 -1.625q-2.6562347 0 -4.2343597 1.703125q-1.5625 1.6875 -1.5625 4.90625l0 11.265625l-3.390625 0l0 -20.453125l3.390625 0l0 2.953125q1.015625 -1.609375 2.703125 -2.46875q1.7031097 -0.859375 3.7656097 -0.859375q2.5625 0 4.546875 1.15625q1.984375 1.15625 2.953125 3.390625q0.859375 -2.15625 2.828125 -3.34375q1.984375 -1.203125 4.40625 -1.203125zm12.588715 10.53125q0 -3.140625 1.265625 -5.5q1.265625 -2.375 3.484375 -3.6875q2.21875 -1.3125 4.953125 -1.3125q2.6875 0 4.65625 1.15625q1.984375 1.15625 2.953125 2.921875l0 -3.734375l3.4375 0l0 20.453125l-3.4375 0l0 -3.8125q-1.0 1.796875 -3.0 2.984375q-2.0 1.171875 -4.65625 1.171875q-2.71875 0 -4.921875 -1.34375q-2.203125 -1.359375 -3.46875 -3.78125q-1.265625 -2.421875 -1.265625 -5.515625zm17.3125 0.03125q0 -2.3125 -0.9375 -4.03125q-0.921875 -1.71875 -2.515625 -2.625q-1.578125 -0.921875 -3.484375 -0.921875q-1.90625 0 -3.484375 0.90625q-1.5625 0.890625 -2.5 2.609375q-0.921875 1.71875 -0.921875 4.03125q0 2.34375 0.921875 4.078125q0.9375 1.734375 2.5 2.65625q1.578125 0.90625 3.484375 0.90625q1.90625 0 3.484375 -0.90625q1.59375 -0.921875 2.515625 -2.65625q0.9375 -1.734375 0.9375 -4.046875zm12.577637 -6.875q0.90625 -1.75 2.5625 -2.71875q1.65625 -0.96875 4.046875 -0.96875l0 3.515625l-0.890625 0q-5.71875 0 -5.71875 6.1875l0 11.125l-3.390625 0l0 -20.453125l3.390625 0l0 3.3125zm28.157806 -3.3125l-12.328125 30.078129l-3.5 0l4.03125 -9.843754l-8.25 -20.234375l3.765625 0l6.421875 16.578125l6.34375 -16.578125l3.515625 0zm12.091827 7.421875q0 -3.796875 1.71875 -6.84375q1.71875 -3.046873 4.671875 -4.765623q2.96875 -1.71875 6.59375 -1.71875q4.25 0 7.421875 2.0625q3.1875 2.046873 4.640625 5.812498l-4.078125 0q-1.078125 -2.34375 -3.109375 -3.609375q-2.03125 -1.2812481 -4.875 -1.2812481q-2.71875 0 -4.890625 1.2812481q-2.15625 1.265625 -3.390625 3.609375q-1.234375 2.328125 -1.234375 5.453125q0 3.109375 1.234375 5.4375q1.234375 2.328125 3.390625 3.609375q2.171875 1.265625 4.890625 1.265625q2.84375 0 4.875 -1.25q2.03125 -1.25 3.109375 -3.609375l4.078125 0q-1.453125 3.734375 -4.640625 5.765625q-3.171875 2.03125 -7.421875 2.03125q-3.625 0 -6.59375 -1.6875q-2.953125 -1.703125 -4.671875 -4.71875q-1.71875 -3.03125 -1.71875 -6.84375zm39.004913 13.375q-2.875 0 -5.21875 -1.3125q-2.328125 -1.3125 -3.65625 -3.71875q-1.3125 -2.40625 -1.3125 -5.578125q0 -3.140625 1.359375 -5.546875q1.359375 -2.40625 3.703125 -3.6875q2.359375 -1.296875 5.265625 -1.296875q2.921875 0 5.265625 1.296875q2.359375 1.28125 3.71875 3.671875q1.359375 2.390625 1.359375 5.5625q0 3.171875 -1.40625 5.578125q-1.390625 2.40625 -3.78125 3.71875q-2.390625 1.3125 -5.296875 1.3125zm0 -3.0q1.828125 0 3.421875 -0.859375q1.609375 -0.859375 2.59375 -2.5625q1.0 -1.71875 1.0 -4.1875q0 -2.46875 -0.96875 -4.171875q-0.96875 -1.71875 -2.546875 -2.5625q-1.5625 -0.84375 -3.390625 -0.84375q-1.859375 0 -3.421875 0.84375q-1.546875 0.84375 -2.484375 2.5625q-0.921875 1.703125 -0.921875 4.171875q0 2.5 0.90625 4.21875q0.921875 1.71875 2.453125 2.5625q1.53125 0.828125 3.359375 0.828125zm18.358826 -24.968748l0 27.624998l-3.390625 0l0 -27.624998l3.390625 0zm14.713989 27.968748q-2.875 0 -5.21875 -1.3125q-2.328125 -1.3125 -3.65625 -3.71875q-1.3125 -2.40625 -1.3125 -5.578125q0 -3.140625 1.359375 -5.546875q1.359375 -2.40625 3.703125 -3.6875q2.359375 -1.296875 5.265625 -1.296875q2.921875 0 5.265625 1.296875q2.359375 1.28125 3.71875 3.671875q1.359375 2.390625 1.359375 5.5625q0 3.171875 -1.40625 5.578125q-1.390625 2.40625 -3.78125 3.71875q-2.390625 1.3125 -5.296875 1.3125zm0 -3.0q1.828125 0 3.421875 -0.859375q1.609375 -0.859375 2.59375 -2.5625q1.0 -1.71875 1.0 -4.1875q0 -2.46875 -0.96875 -4.171875q-0.96875 -1.71875 -2.546875 -2.5625q-1.5625 -0.84375 -3.390625 -0.84375q-1.859375 0 -3.421875 0.84375q-1.546875 0.84375 -2.484375 2.5625q-0.921875 1.703125 -0.921875 4.171875q0 2.5 0.90625 4.21875q0.921875 1.71875 2.453125 2.5625q1.53125 0.828125 3.359375 0.828125zm18.358826 -14.484375q0.90625 -1.75 2.5625 -2.71875q1.65625 -0.96875 4.046875 -0.96875l0 3.515625l-0.890625 0q-5.71875 0 -5.71875 6.1875l0 11.125l-3.390625 0l0 -20.453125l3.390625 0l0 3.3125zm17.767181 17.484375q-2.34375 0 -4.21875 -0.796875q-1.859375 -0.8125 -2.953125 -2.25q-1.078125 -1.4375 -1.1875 -3.3125l3.515625 0q0.140625 1.53125 1.421875 2.515625q1.296875 0.96875 3.390625 0.96875q1.9375 0 3.0625 -0.859375q1.125 -0.859375 1.125 -2.171875q0 -1.34375 -1.203125 -2.0q-1.1875 -0.65625 -3.6875 -1.28125q-2.28125 -0.59375 -3.71875 -1.203125q-1.4375 -0.625 -2.46875 -1.84375q-1.015625 -1.21875 -1.015625 -3.1875q0 -1.5625 0.921875 -2.875q0.9375 -1.3125 2.65625 -2.078125q1.71875 -0.765625 3.921875 -0.765625q3.390625 0 5.484375 1.71875q2.09375 1.71875 2.234375 4.703125l-3.390625 0q-0.109375 -1.59375 -1.296875 -2.5625q-1.171875 -0.984375 -3.140625 -0.984375q-1.828125 0 -2.921875 0.796875q-1.078125 0.78125 -1.078125 2.046875q0 1.0 0.65625 1.65625q0.65625 0.65625 1.640625 1.046875q0.984375 0.390625 2.734375 0.875q2.203125 0.59375 3.578125 1.171875q1.390625 0.578125 2.375 1.75q1.0 1.15625 1.03125 3.015625q0 1.6875 -0.9375 3.03125q-0.921875 1.34375 -2.625 2.109375q-1.703125 0.765625 -3.90625 0.765625z" fill-rule="nonzero"/><path fill="#ff8b5f" d="m25.300985 445.19666l0 0c0 -49.705627 40.816116 -90.0 91.16535 -90.0l0 0c24.178558 0 47.36682 9.482117 64.46364 26.360382c17.096817 16.878265 26.701721 39.77011 26.701721 63.639618l0 0c0 49.705627 -40.81613 90.0 -91.16536 90.0l0 0c-50.349236 0 -91.16535 -40.294373 -91.16535 -90.0z" fill-rule="evenodd"/><path fill="#a694ea" d="m285.9939 445.19666l0 0c0 -49.705627 40.81613 -90.0 91.165344 -90.0l0 0c24.178558 0 47.36682 9.482117 64.46365 26.360382c17.096832 16.878265 26.701721 39.77011 26.701721 63.639618l0 0c0 49.705627 -40.81613 90.0 -91.165375 90.0l0 0c-50.349213 0 -91.165344 -40.294373 -91.165344 -90.0z" fill-rule="evenodd"/><path fill="#731472" d="m530.2997 445.19666l0 0c0 -49.705627 40.8161 -90.0 91.165344 -90.0l0 0c24.178528 0 47.36682 9.482117 64.46362 26.360382c17.096863 16.878265 26.701721 39.77011 26.701721 63.639618l0 0c0 49.705627 -40.8161 90.0 -91.165344 90.0l0 0c-50.349243 0 -91.165344 -40.294373 -91.165344 -90.0z" fill-rule="evenodd"/><path stroke="#ffffff" stroke-width="1.0" stroke-linejoin="round" stroke-linecap="butt" d="m530.2997 445.19666l0 0c0 -49.705627 40.8161 -90.0 91.165344 -90.0l0 0c24.178528 0 47.36682 9.482117 64.46362 26.360382c17.096863 16.878265 26.701721 39.77011 26.701721 63.639618l0 0c0 49.705627 -40.8161 90.0 -91.165344 90.0l0 0c-50.349243 0 -91.165344 -40.294373 -91.165344 -90.0z" fill-rule="evenodd"/><path fill="#000000" fill-opacity="0.0" d="m36.58201 285.2744l719.559 0l0 60.031494l-719.559 0z" fill-rule="evenodd"/><path fill="#434343" d="m62.160133 330.1144l-6.203125 -10.640625l-4.109375 0l0 10.640625l-3.390625 0l0 -26.015625l8.390625 0q2.953125 0 4.984375 1.015625q2.046875 1.0 3.046875 2.71875q1.015625 1.71875 1.015625 3.921875q0 2.6875 -1.5625 4.734375q-1.546875 2.046875 -4.640625 2.71875l6.53125 10.90625l-4.0625 0zm-10.3125 -13.359375l5.0 0q2.765625 0 4.140625 -1.359375q1.390625 -1.375 1.390625 -3.640625q0 -2.328125 -1.359375 -3.59375q-1.359375 -1.265625 -4.171875 -1.265625l-5.0 0l0 9.859375zm37.961197 2.34375q0 0.96875 -0.109375 2.0625l-16.34375 0q0.1875 3.015625 2.0625 4.71875q1.890625 1.703125 4.578125 1.703125q2.203125 0 3.671875 -1.03125q1.484375 -1.03125 2.078125 -2.75l3.65625 0q-0.8125 2.953125 -3.28125 4.8125q-2.46875 1.84375 -6.125 1.84375q-2.90625 0 -5.203125 -1.3125q-2.296875 -1.3125 -3.609375 -3.71875q-1.296875 -2.40625 -1.296875 -5.578125q0 -3.171875 1.265625 -5.5625q1.265625 -2.390625 3.5625 -3.671875q2.296875 -1.296875 5.28125 -1.296875q2.90625 0 5.140625 1.28125q2.25 1.265625 3.453125 3.484375q1.21875 2.21875 1.21875 5.015625zm-3.5 -0.703125q0 -1.9375 -0.859375 -3.34375q-0.859375 -1.40625 -2.34375 -2.125q-1.46875 -0.734375 -3.25 -0.734375q-2.578125 0 -4.390625 1.65625q-1.8125 1.640625 -2.078125 4.546875l12.921875 0zm15.596634 8.578125l6.34375 -17.3125l3.625 0l-8.015625 20.453125l-3.96875 0l-8.015625 -20.453125l3.65625 0l6.375 17.3125zm15.081772 -20.640625q-0.96875 0 -1.640625 -0.671875q-0.671875 -0.671875 -0.671875 -1.640625q0 -0.96875 0.671875 -1.640625q0.671875 -0.671875 1.640625 -0.671875q0.9375 0 1.59375 0.671875q0.65625 0.671875 0.65625 1.640625q0 0.96875 -0.65625 1.640625q-0.65625 0.671875 -1.59375 0.671875zm1.640625 3.328125l0 20.453125l-3.390625 0l0 -20.453125l3.390625 0zm13.026512 20.796875q-2.34375 0 -4.2187576 -0.796875q-1.859375 -0.8125 -2.953125 -2.25q-1.078125 -1.4375 -1.1875 -3.3125l3.515625 0q0.140625 1.53125 1.4218826 2.515625q1.296875 0.96875 3.390625 0.96875q1.9375 0 3.0625 -0.859375q1.125 -0.859375 1.125 -2.171875q0 -1.34375 -1.203125 -2.0q-1.1875 -0.65625 -3.6875 -1.28125q-2.28125 -0.59375 -3.7187576 -1.203125q-1.4375 -0.625 -2.46875 -1.84375q-1.015625 -1.21875 -1.015625 -3.1875q0 -1.5625 0.921875 -2.875q0.9375 -1.3125 2.65625 -2.078125q1.7187576 -0.765625 3.9218826 -0.765625q3.390625 0 5.484375 1.71875q2.09375 1.71875 2.234375 4.703125l-3.390625 0q-0.109375 -1.59375 -1.296875 -2.5625q-1.171875 -0.984375 -3.140625 -0.984375q-1.828125 0 -2.921875 0.796875q-1.0781326 0.78125 -1.0781326 2.046875q0 1.0 0.65625 1.65625q0.6562576 0.65625 1.6406326 1.046875q0.984375 0.390625 2.734375 0.875q2.203125 0.59375 3.578125 1.171875q1.390625 0.578125 2.375 1.75q1.0 1.15625 1.03125 3.015625q0 1.6875 -0.9375 3.03125q-0.921875 1.34375 -2.625 2.109375q-1.703125 0.765625 -3.90625 0.765625zm30.907211 -11.359375q0 0.96875 -0.109375 2.0625l-16.34375 0q0.1875 3.015625 2.0625 4.71875q1.890625 1.703125 4.578125 1.703125q2.203125 0 3.671875 -1.03125q1.484375 -1.03125 2.078125 -2.75l3.65625 0q-0.8125 2.953125 -3.28125 4.8125q-2.46875 1.84375 -6.125 1.84375q-2.90625 0 -5.203125 -1.3125q-2.296875 -1.3125 -3.609375 -3.71875q-1.296875 -2.40625 -1.296875 -5.578125q0 -3.171875 1.265625 -5.5625q1.265625 -2.390625 3.5625 -3.671875q2.296875 -1.296875 5.28125 -1.296875q2.90625 0 5.140625 1.28125q2.25 1.265625 3.453125 3.484375q1.21875 2.21875 1.21875 5.015625zm-3.5 -0.703125q0 -1.9375 -0.859375 -3.34375q-0.859375 -1.40625 -2.34375 -2.125q-1.46875 -0.734375 -3.25 -0.734375q-2.578125 0 -4.390625 1.65625q-1.8125 1.640625 -2.078125 4.546875l12.921875 0zm6.721634 1.421875q0 -3.140625 1.265625 -5.5q1.265625 -2.375 3.484375 -3.6875q2.21875 -1.3125 4.984375 -1.3125q2.390625 0 4.4375 1.109375q2.0625 1.09375 3.140625 2.890625l0 -10.828125l3.4375 0l0 27.625l-3.4375 0l0 -3.84375q-1.0 1.828125 -2.984375 3.015625q-1.984375 1.171875 -4.625 1.171875q-2.734375 0 -4.953125 -1.34375q-2.21875 -1.359375 -3.484375 -3.78125q-1.265625 -2.421875 -1.265625 -5.515625zm17.3125 0.03125q0 -2.3125 -0.9375 -4.03125q-0.921875 -1.71875 -2.515625 -2.625q-1.578125 -0.921875 -3.484375 -0.921875q-1.90625 0 -3.484375 0.90625q-1.5625 0.890625 -2.5 2.609375q-0.921875 1.71875 -0.921875 4.03125q0 2.34375 0.921875 4.078125q0.9375 1.734375 2.5 2.65625q1.578125 0.90625 3.484375 0.90625q1.90625 0 3.484375 -0.90625q1.59375 -0.921875 2.515625 -2.65625q0.9375 -1.734375 0.9375 -4.046875zm27.403656 10.53125q-2.578125 0 -4.609375 -0.90625q-2.03125 -0.921875 -3.1875 -2.546875q-1.15625 -1.625 -1.203125 -3.75l3.625 0q0.1875 1.828125 1.5 3.078125q1.328125 1.25 3.875 1.25q2.421875 0 3.8125 -1.21875q1.40625 -1.21875 1.40625 -3.109375q0 -1.5 -0.828125 -2.421875q-0.8125 -0.9375 -2.046875 -1.421875q-1.21875 -0.484375 -3.3125 -1.046875q-2.578125 -0.671875 -4.125 -1.34375q-1.546875 -0.671875 -2.65625 -2.109375q-1.09375 -1.4375 -1.09375 -3.875q0 -2.125 1.078125 -3.765625q1.078125 -1.640625 3.03125 -2.53125q1.96875 -0.90625 4.515625 -0.90625q3.65625 0 5.984375 1.828125q2.328125 1.828125 2.625 4.859375l-3.71875 0q-0.1875 -1.5 -1.578125 -2.625q-1.375 -1.140625 -3.65625 -1.140625q-2.125 0 -3.46875 1.109375q-1.34375 1.09375 -1.34375 3.0625q0 1.421875 0.796875 2.328125q0.8125 0.890625 1.984375 1.359375q1.171875 0.453125 3.296875 1.0625q2.578125 0.703125 4.140625 1.390625q1.578125 0.6875 2.6875 2.125q1.125 1.4375 1.125 3.90625q0 1.90625 -1.015625 3.59375q-1.0 1.671875 -2.984375 2.71875q-1.96875 1.046875 -4.65625 1.046875zm32.317932 -11.28125q0 0.96875 -0.109375 2.0625l-16.34375 0q0.1875 3.015625 2.0625 4.71875q1.890625 1.703125 4.578125 1.703125q2.203125 0 3.671875 -1.03125q1.484375 -1.03125 2.078125 -2.75l3.65625 0q-0.8125 2.953125 -3.28125 4.8125q-2.46875 1.84375 -6.125 1.84375q-2.90625 0 -5.203125 -1.3125q-2.296875 -1.3125 -3.609375 -3.71875q-1.296875 -2.40625 -1.296875 -5.578125q0 -3.171875 1.265625 -5.5625q1.265625 -2.390625 3.5625 -3.671875q2.296875 -1.296875 5.28125 -1.296875q2.90625 0 5.140625 1.28125q2.25 1.265625 3.453125 3.484375q1.21875 2.21875 1.21875 5.015625zm-3.5 -0.703125q0 -1.9375 -0.859375 -3.34375q-0.859375 -1.40625 -2.34375 -2.125q-1.46875 -0.734375 -3.25 -0.734375q-2.578125 0 -4.390625 1.65625q-1.8125 1.640625 -2.078125 4.546875l12.921875 0zm6.721634 1.453125q0 -3.171875 1.265625 -5.53125q1.265625 -2.375 3.515625 -3.6875q2.265625 -1.3125 5.1875 -1.3125q3.765625 0 6.203125 1.828125q2.453125 1.828125 3.234375 5.078125l-3.65625 0q-0.53125 -1.859375 -2.046875 -2.9375q-1.5 -1.09375 -3.734375 -1.09375q-2.921875 0 -4.71875 2.0q-1.78125 2.0 -1.78125 5.65625q0 3.703125 1.78125 5.71875q1.796875 2.015625 4.71875 2.015625q2.234375 0 3.71875 -1.046875q1.5 -1.046875 2.0625 -2.984375l3.65625 0q-0.828125 3.125 -3.296875 5.015625q-2.453125 1.890625 -6.140625 1.890625q-2.921875 0 -5.1875 -1.3125q-2.25 -1.3125 -3.515625 -3.703125q-1.265625 -2.390625 -1.265625 -5.59375zm32.845734 10.609375q-2.875 0 -5.21875 -1.3125q-2.328125 -1.3125 -3.65625 -3.71875q-1.3125 -2.40625 -1.3125 -5.578125q0 -3.140625 1.359375 -5.546875q1.359375 -2.40625 3.703125 -3.6875q2.359375 -1.296875 5.265625 -1.296875q2.921875 0 5.265625 1.296875q2.359375 1.28125 3.71875 3.671875q1.359375 2.390625 1.359375 5.5625q0 3.171875 -1.40625 5.578125q-1.390625 2.40625 -3.78125 3.71875q-2.390625 1.3125 -5.296875 1.3125zm0 -3.0q1.828125 0 3.421875 -0.859375q1.609375 -0.859375 2.59375 -2.5625q1.0 -1.71875 1.0 -4.1875q0 -2.46875 -0.96875 -4.171875q-0.96875 -1.71875 -2.546875 -2.5625q-1.5625 -0.84375 -3.390625 -0.84375q-1.859375 0 -3.421875 0.84375q-1.546875 0.84375 -2.484375 2.5625q-0.921875 1.703125 -0.921875 4.171875q0 2.5 0.90625 4.21875q0.921875 1.71875 2.453125 2.5625q1.53125 0.828125 3.359375 0.828125zm24.93695 -18.171875q3.734375 0 6.046875 2.265625q2.3125 2.25 2.3125 6.5l0 12.0625l-3.359375 0l0 -11.578125q0 -3.046875 -1.53125 -4.671875q-1.53125 -1.625 -4.1875 -1.625q-2.6875 0 -4.28125 1.6875q-1.578125 1.671875 -1.578125 4.875l0 11.3125l-3.390625 0l0 -20.453125l3.390625 0l0 2.90625q1.015625 -1.5625 2.75 -2.421875q1.734375 -0.859375 3.828125 -0.859375zm12.655701 10.53125q0 -3.140625 1.265625 -5.5q1.265625 -2.375 3.484375 -3.6875q2.21875 -1.3125 4.984375 -1.3125q2.390625 0 4.4375 1.109375q2.0625 1.09375 3.140625 2.890625l0 -10.828125l3.4375 0l0 27.625l-3.4375 0l0 -3.84375q-1.0 1.828125 -2.984375 3.015625q-1.984375 1.171875 -4.625 1.171875q-2.734375 0 -4.953125 -1.34375q-2.21875 -1.359375 -3.484375 -3.78125q-1.265625 -2.421875 -1.265625 -5.515625zm17.3125 0.03125q0 -2.3125 -0.9375 -4.03125q-0.921875 -1.71875 -2.515625 -2.625q-1.578125 -0.921875 -3.484375 -0.921875q-1.90625 0 -3.484375 0.90625q-1.5625 0.890625 -2.5 2.609375q-0.921875 1.71875 -0.921875 4.03125q0 2.34375 0.921875 4.078125q0.9375 1.734375 2.5 2.65625q1.578125 0.90625 3.484375 0.90625q1.90625 0 3.484375 -0.90625q1.59375 -0.921875 2.515625 -2.65625q0.9375 -1.734375 0.9375 -4.046875zm7.9213867 -0.03125q0 -3.140625 1.265625 -5.5q1.265625 -2.375 3.484375 -3.6875q2.21875 -1.3125 4.953125 -1.3125q2.6875 0 4.65625 1.15625q1.984375 1.15625 2.953125 2.921875l0 -3.734375l3.4375 0l0 20.453125l-3.4375 0l0 -3.8125q-1.0 1.796875 -3.0 2.984375q-2.0 1.171875 -4.65625 1.171875q-2.71875 0 -4.921875 -1.34375q-2.203125 -1.359375 -3.46875 -3.78125q-1.265625 -2.421875 -1.265625 -5.515625zm17.3125 0.03125q0 -2.3125 -0.9375 -4.03125q-0.921875 -1.71875 -2.515625 -2.625q-1.578125 -0.921875 -3.484375 -0.921875q-1.90625 0 -3.484375 0.90625q-1.5625 0.890625 -2.5 2.609375q-0.921875 1.71875 -0.921875 4.03125q0 2.34375 0.921875 4.078125q0.9375 1.734375 2.5 2.65625q1.578125 0.90625 3.484375 0.90625q1.90625 0 3.484375 -0.90625q1.59375 -0.921875 2.515625 -2.65625q0.9375 -1.734375 0.9375 -4.046875zm12.577637 -6.875q0.90625 -1.75 2.5625 -2.71875q1.65625 -0.96875 4.046875 -0.96875l0 3.515625l-0.890625 0q-5.71875 0 -5.71875 6.1875l0 11.125l-3.390625 0l0 -20.453125l3.390625 0l0 3.3125zm28.157806 -3.3125l-12.328125 30.078125l-3.5 0l4.03125 -9.84375l-8.25 -20.234375l3.765625 0l6.421875 16.578125l6.34375 -16.578125l3.515625 0zm12.091827 7.421875q0 -3.796875 1.71875 -6.84375q1.71875 -3.046875 4.671875 -4.765625q2.96875 -1.71875 6.59375 -1.71875q4.25 0 7.421875 2.0625q3.1875 2.046875 4.640625 5.8125l-4.078125 0q-1.078125 -2.34375 -3.109375 -3.609375q-2.03125 -1.28125 -4.875 -1.28125q-2.71875 0 -4.890625 1.28125q-2.15625 1.265625 -3.390625 3.609375q-1.234375 2.328125 -1.234375 5.453125q0 3.109375 1.234375 5.4375q1.234375 2.328125 3.390625 3.609375q2.171875 1.265625 4.890625 1.265625q2.84375 0 4.875 -1.25q2.03125 -1.25 3.109375 -3.609375l4.078125 0q-1.453125 3.734375 -4.640625 5.765625q-3.171875 2.03125 -7.421875 2.03125q-3.625 0 -6.59375 -1.6875q-2.953125 -1.703125 -4.671875 -4.71875q-1.71875 -3.03125 -1.71875 -6.84375zm39.004883 13.375q-2.875 0 -5.21875 -1.3125q-2.328125 -1.3125 -3.65625 -3.71875q-1.3125 -2.40625 -1.3125 -5.578125q0 -3.140625 1.359375 -5.546875q1.359375 -2.40625 3.703125 -3.6875q2.359375 -1.296875 5.265625 -1.296875q2.921875 0 5.265625 1.296875q2.359375 1.28125 3.71875 3.671875q1.359375 2.390625 1.359375 5.5625q0 3.171875 -1.40625 5.578125q-1.390625 2.40625 -3.78125 3.71875q-2.390625 1.3125 -5.296875 1.3125zm0 -3.0q1.828125 0 3.421875 -0.859375q1.609375 -0.859375 2.59375 -2.5625q1.0 -1.71875 1.0 -4.1875q0 -2.46875 -0.96875 -4.171875q-0.96875 -1.71875 -2.546875 -2.5625q-1.5625 -0.84375 -3.390625 -0.84375q-1.859375 0 -3.421875 0.84375q-1.546875 0.84375 -2.484375 2.5625q-0.921875 1.703125 -0.921875 4.171875q0 2.5 0.90625 4.21875q0.921875 1.71875 2.453125 2.5625q1.53125 0.828125 3.359375 0.828125zm18.358826 -24.96875l0 27.625l-3.390625 0l0 -27.625l3.390625 0zm14.713989 27.96875q-2.875 0 -5.21875 -1.3125q-2.328125 -1.3125 -3.65625 -3.71875q-1.3125 -2.40625 -1.3125 -5.578125q0 -3.140625 1.359375 -5.546875q1.359375 -2.40625 3.703125 -3.6875q2.359375 -1.296875 5.265625 -1.296875q2.921875 0 5.265625 1.296875q2.359375 1.28125 3.71875 3.671875q1.359375 2.390625 1.359375 5.5625q0 3.171875 -1.40625 5.578125q-1.390625 2.40625 -3.78125 3.71875q-2.390625 1.3125 -5.296875 1.3125zm0 -3.0q1.828125 0 3.421875 -0.859375q1.609375 -0.859375 2.59375 -2.5625q1.0 -1.71875 1.0 -4.1875q0 -2.46875 -0.96875 -4.171875q-0.96875 -1.71875 -2.546875 -2.5625q-1.5625 -0.84375 -3.390625 -0.84375q-1.859375 0 -3.421875 0.84375q-1.546875 0.84375 -2.484375 2.5625q-0.921875 1.703125 -0.921875 4.171875q0 2.5 0.90625 4.21875q0.921875 1.71875 2.453125 2.5625q1.53125 0.828125 3.359375 0.828125zm18.358826 -14.484375q0.90625 -1.75 2.5625 -2.71875q1.65625 -0.96875 4.046875 -0.96875l0 3.515625l-0.890625 0q-5.71875 0 -5.71875 6.1875l0 11.125l-3.390625 0l0 -20.453125l3.390625 0l0 3.3125zm17.767181 17.484375q-2.34375 0 -4.21875 -0.796875q-1.859375 -0.8125 -2.953125 -2.25q-1.078125 -1.4375 -1.1875 -3.3125l3.515625 0q0.140625 1.53125 1.421875 2.515625q1.296875 0.96875 3.390625 0.96875q1.9375 0 3.0625 -0.859375q1.125 -0.859375 1.125 -2.171875q0 -1.34375 -1.203125 -2.0q-1.1875 -0.65625 -3.6875 -1.28125q-2.28125 -0.59375 -3.71875 -1.203125q-1.4375 -0.625 -2.46875 -1.84375q-1.015625 -1.21875 -1.015625 -3.1875q0 -1.5625 0.921875 -2.875q0.9375 -1.3125 2.65625 -2.078125q1.71875 -0.765625 3.921875 -0.765625q3.390625 0 5.484375 1.71875q2.09375 1.71875 2.234375 4.703125l-3.390625 0q-0.109375 -1.59375 -1.296875 -2.5625q-1.171875 -0.984375 -3.140625 -0.984375q-1.828125 0 -2.921875 0.796875q-1.078125 0.78125 -1.078125 2.046875q0 1.0 0.65625 1.65625q0.65625 0.65625 1.640625 1.046875q0.984375 0.390625 2.734375 0.875q2.203125 0.59375 3.578125 1.171875q1.390625 0.578125 2.375 1.75q1.0 1.15625 1.03125 3.015625q0 1.6875 -0.9375 3.03125q-0.921875 1.34375 -2.625 2.109375q-1.703125 0.765625 -3.90625 0.765625z" fill-rule="nonzero"/><path fill="#300973" d="m762.2997 445.19666l0 0c0 -49.705627 40.8161 -90.0 91.165344 -90.0l0 0c24.178528 0 47.36682 9.482117 64.46362 26.360382c17.096863 16.878265 26.701721 39.77011 26.701721 63.639618l0 0c0 49.705627 -40.8161 90.0 -91.165344 90.0l0 0c-50.349243 0 -91.165344 -40.294373 -91.165344 -90.0z" fill-rule="evenodd"/><path stroke="#ffffff" stroke-width="1.0" stroke-linejoin="round" stroke-linecap="butt" d="m762.2997 445.19666l0 0c0 -49.705627 40.8161 -90.0 91.165344 -90.0l0 0c24.178528 0 47.36682 9.482117 64.46362 26.360382c17.096863 16.878265 26.701721 39.77011 26.701721 63.639618l0 0c0 49.705627 -40.8161 90.0 -91.165344 90.0l0 0c-50.349243 0 -91.165344 -40.294373 -91.165344 -90.0z" fill-rule="evenodd"/></g></svg>