<svg version="1.1" viewBox="0.0 0.0 960.0 540.0" fill="none" stroke="none" stroke-linecap="square" stroke-miterlimit="10" xmlns:xlink="http://www.w3.org/1999/xlink" xmlns="http://www.w3.org/2000/svg"><clipPath id="gb217d418c3_0_224.0"><path d="m0 0l960.0 0l0 540.0l-960.0 0l0 -540.0z" clip-rule="nonzero"/></clipPath><g clip-path="url(#gb217d418c3_0_224.0)"><path fill="#00917c" d="m0 0l960.0 0l0 540.0l-960.0 0z" fill-rule="evenodd"/><path fill="#000000" fill-opacity="0.0" d="m279.4567 269.6168l0 0c0 -42.999924 37.368347 -77.85826 83.46457 -77.85826l0 0c46.09619 0 83.46457 34.858337 83.46457 77.85826l0 0c0 42.99994 -37.368378 77.85828 -83.46457 77.85828l0 0c-46.096222 0 -83.46457 -34.858337 -83.46457 -77.85828z" fill-rule="evenodd"/><path stroke="#ffffff" stroke-width="4.0" stroke-linejoin="round" stroke-linecap="butt" stroke-dasharray="32.0,12.0" d="m279.4567 269.6168l0 0c0 -42.999924 37.368347 -77.85826 83.46457 -77.85826l0 0c46.09619 0 83.46457 34.858337 83.46457 77.85826l0 0c0 42.99994 -37.368378 77.85828 -83.46457 77.85828l0 0c-46.096222 0 -83.46457 -34.858337 -83.46457 -77.85828z" fill-rule="evenodd"/><path fill="#ffffff" d="m325.1363 276.8168l-3.3125 -5.703125l-2.203125 0l0 5.703125l-1.8125 0l0 -13.9375l4.5 0q1.578125 0 2.65625 0.546875q1.09375 0.53125 1.625 1.453125q0.546875 0.921875 0.546875 2.09375q0 1.4375 -0.828125 2.546875q-0.828125 1.09375 -2.484375 1.453125l3.5 5.84375l-2.1875 0zm-5.515625 -7.15625l2.6875 0q1.46875 0 2.203125 -0.734375q0.75 -0.734375 0.75 -1.953125q0 -1.234375 -0.734375 -1.90625q-0.71875 -0.6875 -2.21875 -0.6875l-2.6875 0l0 5.28125zm20.347504 1.25q0 0.53125 -0.0625 1.109375l-8.765625 0q0.09375 1.609375 1.109375 2.53125q1.015625 0.90625 2.453125 0.90625q1.171875 0 1.96875 -0.546875q0.796875 -0.546875 1.109375 -1.46875l1.953125 0q-0.4375 1.578125 -1.765625 2.578125q-1.3125 0.984375 -3.265625 0.984375q-1.5625 0 -2.796875 -0.703125q-1.21875 -0.703125 -1.921875 -1.984375q-0.703125 -1.296875 -0.703125 -3.0q0 -1.703125 0.671875 -2.984375q0.6875 -1.28125 1.921875 -1.96875q1.234375 -0.6875 2.828125 -0.6875q1.5625 0 2.75 0.6875q1.203125 0.671875 1.859375 1.859375q0.65625 1.1875 0.65625 2.6875zm-1.890625 -0.375q0 -1.03125 -0.46875 -1.78125q-0.453125 -0.75 -1.25 -1.140625q-0.78125 -0.390625 -1.734375 -0.390625q-1.390625 0 -2.359375 0.875q-0.96875 0.875 -1.109375 2.4375l6.921875 0zm8.165619 6.46875q-1.265625 0 -2.265625 -0.4375q-1.0 -0.4375 -1.578125 -1.203125q-0.578125 -0.765625 -0.640625 -1.765625l1.875 0q0.09375 0.8125 0.78125 1.34375q0.6875 0.515625 1.8125 0.515625q1.03125 0 1.625 -0.453125q0.609375 -0.46875 0.609375 -1.171875q0 -0.71875 -0.640625 -1.0625q-0.640625 -0.359375 -1.984375 -0.6875q-1.21875 -0.328125 -1.984375 -0.65625q-0.765625 -0.328125 -1.328125 -0.96875q-0.546875 -0.65625 -0.546875 -1.71875q0 -0.84375 0.5 -1.53125q0.5 -0.703125 1.421875 -1.109375q0.921875 -0.421875 2.109375 -0.421875q1.8125 0 2.921875 0.921875q1.125 0.921875 1.203125 2.515625l-1.8125 0q-0.0625 -0.859375 -0.6875 -1.375q-0.625 -0.515625 -1.6875 -0.515625q-0.984375 0 -1.5625 0.421875q-0.578125 0.40625 -0.578125 1.09375q0 0.53125 0.34375 0.890625q0.359375 0.34375 0.875 0.5625q0.53125 0.203125 1.484375 0.46875q1.171875 0.3125 1.90625 0.625q0.75 0.3125 1.28125 0.9375q0.53125 0.609375 0.546875 1.609375q0 0.90625 -0.5 1.625q-0.5 0.71875 -1.421875 1.140625q-0.90625 0.40625 -2.078125 0.40625zm16.564972 -6.09375q0 0.53125 -0.0625 1.109375l-8.765625 0q0.09375 1.609375 1.109375 2.53125q1.015625 0.90625 2.453125 0.90625q1.171875 0 1.96875 -0.546875q0.796875 -0.546875 1.109375 -1.46875l1.953125 0q-0.4375 1.578125 -1.765625 2.578125q-1.3125 0.984375 -3.265625 0.984375q-1.5625 0 -2.796875 -0.703125q-1.21875 -0.703125 -1.921875 -1.984375q-0.703125 -1.296875 -0.703125 -3.0q0 -1.703125 0.671875 -2.984375q0.6875 -1.28125 1.921875 -1.96875q1.234375 -0.6875 2.828125 -0.6875q1.5625 0 2.75 0.6875q1.203125 0.671875 1.859375 1.859375q0.65625 1.1875 0.65625 2.6875zm-1.890625 -0.375q0 -1.03125 -0.46875 -1.78125q-0.453125 -0.75 -1.25 -1.140625q-0.78125 -0.390625 -1.734375 -0.390625q-1.390625 0 -2.359375 0.875q-0.96875 0.875 -1.109375 2.4375l6.921875 0zm3.603119 0.765625q0 -1.6875 0.671875 -2.953125q0.6875 -1.265625 1.875 -1.96875q1.1875 -0.703125 2.65625 -0.703125q1.4375 0 2.5 0.625q1.0625 0.609375 1.578125 1.5625l0 -2.0l1.84375 0l0 10.953125l-1.84375 0l0 -2.046875q-0.546875 0.96875 -1.625 1.609375q-1.0625 0.625 -2.46875 0.625q-1.46875 0 -2.65625 -0.71875q-1.171875 -0.734375 -1.859375 -2.03125q-0.671875 -1.296875 -0.671875 -2.953125zm9.28125 0.015625q0 -1.234375 -0.5 -2.15625q-0.5 -0.921875 -1.359375 -1.40625q-0.84375 -0.5 -1.859375 -0.5q-1.015625 0 -1.859375 0.484375q-0.84375 0.484375 -1.34375 1.40625q-0.5 0.90625 -0.5 2.15625q0 1.25 0.5 2.1875q0.5 0.921875 1.34375 1.421875q0.84375 0.484375 1.859375 0.484375q1.015625 0 1.859375 -0.484375q0.859375 -0.5 1.359375 -1.421875q0.5 -0.9375 0.5 -2.171875zm6.738739 -3.6875q0.484375 -0.9375 1.375 -1.453125q0.890625 -0.515625 2.171875 -0.515625l0 1.875l-0.484375 0q-3.0625 0 -3.0625 3.328125l0 5.953125l-1.8125 0l0 -10.953125l1.8125 0l0 1.765625zm4.9599915 3.6875q0 -1.703125 0.671875 -2.96875q0.6875 -1.265625 1.890625 -1.96875q1.21875 -0.703125 2.78125 -0.703125q2.015625 0 3.328125 0.984375q1.3125 0.96875 1.734375 2.71875l-1.96875 0q-0.28125 -1.0 -1.09375 -1.578125q-0.796875 -0.578125 -2.0 -0.578125q-1.5625 0 -2.53125 1.078125q-0.953125 1.0625 -0.953125 3.015625q0 1.984375 0.953125 3.0625q0.96875 1.078125 2.53125 1.078125q1.203125 0 2.0 -0.5625q0.796875 -0.5625 1.09375 -1.59375l1.96875 0q-0.453125 1.671875 -1.765625 2.6875q-1.3125 1.015625 -3.296875 1.015625q-1.5625 0 -2.78125 -0.703125q-1.203125 -0.703125 -1.890625 -1.984375q-0.671875 -1.28125 -0.671875 -3.0zm18.264984 -5.65625q1.234375 0 2.234375 0.53125q1.0 0.53125 1.5625 1.59375q0.578125 1.046875 0.578125 2.578125l0 6.453125l-1.796875 0l0 -6.203125q0 -1.640625 -0.828125 -2.5q-0.8125 -0.875 -2.234375 -0.875q-1.4375 0 -2.296875 0.90625q-0.84375 0.890625 -0.84375 2.609375l0 6.0625l-1.8125 0l0 -14.796875l1.8125 0l0 5.390625q0.546875 -0.828125 1.484375 -1.28125q0.953125 -0.46875 2.140625 -0.46875z" fill-rule="nonzero"/><path fill="#000000" fill-opacity="0.0" d="m55.01837 269.6168l0 0c0 -42.999924 37.368362 -77.85826 83.46457 -77.85826l0 0c46.096207 0 83.46457 34.858337 83.46457 77.85826l0 0c0 42.99994 -37.368362 77.85828 -83.46457 77.85828l0 0c-46.096207 0 -83.46457 -34.858337 -83.46457 -77.85828z" fill-rule="evenodd"/><path stroke="#ffffff" stroke-width="4.0" stroke-linejoin="round" stroke-linecap="butt" stroke-dasharray="32.0,12.0" d="m55.01837 269.6168l0 0c0 -42.999924 37.368362 -77.85826 83.46457 -77.85826l0 0c46.096207 0 83.46457 34.858337 83.46457 77.85826l0 0c0 42.99994 -37.368362 77.85828 -83.46457 77.85828l0 0c-46.096207 0 -83.46457 -34.858337 -83.46457 -77.85828z" fill-rule="evenodd"/><path fill="#ffffff" d="m125.18858 269.6293q0.765625 0.125 1.390625 0.625q0.640625 0.5 1.0 1.25q0.375 0.734375 0.375 1.578125q0 1.046875 -0.546875 1.90625q-0.53125 0.84375 -1.5625 1.34375q-1.03125 0.484375 -2.4375 0.484375l-5.1875 0l0 -13.9375l5.0 0q1.40625 0 2.40625 0.46875q1.0 0.46875 1.5 1.265625q0.5 0.796875 0.5 1.796875q0 1.25 -0.671875 2.0625q-0.65625 0.796875 -1.765625 1.15625zm-5.15625 -0.734375l3.0625 0q1.28125 0 1.96875 -0.59375q0.703125 -0.609375 0.703125 -1.671875q0 -1.046875 -0.703125 -1.640625q-0.6875 -0.609375 -2.015625 -0.609375l-3.015625 0l0 4.515625zm3.21875 6.421875q1.359375 0 2.109375 -0.640625q0.765625 -0.640625 0.765625 -1.78125q0 -1.15625 -0.796875 -1.828125q-0.796875 -0.671875 -2.140625 -0.671875l-3.15625 0l0 4.921875l3.21875 0zm9.0412445 -7.6875q0.484375 -0.9375 1.375 -1.453125q0.890625 -0.515625 2.171875 -0.515625l0 1.875l-0.484375 0q-3.0625 0 -3.0625 3.328125l0 5.953125l-1.8125 0l0 -10.953125l1.8125 0l0 1.765625zm6.5849915 -3.546875q-0.53125 0 -0.890625 -0.359375q-0.359375 -0.359375 -0.359375 -0.890625q0 -0.515625 0.359375 -0.875q0.359375 -0.359375 0.890625 -0.359375q0.5 0 0.84375 0.359375q0.359375 0.359375 0.359375 0.875q0 0.53125 -0.359375 0.890625q-0.34375 0.359375 -0.84375 0.359375zm0.875 1.78125l0 10.953125l-1.8125 0l0 -10.953125l1.8125 0zm13.107498 5.046875q0 0.53125 -0.0625 1.109375l-8.765625 0q0.09375 1.609375 1.109375 2.53125q1.015625 0.90625 2.453125 0.90625q1.171875 0 1.96875 -0.546875q0.796875 -0.546875 1.109375 -1.46875l1.953125 0q-0.4375 1.578125 -1.765625 2.578125q-1.3125 0.984375 -3.265625 0.984375q-1.5625 0 -2.796875 -0.703125q-1.21875 -0.703125 -1.921875 -1.984375q-0.703125 -1.296875 -0.703125 -3.0q0 -1.703125 0.671875 -2.984375q0.6875 -1.28125 1.921875 -1.96875q1.234375 -0.6875 2.828125 -0.6875q1.5625 0 2.75 0.6875q1.203125 0.671875 1.859375 1.859375q0.65625 1.1875 0.65625 2.6875zm-1.890625 -0.375q0 -1.03125 -0.46875 -1.78125q-0.453125 -0.75 -1.25 -1.140625q-0.78125 -0.390625 -1.734375 -0.390625q-1.390625 0 -2.359375 0.875q-0.96875 0.875 -1.109375 2.4375l6.921875 0zm8.743744 -3.171875l-2.296875 0l0 9.453125l-1.828125 0l0 -9.453125l-1.421875 0l0 -1.5l1.421875 0l0 -0.78125q0 -1.84375 0.953125 -2.6875q0.953125 -0.859375 3.046875 -0.859375l0 1.515625q-1.1875 0 -1.6875 0.484375q-0.484375 0.46875 -0.484375 1.546875l0 0.78125l2.296875 0l0 1.5z" fill-rule="nonzero"/><path fill="#000000" fill-opacity="0.0" d="m509.3596 269.6168l0 0c0 -42.999924 37.368378 -77.85826 83.46457 -77.85826l0 0c46.09619 0 83.46454 34.858337 83.46454 77.85826l0 0c0 42.99994 -37.368347 77.85828 -83.46454 77.85828l0 0c-46.09619 0 -83.46457 -34.858337 -83.46457 -77.85828z" fill-rule="evenodd"/><path stroke="#ffffff" stroke-width="4.0" stroke-linejoin="round" stroke-linecap="butt" stroke-dasharray="32.0,12.0" d="m509.3596 269.6168l0 0c0 -42.999924 37.368378 -77.85826 83.46457 -77.85826l0 0c46.09619 0 83.46454 34.858337 83.46454 77.85826l0 0c0 42.99994 -37.368347 77.85828 -83.46454 77.85828l0 0c-46.09619 0 -83.46457 -34.858337 -83.46457 -77.85828z" fill-rule="evenodd"/><path fill="#ffffff" d="m565.0536 266.95743q0 1.734375 -1.1875 2.890625q-1.1875 1.15625 -3.625 1.15625l-2.6875 0l0 5.8125l-1.8125 0l0 -13.9375l4.5 0q2.359375 0 3.578125 1.140625q1.234375 1.140625 1.234375 2.9375zm-4.8125 2.546875q1.515625 0 2.234375 -0.65625q0.71875 -0.671875 0.71875 -1.890625q0 -2.578125 -2.953125 -2.578125l-2.6875 0l0 5.125l2.6875 0zm8.892456 -1.875q0.484375 -0.9375 1.375 -1.453125q0.890625 -0.515625 2.171875 -0.515625l0 1.875l-0.484375 0q-3.0625 0 -3.0625 3.328125l0 5.953125l-1.8125 0l0 -10.953125l1.8125 0l0 1.765625zm10.413147 9.375q-1.53125 0 -2.78125 -0.703125q-1.25 -0.703125 -1.96875 -1.984375q-0.703125 -1.296875 -0.703125 -3.0q0 -1.6875 0.71875 -2.96875q0.734375 -1.296875 2.0 -1.984375q1.265625 -0.6875 2.828125 -0.6875q1.546875 0 2.8125 0.6875q1.265625 0.6875 1.984375 1.96875q0.734375 1.28125 0.734375 2.984375q0 1.703125 -0.75 3.0q-0.75 1.28125 -2.03125 1.984375q-1.28125 0.703125 -2.84375 0.703125zm0 -1.609375q0.984375 0 1.84375 -0.453125q0.859375 -0.46875 1.390625 -1.390625q0.53125 -0.921875 0.53125 -2.234375q0 -1.3125 -0.515625 -2.234375q-0.515625 -0.921875 -1.359375 -1.375q-0.84375 -0.453125 -1.828125 -0.453125q-1.0 0 -1.828125 0.453125q-0.828125 0.453125 -1.328125 1.375q-0.5 0.921875 -0.5 2.234375q0 1.34375 0.484375 2.265625q0.5 0.921875 1.3125 1.375q0.828125 0.4375 1.796875 0.4375zm7.346863 -4.078125q0 -1.703125 0.671875 -2.96875q0.6875 -1.265625 1.890625 -1.96875q1.21875 -0.703125 2.78125 -0.703125q2.015625 0 3.328125 0.984375q1.3125 0.96875 1.734375 2.71875l-1.96875 0q-0.28125 -1.0 -1.09375 -1.578125q-0.796875 -0.578125 -2.0 -0.578125q-1.5625 0 -2.53125 1.078125q-0.953125 1.0625 -0.953125 3.015625q0 1.984375 0.953125 3.0625q0.96875 1.078125 2.53125 1.078125q1.203125 0 2.0 -0.5625q0.796875 -0.5625 1.09375 -1.59375l1.96875 0q-0.453125 1.671875 -1.765625 2.6875q-1.3125 1.015625 -3.296875 1.015625q-1.5625 0 -2.78125 -0.703125q-1.203125 -0.703125 -1.890625 -1.984375q-0.671875 -1.28125 -0.671875 -3.0zm22.827454 -0.40625q0 0.53125 -0.0625 1.109375l-8.765625 0q0.09375 1.609375 1.109375 2.53125q1.015625 0.90625 2.453125 0.90625q1.171875 0 1.96875 -0.546875q0.796875 -0.546875 1.109375 -1.46875l1.953125 0q-0.4375 1.578125 -1.765625 2.578125q-1.3125 0.984375 -3.265625 0.984375q-1.5625 0 -2.796875 -0.703125q-1.21875 -0.703125 -1.921875 -1.984375q-0.703125 -1.296875 -0.703125 -3.0q0 -1.703125 0.671875 -2.984375q0.6875 -1.28125 1.921875 -1.96875q1.234375 -0.6875 2.828125 -0.6875q1.5625 0 2.75 0.6875q1.203125 0.671875 1.859375 1.859375q0.65625 1.1875 0.65625 2.6875zm-1.890625 -0.375q0 -1.03125 -0.46875 -1.78125q-0.453125 -0.75 -1.25 -1.140625q-0.78125 -0.390625 -1.734375 -0.390625q-1.390625 0 -2.359375 0.875q-0.96875 0.875 -1.109375 2.4375l6.921875 0zm8.165588 6.46875q-1.265625 0 -2.265625 -0.4375q-1.0 -0.4375 -1.578125 -1.203125q-0.578125 -0.765625 -0.640625 -1.765625l1.875 0q0.09375 0.8125 0.78125 1.34375q0.6875 0.515625 1.8125 0.515625q1.03125 0 1.625 -0.453125q0.609375 -0.46875 0.609375 -1.171875q0 -0.71875 -0.640625 -1.0625q-0.640625 -0.359375 -1.984375 -0.6875q-1.21875 -0.328125 -1.984375 -0.65625q-0.765625 -0.328125 -1.328125 -0.96875q-0.546875 -0.65625 -0.546875 -1.71875q0 -0.84375 0.5 -1.53125q0.5 -0.703125 1.421875 -1.109375q0.921875 -0.421875 2.109375 -0.421875q1.8125 0 2.921875 0.921875q1.125 0.921875 1.203125 2.515625l-1.8125 0q-0.0625 -0.859375 -0.6875 -1.375q-0.625 -0.515625 -1.6875 -0.515625q-0.984375 0 -1.5625 0.421875q-0.578125 0.40625 -0.578125 1.09375q0 0.53125 0.34375 0.890625q0.359375 0.34375 0.875 0.5625q0.53125 0.203125 1.484375 0.46875q1.171875 0.3125 1.90625 0.625q0.75 0.3125 1.28125 0.9375q0.53125 0.609375 0.546875 1.609375q0 0.90625 -0.5 1.625q-0.5 0.71875 -1.421875 1.140625q-0.90625 0.40625 -2.078125 0.40625zm10.440002 0q-1.265625 0 -2.265625 -0.4375q-1.0 -0.4375 -1.578125 -1.203125q-0.578125 -0.765625 -0.640625 -1.765625l1.875 0q0.09375 0.8125 0.78125 1.34375q0.6875 0.515625 1.8125 0.515625q1.03125 0 1.625 -0.453125q0.609375 -0.46875 0.609375 -1.171875q0 -0.71875 -0.640625 -1.0625q-0.640625 -0.359375 -1.984375 -0.6875q-1.21875 -0.328125 -1.984375 -0.65625q-0.765625 -0.328125 -1.328125 -0.96875q-0.546875 -0.65625 -0.546875 -1.71875q0 -0.84375 0.5 -1.53125q0.5 -0.703125 1.421875 -1.109375q0.921875 -0.421875 2.109375 -0.421875q1.8125 0 2.921875 0.921875q1.125 0.921875 1.203125 2.515625l-1.8125 0q-0.0625 -0.859375 -0.6875 -1.375q-0.625 -0.515625 -1.6875 -0.515625q-0.984375 0 -1.5625 0.421875q-0.578125 0.40625 -0.578125 1.09375q0 0.53125 0.34375 0.890625q0.359375 0.34375 0.875 0.5625q0.53125 0.203125 1.484375 0.46875q1.171875 0.3125 1.90625 0.625q0.75 0.3125 1.28125 0.9375q0.53125 0.609375 0.546875 1.609375q0 0.90625 -0.5 1.625q-0.5 0.71875 -1.421875 1.140625q-0.90625 0.40625 -2.078125 0.40625z" fill-rule="nonzero"/><path fill="#000000" fill-opacity="0.0" d="m735.1601 270.0l0 0c0 -42.99994 37.368347 -77.85826 83.4646 -77.85826l0 0c46.09619 0 83.46454 34.858322 83.46454 77.85826l0 0c0 42.99994 -37.368347 77.85828 -83.46454 77.85828l0 0c-46.096252 0 -83.4646 -34.858337 -83.4646 -77.85828z" fill-rule="evenodd"/><path stroke="#ffffff" stroke-width="4.0" stroke-linejoin="round" stroke-linecap="butt" stroke-dasharray="32.0,12.0" d="m735.1601 270.0l0 0c0 -42.99994 37.368347 -77.85826 83.4646 -77.85826l0 0c46.09619 0 83.46454 34.858322 83.46454 77.85826l0 0c0 42.99994 -37.368347 77.85828 -83.46454 77.85828l0 0c-46.096252 0 -83.4646 -34.858337 -83.4646 -77.85828z" fill-rule="evenodd"/><path fill="#ffffff" d="m781.29407 243.34062q0 1.734375 -1.1875 2.890625q-1.1875 1.15625 -3.625 1.15625l-2.6875 0l0 5.8125l-1.8125 0l0 -13.9375l4.5 0q2.359375 0 3.578125 1.140625q1.234375 1.140625 1.234375 2.9375zm-4.8125 2.546875q1.515625 0 2.234375 -0.65625q0.71875 -0.671875 0.71875 -1.890625q0 -2.578125 -2.953125 -2.578125l-2.6875 0l0 5.125l2.6875 0zm8.892517 -1.875q0.484375 -0.9375 1.375 -1.453125q0.890625 -0.515625 2.171875 -0.515625l0 1.875l-0.484375 0q-3.0625 0 -3.0625 3.328125l0 5.953125l-1.8125 0l0 -10.953125l1.8125 0l0 1.765625zm10.413086 9.375q-1.53125 0 -2.78125 -0.703125q-1.25 -0.703125 -1.96875 -1.984375q-0.703125 -1.296875 -0.703125 -3.0q0 -1.6875 0.71875 -2.96875q0.734375 -1.296875 2.0 -1.984375q1.265625 -0.6875 2.828125 -0.6875q1.546875 0 2.8125 0.6875q1.265625 0.6875 1.984375 1.96875q0.734375 1.28125 0.734375 2.984375q0 1.703125 -0.75 3.0q-0.75 1.28125 -2.03125 1.984375q-1.28125 0.703125 -2.84375 0.703125zm0 -1.609375q0.984375 0 1.84375 -0.453125q0.859375 -0.46875 1.390625 -1.390625q0.53125 -0.921875 0.53125 -2.234375q0 -1.3125 -0.515625 -2.234375q-0.515625 -0.921875 -1.359375 -1.375q-0.84375 -0.453125 -1.828125 -0.453125q-1.0 0 -1.828125 0.453125q-0.828125 0.453125 -1.328125 1.375q-0.5 0.921875 -0.5 2.234375q0 1.34375 0.484375 2.265625q0.5 0.921875 1.3125 1.375q0.828125 0.4375 1.796875 0.4375zm10.253113 -8.03125l0 6.453125q0 0.796875 0.328125 1.125q0.34375 0.328125 1.1875 0.328125l1.34375 0l0 1.546875l-1.640625 0q-1.53125 0 -2.296875 -0.703125q-0.75 -0.703125 -0.75 -2.296875l0 -6.453125l-1.421875 0l0 -1.5l1.421875 0l0 -2.765625l1.828125 0l0 2.765625l2.859375 0l0 1.5l-2.859375 0zm9.826904 9.640625q-1.53125 0 -2.78125 -0.703125q-1.25 -0.703125 -1.96875 -1.984375q-0.703125 -1.296875 -0.703125 -3.0q0 -1.6875 0.71875 -2.96875q0.734375 -1.296875 2.0 -1.984375q1.265625 -0.6875 2.828125 -0.6875q1.546875 0 2.8125 0.6875q1.265625 0.6875 1.984375 1.96875q0.734375 1.28125 0.734375 2.984375q0 1.703125 -0.75 3.0q-0.75 1.28125 -2.03125 1.984375q-1.28125 0.703125 -2.84375 0.703125zm0 -1.609375q0.984375 0 1.84375 -0.453125q0.859375 -0.46875 1.390625 -1.390625q0.53125 -0.921875 0.53125 -2.234375q0 -1.3125 -0.515625 -2.234375q-0.515625 -0.921875 -1.359375 -1.375q-0.84375 -0.453125 -1.828125 -0.453125q-1.0 0 -1.828125 0.453125q-0.828125 0.453125 -1.328125 1.375q-0.5 0.921875 -0.5 2.234375q0 1.34375 0.484375 2.265625q0.5 0.921875 1.3125 1.375q0.828125 0.4375 1.796875 0.4375zm10.253113 -8.03125l0 6.453125q0 0.796875 0.328125 1.125q0.34375 0.328125 1.1875 0.328125l1.34375 0l0 1.546875l-1.640625 0q-1.53125 0 -2.296875 -0.703125q-0.75 -0.703125 -0.75 -2.296875l0 -6.453125l-1.421875 0l0 -1.5l1.421875 0l0 -2.765625l1.828125 0l0 2.765625l2.859375 0l0 1.5l-2.859375 0zm14.498718 -1.5l-6.609375 16.10939l-1.875 0l2.15625 -5.2812653l-4.421875 -10.828125l2.03125 0l3.4375 8.875l3.390625 -8.875l1.890625 0zm3.6350098 2.015625q0.546875 -0.9375 1.609375 -1.5625q1.078125 -0.640625 2.484375 -0.640625q1.46875 0 2.65625 0.703125q1.1875 0.703125 1.859375 1.96875q0.6875 1.265625 0.6875 2.953125q0 1.65625 -0.6875 2.953125q-0.671875 1.296875 -1.859375 2.03125q-1.1875 0.71875 -2.65625 0.71875q-1.390625 0 -2.46875 -0.625q-1.0625 -0.640625 -1.625 -1.578125l0 7.2187653l-1.8125 0l0 -16.156265l1.8125 0l0 2.015625zm7.4375 3.421875q0 -1.25 -0.5 -2.15625q-0.5 -0.921875 -1.359375 -1.40625q-0.84375 -0.484375 -1.859375 -0.484375q-1.0 0 -1.859375 0.5q-0.84375 0.484375 -1.359375 1.421875q-0.5 0.921875 -0.5 2.140625q0 1.234375 0.5 2.171875q0.515625 0.921875 1.359375 1.421875q0.859375 0.484375 1.859375 0.484375q1.015625 0 1.859375 -0.484375q0.859375 -0.5 1.359375 -1.421875q0.5 -0.9375 0.5 -2.1875zm14.27002 -0.390625q0 0.53125 -0.0625 1.109375l-8.765625 0q0.09375 1.609375 1.109375 2.53125q1.015625 0.90625 2.453125 0.90625q1.171875 0 1.96875 -0.546875q0.796875 -0.546875 1.109375 -1.46875l1.953125 0q-0.4375 1.578125 -1.765625 2.578125q-1.3125 0.984375 -3.265625 0.984375q-1.5625 0 -2.796875 -0.703125q-1.21875 -0.703125 -1.921875 -1.984375q-0.703125 -1.296875 -0.703125 -3.0q0 -1.703125 0.671875 -2.984375q0.6875 -1.28125 1.921875 -1.96875q1.234375 -0.6875 2.828125 -0.6875q1.5625 0 2.75 0.6875q1.203125 0.671875 1.859375 1.859375q0.65625 1.1875 0.65625 2.6875zm-1.890625 -0.375q0 -1.03125 -0.46875 -1.78125q-0.453125 -0.75 -1.25 -1.140625q-0.78125 -0.390625 -1.734375 -0.390625q-1.390625 0 -2.359375 0.875q-0.96875 0.875 -1.109375 2.4375l6.921875 0z" fill-rule="nonzero"/><path fill="#ffffff" d="m799.5641 271.68436q0 -1.6875 0.671875 -2.953125q0.6875 -1.265625 1.875 -1.96875q1.1875 -0.703125 2.65625 -0.703125q1.4375 0 2.5 0.625q1.0625 0.609375 1.578125 1.5625l0 -2.0l1.84375 0l0 10.953125l-1.84375 0l0 -2.046875q-0.546875 0.96875 -1.625 1.609375q-1.0625 0.625 -2.46875 0.625q-1.46875 0 -2.65625 -0.71875q-1.171875 -0.734375 -1.859375 -2.03125q-0.671875 -1.296875 -0.671875 -2.953125zm9.28125 0.015625q0 -1.234375 -0.5 -2.15625q-0.5 -0.921875 -1.359375 -1.40625q-0.84375 -0.5 -1.859375 -0.5q-1.015625 0 -1.859375 0.484375q-0.84375 0.484375 -1.34375 1.40625q-0.5 0.90625 -0.5 2.15625q0 1.25 0.5 2.1875q0.5 0.921875 1.34375 1.421875q0.84375 0.484375 1.859375 0.484375q1.015625 0 1.859375 -0.484375q0.859375 -0.5 1.359375 -1.421875q0.5 -0.9375 0.5 -2.171875zm10.2543335 -5.65625q2.0 0 3.234375 1.21875q1.25 1.203125 1.25 3.484375l0 6.453125l-1.796875 0l0 -6.203125q0 -1.640625 -0.828125 -2.5q-0.8125 -0.875 -2.234375 -0.875q-1.4375 0 -2.296875 0.90625q-0.84375 0.890625 -0.84375 2.609375l0 6.0625l-1.8125 0l0 -10.953125l1.8125 0l0 1.546875q0.546875 -0.828125 1.46875 -1.28125q0.9375 -0.46875 2.046875 -0.46875zm6.784363 5.640625q0 -1.6875 0.671875 -2.953125q0.6875 -1.265625 1.875 -1.96875q1.1875 -0.703125 2.671875 -0.703125q1.28125 0 2.375 0.59375q1.109375 0.59375 1.6875 1.546875l0 -5.796875l1.84375 0l0 14.796875l-1.84375 0l0 -2.0625q-0.546875 0.984375 -1.609375 1.625q-1.046875 0.625 -2.46875 0.625q-1.46875 0 -2.65625 -0.71875q-1.1875 -0.734375 -1.875 -2.03125q-0.671875 -1.296875 -0.671875 -2.953125zm9.28125 0.015625q0 -1.234375 -0.5 -2.15625q-0.5 -0.921875 -1.359375 -1.40625q-0.84375 -0.5 -1.859375 -0.5q-1.015625 0 -1.859375 0.484375q-0.84375 0.484375 -1.34375 1.40625q-0.5 0.90625 -0.5 2.15625q0 1.25 0.5 2.1875q0.5 0.921875 1.34375 1.421875q0.84375 0.484375 1.859375 0.484375q1.015625 0 1.859375 -0.484375q0.859375 -0.5 1.359375 -1.421875q0.5 -0.9375 0.5 -2.171875z" fill-rule="nonzero"/><path fill="#ffffff" d="m779.41907 288.4656q-0.53125 0 -0.890625 -0.359375q-0.359375 -0.359375 -0.359375 -0.890625q0 -0.515625 0.359375 -0.875q0.359375 -0.359375 0.890625 -0.359375q0.5 0 0.84375 0.359375q0.359375 0.359375 0.359375 0.875q0 0.53125 -0.359375 0.890625q-0.34375 0.359375 -0.84375 0.359375zm0.875 1.78125l0 10.953125l-1.8125 0l0 -10.953125l1.8125 0zm5.326233 1.5l0 6.453125q0 0.796875 0.328125 1.125q0.34375 0.328125 1.1875 0.328125l1.34375 0l0 1.546875l-1.640625 0q-1.53125 0 -2.296875 -0.703125q-0.75 -0.703125 -0.75 -2.296875l0 -6.453125l-1.421875 0l0 -1.5l1.421875 0l0 -2.765625l1.828125 0l0 2.765625l2.859375 0l0 1.5l-2.859375 0zm15.061279 3.546875q0 0.53125 -0.0625 1.109375l-8.765625 0q0.09375 1.609375 1.109375 2.53125q1.015625 0.90625 2.453125 0.90625q1.171875 0 1.96875 -0.546875q0.796875 -0.546875 1.109375 -1.46875l1.953125 0q-0.4375 1.578125 -1.765625 2.578125q-1.3125 0.984375 -3.265625 0.984375q-1.5625 0 -2.796875 -0.703125q-1.21875 -0.703125 -1.921875 -1.984375q-0.703125 -1.296875 -0.703125 -3.0q0 -1.703125 0.671875 -2.984375q0.6875 -1.28125 1.921875 -1.96875q1.234375 -0.6875 2.828125 -0.6875q1.5625 0 2.75 0.6875q1.203125 0.671875 1.859375 1.859375q0.65625 1.1875 0.65625 2.6875zm-1.890625 -0.375q0 -1.03125 -0.46875 -1.78125q-0.453125 -0.75 -1.25 -1.140625q-0.78125 -0.390625 -1.734375 -0.390625q-1.390625 0 -2.359375 0.875q-0.96875 0.875 -1.109375 2.4375l6.921875 0zm6.1030884 -2.90625q0.484375 -0.9375 1.375 -1.453125q0.890625 -0.515625 2.171875 -0.515625l0 1.875l-0.484375 0q-3.0625 0 -3.0625 3.328125l0 5.953125l-1.8125 0l0 -10.953125l1.8125 0l0 1.765625zm4.960022 3.671875q0 -1.6875 0.671875 -2.953125q0.6875 -1.265625 1.875 -1.96875q1.1875 -0.703125 2.65625 -0.703125q1.4375 0 2.5 0.625q1.0625 0.609375 1.578125 1.5625l0 -2.0l1.84375 0l0 10.953125l-1.84375 0l0 -2.046875q-0.546875 0.96875 -1.625 1.609375q-1.0625 0.625 -2.46875 0.625q-1.46875 0 -2.65625 -0.71875q-1.171875 -0.734375 -1.859375 -2.03125q-0.671875 -1.296875 -0.671875 -2.953125zm9.28125 0.015625q0 -1.234375 -0.5 -2.15625q-0.5 -0.921875 -1.359375 -1.40625q-0.84375 -0.5 -1.859375 -0.5q-1.015625 0 -1.859375 0.484375q-0.84375 0.484375 -1.34375 1.40625q-0.5 0.90625 -0.5 2.15625q0 1.25 0.5 2.1875q0.5 0.921875 1.34375 1.421875q0.84375 0.484375 1.859375 0.484375q1.015625 0 1.859375 -0.484375q0.859375 -0.5 1.359375 -1.421875q0.5 -0.9375 0.5 -2.171875zm7.1449585 -3.953125l0 6.453125q0 0.796875 0.328125 1.125q0.34375 0.328125 1.1875 0.328125l1.34375 0l0 1.546875l-1.640625 0q-1.53125 0 -2.296875 -0.703125q-0.75 -0.703125 -0.75 -2.296875l0 -6.453125l-1.421875 0l0 -1.5l1.421875 0l0 -2.765625l1.828125 0l0 2.765625l2.859375 0l0 1.5l-2.859375 0zm5.9987793 -3.28125q-0.53125 0 -0.890625 -0.359375q-0.359375 -0.359375 -0.359375 -0.890625q0 -0.515625 0.359375 -0.875q0.359375 -0.359375 0.890625 -0.359375q0.5 0 0.84375 0.359375q0.359375 0.359375 0.359375 0.875q0 0.53125 -0.359375 0.890625q-0.34375 0.359375 -0.84375 0.359375zm0.875 1.78125l0 10.953125l-1.8125 0l0 -10.953125l1.8125 0zm7.873108 11.140625q-1.53125 0 -2.78125 -0.703125q-1.25 -0.703125 -1.96875 -1.984375q-0.703125 -1.296875 -0.703125 -3.0q0 -1.6875 0.71875 -2.96875q0.734375 -1.296875 2.0 -1.984375q1.265625 -0.6875 2.828125 -0.6875q1.546875 0 2.8125 0.6875q1.265625 0.6875 1.984375 1.96875q0.734375 1.28125 0.734375 2.984375q0 1.703125 -0.75 3.0q-0.75 1.28125 -2.03125 1.984375q-1.28125 0.703125 -2.84375 0.703125zm0 -1.609375q0.984375 0 1.84375 -0.453125q0.859375 -0.46875 1.390625 -1.390625q0.53125 -0.921875 0.53125 -2.234375q0 -1.3125 -0.515625 -2.234375q-0.515625 -0.921875 -1.359375 -1.375q-0.84375 -0.453125 -1.828125 -0.453125q-1.0 0 -1.828125 0.453125q-0.828125 0.453125 -1.328125 1.375q-0.5 0.921875 -0.5 2.234375q0 1.34375 0.484375 2.265625q0.5 0.921875 1.3125 1.375q0.828125 0.4375 1.796875 0.4375zm13.362488 -9.734375q2.0 0 3.234375 1.21875q1.25 1.203125 1.25 3.484375l0 6.453125l-1.796875 0l0 -6.203125q0 -1.640625 -0.828125 -2.5q-0.8125 -0.875 -2.234375 -0.875q-1.4375 0 -2.296875 0.90625q-0.84375 0.890625 -0.84375 2.609375l0 6.0625l-1.8125 0l0 -10.953125l1.8125 0l0 1.546875q0.546875 -0.828125 1.46875 -1.28125q0.9375 -0.46875 2.046875 -0.46875z" fill-rule="nonzero"/><path fill="#000000" fill-opacity="0.0" d="m55.01837 38.409046l832.0315 0l0 68.8819l-832.0315 0z" fill-rule="evenodd"/><path fill="#ffffff" d="m383.1582 83.072174l-11.171875 0l-1.796875 5.296875l-7.625 0l10.828125 -29.937504l8.453125 0l10.828125 29.937504l-7.71875 0l-1.796875 -5.296875zm-1.875 -5.625l-3.703125 -10.953125l-3.671875 10.953125l7.375 0zm21.968872 -9.515625q1.0625 -1.65625 2.9375 -2.671875q1.890625 -1.03125 4.40625 -1.03125q2.9375 0 5.328125 1.5q2.390625 1.484375 3.765625 4.265625q1.390625 2.765625 1.390625 6.4375q0 3.65625 -1.390625 6.453125q-1.375 2.796875 -3.765625 4.3125q-2.390625 1.515625 -5.328125 1.515625q-2.484375 0 -4.390625 -1.015625q-1.890625 -1.03125 -2.953125 -2.65625l0 14.671875l-7.296875 0l0 -35.140625l7.296875 0l0 3.359375zm10.40625 8.5q0 -2.734375 -1.515625 -4.28125q-1.515625 -1.5625 -3.734375 -1.5625q-2.171875 0 -3.6875 1.578125q-1.515625 1.578125 -1.515625 4.296875q0 2.734375 1.515625 4.3125q1.515625 1.578125 3.6875 1.578125q2.1875 0 3.71875 -1.59375q1.53125 -1.609375 1.53125 -4.328125zm18.557281 -8.5q1.0625 -1.65625 2.9375 -2.671875q1.890625 -1.03125 4.40625 -1.03125q2.9375 0 5.328125 1.5q2.390625 1.484375 3.765625 4.265625q1.390625 2.765625 1.390625 6.4375q0 3.65625 -1.390625 6.453125q-1.375 2.796875 -3.765625 4.3125q-2.390625 1.515625 -5.328125 1.515625q-2.484375 0 -4.390625 -1.015625q-1.890625 -1.03125 -2.953125 -2.65625l0 14.671875l-7.296875 0l0 -35.140625l7.296875 0l0 3.359375zm10.40625 8.5q0 -2.734375 -1.515625 -4.28125q-1.515625 -1.5625 -3.734375 -1.5625q-2.171875 0 -3.6875 1.578125q-1.515625 1.578125 -1.515625 4.296875q0 2.734375 1.515625 4.3125q1.515625 1.578125 3.6875 1.578125q2.1875 0 3.71875 -1.59375q1.53125 -1.609375 1.53125 -4.328125zm18.557281 -7.890625q1.28125 -1.96875 3.203125 -3.09375q1.921875 -1.140625 4.265625 -1.140625l0 7.71875l-2.0 0q-2.734375 0 -4.109375 1.1875q-1.359375 1.171875 -1.359375 4.109375l0 11.046875l-7.296875 0l0 -23.796875l7.296875 0l0 3.96875zm21.803741 20.171875q-3.5 0 -6.296875 -1.484375q-2.796875 -1.5 -4.40625 -4.265625q-1.59375 -2.78125 -1.59375 -6.5q0 -3.65625 1.625 -6.453125q1.625 -2.796875 4.4375 -4.28125q2.8125 -1.5 6.3125 -1.5q3.5 0 6.3125 1.5q2.8125 1.484375 4.4375 4.28125q1.625 2.796875 1.625 6.453125q0 3.671875 -1.640625 6.46875q-1.640625 2.796875 -4.484375 4.296875q-2.828125 1.484375 -6.328125 1.484375zm0 -6.3125q2.078125 0 3.546875 -1.53125q1.484375 -1.546875 1.484375 -4.40625q0 -2.859375 -1.4375 -4.390625q-1.421875 -1.53125 -3.515625 -1.53125q-2.125 0 -3.546875 1.515625q-1.40625 1.515625 -1.40625 4.40625q0 2.859375 1.390625 4.40625q1.390625 1.53125 3.484375 1.53125zm14.875092 -5.96875q0 -3.671875 1.390625 -6.4375q1.390625 -2.78125 3.78125 -4.265625q2.390625 -1.5 5.328125 -1.5q2.515625 0 4.40625 1.03125q1.90625 1.015625 2.9375 2.671875l0 -3.359375l7.28125 0l0 23.796875l-7.28125 0l0 -3.375q-1.078125 1.671875 -2.984375 2.703125q-1.890625 1.015625 -4.40625 1.015625q-2.890625 0 -5.28125 -1.515625q-2.390625 -1.515625 -3.78125 -4.3125q-1.390625 -2.796875 -1.390625 -6.453125zm17.84375 0.03125q0 -2.71875 -1.515625 -4.296875q-1.515625 -1.578125 -3.6875 -1.578125q-2.1875 0 -3.703125 1.5625q-1.515625 1.546875 -1.515625 4.28125q0 2.71875 1.515625 4.328125q1.515625 1.59375 3.703125 1.59375q2.171875 0 3.6875 -1.578125q1.515625 -1.578125 1.515625 -4.3125zm11.119812 0q0 -3.703125 1.515625 -6.46875q1.515625 -2.78125 4.21875 -4.265625q2.71875 -1.5 6.21875 -1.5q4.46875 0 7.46875 2.34375q3.015625 2.34375 3.953125 6.609375l-7.75 0q-0.984375 -2.734375 -3.796875 -2.734375q-2.015625 0 -3.21875 1.5625q-1.1875 1.5625 -1.1875 4.453125q0 2.90625 1.1875 4.46875q1.203125 1.546875 3.21875 1.546875q2.8125 0 3.796875 -2.71875l7.75 0q-0.9375 4.171875 -3.96875 6.5625q-3.015625 2.390625 -7.453125 2.390625q-3.5 0 -6.21875 -1.484375q-2.703125 -1.5 -4.21875 -4.265625q-1.515625 -2.78125 -1.515625 -6.5zm41.900757 -12.15625q4.09375 0 6.5625 2.71875q2.46875 2.703125 2.46875 7.4375l0 13.90625l-7.25 0l0 -12.921875q0 -2.390625 -1.234375 -3.703125q-1.234375 -1.328125 -3.328125 -1.328125q-2.09375 0 -3.328125 1.328125q-1.234375 1.3125 -1.234375 3.703125l0 12.921875l-7.296875 0l0 -31.562504l7.296875 0l0 10.953129q1.109375 -1.578125 3.03125 -2.515625q1.921875 -0.9375 4.3125 -0.9375z" fill-rule="nonzero"/></g></svg>