<?xml version="1.0" encoding="UTF-8"?>
<svg width="2110px" height="685px" viewBox="0 0 2110 685" version="1.1" xmlns="http://www.w3.org/2000/svg" xmlns:xlink="http://www.w3.org/1999/xlink">
    <!-- Generator: Sketch 52.6 (67491) - http://www.bohemiancoding.com/sketch -->
    <title>Herman's Journey@1x</title>
    <desc>Created with Sketch.</desc>
    <g id="Herman's-Journey" stroke="none" stroke-width="1" fill="none" fill-rule="evenodd">
        <rect fill="#FFFFFF" x="0" y="0" width="2110" height="685"></rect>
        <g id="MOTIVATIONS" transform="translate(66.000000, 235.000000)">
            <rect id="Rectangle" stroke="#4F4CEE" fill="#F7F7F7" x="80.5" y="11.5" width="1896" height="379"></rect>
            <path d="M82.5,377.879539 L82.5,390.5 L1976.5,390.5 L1976.5,190.841679 C1976.29596,190.735203 1976.05456,190.610132 1975.77645,190.467113 C1974.95906,190.046754 1973.99537,189.558977 1972.89123,189.0094 C1969.73526,187.438545 1966.08765,185.687892 1961.99519,183.80239 C1950.30088,178.414509 1937.38846,173.026382 1923.63253,167.99756 C1892.82242,156.73416 1862.38347,148.928103 1833.93752,146.130564 C1826.44808,145.394009 1819.16547,145.01659 1812.10898,145.01659 C1796.57783,145.01659 1780.27525,146.738916 1761.65678,150.093082 C1747.66965,152.612899 1737.40097,154.910905 1710.55556,161.273235 C1678.63929,168.837355 1663.02409,172.12911 1644.29256,174.713419 C1619.69054,178.107652 1597.62574,178.558743 1576.25391,175.577497 C1568.8159,174.539937 1560.31685,173.076024 1549.3536,170.990008 C1542.72408,169.728589 1516.60499,164.571834 1518.72664,164.98707 C1505.62026,162.421967 1495.5983,160.559568 1485.81168,158.916798 C1442.18517,151.593707 1411.22735,150.323487 1389.27517,156.908272 C1362.25605,165.012939 1299.76113,173.428731 1235.78566,178.024072 C1168.93168,182.826175 1118.13471,182.268 1107.37148,175.505665 C1093.89042,167.035762 1075.78733,166.346754 1051.4308,172.193955 C1041.18872,174.65274 1029.88785,178.232069 1016.18067,183.226545 C1010.57521,185.269003 1004.63572,187.519802 997.368334,190.339431 C993.118038,191.988477 977.989556,197.915362 978.002211,197.91042 C960.213951,204.857461 948.437691,209.241144 936.367675,213.25883 C922.473502,217.883713 909.952199,221.359293 898.145155,223.747683 C888.695157,225.659279 877.189228,230.006162 862.691068,236.883642 C851.952282,241.977791 845.252157,245.476779 821.06125,258.392816 C818.766556,259.618002 816.916988,260.603793 815.135725,261.550428 C793.122125,273.249344 779.096569,280.153689 765.700938,285.489043 C748.798862,292.22098 735.416915,295.183467 725.016795,293.981955 C712.971283,296.19667 698.892596,294.769844 681.303711,290.09937 C668.436532,286.682677 663.429434,284.947623 630.458854,272.981523 C606.489146,264.282134 591.927533,259.564619 576.407805,255.963709 C562.402761,252.714237 549.595071,251.025249 537.51086,251.025249 C485.93032,251.025249 455.16908,246.825966 419.100721,237.375101 C416.299427,236.641088 404.615861,233.505277 401.558628,232.708239 C377.324212,226.390193 359.750209,223.75761 334,223.75761 C312.46811,223.75761 282.486473,227.304558 254.083352,233.857234 C218.813352,241.994116 188.068951,254.069872 165.644569,269.887916 C150.750467,280.394139 137.291474,292.991072 125.212172,307.235341 C112.089487,322.709999 101.261148,339.291812 92.5885137,355.873202 C89.5534539,361.675996 87.0048947,367.063641 84.9253869,371.897642 C84.1979851,373.588552 83.5812787,375.089152 83.0730818,376.382131 C82.8954414,376.834093 82.7441068,377.227661 82.6188046,377.560672 C82.5670633,377.698183 82.5274918,377.80471 82.5,377.879539 Z" id="E-&amp;-T-emotion-graph" stroke="#4F4CEE" fill="#6BD6D1"></path>
            <g id="Dividers" transform="translate(368.000000, 0.000000)" stroke="#B5B5B5" stroke-dasharray="2,6" stroke-linecap="square">
                <path d="M306.484425,0.478520286 L306.484425,400.749613" id="Line-2-Copy"></path>
                <path d="M611,0.478520286 L611,400.749613" id="Line-2-Copy-2"></path>
                <path d="M916.5,0.5 L916.5,400.77" id="Line-2-Copy-3"></path>
                <path d="M1221.34372,0.478520286 L1221.34372,400.749613" id="Line-2-Copy-4"></path>
                <path d="M0.656283566,0.478520286 L0.656283566,400.749613" id="Line-2"></path>
            </g>
            <g id="MOTIVATIONS-notes" transform="translate(88.000000, 13.000000)">
                <g id="E-&amp;-T-#10" transform="translate(1643.000000, 1.000000)">
                    <text id="“Great!-The-stories" fill="#181818" font-family="AvenirNext-Medium, Avenir Next" font-size="11" font-weight="400" letter-spacing="-0.1466667">
                        <tspan x="3.40200055" y="11">“Great! The stories  are tailored </tspan>
                        <tspan x="0.81333385" y="26">to my needs and I can even take </tspan>
                        <tspan x="32.5300003" y="41">advantages like …“</tspan>
                    </text>
                    <path d="M79.5,82 L79.5,123" id="Line-3-Copy-9" stroke="#92698B" stroke-width="2" stroke-linecap="round" stroke-linejoin="round" stroke-dasharray="2,5"></path>
                </g>
                <g id="E-&amp;-T-#9" transform="translate(1419.000000, 19.000000)">
                    <text id="“Is-it-asking-me-to" fill="#181818" font-family="AvenirNext-Medium, Avenir Next" font-size="11" font-weight="400" letter-spacing="-0.1466667">
                        <tspan x="7.33251918" y="11">“Is it asking me to pay 35kr </tspan>
                        <tspan x="15.7658524" y="26">per month for access to </tspan>
                        <tspan x="3.15068588" y="41">health-related stories? Since, </tspan>
                        <tspan x="0.860852529" y="56">I’m getting relevant news and </tspan>
                        <tspan x="3.88585253" y="71">low-carb recepie ideas, I can </tspan>
                        <tspan x="1.01485253" y="86">sign-up for 1 month and see.”</tspan>
                    </text>
                    <path d="M72.6750599,69 L72.6750599,129" id="Line-3-Copy-8" stroke="#92698B" stroke-width="2" stroke-linecap="round" stroke-linejoin="round" stroke-dasharray="2,5"></path>
                </g>
                <g id="E-&amp;-T-#8" transform="translate(1222.019683, 6.000000)">
                    <text id="“I’m-getting-use-to" fill="#181818" font-family="AvenirNext-Medium, Avenir Next" font-size="11" font-weight="400" letter-spacing="-0.1466667">
                        <tspan x="0.0591859292" y="11">“I’m getting use to info-tainment </tspan>
                        <tspan x="1.23251928" y="26">stories from this source. Like the </tspan>
                        <tspan x="2.42785263" y="41">illustrations. Articles on easy-to-</tspan>
                        <tspan x="3.31701918" y="56">make KETO recepies everyday. </tspan>
                        <tspan x="12.9365192" y="71">Read interesting articles on </tspan>
                        <tspan x="3.92018588" y="86">what to do next with my career </tspan>
                        <tspan x="1.25635258" y="101">after graphic designing course.”</tspan>
                    </text>
                    <path d="M79.3306854,112 L78.311251,131.823758" id="Line-3-Copy-7" stroke="#92698B" stroke-width="2" stroke-linecap="round" stroke-linejoin="round" stroke-dasharray="2,5"></path>
                </g>
                <g id="E-&amp;-T-#7" transform="translate(1066.424559, 15.000000)">
                    <text id="“Okay-let-me-give-it" fill="#181818" font-family="AvenirNext-Medium, Avenir Next" font-size="11" font-weight="400" letter-spacing="-0.1466667">
                        <tspan x="9.80494107" y="11">“Okay let me give it a try! </tspan>
                        <tspan x="0.814274469" y="26">And register myself for free. I </tspan>
                        <tspan x="7.53710772" y="41">can even get stories of my </tspan>
                        <tspan x="8.90477442" y="56">interest like health, career </tspan>
                        <tspan x="10.4191077" y="71">councelling, etc. or funny </tspan>
                        <tspan x="4.14727442" y="86">stories like Halloween party </tspan>
                        <tspan x="33.6382742" y="101">events in Oslo.“</tspan>
                    </text>
                    <path d="M71.6750599,112 L71.6750599,147" id="Line-3-Copy-6" stroke="#92698B" stroke-width="2" stroke-linecap="round" stroke-linejoin="round" stroke-dasharray="2,5"></path>
                </g>
                <g id="E-&amp;-T-#6" transform="translate(896.829436, 0.000000)">
                    <text id="“I’m-often-get-relev" fill="#181818" font-family="AvenirNext-Medium, Avenir Next" font-size="11" font-weight="400" letter-spacing="-0.1466667">
                        <tspan x="14.1685192" y="11">“I’m often get relevant info </tspan>
                        <tspan x="4.70301923" y="26">abouth health tips in short and </tspan>
                        <tspan x="6.81501923" y="41">crisp stories from this channel </tspan>
                        <tspan x="2.67168588" y="56">(on my FB/snapchat/IG) which I </tspan>
                        <tspan x="1.60835258" y="71">can share with my friends; don’t </tspan>
                        <tspan x="14.5516858" y="86">have to navigate much. It’s </tspan>
                        <tspan x="31.389019" y="101">good to subscribe.“</tspan>
                    </text>
                    <path d="M79.0915068,112 L78.5159142,147" id="Line-3-Copy-5" stroke="#92698B" stroke-width="2" stroke-linecap="round" stroke-linejoin="round" stroke-dasharray="2,5"></path>
                </g>
                <g id="E-&amp;-T-#5" transform="translate(733.121802, 66.000000)">
                    <text id="“Hey!-I-found-someth" fill="#181818" font-family="AvenirNext-Medium, Avenir Next" font-size="11" font-weight="400" letter-spacing="-0.1466667">
                        <tspan x="11.8843524" y="11">“Hey! I found something </tspan>
                        <tspan x="7.21118583" y="26">about ‘Keto-diet’, low-carb </tspan>
                        <tspan x="7.78135253" y="41">that I can use it in my daily </tspan>
                        <tspan x="12.0420192" y="56">life. Interesting recipies.“</tspan>
                    </text>
                    <path d="M67.6750599,71 L67.6750599,131" id="Line-3-Copy-4" stroke="#92698B" stroke-width="2" stroke-linecap="round" stroke-linejoin="round" stroke-dasharray="2,5"></path>
                </g>
                <g id="E-&amp;-T-#4" transform="translate(546.725419, 126.000000)">
                    <text id="“Ahh!-I-really-can’t" fill="#181818" font-family="AvenirNext-Medium, Avenir Next" font-size="11" font-weight="400" letter-spacing="-0.1466667">
                        <tspan x="1.65418593" y="11">“Ahh! I really can’t find anything </tspan>
                        <tspan x="50.8846856" y="26">interesting“</tspan>
                    </text>
                    <path d="M79.9863109,80 L79.9863109,140" id="Line-3-Copy-2" stroke="#92698B" stroke-width="2" stroke-linecap="round" stroke-linejoin="round" stroke-dasharray="2,5"></path>
                </g>
                <g id="E-&amp;-T-#3" transform="translate(363.329036, 62.000000)">
                    <text id="“I’m-not-looking-for" fill="#181818" font-family="AvenirNext-Medium, Avenir Next" font-size="11" font-weight="400" letter-spacing="-0.1466667">
                        <tspan x="7.96085253" y="11">“I’m not looking for any news </tspan>
                        <tspan x="3.41601918" y="26">agenda like Donald Trump and </tspan>
                        <tspan x="13.5891858" y="41">Iran hard-news. There’s too </tspan>
                        <tspan x="19.5291858" y="56">much out there already.”</tspan>
                    </text>
                    <path d="M79.311251,66 L80.6709636,160" id="Line-3-Copy" stroke="#92698B" stroke-width="2" stroke-linecap="round" stroke-linejoin="round" stroke-dasharray="2,5"></path>
                </g>
                <g id="E-&amp;-T-#2" transform="translate(170.396383, 59.000000)">
                    <text id="“I-want-to-look-for" fill="#181818" font-family="AvenirNext-Medium, Avenir Next" font-size="11" font-weight="400" letter-spacing="-0.1466667">
                        <tspan x="3.45451923" y="11">“I want to look for an engaging </tspan>
                        <tspan x="7.30818588" y="26">story that entertains me while </tspan>
                        <tspan x="47.5168523" y="41">I’m relaxing.”</tspan>
                    </text>
                    <path d="M79.3306854,66 C79.3306854,74.3333333 79.3306854,98.5 79.3306854,138.5" id="Line-3-Copy-3" stroke="#92698B" stroke-width="2" stroke-linecap="round" stroke-linejoin="round" stroke-dasharray="2,5"></path>
                </g>
                <text id="“I-want-to-know-abou" fill="#181818" font-family="AvenirNext-Medium, Avenir Next" font-size="11" font-weight="400" letter-spacing="-0.1466667">
                    <tspan x="11.1801858" y="132">“I want to know about a few </tspan>
                    <tspan x="4.21718593" y="147">excercises that I can do to train </tspan>
                    <tspan x="6.03401923" y="162">myself or healthy food to eat.”</tspan>
                </text>
                <path d="M75.3306854,174 L75.3306854,248.5" id="Line-3" stroke="#92698B" stroke-width="2" stroke-linecap="round" stroke-linejoin="round" stroke-dasharray="2,5"></path>
                <ellipse id="Oval-4" stroke="#FFFFFF" stroke-width="3" fill="#4F4CEE" cx="75.3306854" cy="256.5" rx="11.3343825" ry="9"></ellipse>
                <ellipse id="Oval-4" stroke="#FFFFFF" stroke-width="3" fill="#4F4CEE" cx="249.834382" cy="203.5" rx="11.3343825" ry="9"></ellipse>
                <ellipse id="Oval-4" stroke="#FFFFFF" stroke-width="3" fill="#4F4CEE" cx="444.834382" cy="231.5" rx="11.3343825" ry="9"></ellipse>
                <ellipse id="Oval-4" stroke="#FFFFFF" stroke-width="3" fill="#4F4CEE" cx="626.834382" cy="276.5" rx="11.3343825" ry="9"></ellipse>
                <ellipse id="Oval-4" stroke="#FFFFFF" stroke-width="3" fill="#4F4CEE" cx="801.834382" cy="208.5" rx="11.3343825" ry="9"></ellipse>
                <ellipse id="Oval-4" stroke="#FFFFFF" stroke-width="3" fill="#4F4CEE" cx="975.834382" cy="154.5" rx="11.3343825" ry="9"></ellipse>
                <ellipse id="Oval-4" stroke="#FFFFFF" stroke-width="3" fill="#4F4CEE" cx="1138.83438" cy="170.5" rx="11.3343825" ry="9"></ellipse>
                <ellipse id="Oval-4" stroke="#FFFFFF" stroke-width="3" fill="#4F4CEE" cx="1300.83438" cy="147.5" rx="11.3343825" ry="9"></ellipse>
                <ellipse id="Oval-4" stroke="#FFFFFF" stroke-width="3" fill="#4F4CEE" cx="1491.83438" cy="157.5" rx="11.3343825" ry="9"></ellipse>
                <ellipse id="Oval-4" stroke="#FFFFFF" stroke-width="3" fill="#92698B" cx="1723.83438" cy="128.5" rx="11.3343825" ry="9"></ellipse>
            </g>
            <g transform="translate(0.000000, 11.000000)">
                <rect id="Rectangle-3-Copy-10" stroke="#4F4CEE" stroke-width="2" fill="#FFFFFF" transform="translate(26.000000, 190.000000) scale(-1, 1) translate(-26.000000, -190.000000) " x="0" y="0" width="52" height="380"></rect>
                <text id="MOTIVATIONS-AND-THOU" fill="#181818" transform="translate(27.500000, 181.500000) rotate(-90.000000) translate(-27.500000, -181.500000) " font-family="AvenirNext-Regular, Avenir Next" font-size="18" font-weight="normal">
                    <tspan x="-120" y="187">MOTIVATIONS AND THOUGHTS</tspan>
                </text>
            </g>
        </g>
        <g id="Group" transform="translate(135.000000, 145.000000)">
            <g id="Group-2" transform="translate(1392.000000, 1.000000)">
                <polygon id="Rectangle" fill="#4F4CEE" points="231.541502 0 517.106719 0 517.106719 39.0045375 517.106719 80 231.541502 80"></polygon>
                <text id="BETWEEN-VISITS" font-family="Helvetica" font-size="18" font-weight="normal" letter-spacing="-0.389999986" fill="#FFFFFF">
                    <tspan x="271.128224" y="36">VIEWS AND STARTS THE </tspan>
                    <tspan x="338.926056" y="58">ACCESS</tspan>
                </text>
                <polygon id="Rectangle" fill="#4F4CEE" points="0 0 219.565217 0 219.565217 39.0045375 219.565217 80 0 80"></polygon>
                <text id="REGISTERS-OR-SUBSCRI" font-family="Helvetica" font-size="18" font-weight="normal" letter-spacing="-0.389999986" fill="#FFFFFF">
                    <tspan x="43.6553331" y="33">REGISTERS OR </tspan>
                    <tspan x="53.2584972" y="55">SUBSCRIBES</tspan>
                </text>
            </g>
            <polygon id="Rectangle" fill="#4F4CEE" points="926 0 1146 0 1146 39.0045375 1146 80 926 80"></polygon>
            <text id="VIEWS-ON-SOCIAL-MEDI" font-family="Helvetica" font-size="18" font-weight="normal" letter-spacing="-0.389999986" fill="#FFFFFF">
                <tspan x="959.237988" y="38">VIEWS ON SOCIAL </tspan>
                <tspan x="1008.97207" y="60">MEDIA</tspan>
            </text>
            <polygon id="Rectangle" fill="#4F4CEE" points="693 0 913 0 913 39.0045375 913 80 693 80"></polygon>
            <text id="FINDS-NEWS" font-family="Helvetica" font-size="18" font-weight="normal" letter-spacing="-0.389999986" fill="#FFFFFF">
                <tspan x="750.449512" y="45">FINDS NEWS</tspan>
            </text>
            <polygon id="Rectangle" fill="#4F4CEE" points="231 1 451 1 451 40.0045375 451 81 231 81"></polygon>
            <text id="HOW-HE-HEARS-ABOUT-I" font-family="Helvetica" font-size="18" font-weight="normal" letter-spacing="-0.389999986" fill="#FFFFFF">
                <tspan x="270.834141" y="25">HOW HE HEARS </tspan>
                <tspan x="262.262578" y="47">ABOUT IT- ONLINE </tspan>
                <tspan x="265.722187" y="69">SEARCH/ FREIND</tspan>
            </text>
            <polygon id="Rectangle" fill="#4F4CEE" points="0 1 220 1 220 40.0045375 220 81 0 81"></polygon>
            <text id="OPENS-SPCIAL-MEDIA-P" font-family="Helvetica" font-size="18" font-weight="normal" letter-spacing="-0.389999986" fill="#FFFFFF">
                <tspan x="16.8049217" y="38">OPENS SPCIAL MEDIA </tspan>
                <tspan x="62.7201562" y="60">PLATFORM</tspan>
            </text>
            <polygon id="Rectangle" fill="#4F4CEE" points="461 0 681 0 681 39.0045375 681 80 461 80"></polygon>
            <text id="HURDLE" font-family="Helvetica" font-size="18" font-weight="normal" letter-spacing="-0.389999986" fill="#FFFFFF">
                <tspan x="535.163652" y="40">HURDLE</tspan>
            </text>
        </g>
        <rect id="Rectangle-3-Copy-16" stroke="#4F4CEE" stroke-width="2" fill="#FFFFFF" transform="translate(91.000000, 186.000000) scale(-1, 1) translate(-91.000000, -186.000000) " x="67" y="146" width="48" height="80"></rect>
        <text id="STEPS" fill="#181818" transform="translate(92.500000, 188.500000) rotate(-90.000000) translate(-92.500000, -188.500000) " font-family="AvenirNext-Medium, Avenir Next" font-size="18" font-weight="400">
            <tspan x="66" y="194">STEPS</tspan>
        </text>
        <g id="Top-section" transform="translate(67.000000, 49.000000)">
            <path d="M0,56 L1976,56" id="Line" stroke="#C7C7C7" stroke-linecap="square"></path>
            <g id="Title" fill="#181818" font-family="AvenirNext-Medium, Avenir Next" font-size="41" font-weight="400">
                <text id="Journey-Map-of-Herma">
                    <tspan x="0" y="41">Journey Map of Herman</tspan>
                </text>
            </g>
            <text id="Subscribing-AftenPos" fill="#4F4CEE" font-family="Helvetica" font-size="30" font-weight="normal">
                <tspan x="1596" y="42">Subscribing AftenPosten</tspan>
            </text>
        </g>
        <polygon id="Rectangle" fill="#4F4CEE" points="1296 145 1516 145 1516 184.004537 1516 225 1296 225"></polygon>
        <text id="ENGAGES-WITH-AFTENPO" font-family="Helvetica" font-size="18" font-weight="normal" letter-spacing="-0.389999986" fill="#FFFFFF">
            <tspan x="1338.33512" y="170">ENGAGES WITH </tspan>
            <tspan x="1341.63816" y="192">AFTENPOSTEN </tspan>
            <tspan x="1376.28799" y="214">STORY</tspan>
        </text>
    </g>
</svg>